<svg width="308" height="251" viewBox="0 0 308 251" fill="none" xmlns="http://www.w3.org/2000/svg">
<path d="M229.517 46.4513C218.452 27.2082 229.134 10.4425 237.919 2.45216C238.683 1.75706 238.093 0.385875 237.074 0.551555C197.765 6.9388 175.046 33.5548 168.475 46.4513L38.2528 46.4513C16.6035 49.1609 5.82671 65.1971 1.71519 76.7732C0.247207 80.9064 1.44834e-05 85.3288 1.41e-05 89.7149L3.41971e-06 211.883C2.58484 233.624 17.9966 244.473 29.9404 248.836C35.3251 250.804 41.1301 251 46.8629 251L245.431 251C252.176 251 259.062 250.891 265.348 248.447C284.62 240.956 291.825 221.769 293 211.883L293 86.3831C291.525 66.2014 278.204 54.9702 266.978 49.7434C260.734 46.8364 253.721 46.4513 246.834 46.4513L229.517 46.4513Z" fill="white"/>
<path d="M44.2 113C43.5067 113 42.874 112.835 42.302 112.506C41.7473 112.159 41.2967 111.709 40.95 111.154C40.6207 110.582 40.456 109.949 40.456 109.256V98.024C40.456 97.3307 40.6207 96.7067 40.95 96.152C41.2967 95.58 41.7473 95.1293 42.302 94.8C42.874 94.4533 43.5067 94.28 44.2 94.28H59.124V98.05H45.084C44.8067 98.05 44.59 98.128 44.434 98.284C44.278 98.4227 44.2 98.6393 44.2 98.934V108.346C44.2 108.623 44.278 108.84 44.434 108.996C44.59 109.152 44.8067 109.23 45.084 109.23H59.124V113H44.2ZM65.3709 113C64.7122 113 64.1056 112.835 63.5509 112.506C62.9962 112.159 62.5456 111.709 62.1989 111.154C61.8696 110.599 61.7049 109.993 61.7049 109.334V101.586C61.7049 100.927 61.8696 100.321 62.1989 99.766C62.5456 99.2113 62.9962 98.7693 63.5509 98.44C64.1056 98.0933 64.7122 97.92 65.3709 97.92H73.3269C74.0029 97.92 74.6182 98.0933 75.1729 98.44C75.7276 98.7693 76.1696 99.2113 76.4989 99.766C76.8282 100.321 76.9929 100.927 76.9929 101.586V109.334C76.9929 109.993 76.8282 110.599 76.4989 111.154C76.1696 111.709 75.7276 112.159 75.1729 112.506C74.6182 112.835 74.0029 113 73.3269 113H65.3709ZM65.5529 109.308H73.1449C73.1796 109.308 73.2142 109.291 73.2489 109.256C73.2836 109.221 73.3009 109.187 73.3009 109.152V101.768C73.3009 101.733 73.2836 101.699 73.2489 101.664C73.2142 101.629 73.1796 101.612 73.1449 101.612H65.5529C65.5182 101.612 65.4836 101.629 65.4489 101.664C65.4142 101.699 65.3969 101.733 65.3969 101.768V109.152C65.3969 109.187 65.4142 109.221 65.4489 109.256C65.4836 109.291 65.5182 109.308 65.5529 109.308ZM79.7849 113V97.92H98.1929C98.8862 97.92 99.5102 98.0933 100.065 98.44C100.62 98.7693 101.062 99.2113 101.391 99.766C101.72 100.321 101.885 100.927 101.885 101.586V113H98.1929V101.768C98.1929 101.733 98.1755 101.699 98.1409 101.664C98.1235 101.629 98.0889 101.612 98.0369 101.612H92.8629C92.8109 101.612 92.7675 101.629 92.7329 101.664C92.7155 101.699 92.7069 101.733 92.7069 101.768V113H88.9889V101.768C88.9889 101.733 88.9715 101.699 88.9369 101.664C88.9022 101.629 88.8675 101.612 88.8329 101.612H83.6329C83.5982 101.612 83.5635 101.629 83.5289 101.664C83.5115 101.699 83.5029 101.733 83.5029 101.768V113H79.7849ZM103.931 118.98V97.92H115.553C116.229 97.92 116.845 98.0933 117.399 98.44C117.954 98.7693 118.396 99.2113 118.725 99.766C119.055 100.321 119.219 100.927 119.219 101.586V109.334C119.219 109.993 119.055 110.599 118.725 111.154C118.396 111.709 117.954 112.159 117.399 112.506C116.845 112.835 116.229 113 115.553 113H107.623V118.98H103.931ZM107.779 109.308H115.371C115.423 109.308 115.458 109.291 115.475 109.256C115.51 109.221 115.527 109.187 115.527 109.152V101.768C115.527 101.733 115.51 101.699 115.475 101.664C115.458 101.629 115.423 101.612 115.371 101.612H107.779C107.745 101.612 107.71 101.629 107.675 101.664C107.641 101.699 107.623 101.733 107.623 101.768V109.152C107.623 109.187 107.641 109.221 107.675 109.256C107.71 109.291 107.745 109.308 107.779 109.308ZM124.811 113C124.152 113 123.537 112.835 122.965 112.506C122.41 112.159 121.968 111.709 121.639 111.154C121.31 110.599 121.145 109.993 121.145 109.334V103.588H132.741V101.768C132.741 101.733 132.724 101.699 132.689 101.664C132.654 101.629 132.62 101.612 132.585 101.612H121.145V97.92H132.767C133.443 97.92 134.058 98.0933 134.613 98.44C135.168 98.7693 135.61 99.2113 135.939 99.766C136.268 100.321 136.433 100.927 136.433 101.586V113H124.811ZM124.993 109.308H132.741V106.89H124.837V109.152C124.837 109.187 124.854 109.221 124.889 109.256C124.924 109.291 124.958 109.308 124.993 109.308ZM138.996 113V97.92H150.618C151.294 97.92 151.909 98.0933 152.464 98.44C153.018 98.7693 153.46 99.2113 153.79 99.766C154.119 100.321 154.284 100.927 154.284 101.586V113H150.592V101.768C150.592 101.733 150.574 101.699 150.54 101.664C150.522 101.629 150.488 101.612 150.436 101.612H142.844C142.809 101.612 142.774 101.629 142.74 101.664C142.705 101.699 142.688 101.733 142.688 101.768V113H138.996ZM157.047 113V97.92H160.739V113H157.047ZM157.047 96.698V92.98H160.739V96.698H157.047ZM166.553 113C165.894 113 165.287 112.835 164.733 112.506C164.178 112.159 163.727 111.709 163.381 111.154C163.051 110.599 162.887 109.993 162.887 109.334V101.586C162.887 100.927 163.051 100.321 163.381 99.766C163.727 99.2113 164.178 98.7693 164.733 98.44C165.287 98.0933 165.894 97.92 166.553 97.92H174.509C175.185 97.92 175.8 98.0933 176.355 98.44C176.909 98.7693 177.351 99.2113 177.681 99.766C178.01 100.321 178.175 100.927 178.175 101.586V109.334C178.175 109.993 178.01 110.599 177.681 111.154C177.351 111.709 176.909 112.159 176.355 112.506C175.8 112.835 175.185 113 174.509 113H166.553ZM166.735 109.308H174.327C174.361 109.308 174.396 109.291 174.431 109.256C174.465 109.221 174.483 109.187 174.483 109.152V101.768C174.483 101.733 174.465 101.699 174.431 101.664C174.396 101.629 174.361 101.612 174.327 101.612H166.735C166.7 101.612 166.665 101.629 166.631 101.664C166.596 101.699 166.579 101.733 166.579 101.768V109.152C166.579 109.187 166.596 109.221 166.631 109.256C166.665 109.291 166.7 109.308 166.735 109.308ZM180.281 113V97.92H191.903C192.579 97.92 193.194 98.0933 193.749 98.44C194.304 98.7693 194.746 99.2113 195.075 99.766C195.404 100.321 195.569 100.927 195.569 101.586V113H191.877V101.768C191.877 101.733 191.86 101.699 191.825 101.664C191.808 101.629 191.773 101.612 191.721 101.612H184.129C184.094 101.612 184.06 101.629 184.025 101.664C183.99 101.699 183.973 101.733 183.973 101.768V113H180.281ZM206.716 113V94.28H220.964C221.64 94.28 222.255 94.4533 222.81 94.8C223.382 95.1293 223.841 95.58 224.188 96.152C224.534 96.7067 224.708 97.3307 224.708 98.024V101.612C224.708 101.837 224.69 102.054 224.656 102.262C224.621 102.453 224.569 102.643 224.5 102.834C224.777 103.198 225.002 103.597 225.176 104.03C225.349 104.446 225.436 104.871 225.436 105.304V109.256C225.436 109.949 225.262 110.582 224.916 111.154C224.569 111.709 224.11 112.159 223.538 112.506C222.983 112.835 222.359 113 221.666 113H206.716ZM210.616 109.23H221.484C221.536 109.23 221.57 109.221 221.588 109.204C221.622 109.169 221.64 109.126 221.64 109.074V105.512C221.64 105.477 221.622 105.443 221.588 105.408C221.57 105.373 221.536 105.356 221.484 105.356H210.616C210.564 105.356 210.52 105.373 210.486 105.408C210.468 105.443 210.46 105.477 210.46 105.512V109.074C210.46 109.126 210.468 109.169 210.486 109.204C210.52 109.221 210.564 109.23 210.616 109.23ZM210.616 101.586H220.756C220.79 101.586 220.825 101.577 220.86 101.56C220.894 101.525 220.912 101.491 220.912 101.456V98.206C220.912 98.154 220.894 98.1193 220.86 98.102C220.825 98.0673 220.79 98.05 220.756 98.05H210.616C210.564 98.05 210.52 98.0673 210.486 98.102C210.468 98.1193 210.46 98.154 210.46 98.206V101.456C210.46 101.491 210.468 101.525 210.486 101.56C210.52 101.577 210.564 101.586 210.616 101.586ZM231.806 113C231.148 113 230.541 112.835 229.986 112.506C229.432 112.159 228.981 111.709 228.634 111.154C228.305 110.599 228.14 109.993 228.14 109.334V101.586C228.14 100.927 228.305 100.321 228.634 99.766C228.981 99.2113 229.432 98.7693 229.986 98.44C230.541 98.0933 231.148 97.92 231.806 97.92H239.762C240.438 97.92 241.054 98.0933 241.608 98.44C242.163 98.7693 242.605 99.2113 242.934 99.766C243.264 100.321 243.428 100.927 243.428 101.586V109.334C243.428 109.993 243.264 110.599 242.934 111.154C242.605 111.709 242.163 112.159 241.608 112.506C241.054 112.835 240.438 113 239.762 113H231.806ZM231.988 109.308H239.58C239.615 109.308 239.65 109.291 239.684 109.256C239.719 109.221 239.736 109.187 239.736 109.152V101.768C239.736 101.733 239.719 101.699 239.684 101.664C239.65 101.629 239.615 101.612 239.58 101.612H231.988C231.954 101.612 231.919 101.629 231.884 101.664C231.85 101.699 231.832 101.733 231.832 101.768V109.152C231.832 109.187 231.85 109.221 231.884 109.256C231.919 109.291 231.954 109.308 231.988 109.308ZM249.404 113C248.728 113 248.113 112.835 247.558 112.506C247.003 112.159 246.553 111.709 246.206 111.154C245.877 110.599 245.712 109.993 245.712 109.334V93.37H249.404V97.92H255.15V101.612H249.404V109.152C249.404 109.187 249.421 109.221 249.456 109.256C249.491 109.291 249.525 109.308 249.56 109.308H255.15V113H249.404Z" fill="#090136"/>
<rect x="70" y="202" width="79" height="18" rx="3" fill="#00B4C2"/>
<path d="M56.084 139.242V140.278H53.424V149H52.15V140.278H49.476V139.242H56.084ZM57.1762 145.136C57.1762 144.352 57.3349 143.666 57.6522 143.078C57.9696 142.481 58.4036 142.019 58.9542 141.692C59.5142 141.365 60.1349 141.202 60.8162 141.202C61.4882 141.202 62.0716 141.347 62.5662 141.636C63.0609 141.925 63.4296 142.289 63.6722 142.728V141.328H64.9602V149H63.6722V147.572C63.4202 148.02 63.0422 148.393 62.5382 148.692C62.0436 148.981 61.4649 149.126 60.8022 149.126C60.1209 149.126 59.5049 148.958 58.9542 148.622C58.4036 148.286 57.9696 147.815 57.6522 147.208C57.3349 146.601 57.1762 145.911 57.1762 145.136ZM63.6722 145.15C63.6722 144.571 63.5556 144.067 63.3222 143.638C63.0889 143.209 62.7716 142.882 62.3702 142.658C61.9782 142.425 61.5442 142.308 61.0682 142.308C60.5922 142.308 60.1582 142.42 59.7662 142.644C59.3742 142.868 59.0616 143.195 58.8282 143.624C58.5949 144.053 58.4782 144.557 58.4782 145.136C58.4782 145.724 58.5949 146.237 58.8282 146.676C59.0616 147.105 59.3742 147.437 59.7662 147.67C60.1582 147.894 60.5922 148.006 61.0682 148.006C61.5442 148.006 61.9782 147.894 62.3702 147.67C62.7716 147.437 63.0889 147.105 63.3222 146.676C63.5556 146.237 63.6722 145.729 63.6722 145.15ZM68.3872 138.64V149H67.1132V138.64H68.3872ZM74.8425 149L71.8325 145.612V149H70.5585V138.64H71.8325V144.73L74.7865 141.328H76.5645L72.9525 145.15L76.5785 149H74.8425ZM91.716 141.328L89.322 149H88.006L86.158 142.91L84.31 149H82.994L80.586 141.328H81.888L83.652 147.768L85.556 141.328H86.858L88.72 147.782L90.456 141.328H91.716ZM93.6383 140.082C93.3957 140.082 93.1903 139.998 93.0223 139.83C92.8543 139.662 92.7703 139.457 92.7703 139.214C92.7703 138.971 92.8543 138.766 93.0223 138.598C93.1903 138.43 93.3957 138.346 93.6383 138.346C93.8717 138.346 94.0677 138.43 94.2263 138.598C94.3943 138.766 94.4783 138.971 94.4783 139.214C94.4783 139.457 94.3943 139.662 94.2263 139.83C94.0677 139.998 93.8717 140.082 93.6383 140.082ZM94.2543 141.328V149H92.9803V141.328H94.2543ZM97.9797 142.378V146.9C97.9797 147.273 98.059 147.539 98.2177 147.698C98.3763 147.847 98.6517 147.922 99.0437 147.922H99.9817V149H98.8337C98.1243 149 97.5923 148.837 97.2377 148.51C96.883 148.183 96.7057 147.647 96.7057 146.9V142.378H95.7117V141.328H96.7057V139.396H97.9797V141.328H99.9817V142.378H97.9797ZM105.333 141.188C105.912 141.188 106.435 141.314 106.901 141.566C107.368 141.809 107.732 142.177 107.993 142.672C108.264 143.167 108.399 143.769 108.399 144.478V149H107.139V144.66C107.139 143.895 106.948 143.311 106.565 142.91C106.183 142.499 105.66 142.294 104.997 142.294C104.325 142.294 103.789 142.504 103.387 142.924C102.995 143.344 102.799 143.955 102.799 144.758V149H101.525V138.64H102.799V142.42C103.051 142.028 103.397 141.725 103.835 141.51C104.283 141.295 104.783 141.188 105.333 141.188ZM115.767 142.378V146.9C115.767 147.273 115.846 147.539 116.005 147.698C116.163 147.847 116.439 147.922 116.831 147.922H117.769V149H116.621C115.911 149 115.379 148.837 115.025 148.51C114.67 148.183 114.493 147.647 114.493 146.9V142.378H113.499V141.328H114.493V139.396H115.767V141.328H117.769V142.378H115.767ZM123.12 141.188C123.699 141.188 124.222 141.314 124.688 141.566C125.155 141.809 125.519 142.177 125.78 142.672C126.051 143.167 126.186 143.769 126.186 144.478V149H124.926V144.66C124.926 143.895 124.735 143.311 124.352 142.91C123.97 142.499 123.447 142.294 122.784 142.294C122.112 142.294 121.576 142.504 121.174 142.924C120.782 143.344 120.586 143.955 120.586 144.758V149H119.312V138.64H120.586V142.42C120.838 142.028 121.184 141.725 121.622 141.51C122.07 141.295 122.57 141.188 123.12 141.188ZM135.267 144.87C135.267 145.113 135.253 145.369 135.225 145.64H129.093C129.14 146.396 129.397 146.989 129.863 147.418C130.339 147.838 130.913 148.048 131.585 148.048C132.136 148.048 132.593 147.922 132.957 147.67C133.331 147.409 133.592 147.063 133.741 146.634H135.113C134.908 147.371 134.497 147.973 133.881 148.44C133.265 148.897 132.5 149.126 131.585 149.126C130.857 149.126 130.204 148.963 129.625 148.636C129.056 148.309 128.608 147.847 128.281 147.25C127.955 146.643 127.791 145.943 127.791 145.15C127.791 144.357 127.95 143.661 128.267 143.064C128.585 142.467 129.028 142.009 129.597 141.692C130.176 141.365 130.839 141.202 131.585 141.202C132.313 141.202 132.957 141.361 133.517 141.678C134.077 141.995 134.507 142.434 134.805 142.994C135.113 143.545 135.267 144.17 135.267 144.87ZM133.951 144.604C133.951 144.119 133.844 143.703 133.629 143.358C133.415 143.003 133.121 142.737 132.747 142.56C132.383 142.373 131.977 142.28 131.529 142.28C130.885 142.28 130.335 142.485 129.877 142.896C129.429 143.307 129.173 143.876 129.107 144.604H133.951ZM141.956 142.742C142.208 142.303 142.581 141.939 143.076 141.65C143.58 141.351 144.163 141.202 144.826 141.202C145.507 141.202 146.123 141.365 146.674 141.692C147.234 142.019 147.672 142.481 147.99 143.078C148.307 143.666 148.466 144.352 148.466 145.136C148.466 145.911 148.307 146.601 147.99 147.208C147.672 147.815 147.234 148.286 146.674 148.622C146.123 148.958 145.507 149.126 144.826 149.126C144.172 149.126 143.594 148.981 143.09 148.692C142.595 148.393 142.217 148.025 141.956 147.586V152.64H140.682V141.328H141.956V142.742ZM147.164 145.136C147.164 144.557 147.047 144.053 146.814 143.624C146.58 143.195 146.263 142.868 145.862 142.644C145.47 142.42 145.036 142.308 144.56 142.308C144.093 142.308 143.659 142.425 143.258 142.658C142.866 142.882 142.548 143.213 142.306 143.652C142.072 144.081 141.956 144.581 141.956 145.15C141.956 145.729 142.072 146.237 142.306 146.676C142.548 147.105 142.866 147.437 143.258 147.67C143.659 147.894 144.093 148.006 144.56 148.006C145.036 148.006 145.47 147.894 145.862 147.67C146.263 147.437 146.58 147.105 146.814 146.676C147.047 146.237 147.164 145.724 147.164 145.136ZM157.142 144.87C157.142 145.113 157.128 145.369 157.1 145.64H150.968C151.015 146.396 151.272 146.989 151.738 147.418C152.214 147.838 152.788 148.048 153.46 148.048C154.011 148.048 154.468 147.922 154.832 147.67C155.206 147.409 155.467 147.063 155.616 146.634H156.988C156.783 147.371 156.372 147.973 155.756 148.44C155.14 148.897 154.375 149.126 153.46 149.126C152.732 149.126 152.079 148.963 151.5 148.636C150.931 148.309 150.483 147.847 150.156 147.25C149.83 146.643 149.666 145.943 149.666 145.15C149.666 144.357 149.825 143.661 150.142 143.064C150.46 142.467 150.903 142.009 151.472 141.692C152.051 141.365 152.714 141.202 153.46 141.202C154.188 141.202 154.832 141.361 155.392 141.678C155.952 141.995 156.382 142.434 156.68 142.994C156.988 143.545 157.142 144.17 157.142 144.87ZM155.826 144.604C155.826 144.119 155.719 143.703 155.504 143.358C155.29 143.003 154.996 142.737 154.622 142.56C154.258 142.373 153.852 142.28 153.404 142.28C152.76 142.28 152.21 142.485 151.752 142.896C151.304 143.307 151.048 143.876 150.982 144.604H155.826ZM160.098 142.574C160.322 142.135 160.639 141.795 161.05 141.552C161.47 141.309 161.979 141.188 162.576 141.188V142.504H162.24C160.812 142.504 160.098 143.279 160.098 144.828V149H158.824V141.328H160.098V142.574ZM166.763 149.126C166.175 149.126 165.647 149.028 165.181 148.832C164.714 148.627 164.345 148.347 164.075 147.992C163.804 147.628 163.655 147.213 163.627 146.746H164.943C164.98 147.129 165.157 147.441 165.475 147.684C165.801 147.927 166.226 148.048 166.749 148.048C167.234 148.048 167.617 147.941 167.897 147.726C168.177 147.511 168.317 147.241 168.317 146.914C168.317 146.578 168.167 146.331 167.869 146.172C167.57 146.004 167.108 145.841 166.483 145.682C165.913 145.533 165.447 145.383 165.083 145.234C164.728 145.075 164.42 144.847 164.159 144.548C163.907 144.24 163.781 143.839 163.781 143.344C163.781 142.952 163.897 142.593 164.131 142.266C164.364 141.939 164.695 141.683 165.125 141.496C165.554 141.3 166.044 141.202 166.595 141.202C167.444 141.202 168.13 141.417 168.653 141.846C169.175 142.275 169.455 142.863 169.493 143.61H168.219C168.191 143.209 168.027 142.887 167.729 142.644C167.439 142.401 167.047 142.28 166.553 142.28C166.095 142.28 165.731 142.378 165.461 142.574C165.19 142.77 165.055 143.027 165.055 143.344C165.055 143.596 165.134 143.806 165.293 143.974C165.461 144.133 165.666 144.263 165.909 144.366C166.161 144.459 166.506 144.567 166.945 144.688C167.495 144.837 167.943 144.987 168.289 145.136C168.634 145.276 168.928 145.491 169.171 145.78C169.423 146.069 169.553 146.447 169.563 146.914C169.563 147.334 169.446 147.712 169.213 148.048C168.979 148.384 168.648 148.65 168.219 148.846C167.799 149.033 167.313 149.126 166.763 149.126ZM174.707 149.126C173.989 149.126 173.335 148.963 172.747 148.636C172.169 148.309 171.711 147.847 171.375 147.25C171.049 146.643 170.885 145.943 170.885 145.15C170.885 144.366 171.053 143.675 171.389 143.078C171.735 142.471 172.201 142.009 172.789 141.692C173.377 141.365 174.035 141.202 174.763 141.202C175.491 141.202 176.149 141.365 176.737 141.692C177.325 142.009 177.787 142.467 178.123 143.064C178.469 143.661 178.641 144.357 178.641 145.15C178.641 145.943 178.464 146.643 178.109 147.25C177.764 147.847 177.293 148.309 176.695 148.636C176.098 148.963 175.435 149.126 174.707 149.126ZM174.707 148.006C175.165 148.006 175.594 147.899 175.995 147.684C176.397 147.469 176.719 147.147 176.961 146.718C177.213 146.289 177.339 145.766 177.339 145.15C177.339 144.534 177.218 144.011 176.975 143.582C176.733 143.153 176.415 142.835 176.023 142.63C175.631 142.415 175.207 142.308 174.749 142.308C174.283 142.308 173.853 142.415 173.461 142.63C173.079 142.835 172.771 143.153 172.537 143.582C172.304 144.011 172.187 144.534 172.187 145.15C172.187 145.775 172.299 146.303 172.523 146.732C172.757 147.161 173.065 147.483 173.447 147.698C173.83 147.903 174.25 148.006 174.707 148.006ZM184.054 141.188C184.988 141.188 185.744 141.473 186.322 142.042C186.901 142.602 187.19 143.414 187.19 144.478V149H185.93V144.66C185.93 143.895 185.739 143.311 185.356 142.91C184.974 142.499 184.451 142.294 183.788 142.294C183.116 142.294 182.58 142.504 182.178 142.924C181.786 143.344 181.59 143.955 181.59 144.758V149H180.316V141.328H181.59V142.42C181.842 142.028 182.183 141.725 182.612 141.51C183.051 141.295 183.532 141.188 184.054 141.188ZM188.795 145.136C188.795 144.352 188.954 143.666 189.271 143.078C189.589 142.481 190.023 142.019 190.573 141.692C191.133 141.365 191.754 141.202 192.435 141.202C193.107 141.202 193.691 141.347 194.185 141.636C194.68 141.925 195.049 142.289 195.291 142.728V141.328H196.579V149H195.291V147.572C195.039 148.02 194.661 148.393 194.157 148.692C193.663 148.981 193.084 149.126 192.421 149.126C191.74 149.126 191.124 148.958 190.573 148.622C190.023 148.286 189.589 147.815 189.271 147.208C188.954 146.601 188.795 145.911 188.795 145.136ZM195.291 145.15C195.291 144.571 195.175 144.067 194.941 143.638C194.708 143.209 194.391 142.882 193.989 142.658C193.597 142.425 193.163 142.308 192.687 142.308C192.211 142.308 191.777 142.42 191.385 142.644C190.993 142.868 190.681 143.195 190.447 143.624C190.214 144.053 190.097 144.557 190.097 145.136C190.097 145.724 190.214 146.237 190.447 146.676C190.681 147.105 190.993 147.437 191.385 147.67C191.777 147.894 192.211 148.006 192.687 148.006C193.163 148.006 193.597 147.894 193.989 147.67C194.391 147.437 194.708 147.105 194.941 146.676C195.175 146.237 195.291 145.729 195.291 145.15ZM200.006 138.64V149H198.732V138.64H200.006ZM202.836 140.082C202.593 140.082 202.388 139.998 202.22 139.83C202.052 139.662 201.968 139.457 201.968 139.214C201.968 138.971 202.052 138.766 202.22 138.598C202.388 138.43 202.593 138.346 202.836 138.346C203.069 138.346 203.265 138.43 203.424 138.598C203.592 138.766 203.676 138.971 203.676 139.214C203.676 139.457 203.592 139.662 203.424 139.83C203.265 139.998 203.069 140.082 202.836 140.082ZM203.452 141.328V149H202.178V141.328H203.452ZM208.339 149.126C207.751 149.126 207.224 149.028 206.757 148.832C206.29 148.627 205.922 148.347 205.651 147.992C205.38 147.628 205.231 147.213 205.203 146.746H206.519C206.556 147.129 206.734 147.441 207.051 147.684C207.378 147.927 207.802 148.048 208.325 148.048C208.81 148.048 209.193 147.941 209.473 147.726C209.753 147.511 209.893 147.241 209.893 146.914C209.893 146.578 209.744 146.331 209.445 146.172C209.146 146.004 208.684 145.841 208.059 145.682C207.49 145.533 207.023 145.383 206.659 145.234C206.304 145.075 205.996 144.847 205.735 144.548C205.483 144.24 205.357 143.839 205.357 143.344C205.357 142.952 205.474 142.593 205.707 142.266C205.94 141.939 206.272 141.683 206.701 141.496C207.13 141.3 207.62 141.202 208.171 141.202C209.02 141.202 209.706 141.417 210.229 141.846C210.752 142.275 211.032 142.863 211.069 143.61H209.795C209.767 143.209 209.604 142.887 209.305 142.644C209.016 142.401 208.624 142.28 208.129 142.28C207.672 142.28 207.308 142.378 207.037 142.574C206.766 142.77 206.631 143.027 206.631 143.344C206.631 143.596 206.71 143.806 206.869 143.974C207.037 144.133 207.242 144.263 207.485 144.366C207.737 144.459 208.082 144.567 208.521 144.688C209.072 144.837 209.52 144.987 209.865 145.136C210.21 145.276 210.504 145.491 210.747 145.78C210.999 146.069 211.13 146.447 211.139 146.914C211.139 147.334 211.022 147.712 210.789 148.048C210.556 148.384 210.224 148.65 209.795 148.846C209.375 149.033 208.89 149.126 208.339 149.126ZM219.937 144.87C219.937 145.113 219.923 145.369 219.895 145.64H213.763C213.81 146.396 214.067 146.989 214.533 147.418C215.009 147.838 215.583 148.048 216.255 148.048C216.806 148.048 217.263 147.922 217.627 147.67C218.001 147.409 218.262 147.063 218.411 146.634H219.783C219.578 147.371 219.167 147.973 218.551 148.44C217.935 148.897 217.17 149.126 216.255 149.126C215.527 149.126 214.874 148.963 214.295 148.636C213.726 148.309 213.278 147.847 212.951 147.25C212.625 146.643 212.461 145.943 212.461 145.15C212.461 144.357 212.62 143.661 212.937 143.064C213.255 142.467 213.698 142.009 214.267 141.692C214.846 141.365 215.509 141.202 216.255 141.202C216.983 141.202 217.627 141.361 218.187 141.678C218.747 141.995 219.177 142.434 219.475 142.994C219.783 143.545 219.937 144.17 219.937 144.87ZM218.621 144.604C218.621 144.119 218.514 143.703 218.299 143.358C218.085 143.003 217.791 142.737 217.417 142.56C217.053 142.373 216.647 142.28 216.199 142.28C215.555 142.28 215.005 142.485 214.547 142.896C214.099 143.307 213.843 143.876 213.777 144.604H218.621ZM221.143 145.136C221.143 144.352 221.302 143.666 221.619 143.078C221.936 142.481 222.37 142.019 222.921 141.692C223.481 141.365 224.106 141.202 224.797 141.202C225.394 141.202 225.95 141.342 226.463 141.622C226.976 141.893 227.368 142.252 227.639 142.7V138.64H228.927V149H227.639V147.558C227.387 148.015 227.014 148.393 226.519 148.692C226.024 148.981 225.446 149.126 224.783 149.126C224.102 149.126 223.481 148.958 222.921 148.622C222.37 148.286 221.936 147.815 221.619 147.208C221.302 146.601 221.143 145.911 221.143 145.136ZM227.639 145.15C227.639 144.571 227.522 144.067 227.289 143.638C227.056 143.209 226.738 142.882 226.337 142.658C225.945 142.425 225.511 142.308 225.035 142.308C224.559 142.308 224.125 142.42 223.733 142.644C223.341 142.868 223.028 143.195 222.795 143.624C222.562 144.053 222.445 144.557 222.445 145.136C222.445 145.724 222.562 146.237 222.795 146.676C223.028 147.105 223.341 147.437 223.733 147.67C224.125 147.894 224.559 148.006 225.035 148.006C225.511 148.006 225.945 147.894 226.337 147.67C226.738 147.437 227.056 147.105 227.289 146.676C227.522 146.237 227.639 145.729 227.639 145.15ZM49.602 166.136C49.602 165.352 49.7607 164.666 50.078 164.078C50.3953 163.481 50.8293 163.019 51.38 162.692C51.94 162.365 52.5607 162.202 53.242 162.202C53.914 162.202 54.4973 162.347 54.992 162.636C55.4867 162.925 55.8553 163.289 56.098 163.728V162.328H57.386V170H56.098V168.572C55.846 169.02 55.468 169.393 54.964 169.692C54.4693 169.981 53.8907 170.126 53.228 170.126C52.5467 170.126 51.9307 169.958 51.38 169.622C50.8293 169.286 50.3953 168.815 50.078 168.208C49.7607 167.601 49.602 166.911 49.602 166.136ZM56.098 166.15C56.098 165.571 55.9813 165.067 55.748 164.638C55.5147 164.209 55.1973 163.882 54.796 163.658C54.404 163.425 53.97 163.308 53.494 163.308C53.018 163.308 52.584 163.42 52.192 163.644C51.8 163.868 51.4873 164.195 51.254 164.624C51.0207 165.053 50.904 165.557 50.904 166.136C50.904 166.724 51.0207 167.237 51.254 167.676C51.4873 168.105 51.8 168.437 52.192 168.67C52.584 168.894 53.018 169.006 53.494 169.006C53.97 169.006 54.404 168.894 54.796 168.67C55.1973 168.437 55.5147 168.105 55.748 167.676C55.9813 167.237 56.098 166.729 56.098 166.15ZM62.2549 170.126C61.6669 170.126 61.1396 170.028 60.6729 169.832C60.2063 169.627 59.8376 169.347 59.5669 168.992C59.2963 168.628 59.1469 168.213 59.1189 167.746H60.4349C60.4723 168.129 60.6496 168.441 60.9669 168.684C61.2936 168.927 61.7183 169.048 62.2409 169.048C62.7263 169.048 63.1089 168.941 63.3889 168.726C63.6689 168.511 63.8089 168.241 63.8089 167.914C63.8089 167.578 63.6596 167.331 63.3609 167.172C63.0623 167.004 62.6003 166.841 61.9749 166.682C61.4056 166.533 60.9389 166.383 60.5749 166.234C60.2203 166.075 59.9123 165.847 59.6509 165.548C59.3989 165.24 59.2729 164.839 59.2729 164.344C59.2729 163.952 59.3896 163.593 59.6229 163.266C59.8563 162.939 60.1876 162.683 60.6169 162.496C61.0463 162.3 61.5363 162.202 62.0869 162.202C62.9363 162.202 63.6223 162.417 64.1449 162.846C64.6676 163.275 64.9476 163.863 64.9849 164.61H63.7109C63.6829 164.209 63.5196 163.887 63.2209 163.644C62.9316 163.401 62.5396 163.28 62.0449 163.28C61.5876 163.28 61.2236 163.378 60.9529 163.574C60.6823 163.77 60.5469 164.027 60.5469 164.344C60.5469 164.596 60.6263 164.806 60.7849 164.974C60.9529 165.133 61.1583 165.263 61.4009 165.366C61.6529 165.459 61.9983 165.567 62.4369 165.688C62.9876 165.837 63.4356 165.987 63.7809 166.136C64.1263 166.276 64.4203 166.491 64.6629 166.78C64.9149 167.069 65.0456 167.447 65.0549 167.914C65.0549 168.334 64.9383 168.712 64.7049 169.048C64.4716 169.384 64.1403 169.65 63.7109 169.846C63.2909 170.033 62.8056 170.126 62.2549 170.126ZM69.5694 170.126C68.9814 170.126 68.4541 170.028 67.9874 169.832C67.5207 169.627 67.1521 169.347 66.8814 168.992C66.6107 168.628 66.4614 168.213 66.4334 167.746H67.7494C67.7867 168.129 67.9641 168.441 68.2814 168.684C68.6081 168.927 69.0327 169.048 69.5554 169.048C70.0407 169.048 70.4234 168.941 70.7034 168.726C70.9834 168.511 71.1234 168.241 71.1234 167.914C71.1234 167.578 70.9741 167.331 70.6754 167.172C70.3767 167.004 69.9147 166.841 69.2894 166.682C68.7201 166.533 68.2534 166.383 67.8894 166.234C67.5347 166.075 67.2267 165.847 66.9654 165.548C66.7134 165.24 66.5874 164.839 66.5874 164.344C66.5874 163.952 66.7041 163.593 66.9374 163.266C67.1707 162.939 67.5021 162.683 67.9314 162.496C68.3607 162.3 68.8507 162.202 69.4014 162.202C70.2507 162.202 70.9367 162.417 71.4594 162.846C71.9821 163.275 72.2621 163.863 72.2994 164.61H71.0254C70.9974 164.209 70.8341 163.887 70.5354 163.644C70.2461 163.401 69.8541 163.28 69.3594 163.28C68.9021 163.28 68.5381 163.378 68.2674 163.574C67.9967 163.77 67.8614 164.027 67.8614 164.344C67.8614 164.596 67.9407 164.806 68.0994 164.974C68.2674 165.133 68.4727 165.263 68.7154 165.366C68.9674 165.459 69.3127 165.567 69.7514 165.688C70.3021 165.837 70.7501 165.987 71.0954 166.136C71.4407 166.276 71.7347 166.491 71.9774 166.78C72.2294 167.069 72.3601 167.447 72.3694 167.914C72.3694 168.334 72.2527 168.712 72.0194 169.048C71.7861 169.384 71.4547 169.65 71.0254 169.846C70.6054 170.033 70.1201 170.126 69.5694 170.126ZM74.8258 161.082C74.5832 161.082 74.3778 160.998 74.2098 160.83C74.0418 160.662 73.9578 160.457 73.9578 160.214C73.9578 159.971 74.0418 159.766 74.2098 159.598C74.3778 159.43 74.5832 159.346 74.8258 159.346C75.0592 159.346 75.2552 159.43 75.4138 159.598C75.5818 159.766 75.6658 159.971 75.6658 160.214C75.6658 160.457 75.5818 160.662 75.4138 160.83C75.2552 160.998 75.0592 161.082 74.8258 161.082ZM75.4418 162.328V170H74.1678V162.328H75.4418ZM80.3292 170.126C79.7412 170.126 79.2138 170.028 78.7472 169.832C78.2805 169.627 77.9118 169.347 77.6412 168.992C77.3705 168.628 77.2212 168.213 77.1932 167.746H78.5092C78.5465 168.129 78.7238 168.441 79.0412 168.684C79.3678 168.927 79.7925 169.048 80.3152 169.048C80.8005 169.048 81.1832 168.941 81.4632 168.726C81.7432 168.511 81.8832 168.241 81.8832 167.914C81.8832 167.578 81.7338 167.331 81.4352 167.172C81.1365 167.004 80.6745 166.841 80.0492 166.682C79.4798 166.533 79.0132 166.383 78.6492 166.234C78.2945 166.075 77.9865 165.847 77.7252 165.548C77.4732 165.24 77.3472 164.839 77.3472 164.344C77.3472 163.952 77.4638 163.593 77.6972 163.266C77.9305 162.939 78.2618 162.683 78.6912 162.496C79.1205 162.3 79.6105 162.202 80.1612 162.202C81.0105 162.202 81.6965 162.417 82.2192 162.846C82.7418 163.275 83.0218 163.863 83.0592 164.61H81.7852C81.7572 164.209 81.5938 163.887 81.2952 163.644C81.0058 163.401 80.6138 163.28 80.1192 163.28C79.6618 163.28 79.2978 163.378 79.0272 163.574C78.7565 163.77 78.6212 164.027 78.6212 164.344C78.6212 164.596 78.7005 164.806 78.8592 164.974C79.0272 165.133 79.2325 165.263 79.4752 165.366C79.7272 165.459 80.0725 165.567 80.5112 165.688C81.0618 165.837 81.5098 165.987 81.8552 166.136C82.2005 166.276 82.4945 166.491 82.7372 166.78C82.9892 167.069 83.1198 167.447 83.1292 167.914C83.1292 168.334 83.0125 168.712 82.7792 169.048C82.5458 169.384 82.2145 169.65 81.7852 169.846C81.3652 170.033 80.8798 170.126 80.3292 170.126ZM86.4816 163.378V167.9C86.4816 168.273 86.5609 168.539 86.7196 168.698C86.8783 168.847 87.1536 168.922 87.5456 168.922H88.4836V170H87.3356C86.6263 170 86.0943 169.837 85.7396 169.51C85.3849 169.183 85.2076 168.647 85.2076 167.9V163.378H84.2136V162.328H85.2076V160.396H86.4816V162.328H88.4836V163.378H86.4816ZM89.5512 166.136C89.5512 165.352 89.7099 164.666 90.0272 164.078C90.3446 163.481 90.7786 163.019 91.3292 162.692C91.8892 162.365 92.5099 162.202 93.1912 162.202C93.8632 162.202 94.4466 162.347 94.9412 162.636C95.4359 162.925 95.8046 163.289 96.0472 163.728V162.328H97.3352V170H96.0472V168.572C95.7952 169.02 95.4172 169.393 94.9132 169.692C94.4186 169.981 93.8399 170.126 93.1772 170.126C92.4959 170.126 91.8799 169.958 91.3292 169.622C90.7786 169.286 90.3446 168.815 90.0272 168.208C89.7099 167.601 89.5512 166.911 89.5512 166.136ZM96.0472 166.15C96.0472 165.571 95.9306 165.067 95.6972 164.638C95.4639 164.209 95.1466 163.882 94.7452 163.658C94.3532 163.425 93.9192 163.308 93.4432 163.308C92.9672 163.308 92.5332 163.42 92.1412 163.644C91.7492 163.868 91.4366 164.195 91.2032 164.624C90.9699 165.053 90.8532 165.557 90.8532 166.136C90.8532 166.724 90.9699 167.237 91.2032 167.676C91.4366 168.105 91.7492 168.437 92.1412 168.67C92.5332 168.894 92.9672 169.006 93.4432 169.006C93.9192 169.006 94.3532 168.894 94.7452 168.67C95.1466 168.437 95.4639 168.105 95.6972 167.676C95.9306 167.237 96.0472 166.729 96.0472 166.15ZM103.226 162.188C104.159 162.188 104.915 162.473 105.494 163.042C106.073 163.602 106.362 164.414 106.362 165.478V170H105.102V165.66C105.102 164.895 104.911 164.311 104.528 163.91C104.145 163.499 103.623 163.294 102.96 163.294C102.288 163.294 101.751 163.504 101.35 163.924C100.958 164.344 100.762 164.955 100.762 165.758V170H99.4882V162.328H100.762V163.42C101.014 163.028 101.355 162.725 101.784 162.51C102.223 162.295 102.703 162.188 103.226 162.188ZM109.997 163.378V167.9C109.997 168.273 110.077 168.539 110.235 168.698C110.394 168.847 110.669 168.922 111.061 168.922H111.999V170H110.851C110.142 170 109.61 169.837 109.255 169.51C108.901 169.183 108.723 168.647 108.723 167.9V163.378H107.729V162.328H108.723V160.396H109.997V162.328H111.999V163.378H109.997Z" fill="#090136"/>
<path d="M57.596 185.242V195H56.322V190.576H51.352V195H50.078V185.242H51.352V189.526H56.322V185.242H57.596ZM59.2954 191.136C59.2954 190.352 59.454 189.666 59.7714 189.078C60.0887 188.481 60.5227 188.019 61.0734 187.692C61.6334 187.365 62.254 187.202 62.9354 187.202C63.6074 187.202 64.1907 187.347 64.6854 187.636C65.18 187.925 65.5487 188.289 65.7914 188.728V187.328H67.0794V195H65.7914V193.572C65.5394 194.02 65.1614 194.393 64.6574 194.692C64.1627 194.981 63.584 195.126 62.9214 195.126C62.24 195.126 61.624 194.958 61.0734 194.622C60.5227 194.286 60.0887 193.815 59.7714 193.208C59.454 192.601 59.2954 191.911 59.2954 191.136ZM65.7914 191.15C65.7914 190.571 65.6747 190.067 65.4414 189.638C65.208 189.209 64.8907 188.882 64.4894 188.658C64.0974 188.425 63.6634 188.308 63.1874 188.308C62.7114 188.308 62.2774 188.42 61.8854 188.644C61.4934 188.868 61.1807 189.195 60.9474 189.624C60.714 190.053 60.5974 190.557 60.5974 191.136C60.5974 191.724 60.714 192.237 60.9474 192.676C61.1807 193.105 61.4934 193.437 61.8854 193.67C62.2774 193.894 62.7114 194.006 63.1874 194.006C63.6634 194.006 64.0974 193.894 64.4894 193.67C64.8907 193.437 65.208 193.105 65.4414 192.676C65.6747 192.237 65.7914 191.729 65.7914 191.15ZM72.0883 193.824L74.4683 187.328H75.8263L72.8163 195H71.3323L68.3223 187.328H69.6943L72.0883 193.824ZM84.08 190.87C84.08 191.113 84.066 191.369 84.038 191.64H77.906C77.9526 192.396 78.2093 192.989 78.676 193.418C79.152 193.838 79.726 194.048 80.398 194.048C80.9486 194.048 81.406 193.922 81.77 193.67C82.1433 193.409 82.4046 193.063 82.554 192.634H83.926C83.7206 193.371 83.31 193.973 82.694 194.44C82.078 194.897 81.3126 195.126 80.398 195.126C79.67 195.126 79.0166 194.963 78.438 194.636C77.8686 194.309 77.4206 193.847 77.094 193.25C76.7673 192.643 76.604 191.943 76.604 191.15C76.604 190.357 76.7626 189.661 77.08 189.064C77.3973 188.467 77.8406 188.009 78.41 187.692C78.9886 187.365 79.6513 187.202 80.398 187.202C81.126 187.202 81.77 187.361 82.33 187.678C82.89 187.995 83.3193 188.434 83.618 188.994C83.926 189.545 84.08 190.17 84.08 190.87ZM82.764 190.604C82.764 190.119 82.6566 189.703 82.442 189.358C82.2273 189.003 81.9333 188.737 81.56 188.56C81.196 188.373 80.79 188.28 80.342 188.28C79.698 188.28 79.1473 188.485 78.69 188.896C78.242 189.307 77.9853 189.876 77.92 190.604H82.764ZM89.018 191.136C89.018 190.352 89.1767 189.666 89.494 189.078C89.8113 188.481 90.2453 188.019 90.796 187.692C91.356 187.365 91.9767 187.202 92.658 187.202C93.33 187.202 93.9133 187.347 94.408 187.636C94.9027 187.925 95.2713 188.289 95.514 188.728V187.328H96.802V195H95.514V193.572C95.262 194.02 94.884 194.393 94.38 194.692C93.8853 194.981 93.3067 195.126 92.644 195.126C91.9627 195.126 91.3467 194.958 90.796 194.622C90.2453 194.286 89.8113 193.815 89.494 193.208C89.1767 192.601 89.018 191.911 89.018 191.136ZM95.514 191.15C95.514 190.571 95.3973 190.067 95.164 189.638C94.9307 189.209 94.6133 188.882 94.212 188.658C93.82 188.425 93.386 188.308 92.91 188.308C92.434 188.308 92 188.42 91.608 188.644C91.216 188.868 90.9033 189.195 90.67 189.624C90.4367 190.053 90.32 190.557 90.32 191.136C90.32 191.724 90.4367 192.237 90.67 192.676C90.9033 193.105 91.216 193.437 91.608 193.67C92 193.894 92.434 194.006 92.91 194.006C93.386 194.006 93.82 193.894 94.212 193.67C94.6133 193.437 94.9307 193.105 95.164 192.676C95.3973 192.237 95.514 191.729 95.514 191.15ZM102.211 191.136C102.211 190.352 102.37 189.666 102.687 189.078C103.005 188.481 103.439 188.019 103.989 187.692C104.549 187.365 105.175 187.202 105.865 187.202C106.463 187.202 107.018 187.342 107.531 187.622C108.045 187.893 108.437 188.252 108.707 188.7V184.64H109.995V195H108.707V193.558C108.455 194.015 108.082 194.393 107.587 194.692C107.093 194.981 106.514 195.126 105.851 195.126C105.17 195.126 104.549 194.958 103.989 194.622C103.439 194.286 103.005 193.815 102.687 193.208C102.37 192.601 102.211 191.911 102.211 191.136ZM108.707 191.15C108.707 190.571 108.591 190.067 108.357 189.638C108.124 189.209 107.807 188.882 107.405 188.658C107.013 188.425 106.579 188.308 106.103 188.308C105.627 188.308 105.193 188.42 104.801 188.644C104.409 188.868 104.097 189.195 103.863 189.624C103.63 190.053 103.513 190.557 103.513 191.136C103.513 191.724 103.63 192.237 103.863 192.676C104.097 193.105 104.409 193.437 104.801 193.67C105.193 193.894 105.627 194.006 106.103 194.006C106.579 194.006 107.013 193.894 107.405 193.67C107.807 193.437 108.124 193.105 108.357 192.676C108.591 192.237 108.707 191.729 108.707 191.15ZM112.806 186.082C112.564 186.082 112.358 185.998 112.19 185.83C112.022 185.662 111.938 185.457 111.938 185.214C111.938 184.971 112.022 184.766 112.19 184.598C112.358 184.43 112.564 184.346 112.806 184.346C113.04 184.346 113.236 184.43 113.394 184.598C113.562 184.766 113.646 184.971 113.646 185.214C113.646 185.457 113.562 185.662 113.394 185.83C113.236 185.998 113.04 186.082 112.806 186.082ZM113.422 187.328V195H112.148V187.328H113.422ZM118.758 187.202C119.42 187.202 119.999 187.347 120.494 187.636C120.998 187.925 121.371 188.289 121.614 188.728V187.328H122.902V195.168C122.902 195.868 122.752 196.489 122.454 197.03C122.155 197.581 121.726 198.01 121.166 198.318C120.615 198.626 119.971 198.78 119.234 198.78C118.226 198.78 117.386 198.542 116.714 198.066C116.042 197.59 115.645 196.941 115.524 196.12H116.784C116.924 196.587 117.213 196.96 117.652 197.24C118.09 197.529 118.618 197.674 119.234 197.674C119.934 197.674 120.503 197.455 120.942 197.016C121.39 196.577 121.614 195.961 121.614 195.168V193.558C121.362 194.006 120.988 194.379 120.494 194.678C119.999 194.977 119.42 195.126 118.758 195.126C118.076 195.126 117.456 194.958 116.896 194.622C116.345 194.286 115.911 193.815 115.594 193.208C115.276 192.601 115.118 191.911 115.118 191.136C115.118 190.352 115.276 189.666 115.594 189.078C115.911 188.481 116.345 188.019 116.896 187.692C117.456 187.365 118.076 187.202 118.758 187.202ZM121.614 191.15C121.614 190.571 121.497 190.067 121.264 189.638C121.03 189.209 120.713 188.882 120.312 188.658C119.92 188.425 119.486 188.308 119.01 188.308C118.534 188.308 118.1 188.42 117.708 188.644C117.316 188.868 117.003 189.195 116.77 189.624C116.536 190.053 116.42 190.557 116.42 191.136C116.42 191.724 116.536 192.237 116.77 192.676C117.003 193.105 117.316 193.437 117.708 193.67C118.1 193.894 118.534 194.006 119.01 194.006C119.486 194.006 119.92 193.894 120.312 193.67C120.713 193.437 121.03 193.105 121.264 192.676C121.497 192.237 121.614 191.729 121.614 191.15ZM125.713 186.082C125.47 186.082 125.265 185.998 125.097 185.83C124.929 185.662 124.845 185.457 124.845 185.214C124.845 184.971 124.929 184.766 125.097 184.598C125.265 184.43 125.47 184.346 125.713 184.346C125.946 184.346 126.142 184.43 126.301 184.598C126.469 184.766 126.553 184.971 126.553 185.214C126.553 185.457 126.469 185.662 126.301 185.83C126.142 185.998 125.946 186.082 125.713 186.082ZM126.329 187.328V195H125.055V187.328H126.329ZM130.054 188.378V192.9C130.054 193.273 130.133 193.539 130.292 193.698C130.451 193.847 130.726 193.922 131.118 193.922H132.056V195H130.908C130.199 195 129.667 194.837 129.312 194.51C128.957 194.183 128.78 193.647 128.78 192.9V188.378H127.786V187.328H128.78V185.396H130.054V187.328H132.056V188.378H130.054ZM133.123 191.136C133.123 190.352 133.282 189.666 133.599 189.078C133.917 188.481 134.351 188.019 134.901 187.692C135.461 187.365 136.082 187.202 136.763 187.202C137.435 187.202 138.019 187.347 138.513 187.636C139.008 187.925 139.377 188.289 139.619 188.728V187.328H140.907V195H139.619V193.572C139.367 194.02 138.989 194.393 138.485 194.692C137.991 194.981 137.412 195.126 136.749 195.126C136.068 195.126 135.452 194.958 134.901 194.622C134.351 194.286 133.917 193.815 133.599 193.208C133.282 192.601 133.123 191.911 133.123 191.136ZM139.619 191.15C139.619 190.571 139.503 190.067 139.269 189.638C139.036 189.209 138.719 188.882 138.317 188.658C137.925 188.425 137.491 188.308 137.015 188.308C136.539 188.308 136.105 188.42 135.713 188.644C135.321 188.868 135.009 189.195 134.775 189.624C134.542 190.053 134.425 190.557 134.425 191.136C134.425 191.724 134.542 192.237 134.775 192.676C135.009 193.105 135.321 193.437 135.713 193.67C136.105 193.894 136.539 194.006 137.015 194.006C137.491 194.006 137.925 193.894 138.317 193.67C138.719 193.437 139.036 193.105 139.269 192.676C139.503 192.237 139.619 191.729 139.619 191.15ZM144.334 184.64V195H143.06V184.64H144.334ZM153.36 188.378H151.75V195H150.476V188.378H149.482V187.328H150.476V186.782C150.476 185.923 150.695 185.298 151.134 184.906C151.582 184.505 152.296 184.304 153.276 184.304V185.368C152.716 185.368 152.319 185.48 152.086 185.704C151.862 185.919 151.75 186.278 151.75 186.782V187.328H153.36V188.378ZM156.12 188.574C156.344 188.135 156.661 187.795 157.072 187.552C157.492 187.309 158 187.188 158.598 187.188V188.504H158.262C156.834 188.504 156.12 189.279 156.12 190.828V195H154.846V187.328H156.12V188.574ZM160.726 186.082C160.484 186.082 160.278 185.998 160.11 185.83C159.942 185.662 159.858 185.457 159.858 185.214C159.858 184.971 159.942 184.766 160.11 184.598C160.278 184.43 160.484 184.346 160.726 184.346C160.96 184.346 161.156 184.43 161.314 184.598C161.482 184.766 161.566 184.971 161.566 185.214C161.566 185.457 161.482 185.662 161.314 185.83C161.156 185.998 160.96 186.082 160.726 186.082ZM161.342 187.328V195H160.068V187.328H161.342ZM170.514 190.87C170.514 191.113 170.5 191.369 170.472 191.64H164.34C164.386 192.396 164.643 192.989 165.11 193.418C165.586 193.838 166.16 194.048 166.832 194.048C167.382 194.048 167.84 193.922 168.204 193.67C168.577 193.409 168.838 193.063 168.988 192.634H170.36C170.154 193.371 169.744 193.973 169.128 194.44C168.512 194.897 167.746 195.126 166.832 195.126C166.104 195.126 165.45 194.963 164.872 194.636C164.302 194.309 163.854 193.847 163.528 193.25C163.201 192.643 163.038 191.943 163.038 191.15C163.038 190.357 163.196 189.661 163.514 189.064C163.831 188.467 164.274 188.009 164.844 187.692C165.422 187.365 166.085 187.202 166.832 187.202C167.56 187.202 168.204 187.361 168.764 187.678C169.324 187.995 169.753 188.434 170.052 188.994C170.36 189.545 170.514 190.17 170.514 190.87ZM169.198 190.604C169.198 190.119 169.09 189.703 168.876 189.358C168.661 189.003 168.367 188.737 167.994 188.56C167.63 188.373 167.224 188.28 166.776 188.28C166.132 188.28 165.581 188.485 165.124 188.896C164.676 189.307 164.419 189.876 164.354 190.604H169.198ZM175.933 187.188C176.867 187.188 177.623 187.473 178.201 188.042C178.78 188.602 179.069 189.414 179.069 190.478V195H177.809V190.66C177.809 189.895 177.618 189.311 177.235 188.91C176.853 188.499 176.33 188.294 175.667 188.294C174.995 188.294 174.459 188.504 174.057 188.924C173.665 189.344 173.469 189.955 173.469 190.758V195H172.195V187.328H173.469V188.42C173.721 188.028 174.062 187.725 174.491 187.51C174.93 187.295 175.411 187.188 175.933 187.188ZM180.674 191.136C180.674 190.352 180.833 189.666 181.15 189.078C181.468 188.481 181.902 188.019 182.452 187.692C183.012 187.365 183.638 187.202 184.328 187.202C184.926 187.202 185.481 187.342 185.994 187.622C186.508 187.893 186.9 188.252 187.17 188.7V184.64H188.458V195H187.17V193.558C186.918 194.015 186.545 194.393 186.05 194.692C185.556 194.981 184.977 195.126 184.314 195.126C183.633 195.126 183.012 194.958 182.452 194.622C181.902 194.286 181.468 193.815 181.15 193.208C180.833 192.601 180.674 191.911 180.674 191.136ZM187.17 191.15C187.17 190.571 187.054 190.067 186.82 189.638C186.587 189.209 186.27 188.882 185.868 188.658C185.476 188.425 185.042 188.308 184.566 188.308C184.09 188.308 183.656 188.42 183.264 188.644C182.872 188.868 182.56 189.195 182.326 189.624C182.093 190.053 181.976 190.557 181.976 191.136C181.976 191.724 182.093 192.237 182.326 192.676C182.56 193.105 182.872 193.437 183.264 193.67C183.656 193.894 184.09 194.006 184.566 194.006C185.042 194.006 185.476 193.894 185.868 193.67C186.27 193.437 186.587 193.105 186.82 192.676C187.054 192.237 187.17 191.729 187.17 191.15ZM57.75 216H56.476L51.352 208.23V216H50.078V206.228H51.352L56.476 213.984V206.228H57.75V216ZM63.2678 216.126C62.5491 216.126 61.8958 215.963 61.3078 215.636C60.7291 215.309 60.2718 214.847 59.9358 214.25C59.6091 213.643 59.4458 212.943 59.4458 212.15C59.4458 211.366 59.6138 210.675 59.9498 210.078C60.2951 209.471 60.7618 209.009 61.3498 208.692C61.9378 208.365 62.5958 208.202 63.3238 208.202C64.0518 208.202 64.7098 208.365 65.2978 208.692C65.8858 209.009 66.3478 209.467 66.6838 210.064C67.0291 210.661 67.2018 211.357 67.2018 212.15C67.2018 212.943 67.0244 213.643 66.6698 214.25C66.3244 214.847 65.8531 215.309 65.2558 215.636C64.6584 215.963 63.9958 216.126 63.2678 216.126ZM63.2678 215.006C63.7251 215.006 64.1544 214.899 64.5558 214.684C64.9571 214.469 65.2791 214.147 65.5218 213.718C65.7738 213.289 65.8998 212.766 65.8998 212.15C65.8998 211.534 65.7784 211.011 65.5358 210.582C65.2931 210.153 64.9758 209.835 64.5838 209.63C64.1918 209.415 63.7671 209.308 63.3098 209.308C62.8431 209.308 62.4138 209.415 62.0218 209.63C61.6391 209.835 61.3311 210.153 61.0978 210.582C60.8644 211.011 60.7478 211.534 60.7478 212.15C60.7478 212.775 60.8598 213.303 61.0838 213.732C61.3171 214.161 61.6251 214.483 62.0078 214.698C62.3904 214.903 62.8104 215.006 63.2678 215.006Z" fill="#090136"/>
<path d="M73.8833 209.574C74.1073 209.135 74.4246 208.795 74.8353 208.552C75.2553 208.309 75.7639 208.188 76.3613 208.188V209.504H76.0253C74.5973 209.504 73.8833 210.279 73.8833 211.828V216H72.6093V208.328H73.8833V209.574ZM84.8319 211.87C84.8319 212.113 84.8179 212.369 84.7899 212.64H78.6579C78.7046 213.396 78.9612 213.989 79.4279 214.418C79.9039 214.838 80.4779 215.048 81.1499 215.048C81.7006 215.048 82.1579 214.922 82.5219 214.67C82.8952 214.409 83.1566 214.063 83.3059 213.634H84.6779C84.4726 214.371 84.0619 214.973 83.4459 215.44C82.8299 215.897 82.0646 216.126 81.1499 216.126C80.4219 216.126 79.7686 215.963 79.1899 215.636C78.6206 215.309 78.1726 214.847 77.8459 214.25C77.5192 213.643 77.3559 212.943 77.3559 212.15C77.3559 211.357 77.5146 210.661 77.8319 210.064C78.1492 209.467 78.5926 209.009 79.1619 208.692C79.7406 208.365 80.4032 208.202 81.1499 208.202C81.8779 208.202 82.5219 208.361 83.0819 208.678C83.6419 208.995 84.0712 209.434 84.3699 209.994C84.6779 210.545 84.8319 211.17 84.8319 211.87ZM83.5159 211.604C83.5159 211.119 83.4086 210.703 83.1939 210.358C82.9792 210.003 82.6852 209.737 82.3119 209.56C81.9479 209.373 81.5419 209.28 81.0939 209.28C80.4499 209.28 79.8992 209.485 79.4419 209.896C78.9939 210.307 78.7372 210.876 78.6719 211.604H83.5159ZM89.2295 216.126C88.6415 216.126 88.1142 216.028 87.6475 215.832C87.1809 215.627 86.8122 215.347 86.5415 214.992C86.2709 214.628 86.1215 214.213 86.0935 213.746H87.4095C87.4469 214.129 87.6242 214.441 87.9415 214.684C88.2682 214.927 88.6929 215.048 89.2155 215.048C89.7009 215.048 90.0835 214.941 90.3635 214.726C90.6435 214.511 90.7835 214.241 90.7835 213.914C90.7835 213.578 90.6342 213.331 90.3355 213.172C90.0369 213.004 89.5749 212.841 88.9495 212.682C88.3802 212.533 87.9135 212.383 87.5495 212.234C87.1949 212.075 86.8869 211.847 86.6255 211.548C86.3735 211.24 86.2475 210.839 86.2475 210.344C86.2475 209.952 86.3642 209.593 86.5975 209.266C86.8309 208.939 87.1622 208.683 87.5915 208.496C88.0209 208.3 88.5109 208.202 89.0615 208.202C89.9109 208.202 90.5969 208.417 91.1195 208.846C91.6422 209.275 91.9222 209.863 91.9595 210.61H90.6855C90.6575 210.209 90.4942 209.887 90.1955 209.644C89.9062 209.401 89.5142 209.28 89.0195 209.28C88.5622 209.28 88.1982 209.378 87.9275 209.574C87.6569 209.77 87.5215 210.027 87.5215 210.344C87.5215 210.596 87.6009 210.806 87.7595 210.974C87.9275 211.133 88.1329 211.263 88.3755 211.366C88.6275 211.459 88.9729 211.567 89.4115 211.688C89.9622 211.837 90.4102 211.987 90.7555 212.136C91.1009 212.276 91.3949 212.491 91.6375 212.78C91.8895 213.069 92.0202 213.447 92.0295 213.914C92.0295 214.334 91.9129 214.712 91.6795 215.048C91.4462 215.384 91.1149 215.65 90.6855 215.846C90.2655 216.033 89.7802 216.126 89.2295 216.126ZM95.382 209.378V213.9C95.382 214.273 95.4613 214.539 95.62 214.698C95.7787 214.847 96.054 214.922 96.446 214.922H97.384V216H96.236C95.5267 216 94.9947 215.837 94.64 215.51C94.2853 215.183 94.108 214.647 94.108 213.9V209.378H93.114V208.328H94.108V206.396H95.382V208.328H97.384V209.378H95.382ZM100.202 209.574C100.426 209.135 100.743 208.795 101.154 208.552C101.574 208.309 102.082 208.188 102.68 208.188V209.504H102.344C100.916 209.504 100.202 210.279 100.202 211.828V216H98.9276V208.328H100.202V209.574ZM104.808 207.082C104.566 207.082 104.36 206.998 104.192 206.83C104.024 206.662 103.94 206.457 103.94 206.214C103.94 205.971 104.024 205.766 104.192 205.598C104.36 205.43 104.566 205.346 104.808 205.346C105.042 205.346 105.238 205.43 105.396 205.598C105.564 205.766 105.648 205.971 105.648 206.214C105.648 206.457 105.564 206.662 105.396 206.83C105.238 206.998 105.042 207.082 104.808 207.082ZM105.424 208.328V216H104.15V208.328H105.424ZM107.12 212.15C107.12 211.357 107.278 210.666 107.596 210.078C107.913 209.481 108.352 209.019 108.912 208.692C109.481 208.365 110.13 208.202 110.858 208.202C111.8 208.202 112.575 208.431 113.182 208.888C113.798 209.345 114.204 209.98 114.4 210.792H113.028C112.897 210.325 112.64 209.957 112.258 209.686C111.884 209.415 111.418 209.28 110.858 209.28C110.13 209.28 109.542 209.532 109.094 210.036C108.646 210.531 108.422 211.235 108.422 212.15C108.422 213.074 108.646 213.788 109.094 214.292C109.542 214.796 110.13 215.048 110.858 215.048C111.418 215.048 111.884 214.917 112.258 214.656C112.631 214.395 112.888 214.021 113.028 213.536H114.4C114.194 214.32 113.784 214.95 113.168 215.426C112.552 215.893 111.782 216.126 110.858 216.126C110.13 216.126 109.481 215.963 108.912 215.636C108.352 215.309 107.913 214.847 107.596 214.25C107.278 213.653 107.12 212.953 107.12 212.15ZM117.653 209.378V213.9C117.653 214.273 117.733 214.539 117.891 214.698C118.05 214.847 118.325 214.922 118.717 214.922H119.655V216H118.507C117.798 216 117.266 215.837 116.911 215.51C116.557 215.183 116.379 214.647 116.379 213.9V209.378H115.385V208.328H116.379V206.396H117.653V208.328H119.655V209.378H117.653ZM121.857 207.082C121.614 207.082 121.409 206.998 121.241 206.83C121.073 206.662 120.989 206.457 120.989 206.214C120.989 205.971 121.073 205.766 121.241 205.598C121.409 205.43 121.614 205.346 121.857 205.346C122.09 205.346 122.286 205.43 122.445 205.598C122.613 205.766 122.697 205.971 122.697 206.214C122.697 206.457 122.613 206.662 122.445 206.83C122.286 206.998 122.09 207.082 121.857 207.082ZM122.473 208.328V216H121.199V208.328H122.473ZM127.99 216.126C127.272 216.126 126.618 215.963 126.03 215.636C125.452 215.309 124.994 214.847 124.658 214.25C124.332 213.643 124.168 212.943 124.168 212.15C124.168 211.366 124.336 210.675 124.672 210.078C125.018 209.471 125.484 209.009 126.072 208.692C126.66 208.365 127.318 208.202 128.046 208.202C128.774 208.202 129.432 208.365 130.02 208.692C130.608 209.009 131.07 209.467 131.406 210.064C131.752 210.661 131.924 211.357 131.924 212.15C131.924 212.943 131.747 213.643 131.392 214.25C131.047 214.847 130.576 215.309 129.978 215.636C129.381 215.963 128.718 216.126 127.99 216.126ZM127.99 215.006C128.448 215.006 128.877 214.899 129.278 214.684C129.68 214.469 130.002 214.147 130.244 213.718C130.496 213.289 130.622 212.766 130.622 212.15C130.622 211.534 130.501 211.011 130.258 210.582C130.016 210.153 129.698 209.835 129.306 209.63C128.914 209.415 128.49 209.308 128.032 209.308C127.566 209.308 127.136 209.415 126.744 209.63C126.362 209.835 126.054 210.153 125.82 210.582C125.587 211.011 125.47 211.534 125.47 212.15C125.47 212.775 125.582 213.303 125.806 213.732C126.04 214.161 126.348 214.483 126.73 214.698C127.113 214.903 127.533 215.006 127.99 215.006ZM137.337 208.188C138.271 208.188 139.027 208.473 139.605 209.042C140.184 209.602 140.473 210.414 140.473 211.478V216H139.213V211.66C139.213 210.895 139.022 210.311 138.639 209.91C138.257 209.499 137.734 209.294 137.071 209.294C136.399 209.294 135.863 209.504 135.461 209.924C135.069 210.344 134.873 210.955 134.873 211.758V216H133.599V208.328H134.873V209.42C135.125 209.028 135.466 208.725 135.895 208.51C136.334 208.295 136.815 208.188 137.337 208.188ZM145.271 216.126C144.683 216.126 144.155 216.028 143.689 215.832C143.222 215.627 142.853 215.347 142.583 214.992C142.312 214.628 142.163 214.213 142.135 213.746H143.451C143.488 214.129 143.665 214.441 143.983 214.684C144.309 214.927 144.734 215.048 145.257 215.048C145.742 215.048 146.125 214.941 146.405 214.726C146.685 214.511 146.825 214.241 146.825 213.914C146.825 213.578 146.675 213.331 146.377 213.172C146.078 213.004 145.616 212.841 144.991 212.682C144.421 212.533 143.955 212.383 143.591 212.234C143.236 212.075 142.928 211.847 142.667 211.548C142.415 211.24 142.289 210.839 142.289 210.344C142.289 209.952 142.405 209.593 142.639 209.266C142.872 208.939 143.203 208.683 143.633 208.496C144.062 208.3 144.552 208.202 145.103 208.202C145.952 208.202 146.638 208.417 147.161 208.846C147.683 209.275 147.963 209.863 148.001 210.61H146.727C146.699 210.209 146.535 209.887 146.237 209.644C145.947 209.401 145.555 209.28 145.061 209.28C144.603 209.28 144.239 209.378 143.969 209.574C143.698 209.77 143.563 210.027 143.563 210.344C143.563 210.596 143.642 210.806 143.801 210.974C143.969 211.133 144.174 211.263 144.417 211.366C144.669 211.459 145.014 211.567 145.453 211.688C146.003 211.837 146.451 211.987 146.797 212.136C147.142 212.276 147.436 212.491 147.679 212.78C147.931 213.069 148.061 213.447 148.071 213.914C148.071 214.334 147.954 214.712 147.721 215.048C147.487 215.384 147.156 215.65 146.727 215.846C146.307 216.033 145.821 216.126 145.271 216.126Z" fill="white"/>
<circle cx="41.5" cy="144.5" r="2.5" fill="#090136"/>
<circle cx="41.5" cy="190.5" r="2.5" fill="#090136"/>
<circle cx="41.5" cy="212.5" r="2.5" fill="#090136"/>
</svg>
