<svg width="351" height="245" viewBox="0 0 351 245" fill="none" xmlns="http://www.w3.org/2000/svg">
<g clip-path="url(#clip0_3199_4809)">
<path fill-rule="evenodd" clip-rule="evenodd" d="M2.366e-06 178.048H76.0885L124.339 226.515L105.936 245H12.7616C7.77858 239.994 4.98301 237.186 0 232.181L2.366e-06 178.048Z" fill="white"/>
<path fill-rule="evenodd" clip-rule="evenodd" d="M350.946 227.496V15.6657L335.018 1.3948e-05L270.448 1.11256e-05L247.128 23.2993H118.691L95.371 3.4728e-06L15.9239 0L6.86198e-06 16.4082L0 173.395H76.8505L126.866 223.367H249.933L271.585 245H333.427L350.946 227.496Z" fill="#B4FFFF" fill-opacity="0.09"/>
<path d="M122.782 226.515L105.478 243.897H13.2155L1.09828 231.725V179.151H75.6301L122.782 226.515ZM124.339 226.515L76.0885 178.048H2.366e-06L0 232.181C4.98301 237.186 7.77858 239.994 12.7616 245H105.936L124.339 226.515Z" fill="#39FFF0"/>
<path d="M349.845 227.039L332.97 243.9H272.038L250.708 222.589L250.387 222.267H127.319L77.6255 172.618L77.3037 172.296H1.09665L1.09666 16.8516L16.3906 1.09566L94.9178 1.09567L117.916 24.073L118.238 24.3945H247.586L247.908 24.073L270.906 1.09568H334.569L349.845 16.1226V227.039ZM350.942 227.492V15.6654L335.018 1.3948e-05L270.448 1.11256e-05L247.128 23.2988H118.691L95.371 3.4728e-06L15.9239 0L6.86198e-06 16.4079L0 173.397H76.8505L126.866 223.367H249.933L271.585 245H333.427L350.946 227.496L350.942 227.492Z" fill="#39FFF0"/>
<path d="M260.75 1.08779L250.659 11.125L244.445 17.3056H121.216L108.594 4.75118L104.911 1.08778L260.75 1.08779ZM263.394 7.04305e-06L102.267 0C103.958 1.68112 105.874 3.58698 107.817 5.51982C114.153 11.8218 120.76 18.3934 120.76 18.3934H244.897C244.897 18.3934 247.717 15.5885 251.431 11.8937L263.389 7.04285e-06L263.394 7.04305e-06Z" fill="#39FFF0"/>
<path opacity="0.5" fill-rule="evenodd" clip-rule="evenodd" d="M257.84 5.8859H107.817C105.874 3.82008 103.958 1.79261 102.267 0L263.394 7.04305e-06L257.844 5.8859H257.84Z" fill="#39FFF0"/>
<path d="M49.7964 93.66V94.548H46.1604V97.368H49.1124V98.256H46.1604V102.024H45.0684V93.66H49.7964ZM56.9473 95.448V102.024H55.8553V101.052C55.6473 101.388 55.3553 101.652 54.9793 101.844C54.6113 102.028 54.2033 102.12 53.7553 102.12C53.2433 102.12 52.7833 102.016 52.3753 101.808C51.9673 101.592 51.6433 101.272 51.4033 100.848C51.1713 100.424 51.0553 99.908 51.0553 99.3V95.448H52.1353V99.156C52.1353 99.804 52.2993 100.304 52.6273 100.656C52.9553 101 53.4033 101.172 53.9713 101.172C54.5553 101.172 55.0153 100.992 55.3513 100.632C55.6873 100.272 55.8553 99.748 55.8553 99.06V95.448H56.9473ZM59.8831 93.144V102.024H58.7911V93.144H59.8831ZM62.8362 93.144V102.024H61.7442V93.144H62.8362ZM72.6246 93.66V94.548H68.9886V97.368H71.9406V98.256H68.9886V102.024H67.8966V93.66H72.6246ZM75.0354 93.144V102.024H73.9434V93.144H75.0354ZM82.8966 98.484C82.8966 98.692 82.8846 98.912 82.8606 99.144H77.6046C77.6446 99.792 77.8646 100.3 78.2646 100.668C78.6726 101.028 79.1646 101.208 79.7406 101.208C80.2126 101.208 80.6046 101.1 80.9166 100.884C81.2366 100.66 81.4606 100.364 81.5886 99.996H82.7646C82.5886 100.628 82.2366 101.144 81.7086 101.544C81.1806 101.936 80.5246 102.132 79.7406 102.132C79.1166 102.132 78.5566 101.992 78.0606 101.712C77.5726 101.432 77.1886 101.036 76.9086 100.524C76.6286 100.004 76.4886 99.404 76.4886 98.724C76.4886 98.044 76.6246 97.448 76.8966 96.936C77.1686 96.424 77.5486 96.032 78.0366 95.76C78.5326 95.48 79.1006 95.34 79.7406 95.34C80.3646 95.34 80.9166 95.476 81.3966 95.748C81.8766 96.02 82.2446 96.396 82.5006 96.876C82.7646 97.348 82.8966 97.884 82.8966 98.484ZM81.7686 98.256C81.7686 97.84 81.6766 97.484 81.4926 97.188C81.3086 96.884 81.0566 96.656 80.7366 96.504C80.4246 96.344 80.0766 96.264 79.6926 96.264C79.1406 96.264 78.6686 96.44 78.2766 96.792C77.8926 97.144 77.6726 97.632 77.6166 98.256H81.7686ZM83.93 98.712C83.93 98.04 84.066 97.452 84.338 96.948C84.61 96.436 84.982 96.04 85.454 95.76C85.934 95.48 86.47 95.34 87.062 95.34C87.574 95.34 88.05 95.46 88.49 95.7C88.93 95.932 89.266 96.24 89.498 96.624V93.144H90.602V102.024H89.498V100.788C89.282 101.18 88.962 101.504 88.538 101.76C88.114 102.008 87.618 102.132 87.05 102.132C86.466 102.132 85.934 101.988 85.454 101.7C84.982 101.412 84.61 101.008 84.338 100.488C84.066 99.968 83.93 99.376 83.93 98.712ZM89.498 98.724C89.498 98.228 89.398 97.796 89.198 97.428C88.998 97.06 88.726 96.78 88.382 96.588C88.046 96.388 87.674 96.288 87.266 96.288C86.858 96.288 86.486 96.384 86.15 96.576C85.814 96.768 85.546 97.048 85.346 97.416C85.146 97.784 85.046 98.216 85.046 98.712C85.046 99.216 85.146 99.656 85.346 100.032C85.546 100.4 85.814 100.684 86.15 100.884C86.486 101.076 86.858 101.172 87.266 101.172C87.674 101.172 88.046 101.076 88.382 100.884C88.726 100.684 88.998 100.4 89.198 100.032C89.398 99.656 89.498 99.22 89.498 98.724ZM95.1593 95.34C95.7273 95.34 96.2233 95.464 96.6473 95.712C97.0793 95.96 97.3993 96.272 97.6073 96.648V95.448H98.7113V102.168C98.7113 102.768 98.5833 103.3 98.3273 103.764C98.0713 104.236 97.7033 104.604 97.2233 104.868C96.7513 105.132 96.1993 105.264 95.5673 105.264C94.7033 105.264 93.9833 105.06 93.4073 104.652C92.8313 104.244 92.4913 103.688 92.3873 102.984H93.4673C93.5873 103.384 93.8353 103.704 94.2113 103.944C94.5873 104.192 95.0393 104.316 95.5673 104.316C96.1673 104.316 96.6553 104.128 97.0313 103.752C97.4153 103.376 97.6073 102.848 97.6073 102.168V100.788C97.3913 101.172 97.0713 101.492 96.6473 101.748C96.2233 102.004 95.7273 102.132 95.1593 102.132C94.5753 102.132 94.0433 101.988 93.5633 101.7C93.0913 101.412 92.7193 101.008 92.4473 100.488C92.1753 99.968 92.0393 99.376 92.0393 98.712C92.0393 98.04 92.1753 97.452 92.4473 96.948C92.7193 96.436 93.0913 96.04 93.5633 95.76C94.0433 95.48 94.5753 95.34 95.1593 95.34ZM97.6073 98.724C97.6073 98.228 97.5073 97.796 97.3073 97.428C97.1073 97.06 96.8353 96.78 96.4913 96.588C96.1553 96.388 95.7833 96.288 95.3753 96.288C94.9673 96.288 94.5953 96.384 94.2593 96.576C93.9233 96.768 93.6553 97.048 93.4553 97.416C93.2553 97.784 93.1553 98.216 93.1553 98.712C93.1553 99.216 93.2553 99.656 93.4553 100.032C93.6553 100.4 93.9233 100.684 94.2593 100.884C94.5953 101.076 94.9673 101.172 95.3753 101.172C95.7833 101.172 96.1553 101.076 96.4913 100.884C96.8353 100.684 97.1073 100.4 97.3073 100.032C97.5073 99.656 97.6073 99.22 97.6073 98.724ZM106.557 98.484C106.557 98.692 106.545 98.912 106.521 99.144H101.265C101.305 99.792 101.525 100.3 101.925 100.668C102.333 101.028 102.825 101.208 103.401 101.208C103.873 101.208 104.265 101.1 104.577 100.884C104.897 100.66 105.121 100.364 105.249 99.996H106.425C106.249 100.628 105.897 101.144 105.369 101.544C104.841 101.936 104.185 102.132 103.401 102.132C102.777 102.132 102.217 101.992 101.721 101.712C101.233 101.432 100.849 101.036 100.569 100.524C100.289 100.004 100.149 99.404 100.149 98.724C100.149 98.044 100.285 97.448 100.557 96.936C100.829 96.424 101.209 96.032 101.697 95.76C102.193 95.48 102.761 95.34 103.401 95.34C104.025 95.34 104.577 95.476 105.057 95.748C105.537 96.02 105.905 96.396 106.161 96.876C106.425 97.348 106.557 97.884 106.557 98.484ZM105.429 98.256C105.429 97.84 105.337 97.484 105.153 97.188C104.969 96.884 104.717 96.656 104.397 96.504C104.085 96.344 103.737 96.264 103.353 96.264C102.801 96.264 102.329 96.44 101.937 96.792C101.553 97.144 101.333 97.632 101.277 98.256H105.429ZM46.1604 113.66C46.3764 113.284 46.6964 112.972 47.1204 112.724C47.5524 112.468 48.0524 112.34 48.6204 112.34C49.2044 112.34 49.7324 112.48 50.2044 112.76C50.6844 113.04 51.0604 113.436 51.3324 113.948C51.6044 114.452 51.7404 115.04 51.7404 115.712C51.7404 116.376 51.6044 116.968 51.3324 117.488C51.0604 118.008 50.6844 118.412 50.2044 118.7C49.7324 118.988 49.2044 119.132 48.6204 119.132C48.0604 119.132 47.5644 119.008 47.1324 118.76C46.7084 118.504 46.3844 118.188 46.1604 117.812V122.144H45.0684V112.448H46.1604V113.66ZM50.6244 115.712C50.6244 115.216 50.5244 114.784 50.3244 114.416C50.1244 114.048 49.8524 113.768 49.5084 113.576C49.1724 113.384 48.8004 113.288 48.3924 113.288C47.9924 113.288 47.6204 113.388 47.2764 113.588C46.9404 113.78 46.6684 114.064 46.4604 114.44C46.2604 114.808 46.1604 115.236 46.1604 115.724C46.1604 116.22 46.2604 116.656 46.4604 117.032C46.6684 117.4 46.9404 117.684 47.2764 117.884C47.6204 118.076 47.9924 118.172 48.3924 118.172C48.8004 118.172 49.1724 118.076 49.5084 117.884C49.8524 117.684 50.1244 117.4 50.3244 117.032C50.5244 116.656 50.6244 116.216 50.6244 115.712ZM54.2698 113.516C54.4618 113.14 54.7338 112.848 55.0858 112.64C55.4458 112.432 55.8818 112.328 56.3938 112.328V113.456H56.1058C54.8818 113.456 54.2698 114.12 54.2698 115.448V119.024H53.1778V112.448H54.2698V113.516ZM60.5224 119.132C59.9064 119.132 59.3464 118.992 58.8424 118.712C58.3464 118.432 57.9544 118.036 57.6664 117.524C57.3864 117.004 57.2464 116.404 57.2464 115.724C57.2464 115.052 57.3904 114.46 57.6784 113.948C57.9744 113.428 58.3744 113.032 58.8784 112.76C59.3824 112.48 59.9464 112.34 60.5704 112.34C61.1944 112.34 61.7584 112.48 62.2624 112.76C62.7664 113.032 63.1624 113.424 63.4504 113.936C63.7464 114.448 63.8944 115.044 63.8944 115.724C63.8944 116.404 63.7424 117.004 63.4384 117.524C63.1424 118.036 62.7384 118.432 62.2264 118.712C61.7144 118.992 61.1464 119.132 60.5224 119.132ZM60.5224 118.172C60.9144 118.172 61.2824 118.08 61.6264 117.896C61.9704 117.712 62.2464 117.436 62.4544 117.068C62.6704 116.7 62.7784 116.252 62.7784 115.724C62.7784 115.196 62.6744 114.748 62.4664 114.38C62.2584 114.012 61.9864 113.74 61.6504 113.564C61.3144 113.38 60.9504 113.288 60.5584 113.288C60.1584 113.288 59.7904 113.38 59.4544 113.564C59.1264 113.74 58.8624 114.012 58.6624 114.38C58.4624 114.748 58.3624 115.196 58.3624 115.724C58.3624 116.26 58.4584 116.712 58.6504 117.08C58.8504 117.448 59.1144 117.724 59.4424 117.908C59.7704 118.084 60.1304 118.172 60.5224 118.172ZM73.2382 112.328C73.7502 112.328 74.2062 112.436 74.6062 112.652C75.0062 112.86 75.3222 113.176 75.5542 113.6C75.7862 114.024 75.9022 114.54 75.9022 115.148V119.024H74.8222V115.304C74.8222 114.648 74.6582 114.148 74.3302 113.804C74.0102 113.452 73.5742 113.276 73.0222 113.276C72.4542 113.276 72.0022 113.46 71.6662 113.828C71.3302 114.188 71.1622 114.712 71.1622 115.4V119.024H70.0822V115.304C70.0822 114.648 69.9182 114.148 69.5902 113.804C69.2702 113.452 68.8342 113.276 68.2822 113.276C67.7142 113.276 67.2622 113.46 66.9262 113.828C66.5902 114.188 66.4222 114.712 66.4222 115.4V119.024H65.3302V112.448H66.4222V113.396C66.6382 113.052 66.9262 112.788 67.2862 112.604C67.6542 112.42 68.0582 112.328 68.4982 112.328C69.0502 112.328 69.5382 112.452 69.9622 112.7C70.3862 112.948 70.7022 113.312 70.9102 113.792C71.0942 113.328 71.3982 112.968 71.8222 112.712C72.2462 112.456 72.7182 112.328 73.2382 112.328ZM80.5614 119.132C79.9454 119.132 79.3854 118.992 78.8814 118.712C78.3854 118.432 77.9934 118.036 77.7054 117.524C77.4254 117.004 77.2854 116.404 77.2854 115.724C77.2854 115.052 77.4294 114.46 77.7174 113.948C78.0134 113.428 78.4134 113.032 78.9174 112.76C79.4214 112.48 79.9854 112.34 80.6094 112.34C81.2334 112.34 81.7974 112.48 82.3014 112.76C82.8054 113.032 83.2014 113.424 83.4894 113.936C83.7854 114.448 83.9334 115.044 83.9334 115.724C83.9334 116.404 83.7814 117.004 83.4774 117.524C83.1814 118.036 82.7774 118.432 82.2654 118.712C81.7534 118.992 81.1854 119.132 80.5614 119.132ZM80.5614 118.172C80.9534 118.172 81.3214 118.08 81.6654 117.896C82.0094 117.712 82.2854 117.436 82.4934 117.068C82.7094 116.7 82.8174 116.252 82.8174 115.724C82.8174 115.196 82.7134 114.748 82.5054 114.38C82.2974 114.012 82.0254 113.74 81.6894 113.564C81.3534 113.38 80.9894 113.288 80.5974 113.288C80.1974 113.288 79.8294 113.38 79.4934 113.564C79.1654 113.74 78.9014 114.012 78.7014 114.38C78.5014 114.748 78.4014 115.196 78.4014 115.724C78.4014 116.26 78.4974 116.712 78.6894 117.08C78.8894 117.448 79.1534 117.724 79.4814 117.908C79.8094 118.084 80.1694 118.172 80.5614 118.172ZM86.7012 113.348V117.224C86.7012 117.544 86.7692 117.772 86.9052 117.908C87.0412 118.036 87.2772 118.1 87.6132 118.1H88.4172V119.024H87.4332C86.8252 119.024 86.3692 118.884 86.0652 118.604C85.7612 118.324 85.6092 117.864 85.6092 117.224V113.348H84.7572V112.448H85.6092V110.792H86.7012V112.448H88.4172V113.348H86.7012ZM90.3043 111.38C90.0963 111.38 89.9203 111.308 89.7763 111.164C89.6323 111.02 89.5603 110.844 89.5603 110.636C89.5603 110.428 89.6323 110.252 89.7763 110.108C89.9203 109.964 90.0963 109.892 90.3043 109.892C90.5043 109.892 90.6723 109.964 90.8083 110.108C90.9523 110.252 91.0243 110.428 91.0243 110.636C91.0243 110.844 90.9523 111.02 90.8083 111.164C90.6723 111.308 90.5043 111.38 90.3043 111.38ZM90.8323 112.448V119.024H89.7403V112.448H90.8323ZM95.5614 119.132C94.9454 119.132 94.3854 118.992 93.8814 118.712C93.3854 118.432 92.9934 118.036 92.7054 117.524C92.4254 117.004 92.2854 116.404 92.2854 115.724C92.2854 115.052 92.4294 114.46 92.7174 113.948C93.0134 113.428 93.4134 113.032 93.9174 112.76C94.4214 112.48 94.9854 112.34 95.6094 112.34C96.2334 112.34 96.7974 112.48 97.3014 112.76C97.8054 113.032 98.2014 113.424 98.4894 113.936C98.7854 114.448 98.9334 115.044 98.9334 115.724C98.9334 116.404 98.7814 117.004 98.4774 117.524C98.1814 118.036 97.7774 118.432 97.2654 118.712C96.7534 118.992 96.1854 119.132 95.5614 119.132ZM95.5614 118.172C95.9534 118.172 96.3214 118.08 96.6654 117.896C97.0094 117.712 97.2854 117.436 97.4934 117.068C97.7094 116.7 97.8174 116.252 97.8174 115.724C97.8174 115.196 97.7134 114.748 97.5054 114.38C97.2974 114.012 97.0254 113.74 96.6894 113.564C96.3534 113.38 95.9894 113.288 95.5974 113.288C95.1974 113.288 94.8294 113.38 94.4934 113.564C94.1654 113.74 93.9014 114.012 93.7014 114.38C93.5014 114.748 93.4014 115.196 93.4014 115.724C93.4014 116.26 93.4974 116.712 93.6894 117.08C93.8894 117.448 94.1534 117.724 94.4814 117.908C94.8094 118.084 95.1694 118.172 95.5614 118.172ZM103.573 112.328C104.373 112.328 105.021 112.572 105.517 113.06C106.013 113.54 106.261 114.236 106.261 115.148V119.024H105.181V115.304C105.181 114.648 105.017 114.148 104.689 113.804C104.361 113.452 103.913 113.276 103.345 113.276C102.769 113.276 102.309 113.456 101.965 113.816C101.629 114.176 101.461 114.7 101.461 115.388V119.024H100.369V112.448H101.461V113.384C101.677 113.048 101.969 112.788 102.337 112.604C102.713 112.42 103.125 112.328 103.573 112.328ZM114.112 119.132C113.496 119.132 112.936 118.992 112.432 118.712C111.936 118.432 111.544 118.036 111.256 117.524C110.976 117.004 110.836 116.404 110.836 115.724C110.836 115.052 110.98 114.46 111.268 113.948C111.564 113.428 111.964 113.032 112.468 112.76C112.972 112.48 113.536 112.34 114.16 112.34C114.784 112.34 115.348 112.48 115.852 112.76C116.356 113.032 116.752 113.424 117.04 113.936C117.336 114.448 117.484 115.044 117.484 115.724C117.484 116.404 117.332 117.004 117.028 117.524C116.732 118.036 116.328 118.432 115.816 118.712C115.304 118.992 114.736 119.132 114.112 119.132ZM114.112 118.172C114.504 118.172 114.872 118.08 115.216 117.896C115.56 117.712 115.836 117.436 116.044 117.068C116.26 116.7 116.368 116.252 116.368 115.724C116.368 115.196 116.264 114.748 116.056 114.38C115.848 114.012 115.576 113.74 115.24 113.564C114.904 113.38 114.54 113.288 114.148 113.288C113.748 113.288 113.38 113.38 113.044 113.564C112.716 113.74 112.452 114.012 112.252 114.38C112.052 114.748 111.952 115.196 111.952 115.724C111.952 116.26 112.048 116.712 112.24 117.08C112.44 117.448 112.704 117.724 113.032 117.908C113.36 118.084 113.72 118.172 114.112 118.172ZM121.596 113.348H120.216V119.024H119.124V113.348H118.272V112.448H119.124V111.98C119.124 111.244 119.312 110.708 119.688 110.372C120.072 110.028 120.684 109.856 121.524 109.856V110.768C121.044 110.768 120.704 110.864 120.504 111.056C120.312 111.24 120.216 111.548 120.216 111.98V112.448H121.596V113.348ZM131.661 113.108C131.661 113.804 131.421 114.384 130.941 114.848C130.469 115.304 129.745 115.532 128.769 115.532H127.161V119.024H126.069V110.66H128.769C129.713 110.66 130.429 110.888 130.917 111.344C131.413 111.8 131.661 112.388 131.661 113.108ZM128.769 114.632C129.377 114.632 129.825 114.5 130.113 114.236C130.401 113.972 130.545 113.596 130.545 113.108C130.545 112.076 129.953 111.56 128.769 111.56H127.161V114.632H128.769ZM134.11 113.516C134.302 113.14 134.574 112.848 134.926 112.64C135.286 112.432 135.722 112.328 136.234 112.328V113.456H135.946C134.722 113.456 134.11 114.12 134.11 115.448V119.024H133.018V112.448H134.11V113.516ZM140.362 119.132C139.746 119.132 139.186 118.992 138.682 118.712C138.186 118.432 137.794 118.036 137.506 117.524C137.226 117.004 137.086 116.404 137.086 115.724C137.086 115.052 137.23 114.46 137.518 113.948C137.814 113.428 138.214 113.032 138.718 112.76C139.222 112.48 139.786 112.34 140.41 112.34C141.034 112.34 141.598 112.48 142.102 112.76C142.606 113.032 143.002 113.424 143.29 113.936C143.586 114.448 143.734 115.044 143.734 115.724C143.734 116.404 143.582 117.004 143.278 117.524C142.982 118.036 142.578 118.432 142.066 118.712C141.554 118.992 140.986 119.132 140.362 119.132ZM140.362 118.172C140.754 118.172 141.122 118.08 141.466 117.896C141.81 117.712 142.086 117.436 142.294 117.068C142.51 116.7 142.618 116.252 142.618 115.724C142.618 115.196 142.514 114.748 142.306 114.38C142.098 114.012 141.826 113.74 141.49 113.564C141.154 113.38 140.79 113.288 140.398 113.288C139.998 113.288 139.63 113.38 139.294 113.564C138.966 113.74 138.702 114.012 138.502 114.38C138.302 114.748 138.202 115.196 138.202 115.724C138.202 116.26 138.298 116.712 138.49 117.08C138.69 117.448 138.954 117.724 139.282 117.908C139.61 118.084 139.97 118.172 140.362 118.172ZM145.758 111.38C145.55 111.38 145.374 111.308 145.23 111.164C145.094 111.02 145.026 110.844 145.026 110.636C145.026 110.428 145.094 110.252 145.23 110.108C145.374 109.964 145.55 109.892 145.758 109.892C145.966 109.892 146.138 109.964 146.274 110.108C146.418 110.252 146.49 110.428 146.49 110.636C146.49 110.844 146.418 111.02 146.274 111.164C146.138 111.308 145.966 111.38 145.758 111.38ZM146.298 120.452C146.298 121.036 146.15 121.464 145.854 121.736C145.558 122.008 145.126 122.144 144.558 122.144H143.922V121.22H144.378C144.682 121.22 144.894 121.16 145.014 121.04C145.142 120.92 145.206 120.716 145.206 120.428V112.448H146.298V120.452ZM154.147 115.484C154.147 115.692 154.135 115.912 154.111 116.144H148.855C148.895 116.792 149.115 117.3 149.515 117.668C149.923 118.028 150.415 118.208 150.991 118.208C151.463 118.208 151.855 118.1 152.167 117.884C152.487 117.66 152.711 117.364 152.839 116.996H154.015C153.839 117.628 153.487 118.144 152.959 118.544C152.431 118.936 151.775 119.132 150.991 119.132C150.367 119.132 149.807 118.992 149.311 118.712C148.823 118.432 148.439 118.036 148.159 117.524C147.879 117.004 147.739 116.404 147.739 115.724C147.739 115.044 147.875 114.448 148.147 113.936C148.419 113.424 148.799 113.032 149.287 112.76C149.783 112.48 150.351 112.34 150.991 112.34C151.615 112.34 152.167 112.476 152.647 112.748C153.127 113.02 153.495 113.396 153.751 113.876C154.015 114.348 154.147 114.884 154.147 115.484ZM153.019 115.256C153.019 114.84 152.927 114.484 152.743 114.188C152.559 113.884 152.307 113.656 151.987 113.504C151.675 113.344 151.327 113.264 150.943 113.264C150.391 113.264 149.919 113.44 149.527 113.792C149.143 114.144 148.923 114.632 148.867 115.256H153.019ZM155.18 115.724C155.18 115.044 155.316 114.452 155.588 113.948C155.86 113.436 156.236 113.04 156.716 112.76C157.204 112.48 157.76 112.34 158.384 112.34C159.192 112.34 159.856 112.536 160.376 112.928C160.904 113.32 161.252 113.864 161.42 114.56H160.244C160.132 114.16 159.912 113.844 159.584 113.612C159.264 113.38 158.864 113.264 158.384 113.264C157.76 113.264 157.256 113.48 156.872 113.912C156.488 114.336 156.296 114.94 156.296 115.724C156.296 116.516 156.488 117.128 156.872 117.56C157.256 117.992 157.76 118.208 158.384 118.208C158.864 118.208 159.264 118.096 159.584 117.872C159.904 117.648 160.124 117.328 160.244 116.912H161.42C161.244 117.584 160.892 118.124 160.364 118.532C159.836 118.932 159.176 119.132 158.384 119.132C157.76 119.132 157.204 118.992 156.716 118.712C156.236 118.432 155.86 118.036 155.588 117.524C155.316 117.012 155.18 116.412 155.18 115.724ZM164.209 113.348V117.224C164.209 117.544 164.277 117.772 164.413 117.908C164.549 118.036 164.785 118.1 165.121 118.1H165.925V119.024H164.941C164.333 119.024 163.877 118.884 163.573 118.604C163.269 118.324 163.117 117.864 163.117 117.224V113.348H162.265V112.448H163.117V110.792H164.209V112.448H165.925V113.348H164.209Z" fill="white"/>
<path d="M47.5756 141.084C47.0236 141.084 46.5276 140.988 46.0876 140.796C45.6556 140.596 45.3156 140.324 45.0676 139.98C44.8196 139.628 44.6916 139.224 44.6836 138.768H45.8476C45.8876 139.16 46.0476 139.492 46.3276 139.764C46.6156 140.028 47.0316 140.16 47.5756 140.16C48.0956 140.16 48.5036 140.032 48.7996 139.776C49.1036 139.512 49.2556 139.176 49.2556 138.768C49.2556 138.448 49.1676 138.188 48.9916 137.988C48.8156 137.788 48.5956 137.636 48.3316 137.532C48.0676 137.428 47.7116 137.316 47.2636 137.196C46.7116 137.052 46.2676 136.908 45.9316 136.764C45.6036 136.62 45.3196 136.396 45.0796 136.092C44.8476 135.78 44.7316 135.364 44.7316 134.844C44.7316 134.388 44.8476 133.984 45.0796 133.632C45.3116 133.28 45.6356 133.008 46.0516 132.816C46.4756 132.624 46.9596 132.528 47.5036 132.528C48.2876 132.528 48.9276 132.724 49.4236 133.116C49.9276 133.508 50.2116 134.028 50.2756 134.676H49.0756C49.0356 134.356 48.8676 134.076 48.5716 133.836C48.2756 133.588 47.8836 133.464 47.3956 133.464C46.9396 133.464 46.5676 133.584 46.2796 133.824C45.9916 134.056 45.8476 134.384 45.8476 134.808C45.8476 135.112 45.9316 135.36 46.0996 135.552C46.2756 135.744 46.4876 135.892 46.7356 135.996C46.9916 136.092 47.3476 136.204 47.8036 136.332C48.3556 136.484 48.7996 136.636 49.1356 136.788C49.4716 136.932 49.7596 137.16 49.9996 137.472C50.2396 137.776 50.3596 138.192 50.3596 138.72C50.3596 139.128 50.2516 139.512 50.0356 139.872C49.8196 140.232 49.4996 140.524 49.0756 140.748C48.6516 140.972 48.1516 141.084 47.5756 141.084ZM53.2986 135.324V139.2C53.2986 139.52 53.3666 139.748 53.5026 139.884C53.6386 140.012 53.8746 140.076 54.2106 140.076H55.0146V141H54.0306C53.4226 141 52.9666 140.86 52.6626 140.58C52.3586 140.3 52.2066 139.84 52.2066 139.2V135.324H51.3546V134.424H52.2066V132.768H53.2986V134.424H55.0146V135.324H53.2986ZM55.9297 137.688C55.9297 137.016 56.0657 136.428 56.3377 135.924C56.6097 135.412 56.9817 135.016 57.4537 134.736C57.9337 134.456 58.4657 134.316 59.0497 134.316C59.6257 134.316 60.1257 134.44 60.5497 134.688C60.9737 134.936 61.2897 135.248 61.4977 135.624V134.424H62.6017V141H61.4977V139.776C61.2817 140.16 60.9577 140.48 60.5257 140.736C60.1017 140.984 59.6057 141.108 59.0377 141.108C58.4537 141.108 57.9257 140.964 57.4537 140.676C56.9817 140.388 56.6097 139.984 56.3377 139.464C56.0657 138.944 55.9297 138.352 55.9297 137.688ZM61.4977 137.7C61.4977 137.204 61.3977 136.772 61.1977 136.404C60.9977 136.036 60.7257 135.756 60.3817 135.564C60.0457 135.364 59.6737 135.264 59.2657 135.264C58.8577 135.264 58.4857 135.36 58.1497 135.552C57.8137 135.744 57.5457 136.024 57.3457 136.392C57.1457 136.76 57.0457 137.192 57.0457 137.688C57.0457 138.192 57.1457 138.632 57.3457 139.008C57.5457 139.376 57.8137 139.66 58.1497 139.86C58.4857 140.052 58.8577 140.148 59.2657 140.148C59.6737 140.148 60.0457 140.052 60.3817 139.86C60.7257 139.66 60.9977 139.376 61.1977 139.008C61.3977 138.632 61.4977 138.196 61.4977 137.7ZM65.539 135.492C65.731 135.116 66.003 134.824 66.355 134.616C66.715 134.408 67.151 134.304 67.663 134.304V135.432H67.375C66.151 135.432 65.539 136.096 65.539 137.424V141H64.447V134.424H65.539V135.492ZM70.2556 135.324V139.2C70.2556 139.52 70.3236 139.748 70.4596 139.884C70.5956 140.012 70.8316 140.076 71.1676 140.076H71.9716V141H70.9876C70.3796 141 69.9236 140.86 69.6196 140.58C69.3156 140.3 69.1636 139.84 69.1636 139.2V135.324H68.3116V134.424H69.1636V132.768H70.2556V134.424H71.9716V135.324H70.2556ZM80.8979 141L78.9059 137.58H77.5859V141H76.4939V132.636H79.1939C79.8259 132.636 80.3579 132.744 80.7899 132.96C81.2299 133.176 81.5579 133.468 81.7739 133.836C81.9899 134.204 82.0979 134.624 82.0979 135.096C82.0979 135.672 81.9299 136.18 81.5939 136.62C81.2659 137.06 80.7699 137.352 80.1059 137.496L82.2059 141H80.8979ZM77.5859 136.704H79.1939C79.7859 136.704 80.2299 136.56 80.5259 136.272C80.8219 135.976 80.9699 135.584 80.9699 135.096C80.9699 134.6 80.8219 134.216 80.5259 133.944C80.2379 133.672 79.7939 133.536 79.1939 133.536H77.5859V136.704ZM89.7947 137.46C89.7947 137.668 89.7827 137.888 89.7587 138.12H84.5027C84.5427 138.768 84.7627 139.276 85.1627 139.644C85.5707 140.004 86.0627 140.184 86.6387 140.184C87.1107 140.184 87.5027 140.076 87.8147 139.86C88.1347 139.636 88.3587 139.34 88.4867 138.972H89.6627C89.4867 139.604 89.1347 140.12 88.6067 140.52C88.0787 140.912 87.4227 141.108 86.6387 141.108C86.0147 141.108 85.4547 140.968 84.9587 140.688C84.4707 140.408 84.0867 140.012 83.8067 139.5C83.5267 138.98 83.3867 138.38 83.3867 137.7C83.3867 137.02 83.5227 136.424 83.7947 135.912C84.0667 135.4 84.4467 135.008 84.9347 134.736C85.4307 134.456 85.9987 134.316 86.6387 134.316C87.2627 134.316 87.8147 134.452 88.2947 134.724C88.7747 134.996 89.1427 135.372 89.3987 135.852C89.6627 136.324 89.7947 136.86 89.7947 137.46ZM88.6667 137.232C88.6667 136.816 88.5747 136.46 88.3907 136.164C88.2067 135.86 87.9547 135.632 87.6347 135.48C87.3227 135.32 86.9747 135.24 86.5907 135.24C86.0387 135.24 85.5667 135.416 85.1747 135.768C84.7907 136.12 84.5707 136.608 84.5147 137.232H88.6667ZM93.6841 139.992L95.7241 134.424H96.8881L94.3081 141H93.0361L90.4561 134.424H91.6321L93.6841 139.992ZM103.963 137.46C103.963 137.668 103.951 137.888 103.927 138.12H98.6707C98.7107 138.768 98.9307 139.276 99.3307 139.644C99.7387 140.004 100.231 140.184 100.807 140.184C101.279 140.184 101.671 140.076 101.983 139.86C102.303 139.636 102.527 139.34 102.655 138.972H103.831C103.655 139.604 103.303 140.12 102.775 140.52C102.247 140.912 101.591 141.108 100.807 141.108C100.183 141.108 99.6227 140.968 99.1267 140.688C98.6387 140.408 98.2547 140.012 97.9747 139.5C97.6947 138.98 97.5547 138.38 97.5547 137.7C97.5547 137.02 97.6907 136.424 97.9627 135.912C98.2347 135.4 98.6147 135.008 99.1027 134.736C99.5987 134.456 100.167 134.316 100.807 134.316C101.431 134.316 101.983 134.452 102.463 134.724C102.943 134.996 103.311 135.372 103.567 135.852C103.831 136.324 103.963 136.86 103.963 137.46ZM102.835 137.232C102.835 136.816 102.743 136.46 102.559 136.164C102.375 135.86 102.123 135.632 101.803 135.48C101.491 135.32 101.143 135.24 100.759 135.24C100.207 135.24 99.7347 135.416 99.3427 135.768C98.9587 136.12 98.7387 136.608 98.6827 137.232H102.835ZM108.608 134.304C109.408 134.304 110.056 134.548 110.552 135.036C111.048 135.516 111.296 136.212 111.296 137.124V141H110.216V137.28C110.216 136.624 110.052 136.124 109.724 135.78C109.396 135.428 108.948 135.252 108.38 135.252C107.804 135.252 107.344 135.432 107 135.792C106.664 136.152 106.496 136.676 106.496 137.364V141H105.404V134.424H106.496V135.36C106.712 135.024 107.004 134.764 107.372 134.58C107.748 134.396 108.16 134.304 108.608 134.304ZM118.912 134.424V141H117.82V140.028C117.612 140.364 117.32 140.628 116.944 140.82C116.576 141.004 116.168 141.096 115.72 141.096C115.208 141.096 114.748 140.992 114.34 140.784C113.932 140.568 113.608 140.248 113.368 139.824C113.136 139.4 113.02 138.884 113.02 138.276V134.424H114.1V138.132C114.1 138.78 114.264 139.28 114.592 139.632C114.92 139.976 115.368 140.148 115.936 140.148C116.52 140.148 116.98 139.968 117.316 139.608C117.652 139.248 117.82 138.724 117.82 138.036V134.424H118.912ZM126.756 137.46C126.756 137.668 126.744 137.888 126.72 138.12H121.464C121.504 138.768 121.724 139.276 122.124 139.644C122.532 140.004 123.024 140.184 123.6 140.184C124.072 140.184 124.464 140.076 124.776 139.86C125.096 139.636 125.32 139.34 125.448 138.972H126.624C126.448 139.604 126.096 140.12 125.568 140.52C125.04 140.912 124.384 141.108 123.6 141.108C122.976 141.108 122.416 140.968 121.92 140.688C121.432 140.408 121.048 140.012 120.768 139.5C120.488 138.98 120.348 138.38 120.348 137.7C120.348 137.02 120.484 136.424 120.756 135.912C121.028 135.4 121.408 135.008 121.896 134.736C122.392 134.456 122.96 134.316 123.6 134.316C124.224 134.316 124.776 134.452 125.256 134.724C125.736 134.996 126.104 135.372 126.36 135.852C126.624 136.324 126.756 136.86 126.756 137.46ZM125.628 137.232C125.628 136.816 125.536 136.46 125.352 136.164C125.168 135.86 124.916 135.632 124.596 135.48C124.284 135.32 123.936 135.24 123.552 135.24C123 135.24 122.528 135.416 122.136 135.768C121.752 136.12 121.532 136.608 121.476 137.232H125.628ZM134.049 141.084C133.497 141.084 133.001 140.988 132.561 140.796C132.129 140.596 131.789 140.324 131.541 139.98C131.293 139.628 131.165 139.224 131.157 138.768H132.321C132.361 139.16 132.521 139.492 132.801 139.764C133.089 140.028 133.505 140.16 134.049 140.16C134.569 140.16 134.977 140.032 135.273 139.776C135.577 139.512 135.729 139.176 135.729 138.768C135.729 138.448 135.641 138.188 135.465 137.988C135.289 137.788 135.069 137.636 134.805 137.532C134.541 137.428 134.185 137.316 133.737 137.196C133.185 137.052 132.741 136.908 132.405 136.764C132.077 136.62 131.793 136.396 131.553 136.092C131.321 135.78 131.205 135.364 131.205 134.844C131.205 134.388 131.321 133.984 131.553 133.632C131.785 133.28 132.109 133.008 132.525 132.816C132.949 132.624 133.433 132.528 133.977 132.528C134.761 132.528 135.401 132.724 135.897 133.116C136.401 133.508 136.685 134.028 136.749 134.676H135.549C135.509 134.356 135.341 134.076 135.045 133.836C134.749 133.588 134.357 133.464 133.869 133.464C133.413 133.464 133.041 133.584 132.753 133.824C132.465 134.056 132.321 134.384 132.321 134.808C132.321 135.112 132.405 135.36 132.573 135.552C132.749 135.744 132.961 135.892 133.209 135.996C133.465 136.092 133.821 136.204 134.277 136.332C134.829 136.484 135.273 136.636 135.609 136.788C135.945 136.932 136.233 137.16 136.473 137.472C136.713 137.776 136.833 138.192 136.833 138.72C136.833 139.128 136.725 139.512 136.509 139.872C136.293 140.232 135.973 140.524 135.549 140.748C135.125 140.972 134.625 141.084 134.049 141.084ZM141.704 134.304C142.2 134.304 142.648 134.412 143.048 134.628C143.448 134.836 143.76 135.152 143.984 135.576C144.216 136 144.332 136.516 144.332 137.124V141H143.252V137.28C143.252 136.624 143.088 136.124 142.76 135.78C142.432 135.428 141.984 135.252 141.416 135.252C140.84 135.252 140.38 135.432 140.036 135.792C139.7 136.152 139.532 136.676 139.532 137.364V141H138.44V132.12H139.532V135.36C139.748 135.024 140.044 134.764 140.42 134.58C140.804 134.396 141.232 134.304 141.704 134.304ZM145.707 137.688C145.707 137.016 145.843 136.428 146.115 135.924C146.387 135.412 146.759 135.016 147.231 134.736C147.711 134.456 148.243 134.316 148.827 134.316C149.403 134.316 149.903 134.44 150.327 134.688C150.751 134.936 151.067 135.248 151.275 135.624V134.424H152.379V141H151.275V139.776C151.059 140.16 150.735 140.48 150.303 140.736C149.879 140.984 149.383 141.108 148.815 141.108C148.231 141.108 147.703 140.964 147.231 140.676C146.759 140.388 146.387 139.984 146.115 139.464C145.843 138.944 145.707 138.352 145.707 137.688ZM151.275 137.7C151.275 137.204 151.175 136.772 150.975 136.404C150.775 136.036 150.503 135.756 150.159 135.564C149.823 135.364 149.451 135.264 149.043 135.264C148.635 135.264 148.263 135.36 147.927 135.552C147.591 135.744 147.323 136.024 147.123 136.392C146.923 136.76 146.823 137.192 146.823 137.688C146.823 138.192 146.923 138.632 147.123 139.008C147.323 139.376 147.591 139.66 147.927 139.86C148.263 140.052 148.635 140.148 149.043 140.148C149.451 140.148 149.823 140.052 150.159 139.86C150.503 139.66 150.775 139.376 150.975 139.008C151.175 138.632 151.275 138.196 151.275 137.7ZM155.317 135.492C155.509 135.116 155.781 134.824 156.133 134.616C156.493 134.408 156.929 134.304 157.441 134.304V135.432H157.153C155.929 135.432 155.317 136.096 155.317 137.424V141H154.225V134.424H155.317V135.492ZM159.265 133.356C159.057 133.356 158.881 133.284 158.737 133.14C158.593 132.996 158.521 132.82 158.521 132.612C158.521 132.404 158.593 132.228 158.737 132.084C158.881 131.94 159.057 131.868 159.265 131.868C159.465 131.868 159.633 131.94 159.769 132.084C159.913 132.228 159.985 132.404 159.985 132.612C159.985 132.82 159.913 132.996 159.769 133.14C159.633 133.284 159.465 133.356 159.265 133.356ZM159.793 134.424V141H158.701V134.424H159.793ZM164.858 134.304C165.658 134.304 166.306 134.548 166.802 135.036C167.298 135.516 167.546 136.212 167.546 137.124V141H166.466V137.28C166.466 136.624 166.302 136.124 165.974 135.78C165.646 135.428 165.198 135.252 164.63 135.252C164.054 135.252 163.594 135.432 163.25 135.792C162.914 136.152 162.746 136.676 162.746 137.364V141H161.654V134.424H162.746V135.36C162.962 135.024 163.254 134.764 163.622 134.58C163.998 134.396 164.41 134.304 164.858 134.304ZM172.042 134.316C172.61 134.316 173.106 134.44 173.53 134.688C173.962 134.936 174.282 135.248 174.49 135.624V134.424H175.594V141.144C175.594 141.744 175.466 142.276 175.21 142.74C174.954 143.212 174.586 143.58 174.106 143.844C173.634 144.108 173.082 144.24 172.45 144.24C171.586 144.24 170.866 144.036 170.29 143.628C169.714 143.22 169.374 142.664 169.27 141.96H170.35C170.47 142.36 170.718 142.68 171.094 142.92C171.47 143.168 171.922 143.292 172.45 143.292C173.05 143.292 173.538 143.104 173.914 142.728C174.298 142.352 174.49 141.824 174.49 141.144V139.764C174.274 140.148 173.954 140.468 173.53 140.724C173.106 140.98 172.61 141.108 172.042 141.108C171.458 141.108 170.926 140.964 170.446 140.676C169.974 140.388 169.602 139.984 169.33 139.464C169.058 138.944 168.922 138.352 168.922 137.688C168.922 137.016 169.058 136.428 169.33 135.924C169.602 135.412 169.974 135.016 170.446 134.736C170.926 134.456 171.458 134.316 172.042 134.316ZM174.49 137.7C174.49 137.204 174.39 136.772 174.19 136.404C173.99 136.036 173.718 135.756 173.374 135.564C173.038 135.364 172.666 135.264 172.258 135.264C171.85 135.264 171.478 135.36 171.142 135.552C170.806 135.744 170.538 136.024 170.338 136.392C170.138 136.76 170.038 137.192 170.038 137.688C170.038 138.192 170.138 138.632 170.338 139.008C170.538 139.376 170.806 139.66 171.142 139.86C171.478 140.052 171.85 140.148 172.258 140.148C172.666 140.148 173.038 140.052 173.374 139.86C173.718 139.66 173.99 139.376 174.19 139.008C174.39 138.632 174.49 138.196 174.49 137.7ZM52.8316 151.304C53.3436 151.304 53.7996 151.412 54.1996 151.628C54.5996 151.836 54.9156 152.152 55.1476 152.576C55.3796 153 55.4956 153.516 55.4956 154.124V158H54.4156V154.28C54.4156 153.624 54.2516 153.124 53.9236 152.78C53.6036 152.428 53.1676 152.252 52.6156 152.252C52.0476 152.252 51.5956 152.436 51.2596 152.804C50.9236 153.164 50.7556 153.688 50.7556 154.376V158H49.6756V154.28C49.6756 153.624 49.5116 153.124 49.1836 152.78C48.8636 152.428 48.4276 152.252 47.8756 152.252C47.3076 152.252 46.8556 152.436 46.5196 152.804C46.1836 153.164 46.0156 153.688 46.0156 154.376V158H44.9236V151.424H46.0156V152.372C46.2316 152.028 46.5196 151.764 46.8796 151.58C47.2476 151.396 47.6516 151.304 48.0916 151.304C48.6436 151.304 49.1316 151.428 49.5556 151.676C49.9796 151.924 50.2956 152.288 50.5036 152.768C50.6876 152.304 50.9916 151.944 51.4156 151.688C51.8396 151.432 52.3116 151.304 52.8316 151.304ZM60.1549 158.108C59.5389 158.108 58.9789 157.968 58.4749 157.688C57.9789 157.408 57.5869 157.012 57.2989 156.5C57.0189 155.98 56.8789 155.38 56.8789 154.7C56.8789 154.028 57.0229 153.436 57.3109 152.924C57.6069 152.404 58.0069 152.008 58.5109 151.736C59.0149 151.456 59.5789 151.316 60.2029 151.316C60.8269 151.316 61.3909 151.456 61.8949 151.736C62.3989 152.008 62.7949 152.4 63.0829 152.912C63.3789 153.424 63.5269 154.02 63.5269 154.7C63.5269 155.38 63.3749 155.98 63.0709 156.5C62.7749 157.012 62.3709 157.408 61.8589 157.688C61.3469 157.968 60.7789 158.108 60.1549 158.108ZM60.1549 157.148C60.5469 157.148 60.9149 157.056 61.2589 156.872C61.6029 156.688 61.8789 156.412 62.0869 156.044C62.3029 155.676 62.4109 155.228 62.4109 154.7C62.4109 154.172 62.3069 153.724 62.0989 153.356C61.8909 152.988 61.6189 152.716 61.2829 152.54C60.9469 152.356 60.5829 152.264 60.1909 152.264C59.7909 152.264 59.4229 152.356 59.0869 152.54C58.7589 152.716 58.4949 152.988 58.2949 153.356C58.0949 153.724 57.9949 154.172 57.9949 154.7C57.9949 155.236 58.0909 155.688 58.2829 156.056C58.4829 156.424 58.7469 156.7 59.0749 156.884C59.4029 157.06 59.7629 157.148 60.1549 157.148ZM64.5547 154.688C64.5547 154.016 64.6907 153.428 64.9627 152.924C65.2347 152.412 65.6067 152.016 66.0787 151.736C66.5587 151.456 67.0947 151.316 67.6867 151.316C68.1987 151.316 68.6747 151.436 69.1147 151.676C69.5547 151.908 69.8907 152.216 70.1227 152.6V149.12H71.2267V158H70.1227V156.764C69.9067 157.156 69.5867 157.48 69.1627 157.736C68.7387 157.984 68.2427 158.108 67.6747 158.108C67.0907 158.108 66.5587 157.964 66.0787 157.676C65.6067 157.388 65.2347 156.984 64.9627 156.464C64.6907 155.944 64.5547 155.352 64.5547 154.688ZM70.1227 154.7C70.1227 154.204 70.0227 153.772 69.8227 153.404C69.6227 153.036 69.3507 152.756 69.0067 152.564C68.6707 152.364 68.2987 152.264 67.8907 152.264C67.4827 152.264 67.1107 152.36 66.7747 152.552C66.4387 152.744 66.1707 153.024 65.9707 153.392C65.7707 153.76 65.6707 154.192 65.6707 154.688C65.6707 155.192 65.7707 155.632 65.9707 156.008C66.1707 156.376 66.4387 156.66 66.7747 156.86C67.1107 157.052 67.4827 157.148 67.8907 157.148C68.2987 157.148 68.6707 157.052 69.0067 156.86C69.3507 156.66 69.6227 156.376 69.8227 156.008C70.0227 155.632 70.1227 155.196 70.1227 154.7ZM79.072 154.46C79.072 154.668 79.06 154.888 79.036 155.12H73.78C73.82 155.768 74.04 156.276 74.44 156.644C74.848 157.004 75.34 157.184 75.916 157.184C76.388 157.184 76.78 157.076 77.092 156.86C77.412 156.636 77.636 156.34 77.764 155.972H78.94C78.764 156.604 78.412 157.12 77.884 157.52C77.356 157.912 76.7 158.108 75.916 158.108C75.292 158.108 74.732 157.968 74.236 157.688C73.748 157.408 73.364 157.012 73.084 156.5C72.804 155.98 72.664 155.38 72.664 154.7C72.664 154.02 72.8 153.424 73.072 152.912C73.344 152.4 73.724 152.008 74.212 151.736C74.708 151.456 75.276 151.316 75.916 151.316C76.54 151.316 77.092 151.452 77.572 151.724C78.052 151.996 78.42 152.372 78.676 152.852C78.94 153.324 79.072 153.86 79.072 154.46ZM77.944 154.232C77.944 153.816 77.852 153.46 77.668 153.164C77.484 152.86 77.232 152.632 76.912 152.48C76.6 152.32 76.252 152.24 75.868 152.24C75.316 152.24 74.844 152.416 74.452 152.768C74.068 153.12 73.848 153.608 73.792 154.232H77.944ZM81.6054 149.12V158H80.5134V149.12H81.6054Z" fill="white"/>
<path d="M46.1602 57.7273H49.0882V58.6153H45.0682V50.2513H46.1602V57.7273ZM49.8399 55.3033C49.8399 54.6313 49.9759 54.0433 50.2479 53.5393C50.5199 53.0273 50.8919 52.6313 51.3639 52.3513C51.8439 52.0713 52.3759 51.9313 52.9599 51.9313C53.5359 51.9313 54.0359 52.0553 54.4599 52.3033C54.8839 52.5513 55.1999 52.8633 55.4079 53.2393V52.0393H56.5119V58.6153H55.4079V57.3913C55.1919 57.7753 54.8679 58.0953 54.4359 58.3513C54.0119 58.5993 53.5159 58.7233 52.9479 58.7233C52.3639 58.7233 51.8359 58.5793 51.3639 58.2913C50.8919 58.0033 50.5199 57.5993 50.2479 57.0793C49.9759 56.5593 49.8399 55.9673 49.8399 55.3033ZM55.4079 55.3153C55.4079 54.8193 55.3079 54.3873 55.1079 54.0193C54.9079 53.6513 54.6359 53.3713 54.2919 53.1793C53.9559 52.9793 53.5839 52.8793 53.1759 52.8793C52.7679 52.8793 52.3959 52.9753 52.0599 53.1673C51.7239 53.3593 51.4559 53.6393 51.2559 54.0073C51.0559 54.3753 50.9559 54.8073 50.9559 55.3033C50.9559 55.8073 51.0559 56.2473 51.2559 56.6233C51.4559 56.9913 51.7239 57.2753 52.0599 57.4753C52.3959 57.6673 52.7679 57.7633 53.1759 57.7633C53.5839 57.7633 53.9559 57.6673 54.2919 57.4753C54.6359 57.2753 54.9079 56.9913 55.1079 56.6233C55.3079 56.2473 55.4079 55.8113 55.4079 55.3153ZM64.1893 52.0393V58.6153H63.0973V57.6433C62.8893 57.9793 62.5973 58.2433 62.2213 58.4353C61.8533 58.6193 61.4453 58.7113 60.9973 58.7113C60.4853 58.7113 60.0253 58.6073 59.6173 58.3993C59.2093 58.1833 58.8853 57.8633 58.6453 57.4393C58.4133 57.0153 58.2973 56.4993 58.2973 55.8913V52.0393H59.3773V55.7473C59.3773 56.3953 59.5413 56.8953 59.8693 57.2473C60.1973 57.5913 60.6453 57.7633 61.2133 57.7633C61.7973 57.7633 62.2573 57.5833 62.5933 57.2233C62.9293 56.8633 63.0973 56.3393 63.0973 55.6513V52.0393H64.1893ZM69.2371 51.9193C70.0371 51.9193 70.6851 52.1633 71.1811 52.6513C71.6771 53.1313 71.9251 53.8273 71.9251 54.7393V58.6153H70.8451V54.8953C70.8451 54.2393 70.6811 53.7393 70.3531 53.3953C70.0251 53.0433 69.5771 52.8673 69.0091 52.8673C68.4331 52.8673 67.9731 53.0473 67.6291 53.4073C67.2931 53.7673 67.1251 54.2913 67.1251 54.9793V58.6153H66.0331V52.0393H67.1251V52.9753C67.3411 52.6393 67.6331 52.3793 68.0011 52.1953C68.3771 52.0113 68.7891 51.9193 69.2371 51.9193ZM73.3009 55.3153C73.3009 54.6353 73.4369 54.0433 73.7089 53.5393C73.9809 53.0273 74.3569 52.6313 74.8369 52.3513C75.3249 52.0713 75.8809 51.9313 76.5049 51.9313C77.3129 51.9313 77.9769 52.1273 78.4969 52.5193C79.0249 52.9113 79.3729 53.4553 79.5409 54.1513H78.3649C78.2529 53.7513 78.0329 53.4353 77.7049 53.2033C77.3849 52.9713 76.9849 52.8553 76.5049 52.8553C75.8809 52.8553 75.3769 53.0713 74.9929 53.5033C74.6089 53.9273 74.4169 54.5313 74.4169 55.3153C74.4169 56.1073 74.6089 56.7193 74.9929 57.1513C75.3769 57.5833 75.8809 57.7993 76.5049 57.7993C76.9849 57.7993 77.3849 57.6873 77.7049 57.4633C78.0249 57.2393 78.2449 56.9193 78.3649 56.5033H79.5409C79.3649 57.1753 79.0129 57.7153 78.4849 58.1233C77.9569 58.5233 77.2969 58.7233 76.5049 58.7233C75.8809 58.7233 75.3249 58.5833 74.8369 58.3033C74.3569 58.0233 73.9809 57.6273 73.7089 57.1153C73.4369 56.6033 73.3009 56.0033 73.3009 55.3153ZM84.2619 51.9193C84.7579 51.9193 85.2059 52.0273 85.6059 52.2433C86.0059 52.4513 86.3179 52.7673 86.5419 53.1913C86.7739 53.6153 86.8899 54.1313 86.8899 54.7393V58.6153H85.8099V54.8953C85.8099 54.2393 85.6459 53.7393 85.3179 53.3953C84.9899 53.0433 84.5419 52.8673 83.9739 52.8673C83.3979 52.8673 82.9379 53.0473 82.5939 53.4073C82.2579 53.7673 82.0899 54.2913 82.0899 54.9793V58.6153H80.9979V49.7353H82.0899V52.9753C82.3059 52.6393 82.6019 52.3793 82.9779 52.1953C83.3619 52.0113 83.7899 51.9193 84.2619 51.9193ZM94.7409 58.7233C94.1249 58.7233 93.5649 58.5833 93.0609 58.3033C92.5649 58.0233 92.1729 57.6273 91.8849 57.1153C91.6049 56.5953 91.4649 55.9953 91.4649 55.3153C91.4649 54.6433 91.6089 54.0513 91.8969 53.5393C92.1929 53.0193 92.5929 52.6233 93.0969 52.3513C93.6009 52.0713 94.1649 51.9313 94.7889 51.9313C95.4129 51.9313 95.9769 52.0713 96.4809 52.3513C96.9849 52.6233 97.3809 53.0153 97.6689 53.5273C97.9649 54.0393 98.1129 54.6353 98.1129 55.3153C98.1129 55.9953 97.9609 56.5953 97.6569 57.1153C97.3609 57.6273 96.9569 58.0233 96.4449 58.3033C95.9329 58.5833 95.3649 58.7233 94.7409 58.7233ZM94.7409 57.7633C95.1329 57.7633 95.5009 57.6713 95.8449 57.4873C96.1889 57.3033 96.4649 57.0273 96.6729 56.6593C96.8889 56.2913 96.9969 55.8433 96.9969 55.3153C96.9969 54.7873 96.8929 54.3393 96.6849 53.9713C96.4769 53.6033 96.2049 53.3313 95.8689 53.1553C95.5329 52.9713 95.1689 52.8793 94.7769 52.8793C94.3769 52.8793 94.0089 52.9713 93.6729 53.1553C93.3449 53.3313 93.0809 53.6033 92.8809 53.9713C92.6809 54.3393 92.5809 54.7873 92.5809 55.3153C92.5809 55.8513 92.6769 56.3033 92.8689 56.6713C93.0689 57.0393 93.3329 57.3153 93.6609 57.4993C93.9889 57.6753 94.3489 57.7633 94.7409 57.7633ZM102.225 52.9393H100.845V58.6153H99.7527V52.9393H98.9007V52.0393H99.7527V51.5713C99.7527 50.8353 99.9407 50.2993 100.317 49.9633C100.701 49.6193 101.313 49.4473 102.153 49.4473V50.3593C101.673 50.3593 101.333 50.4553 101.133 50.6473C100.941 50.8313 100.845 51.1393 100.845 51.5713V52.0393H102.225V52.9393ZM109.373 52.9393H107.993V58.6153H106.901V52.9393H106.049V52.0393H106.901V51.5713C106.901 50.8353 107.089 50.2993 107.465 49.9633C107.849 49.6193 108.461 49.4473 109.301 49.4473V50.3593C108.821 50.3593 108.481 50.4553 108.281 50.6473C108.089 50.8313 107.993 51.1393 107.993 51.5713V52.0393H109.373V52.9393ZM116.479 52.0393V58.6153H115.387V57.6433C115.179 57.9793 114.887 58.2433 114.511 58.4353C114.143 58.6193 113.735 58.7113 113.287 58.7113C112.775 58.7113 112.315 58.6073 111.907 58.3993C111.499 58.1833 111.175 57.8633 110.935 57.4393C110.703 57.0153 110.587 56.4993 110.587 55.8913V52.0393H111.667V55.7473C111.667 56.3953 111.831 56.8953 112.159 57.2473C112.487 57.5913 112.935 57.7633 113.503 57.7633C114.087 57.7633 114.547 57.5833 114.883 57.2233C115.219 56.8633 115.387 56.3393 115.387 55.6513V52.0393H116.479ZM119.414 49.7353V58.6153H118.322V49.7353H119.414ZM122.368 49.7353V58.6153H121.276V49.7353H122.368ZM130.032 50.2513C130.944 50.2513 131.732 50.4233 132.396 50.7673C133.068 51.1033 133.58 51.5873 133.932 52.2193C134.292 52.8513 134.472 53.5953 134.472 54.4513C134.472 55.3073 134.292 56.0513 133.932 56.6833C133.58 57.3073 133.068 57.7873 132.396 58.1233C131.732 58.4513 130.944 58.6153 130.032 58.6153H127.428V50.2513H130.032ZM130.032 57.7153C131.112 57.7153 131.936 57.4313 132.504 56.8633C133.072 56.2873 133.356 55.4833 133.356 54.4513C133.356 53.4113 133.068 52.5993 132.492 52.0153C131.924 51.4313 131.104 51.1393 130.032 51.1393H128.52V57.7153H130.032ZM140.856 56.7553H137.208L136.536 58.6153H135.384L138.408 50.2993H139.668L142.68 58.6153H141.528L140.856 56.7553ZM140.544 55.8673L139.032 51.6433L137.52 55.8673H140.544ZM149.59 52.6993C149.59 53.3953 149.35 53.9753 148.87 54.4393C148.398 54.8953 147.674 55.1233 146.698 55.1233H145.09V58.6153H143.998V50.2513H146.698C147.642 50.2513 148.358 50.4793 148.846 50.9353C149.342 51.3913 149.59 51.9793 149.59 52.6993ZM146.698 54.2233C147.306 54.2233 147.754 54.0913 148.042 53.8273C148.33 53.5633 148.474 53.1873 148.474 52.6993C148.474 51.6673 147.882 51.1513 146.698 51.1513H145.09V54.2233H146.698ZM156.539 52.6993C156.539 53.3953 156.299 53.9753 155.819 54.4393C155.347 54.8953 154.623 55.1233 153.647 55.1233H152.039V58.6153H150.947V50.2513H153.647C154.591 50.2513 155.307 50.4793 155.795 50.9353C156.291 51.3913 156.539 51.9793 156.539 52.6993ZM153.647 54.2233C154.255 54.2233 154.703 54.0913 154.991 53.8273C155.279 53.5633 155.423 53.1873 155.423 52.6993C155.423 51.6673 154.831 51.1513 153.647 51.1513H152.039V54.2233H153.647ZM44.6602 73.3033C44.6602 72.6313 44.7962 72.0433 45.0682 71.5393C45.3402 71.0273 45.7122 70.6313 46.1842 70.3513C46.6642 70.0713 47.1962 69.9313 47.7802 69.9313C48.3562 69.9313 48.8562 70.0553 49.2802 70.3033C49.7042 70.5513 50.0202 70.8633 50.2282 71.2393V70.0393H51.3322V76.6153H50.2282V75.3913C50.0122 75.7753 49.6882 76.0953 49.2562 76.3513C48.8322 76.5993 48.3362 76.7233 47.7682 76.7233C47.1842 76.7233 46.6562 76.5793 46.1842 76.2913C45.7122 76.0033 45.3402 75.5993 45.0682 75.0793C44.7962 74.5593 44.6602 73.9673 44.6602 73.3033ZM50.2282 73.3153C50.2282 72.8193 50.1282 72.3873 49.9282 72.0193C49.7282 71.6513 49.4562 71.3713 49.1122 71.1793C48.7762 70.9793 48.4042 70.8793 47.9962 70.8793C47.5882 70.8793 47.2162 70.9753 46.8802 71.1673C46.5442 71.3593 46.2762 71.6393 46.0762 72.0073C45.8762 72.3753 45.7762 72.8073 45.7762 73.3033C45.7762 73.8073 45.8762 74.2473 46.0762 74.6233C46.2762 74.9913 46.5442 75.2753 46.8802 75.4753C47.2162 75.6673 47.5882 75.7633 47.9962 75.7633C48.4042 75.7633 48.7762 75.6673 49.1122 75.4753C49.4562 75.2753 49.7282 74.9913 49.9282 74.6233C50.1282 74.2473 50.2282 73.8113 50.2282 73.3153ZM56.3816 69.9193C57.1816 69.9193 57.8296 70.1633 58.3256 70.6513C58.8216 71.1313 59.0696 71.8273 59.0696 72.7393V76.6153H57.9896V72.8953C57.9896 72.2393 57.8256 71.7393 57.4976 71.3953C57.1696 71.0433 56.7216 70.8673 56.1536 70.8673C55.5776 70.8673 55.1176 71.0473 54.7736 71.4073C54.4376 71.7673 54.2696 72.2913 54.2696 72.9793V76.6153H53.1776V70.0393H54.2696V70.9753C54.4856 70.6393 54.7776 70.3793 55.1456 70.1953C55.5216 70.0113 55.9336 69.9193 56.3816 69.9193ZM60.4454 73.3033C60.4454 72.6313 60.5814 72.0433 60.8534 71.5393C61.1254 71.0273 61.4974 70.6313 61.9694 70.3513C62.4494 70.0713 62.9854 69.9313 63.5774 69.9313C64.0894 69.9313 64.5654 70.0513 65.0054 70.2913C65.4454 70.5233 65.7814 70.8313 66.0134 71.2153V67.7353H67.1174V76.6153H66.0134V75.3793C65.7974 75.7713 65.4774 76.0953 65.0534 76.3513C64.6294 76.5993 64.1334 76.7233 63.5654 76.7233C62.9814 76.7233 62.4494 76.5793 61.9694 76.2913C61.4974 76.0033 61.1254 75.5993 60.8534 75.0793C60.5814 74.5593 60.4454 73.9673 60.4454 73.3033ZM66.0134 73.3153C66.0134 72.8193 65.9134 72.3873 65.7134 72.0193C65.5134 71.6513 65.2414 71.3713 64.8974 71.1793C64.5614 70.9793 64.1894 70.8793 63.7814 70.8793C63.3734 70.8793 63.0014 70.9753 62.6654 71.1673C62.3294 71.3593 62.0614 71.6393 61.8614 72.0073C61.6614 72.3753 61.5614 72.8073 61.5614 73.3033C61.5614 73.8073 61.6614 74.2473 61.8614 74.6233C62.0614 74.9913 62.3294 75.2753 62.6654 75.4753C63.0014 75.6673 63.3734 75.7633 63.7814 75.7633C64.1894 75.7633 64.5614 75.6673 64.8974 75.4753C65.2414 75.2753 65.5134 74.9913 65.7134 74.6233C65.9134 74.2473 66.0134 73.8113 66.0134 73.3153ZM76.35 72.3073C76.654 72.3553 76.93 72.4793 77.178 72.6793C77.434 72.8793 77.634 73.1273 77.778 73.4233C77.93 73.7193 78.006 74.0353 78.006 74.3713C78.006 74.7953 77.898 75.1793 77.682 75.5233C77.466 75.8593 77.15 76.1273 76.734 76.3273C76.326 76.5193 75.842 76.6153 75.282 76.6153H72.162V68.2513H75.162C75.73 68.2513 76.214 68.3473 76.614 68.5393C77.014 68.7233 77.314 68.9753 77.514 69.2953C77.714 69.6153 77.814 69.9753 77.814 70.3753C77.814 70.8713 77.678 71.2833 77.406 71.6113C77.142 71.9313 76.79 72.1633 76.35 72.3073ZM73.254 71.8633H75.09C75.602 71.8633 75.998 71.7433 76.278 71.5033C76.558 71.2633 76.698 70.9313 76.698 70.5073C76.698 70.0833 76.558 69.7513 76.278 69.5113C75.998 69.2713 75.594 69.1513 75.066 69.1513H73.254V71.8633ZM75.186 75.7153C75.73 75.7153 76.154 75.5873 76.458 75.3313C76.762 75.0753 76.914 74.7193 76.914 74.2633C76.914 73.7993 76.754 73.4353 76.434 73.1713C76.114 72.8993 75.686 72.7633 75.15 72.7633H73.254V75.7153H75.186ZM82.3894 76.7233C81.7734 76.7233 81.2134 76.5833 80.7094 76.3033C80.2134 76.0233 79.8214 75.6273 79.5334 75.1153C79.2534 74.5953 79.1134 73.9953 79.1134 73.3153C79.1134 72.6433 79.2574 72.0513 79.5454 71.5393C79.8414 71.0193 80.2414 70.6233 80.7454 70.3513C81.2494 70.0713 81.8134 69.9313 82.4374 69.9313C83.0614 69.9313 83.6254 70.0713 84.1294 70.3513C84.6334 70.6233 85.0294 71.0153 85.3174 71.5273C85.6134 72.0393 85.7614 72.6353 85.7614 73.3153C85.7614 73.9953 85.6094 74.5953 85.3054 75.1153C85.0094 75.6273 84.6054 76.0233 84.0934 76.3033C83.5814 76.5833 83.0134 76.7233 82.3894 76.7233ZM82.3894 75.7633C82.7814 75.7633 83.1494 75.6713 83.4934 75.4873C83.8374 75.3033 84.1134 75.0273 84.3214 74.6593C84.5374 74.2913 84.6454 73.8433 84.6454 73.3153C84.6454 72.7873 84.5414 72.3393 84.3334 71.9713C84.1254 71.6033 83.8534 71.3313 83.5174 71.1553C83.1814 70.9713 82.8174 70.8793 82.4254 70.8793C82.0254 70.8793 81.6574 70.9713 81.3214 71.1553C80.9934 71.3313 80.7294 71.6033 80.5294 71.9713C80.3294 72.3393 80.2294 72.7873 80.2294 73.3153C80.2294 73.8513 80.3254 74.3033 80.5174 74.6713C80.7174 75.0393 80.9814 75.3153 81.3094 75.4993C81.6374 75.6753 81.9974 75.7633 82.3894 75.7633ZM88.5291 70.9393V74.8153C88.5291 75.1353 88.5971 75.3633 88.7331 75.4993C88.8691 75.6273 89.1051 75.6913 89.4411 75.6913H90.2451V76.6153H89.2611C88.6531 76.6153 88.1971 76.4753 87.8931 76.1953C87.5891 75.9153 87.4371 75.4553 87.4371 74.8153V70.9393H86.5851V70.0393H87.4371V68.3833H88.5291V70.0393H90.2451V70.9393H88.5291ZM93.8962 76.7233C93.3922 76.7233 92.9402 76.6393 92.5402 76.4713C92.1402 76.2953 91.8242 76.0553 91.5922 75.7513C91.3602 75.4393 91.2322 75.0833 91.2082 74.6833H92.3362C92.3682 75.0113 92.5202 75.2793 92.7922 75.4873C93.0722 75.6953 93.4362 75.7993 93.8842 75.7993C94.3002 75.7993 94.6282 75.7073 94.8682 75.5233C95.1082 75.3393 95.2282 75.1073 95.2282 74.8273C95.2282 74.5393 95.1002 74.3273 94.8442 74.1913C94.5882 74.0473 94.1922 73.9073 93.6562 73.7713C93.1682 73.6433 92.7682 73.5153 92.4562 73.3873C92.1522 73.2513 91.8882 73.0553 91.6642 72.7993C91.4482 72.5353 91.3402 72.1913 91.3402 71.7673C91.3402 71.4313 91.4402 71.1233 91.6402 70.8433C91.8402 70.5633 92.1242 70.3433 92.4922 70.1833C92.8602 70.0153 93.2802 69.9313 93.7522 69.9313C94.4802 69.9313 95.0682 70.1153 95.5162 70.4833C95.9642 70.8513 96.2042 71.3553 96.2362 71.9953H95.1442C95.1202 71.6513 94.9802 71.3753 94.7242 71.1673C94.4762 70.9593 94.1402 70.8553 93.7162 70.8553C93.3242 70.8553 93.0122 70.9393 92.7802 71.1073C92.5482 71.2753 92.4322 71.4953 92.4322 71.7673C92.4322 71.9833 92.5002 72.1633 92.6362 72.3073C92.7802 72.4433 92.9562 72.5553 93.1642 72.6433C93.3802 72.7233 93.6762 72.8153 94.0522 72.9193C94.5242 73.0473 94.9082 73.1753 95.2042 73.3033C95.5002 73.4233 95.7522 73.6073 95.9602 73.8553C96.1762 74.1033 96.2882 74.4273 96.2962 74.8273C96.2962 75.1873 96.1962 75.5113 95.9962 75.7993C95.7962 76.0873 95.5122 76.3153 95.1442 76.4833C94.7842 76.6433 94.3682 76.7233 93.8962 76.7233Z" fill="white"/>
<path d="M213.258 55.1711C213.258 55.8671 213.018 56.4471 212.538 56.9111C212.066 57.3671 211.342 57.5951 210.366 57.5951H208.758V61.0871H207.666V52.7231H210.366C211.31 52.7231 212.026 52.9511 212.514 53.4071C213.01 53.8631 213.258 54.4511 213.258 55.1711ZM210.366 56.6951C210.974 56.6951 211.422 56.5631 211.71 56.2991C211.998 56.0351 212.142 55.6591 212.142 55.1711C212.142 54.1391 211.55 53.6231 210.366 53.6231H208.758V56.6951H210.366ZM214.207 57.7751C214.207 57.1031 214.343 56.5151 214.615 56.0111C214.887 55.4991 215.259 55.1031 215.731 54.8231C216.211 54.5431 216.743 54.4031 217.327 54.4031C217.903 54.4031 218.403 54.5271 218.827 54.7751C219.251 55.0231 219.567 55.3351 219.775 55.7111V54.5111H220.879V61.0871H219.775V59.8631C219.559 60.2471 219.235 60.5671 218.803 60.8231C218.379 61.0711 217.883 61.1951 217.315 61.1951C216.731 61.1951 216.203 61.0511 215.731 60.7631C215.259 60.4751 214.887 60.0711 214.615 59.5511C214.343 59.0311 214.207 58.4391 214.207 57.7751ZM219.775 57.7871C219.775 57.2911 219.675 56.8591 219.475 56.4911C219.275 56.1231 219.003 55.8431 218.659 55.6511C218.323 55.4511 217.951 55.3511 217.543 55.3511C217.135 55.3511 216.763 55.4471 216.427 55.6391C216.091 55.8311 215.823 56.1111 215.623 56.4791C215.423 56.8471 215.323 57.2791 215.323 57.7751C215.323 58.2791 215.423 58.7191 215.623 59.0951C215.823 59.4631 216.091 59.7471 216.427 59.9471C216.763 60.1391 217.135 60.2351 217.543 60.2351C217.951 60.2351 218.323 60.1391 218.659 59.9471C219.003 59.7471 219.275 59.4631 219.475 59.0951C219.675 58.7191 219.775 58.2831 219.775 57.7871ZM223.817 55.5791C224.009 55.2031 224.281 54.9111 224.633 54.7031C224.993 54.4951 225.429 54.3911 225.941 54.3911V55.5191H225.653C224.429 55.5191 223.817 56.1831 223.817 57.5111V61.0871H222.725V54.5111H223.817V55.5791ZM228.533 55.4111V59.2871C228.533 59.6071 228.601 59.8351 228.737 59.9711C228.873 60.0991 229.109 60.1631 229.445 60.1631H230.249V61.0871H229.265C228.657 61.0871 228.201 60.9471 227.897 60.6671C227.593 60.3871 227.441 59.9271 227.441 59.2871V55.4111H226.589V54.5111H227.441V52.8551H228.533V54.5111H230.249V55.4111H228.533ZM234.776 54.3911C235.576 54.3911 236.224 54.6351 236.72 55.1231C237.216 55.6031 237.464 56.2991 237.464 57.2111V61.0871H236.384V57.3671C236.384 56.7111 236.22 56.2111 235.892 55.8671C235.564 55.5151 235.116 55.3391 234.548 55.3391C233.972 55.3391 233.512 55.5191 233.168 55.8791C232.832 56.2391 232.664 56.7631 232.664 57.4511V61.0871H231.572V54.5111H232.664V55.4471C232.88 55.1111 233.172 54.8511 233.54 54.6671C233.916 54.4831 234.328 54.3911 234.776 54.3911ZM245.248 57.5471C245.248 57.7551 245.236 57.9751 245.212 58.2071H239.956C239.996 58.8551 240.216 59.3631 240.616 59.7311C241.024 60.0911 241.516 60.2711 242.092 60.2711C242.564 60.2711 242.956 60.1631 243.268 59.9471C243.588 59.7231 243.812 59.4271 243.94 59.0591H245.116C244.94 59.6911 244.588 60.2071 244.06 60.6071C243.532 60.9991 242.876 61.1951 242.092 61.1951C241.468 61.1951 240.908 61.0551 240.412 60.7751C239.924 60.4951 239.54 60.0991 239.26 59.5871C238.98 59.0671 238.84 58.4671 238.84 57.7871C238.84 57.1071 238.976 56.5111 239.248 55.9991C239.52 55.4871 239.9 55.0951 240.388 54.8231C240.884 54.5431 241.452 54.4031 242.092 54.4031C242.716 54.4031 243.268 54.5391 243.748 54.8111C244.228 55.0831 244.596 55.4591 244.852 55.9391C245.116 56.4111 245.248 56.9471 245.248 57.5471ZM244.12 57.3191C244.12 56.9031 244.028 56.5471 243.844 56.2511C243.66 55.9471 243.408 55.7191 243.088 55.5671C242.776 55.4071 242.428 55.3271 242.044 55.3271C241.492 55.3271 241.02 55.5031 240.628 55.8551C240.244 56.2071 240.024 56.6951 239.968 57.3191H244.12ZM247.782 55.5791C247.974 55.2031 248.246 54.9111 248.598 54.7031C248.958 54.4951 249.394 54.3911 249.906 54.3911V55.5191H249.618C248.394 55.5191 247.782 56.1831 247.782 57.5111V61.0871H246.69V54.5111H247.782V55.5791ZM253.494 61.1951C252.99 61.1951 252.538 61.1111 252.138 60.9431C251.738 60.7671 251.422 60.5271 251.19 60.2231C250.958 59.9111 250.83 59.5551 250.806 59.1551H251.934C251.966 59.4831 252.118 59.7511 252.39 59.9591C252.67 60.1671 253.034 60.2711 253.482 60.2711C253.898 60.2711 254.226 60.1791 254.466 59.9951C254.706 59.8111 254.826 59.5791 254.826 59.2991C254.826 59.0111 254.698 58.7991 254.442 58.6631C254.186 58.5191 253.79 58.3791 253.254 58.2431C252.766 58.1151 252.366 57.9871 252.054 57.8591C251.75 57.7231 251.486 57.5271 251.262 57.2711C251.046 57.0071 250.938 56.6631 250.938 56.2391C250.938 55.9031 251.038 55.5951 251.238 55.3151C251.438 55.0351 251.722 54.8151 252.09 54.6551C252.458 54.4871 252.878 54.4031 253.35 54.4031C254.078 54.4031 254.666 54.5871 255.114 54.9551C255.562 55.3231 255.802 55.8271 255.834 56.4671H254.742C254.718 56.1231 254.578 55.8471 254.322 55.6391C254.074 55.4311 253.738 55.3271 253.314 55.3271C252.922 55.3271 252.61 55.4111 252.378 55.5791C252.146 55.7471 252.03 55.9671 252.03 56.2391C252.03 56.4551 252.098 56.6351 252.234 56.7791C252.378 56.9151 252.554 57.0271 252.762 57.1151C252.978 57.1951 253.274 57.2871 253.65 57.3911C254.122 57.5191 254.506 57.6471 254.802 57.7751C255.098 57.8951 255.35 58.0791 255.558 58.3271C255.774 58.5751 255.886 58.8991 255.894 59.2991C255.894 59.6591 255.794 59.9831 255.594 60.2711C255.394 60.5591 255.11 60.7871 254.742 60.9551C254.382 61.1151 253.966 61.1951 253.494 61.1951ZM260.7 54.3911C261.196 54.3911 261.644 54.4991 262.044 54.7151C262.444 54.9231 262.756 55.2391 262.98 55.6631C263.212 56.0871 263.328 56.6031 263.328 57.2111V61.0871H262.248V57.3671C262.248 56.7111 262.084 56.2111 261.756 55.8671C261.428 55.5151 260.98 55.3391 260.412 55.3391C259.836 55.3391 259.376 55.5191 259.032 55.8791C258.696 56.2391 258.528 56.7631 258.528 57.4511V61.0871H257.436V52.2071H258.528V55.4471C258.744 55.1111 259.04 54.8511 259.416 54.6671C259.8 54.4831 260.228 54.3911 260.7 54.3911ZM265.676 53.4431C265.468 53.4431 265.292 53.3711 265.148 53.2271C265.004 53.0831 264.932 52.9071 264.932 52.6991C264.932 52.4911 265.004 52.3151 265.148 52.1711C265.292 52.0271 265.468 51.9551 265.676 51.9551C265.876 51.9551 266.044 52.0271 266.18 52.1711C266.324 52.3151 266.396 52.4911 266.396 52.6991C266.396 52.9071 266.324 53.0831 266.18 53.2271C266.044 53.3711 265.876 53.4431 265.676 53.4431ZM266.204 54.5111V61.0871H265.112V54.5111H266.204ZM269.157 55.7231C269.373 55.3471 269.693 55.0351 270.117 54.7871C270.549 54.5311 271.049 54.4031 271.617 54.4031C272.201 54.4031 272.729 54.5431 273.201 54.8231C273.681 55.1031 274.057 55.4991 274.329 56.0111C274.601 56.5151 274.737 57.1031 274.737 57.7751C274.737 58.4391 274.601 59.0311 274.329 59.5511C274.057 60.0711 273.681 60.4751 273.201 60.7631C272.729 61.0511 272.201 61.1951 271.617 61.1951C271.057 61.1951 270.561 61.0711 270.129 60.8231C269.705 60.5671 269.381 60.2511 269.157 59.8751V64.2071H268.065V54.5111H269.157V55.7231ZM273.621 57.7751C273.621 57.2791 273.521 56.8471 273.321 56.4791C273.121 56.1111 272.849 55.8311 272.505 55.6391C272.169 55.4471 271.797 55.3511 271.389 55.3511C270.989 55.3511 270.617 55.4511 270.273 55.6511C269.937 55.8431 269.665 56.1271 269.457 56.5031C269.257 56.8711 269.157 57.2991 269.157 57.7871C269.157 58.2831 269.257 58.7191 269.457 59.0951C269.665 59.4631 269.937 59.7471 270.273 59.9471C270.617 60.1391 270.989 60.2351 271.389 60.2351C271.797 60.2351 272.169 60.1391 272.505 59.9471C272.849 59.7471 273.121 59.4631 273.321 59.0951C273.521 58.7191 273.621 58.2791 273.621 57.7751ZM278.502 61.1951C277.998 61.1951 277.546 61.1111 277.146 60.9431C276.746 60.7671 276.43 60.5271 276.198 60.2231C275.966 59.9111 275.838 59.5551 275.814 59.1551H276.942C276.974 59.4831 277.126 59.7511 277.398 59.9591C277.678 60.1671 278.042 60.2711 278.49 60.2711C278.906 60.2711 279.234 60.1791 279.474 59.9951C279.714 59.8111 279.834 59.5791 279.834 59.2991C279.834 59.0111 279.706 58.7991 279.45 58.6631C279.194 58.5191 278.798 58.3791 278.262 58.2431C277.774 58.1151 277.374 57.9871 277.062 57.8591C276.758 57.7231 276.494 57.5271 276.27 57.2711C276.054 57.0071 275.946 56.6631 275.946 56.2391C275.946 55.9031 276.046 55.5951 276.246 55.3151C276.446 55.0351 276.73 54.8151 277.098 54.6551C277.466 54.4871 277.886 54.4031 278.358 54.4031C279.086 54.4031 279.674 54.5871 280.122 54.9551C280.57 55.3231 280.81 55.8271 280.842 56.4671H279.75C279.726 56.1231 279.586 55.8471 279.33 55.6391C279.082 55.4311 278.746 55.3271 278.322 55.3271C277.93 55.3271 277.618 55.4111 277.386 55.5791C277.154 55.7471 277.038 55.9671 277.038 56.2391C277.038 56.4551 277.106 56.6351 277.242 56.7791C277.386 56.9151 277.562 57.0271 277.77 57.1151C277.986 57.1951 278.282 57.2871 278.658 57.3911C279.13 57.5191 279.514 57.6471 279.81 57.7751C280.106 57.8951 280.358 58.0791 280.566 58.3271C280.782 58.5751 280.894 58.8991 280.902 59.2991C280.902 59.6591 280.802 59.9831 280.602 60.2711C280.402 60.5591 280.118 60.7871 279.75 60.9551C279.39 61.1151 278.974 61.1951 278.502 61.1951Z" fill="white"/>
<path d="M206.523 87.0641C206.523 86.2481 206.707 85.5161 207.075 84.8681C207.443 84.2121 207.943 83.7001 208.575 83.3321C209.215 82.9641 209.923 82.7801 210.699 82.7801C211.611 82.7801 212.407 83.0001 213.087 83.4401C213.767 83.8801 214.263 84.5041 214.575 85.3121H213.267C213.035 84.8081 212.699 84.4201 212.259 84.1481C211.827 83.8761 211.307 83.7401 210.699 83.7401C210.115 83.7401 209.591 83.8761 209.127 84.1481C208.663 84.4201 208.299 84.8081 208.035 85.3121C207.771 85.8081 207.639 86.3921 207.639 87.0641C207.639 87.7281 207.771 88.3121 208.035 88.8161C208.299 89.3121 208.663 89.6961 209.127 89.9681C209.591 90.2401 210.115 90.3761 210.699 90.3761C211.307 90.3761 211.827 90.2441 212.259 89.9801C212.699 89.7081 213.035 89.3201 213.267 88.8161H214.575C214.263 89.6161 213.767 90.2361 213.087 90.6761C212.407 91.1081 211.611 91.3241 210.699 91.3241C209.923 91.3241 209.215 91.1441 208.575 90.7841C207.943 90.4161 207.443 89.9081 207.075 89.2601C206.707 88.6121 206.523 87.8801 206.523 87.0641ZM219.068 91.3601C218.452 91.3601 217.892 91.2201 217.388 90.9401C216.892 90.6601 216.5 90.2641 216.212 89.7521C215.932 89.2321 215.792 88.6321 215.792 87.9521C215.792 87.2801 215.936 86.6881 216.224 86.1761C216.52 85.6561 216.92 85.2601 217.424 84.9881C217.928 84.7081 218.492 84.5681 219.116 84.5681C219.74 84.5681 220.304 84.7081 220.808 84.9881C221.312 85.2601 221.708 85.6521 221.996 86.1641C222.292 86.6761 222.44 87.2721 222.44 87.9521C222.44 88.6321 222.288 89.2321 221.984 89.7521C221.688 90.2641 221.284 90.6601 220.772 90.9401C220.26 91.2201 219.692 91.3601 219.068 91.3601ZM219.068 90.4001C219.46 90.4001 219.828 90.3081 220.172 90.1241C220.516 89.9401 220.792 89.6641 221 89.2961C221.216 88.9281 221.324 88.4801 221.324 87.9521C221.324 87.4241 221.22 86.9761 221.012 86.6081C220.804 86.2401 220.532 85.9681 220.196 85.7921C219.86 85.6081 219.496 85.5161 219.104 85.5161C218.704 85.5161 218.336 85.6081 218 85.7921C217.672 85.9681 217.408 86.2401 217.208 86.6081C217.008 86.9761 216.908 87.4241 216.908 87.9521C216.908 88.4881 217.004 88.9401 217.196 89.3081C217.396 89.6761 217.66 89.9521 217.988 90.1361C218.316 90.3121 218.676 90.4001 219.068 90.4001ZM231.784 84.5561C232.296 84.5561 232.752 84.6641 233.152 84.8801C233.552 85.0881 233.868 85.4041 234.1 85.8281C234.332 86.2521 234.448 86.7681 234.448 87.3761V91.2521H233.368V87.5321C233.368 86.8761 233.204 86.3761 232.876 86.0321C232.556 85.6801 232.12 85.5041 231.568 85.5041C231 85.5041 230.548 85.6881 230.212 86.0561C229.876 86.4161 229.708 86.9401 229.708 87.6281V91.2521H228.628V87.5321C228.628 86.8761 228.464 86.3761 228.136 86.0321C227.816 85.6801 227.38 85.5041 226.828 85.5041C226.26 85.5041 225.808 85.6881 225.472 86.0561C225.136 86.4161 224.968 86.9401 224.968 87.6281V91.2521H223.876V84.6761H224.968V85.6241C225.184 85.2801 225.472 85.0161 225.832 84.8321C226.2 84.6481 226.604 84.5561 227.044 84.5561C227.596 84.5561 228.084 84.6801 228.508 84.9281C228.932 85.1761 229.248 85.5401 229.456 86.0201C229.64 85.5561 229.944 85.1961 230.368 84.9401C230.792 84.6841 231.264 84.5561 231.784 84.5561ZM244.147 84.5561C244.659 84.5561 245.115 84.6641 245.515 84.8801C245.915 85.0881 246.231 85.4041 246.463 85.8281C246.695 86.2521 246.811 86.7681 246.811 87.3761V91.2521H245.731V87.5321C245.731 86.8761 245.567 86.3761 245.239 86.0321C244.919 85.6801 244.483 85.5041 243.931 85.5041C243.363 85.5041 242.911 85.6881 242.575 86.0561C242.239 86.4161 242.071 86.9401 242.071 87.6281V91.2521H240.991V87.5321C240.991 86.8761 240.827 86.3761 240.499 86.0321C240.179 85.6801 239.743 85.5041 239.191 85.5041C238.623 85.5041 238.171 85.6881 237.835 86.0561C237.499 86.4161 237.331 86.9401 237.331 87.6281V91.2521H236.239V84.6761H237.331V85.6241C237.547 85.2801 237.835 85.0161 238.195 84.8321C238.563 84.6481 238.967 84.5561 239.407 84.5561C239.959 84.5561 240.447 84.6801 240.871 84.9281C241.295 85.1761 241.611 85.5401 241.819 86.0201C242.003 85.5561 242.307 85.1961 242.731 84.9401C243.155 84.6841 243.627 84.5561 244.147 84.5561ZM254.435 84.6761V91.2521H253.343V90.2801C253.135 90.6161 252.843 90.8801 252.467 91.0721C252.099 91.2561 251.691 91.3481 251.243 91.3481C250.731 91.3481 250.271 91.2441 249.863 91.0361C249.455 90.8201 249.131 90.5001 248.891 90.0761C248.659 89.6521 248.543 89.1361 248.543 88.5281V84.6761H249.623V88.3841C249.623 89.0321 249.787 89.5321 250.115 89.8841C250.443 90.2281 250.891 90.4001 251.459 90.4001C252.043 90.4001 252.503 90.2201 252.839 89.8601C253.175 89.5001 253.343 88.9761 253.343 88.2881V84.6761H254.435ZM259.482 84.5561C260.282 84.5561 260.93 84.8001 261.426 85.2881C261.922 85.7681 262.17 86.4641 262.17 87.3761V91.2521H261.09V87.5321C261.09 86.8761 260.926 86.3761 260.598 86.0321C260.27 85.6801 259.822 85.5041 259.254 85.5041C258.678 85.5041 258.218 85.6841 257.874 86.0441C257.538 86.4041 257.37 86.9281 257.37 87.6161V91.2521H256.278V84.6761H257.37V85.6121C257.586 85.2761 257.878 85.0161 258.246 84.8321C258.622 84.6481 259.034 84.5561 259.482 84.5561ZM264.518 83.6081C264.31 83.6081 264.134 83.5361 263.99 83.3921C263.846 83.2481 263.774 83.0721 263.774 82.8641C263.774 82.6561 263.846 82.4801 263.99 82.3361C264.134 82.1921 264.31 82.1201 264.518 82.1201C264.718 82.1201 264.886 82.1921 265.022 82.3361C265.166 82.4801 265.238 82.6561 265.238 82.8641C265.238 83.0721 265.166 83.2481 265.022 83.3921C264.886 83.5361 264.718 83.6081 264.518 83.6081ZM265.046 84.6761V91.2521H263.954V84.6761H265.046ZM268.239 85.5761V89.4521C268.239 89.7721 268.307 90.0001 268.443 90.1361C268.579 90.2641 268.815 90.3281 269.151 90.3281H269.955V91.2521H268.971C268.363 91.2521 267.907 91.1121 267.603 90.8321C267.299 90.5521 267.147 90.0921 267.147 89.4521V85.5761H266.295V84.6761H267.147V83.0201H268.239V84.6761H269.955V85.5761H268.239ZM276.942 84.6761L272.982 94.3481H271.854L273.15 91.1801L270.498 84.6761H271.71L273.774 90.0041L275.814 84.6761H276.942ZM282.331 83.7761V86.5721H285.379V87.4721H282.331V90.3521H285.739V91.2521H281.239V82.8761H285.739V83.7761H282.331ZM289.84 90.2441L291.88 84.6761H293.044L290.464 91.2521H289.192L286.612 84.6761H287.788L289.84 90.2441ZM300.118 87.7121C300.118 87.9201 300.106 88.1401 300.082 88.3721H294.826C294.866 89.0201 295.086 89.5281 295.486 89.8961C295.894 90.2561 296.386 90.4361 296.962 90.4361C297.434 90.4361 297.826 90.3281 298.138 90.1121C298.458 89.8881 298.682 89.5921 298.81 89.2241H299.986C299.81 89.8561 299.458 90.3721 298.93 90.7721C298.402 91.1641 297.746 91.3601 296.962 91.3601C296.338 91.3601 295.778 91.2201 295.282 90.9401C294.794 90.6601 294.41 90.2641 294.13 89.7521C293.85 89.2321 293.71 88.6321 293.71 87.9521C293.71 87.2721 293.846 86.6761 294.118 86.1641C294.39 85.6521 294.77 85.2601 295.258 84.9881C295.754 84.7081 296.322 84.5681 296.962 84.5681C297.586 84.5681 298.138 84.7041 298.618 84.9761C299.098 85.2481 299.466 85.6241 299.722 86.1041C299.986 86.5761 300.118 87.1121 300.118 87.7121ZM298.99 87.4841C298.99 87.0681 298.898 86.7121 298.714 86.4161C298.53 86.1121 298.278 85.8841 297.958 85.7321C297.646 85.5721 297.298 85.4921 296.914 85.4921C296.362 85.4921 295.89 85.6681 295.498 86.0201C295.114 86.3721 294.894 86.8601 294.838 87.4841H298.99ZM304.764 84.5561C305.564 84.5561 306.212 84.8001 306.708 85.2881C307.204 85.7681 307.452 86.4641 307.452 87.3761V91.2521H306.372V87.5321C306.372 86.8761 306.208 86.3761 305.88 86.0321C305.552 85.6801 305.104 85.5041 304.536 85.5041C303.96 85.5041 303.5 85.6841 303.156 86.0441C302.82 86.4041 302.652 86.9281 302.652 87.6161V91.2521H301.56V84.6761H302.652V85.6121C302.868 85.2761 303.16 85.0161 303.528 84.8321C303.904 84.6481 304.316 84.5561 304.764 84.5561ZM310.568 85.5761V89.4521C310.568 89.7721 310.636 90.0001 310.772 90.1361C310.908 90.2641 311.144 90.3281 311.48 90.3281H312.284V91.2521H311.3C310.692 91.2521 310.236 91.1121 309.932 90.8321C309.628 90.5521 309.476 90.0921 309.476 89.4521V85.5761H308.624V84.6761H309.476V83.0201H310.568V84.6761H312.284V85.5761H310.568ZM315.935 91.3601C315.431 91.3601 314.979 91.2761 314.579 91.1081C314.179 90.9321 313.863 90.6921 313.631 90.3881C313.399 90.0761 313.271 89.7201 313.247 89.3201H314.375C314.407 89.6481 314.559 89.9161 314.831 90.1241C315.111 90.3321 315.475 90.4361 315.923 90.4361C316.339 90.4361 316.667 90.3441 316.907 90.1601C317.147 89.9761 317.267 89.7441 317.267 89.4641C317.267 89.1761 317.139 88.9641 316.883 88.8281C316.627 88.6841 316.231 88.5441 315.695 88.4081C315.207 88.2801 314.807 88.1521 314.495 88.0241C314.191 87.8881 313.927 87.6921 313.703 87.4361C313.487 87.1721 313.379 86.8281 313.379 86.4041C313.379 86.0681 313.479 85.7601 313.679 85.4801C313.879 85.2001 314.163 84.9801 314.531 84.8201C314.899 84.6521 315.319 84.5681 315.791 84.5681C316.519 84.5681 317.107 84.7521 317.555 85.1201C318.003 85.4881 318.243 85.9921 318.275 86.6321H317.183C317.159 86.2881 317.019 86.0121 316.763 85.8041C316.515 85.5961 316.179 85.4921 315.755 85.4921C315.363 85.4921 315.051 85.5761 314.819 85.7441C314.587 85.9121 314.471 86.1321 314.471 86.4041C314.471 86.6201 314.539 86.8001 314.675 86.9441C314.819 87.0801 314.995 87.1921 315.203 87.2801C315.419 87.3601 315.715 87.4521 316.091 87.5561C316.563 87.6841 316.947 87.8121 317.243 87.9401C317.539 88.0601 317.791 88.2441 317.999 88.4921C318.215 88.7401 318.327 89.0641 318.335 89.4641C318.335 89.8241 318.235 90.1481 318.035 90.4361C317.835 90.7241 317.551 90.9521 317.183 91.1201C316.823 91.2801 316.407 91.3601 315.935 91.3601Z" fill="white"/>
<path d="M33.8445 57.3873C34.6572 57.3873 35.316 56.7285 35.316 55.9158C35.316 55.1031 34.6572 54.4443 33.8445 54.4443C33.0318 54.4443 32.373 55.1031 32.373 55.9158C32.373 56.7285 33.0318 57.3873 33.8445 57.3873Z" fill="white"/>
<path d="M33.8445 99.3243C34.6572 99.3243 35.316 98.6655 35.316 97.8528C35.316 97.0401 34.6572 96.3813 33.8445 96.3813C33.0318 96.3813 32.373 97.0401 32.373 97.8528C32.373 98.6655 33.0318 99.3243 33.8445 99.3243Z" fill="white"/>
<path d="M33.8445 138.318C34.6572 138.318 35.316 137.66 35.316 136.847C35.316 136.034 34.6572 135.375 33.8445 135.375C33.0318 135.375 32.373 136.034 32.373 136.847C32.373 137.66 33.0318 138.318 33.8445 138.318Z" fill="white"/>
<path d="M199.385 57.3873C200.197 57.3873 200.856 56.7285 200.856 55.9158C200.856 55.1031 200.197 54.4443 199.385 54.4443C198.572 54.4443 197.913 55.1031 197.913 55.9158C197.913 56.7285 198.572 57.3873 199.385 57.3873Z" fill="white"/>
<path d="M198.649 87.5523C199.462 87.5523 200.121 86.8935 200.121 86.0808C200.121 85.2682 199.462 84.6094 198.649 84.6094C197.837 84.6094 197.178 85.2682 197.178 86.0808C197.178 86.8935 197.837 87.5523 198.649 87.5523Z" fill="white"/>
<path d="M266.156 227.117C262.742 227.117 259.628 226.264 256.812 224.557C253.996 222.851 251.734 220.589 250.028 217.773C248.321 214.957 247.468 211.885 247.468 208.557V201.389H267.052V207.533H318.38V190.509H262.572V170.925H314.924V154.541H267.052V161.709H247.468V153.517C247.468 150.104 248.321 146.989 250.028 144.173C251.734 141.357 253.996 139.139 256.812 137.517C259.628 135.811 262.742 134.957 266.156 134.957H315.948C319.361 134.957 322.476 135.811 325.292 137.517C328.108 139.139 330.326 141.357 331.948 144.173C333.654 146.989 334.508 150.104 334.508 153.517V171.949C334.508 172.888 334.422 173.912 334.252 175.021C334.166 176.045 333.996 176.984 333.74 177.837C335.02 179.373 336.044 181.165 336.812 183.213C337.58 185.176 337.964 187.267 337.964 189.485V208.557C337.964 211.885 337.11 214.957 335.404 217.773C333.782 220.589 331.564 222.851 328.748 224.557C325.932 226.264 322.817 227.117 319.404 227.117H266.156Z" fill="url(#paint0_linear_3199_4809)" fill-opacity="0.22"/>
<path d="M20.0254 217.327V206.542H28.7254C29.1054 206.542 29.4554 206.637 29.7754 206.827C30.0954 207.017 30.3504 207.272 30.5404 207.592C30.7304 207.902 30.8254 208.247 30.8254 208.627V211.537C30.8254 211.917 30.7304 212.267 30.5404 212.587C30.3504 212.907 30.0954 213.162 29.7754 213.352C29.4554 213.532 29.1054 213.622 28.7254 213.622L22.0054 213.637V217.327H20.0254ZM22.1854 211.627H28.6354C28.6854 211.627 28.7304 211.612 28.7704 211.582C28.8104 211.552 28.8304 211.512 28.8304 211.462V208.702C28.8304 208.652 28.8104 208.612 28.7704 208.582C28.7304 208.542 28.6854 208.522 28.6354 208.522H22.1854C22.1354 208.522 22.0904 208.542 22.0504 208.582C22.0204 208.612 22.0054 208.652 22.0054 208.702V211.462C22.0054 211.512 22.0204 211.552 22.0504 211.582C22.0904 211.612 22.1354 211.627 22.1854 211.627ZM31.8606 217.327V205.777H33.8256V208.627H38.6256C39.0056 208.627 39.3506 208.722 39.6606 208.912C39.9706 209.102 40.2206 209.352 40.4106 209.662C40.6006 209.972 40.6956 210.317 40.6956 210.697V217.327H38.7306V210.772C38.7306 210.722 38.7106 210.682 38.6706 210.652C38.6406 210.612 38.6006 210.592 38.5506 210.592H34.0056C33.9556 210.592 33.9106 210.612 33.8706 210.652C33.8406 210.682 33.8256 210.722 33.8256 210.772V217.327H31.8606ZM43.9348 217.327C43.5548 217.327 43.2048 217.232 42.8848 217.042C42.5748 216.852 42.3248 216.602 42.1348 216.292C41.9548 215.982 41.8648 215.637 41.8648 215.257V211.987H48.7348V210.772C48.7348 210.722 48.7148 210.682 48.6748 210.652C48.6448 210.612 48.6048 210.592 48.5548 210.592H41.8648V208.627H48.6298C49.0098 208.627 49.3548 208.722 49.6648 208.912C49.9848 209.102 50.2348 209.352 50.4148 209.662C50.6048 209.972 50.6998 210.317 50.6998 210.697V217.327H43.9348ZM44.0098 215.362H48.7348V213.757H43.8298V215.182C43.8298 215.232 43.8448 215.277 43.8748 215.317C43.9148 215.347 43.9598 215.362 44.0098 215.362ZM53.9675 217.327C53.5875 217.327 53.2425 217.232 52.9325 217.042C52.6225 216.852 52.3725 216.602 52.1825 216.292C51.9925 215.982 51.8975 215.637 51.8975 215.257V214.927H53.8625V215.182C53.8625 215.232 53.8775 215.277 53.9075 215.317C53.9475 215.347 53.9925 215.362 54.0425 215.362H58.5875C58.6375 215.362 58.6775 215.347 58.7075 215.317C58.7475 215.277 58.7675 215.232 58.7675 215.182V214.147C58.7675 214.097 58.7475 214.057 58.7075 214.027C58.6775 213.987 58.6375 213.967 58.5875 213.967H53.9675C53.5875 213.967 53.2425 213.872 52.9325 213.682C52.6225 213.492 52.3725 213.242 52.1825 212.932C51.9925 212.622 51.8975 212.277 51.8975 211.897V210.697C51.8975 210.317 51.9925 209.972 52.1825 209.662C52.3725 209.352 52.6225 209.102 52.9325 208.912C53.2425 208.722 53.5875 208.627 53.9675 208.627H58.6625C59.0525 208.627 59.4025 208.722 59.7125 208.912C60.0225 209.102 60.2725 209.352 60.4625 209.662C60.6525 209.972 60.7475 210.317 60.7475 210.697V211.027H58.7675V210.772C58.7675 210.722 58.7475 210.682 58.7075 210.652C58.6775 210.612 58.6375 210.592 58.5875 210.592H54.0425C53.9925 210.592 53.9475 210.612 53.9075 210.652C53.8775 210.682 53.8625 210.722 53.8625 210.772V211.807C53.8625 211.857 53.8775 211.902 53.9075 211.942C53.9475 211.972 53.9925 211.987 54.0425 211.987H58.6625C59.0525 211.987 59.4025 212.082 59.7125 212.272C60.0225 212.462 60.2725 212.712 60.4625 213.022C60.6525 213.332 60.7475 213.677 60.7475 214.057V215.257C60.7475 215.637 60.6525 215.982 60.4625 216.292C60.2725 216.602 60.0225 216.852 59.7125 217.042C59.4025 217.232 59.0525 217.327 58.6625 217.327H53.9675ZM64.0174 217.327C63.6374 217.327 63.2924 217.232 62.9824 217.042C62.6724 216.852 62.4224 216.602 62.2324 216.292C62.0424 215.982 61.9474 215.637 61.9474 215.257V210.697C61.9474 210.317 62.0424 209.972 62.2324 209.662C62.4224 209.352 62.6724 209.102 62.9824 208.912C63.2924 208.722 63.6374 208.627 64.0174 208.627H68.7124C69.0924 208.627 69.4374 208.722 69.7474 208.912C70.0674 209.102 70.3174 209.352 70.4974 209.662C70.6874 209.972 70.7824 210.317 70.7824 210.697V213.967H63.9124V215.182C63.9124 215.232 63.9274 215.277 63.9574 215.317C63.9974 215.347 64.0424 215.362 64.0924 215.362H70.7824V217.327H64.0174ZM63.9124 212.197H68.8174V210.772C68.8174 210.722 68.7974 210.682 68.7574 210.652C68.7274 210.612 68.6874 210.592 68.6374 210.592H64.0924C64.0424 210.592 63.9974 210.612 63.9574 210.652C63.9274 210.682 63.9124 210.722 63.9124 210.772V212.197ZM79.0331 217.327C78.6431 217.327 78.2931 217.232 77.9831 217.042C77.6731 216.852 77.4231 216.602 77.2331 216.292C77.0431 215.982 76.9481 215.637 76.9481 215.257V214.612H78.9131V215.182C78.9131 215.232 78.9281 215.277 78.9581 215.317C78.9981 215.347 79.0431 215.362 79.0931 215.362H85.4981C85.5481 215.362 85.5931 215.347 85.6331 215.317C85.6731 215.277 85.6931 215.232 85.6931 215.182V213.022C85.6931 212.972 85.6731 212.932 85.6331 212.902C85.5931 212.862 85.5481 212.842 85.4981 212.842H78.8081V210.877H85.0781C85.1281 210.877 85.1681 210.862 85.1981 210.832C85.2381 210.792 85.2581 210.747 85.2581 210.697V208.672C85.2581 208.622 85.2381 208.582 85.1981 208.552C85.1681 208.512 85.1281 208.492 85.0781 208.492H79.0931C79.0431 208.492 78.9981 208.512 78.9581 208.552C78.9281 208.582 78.9131 208.622 78.9131 208.672V209.377H76.9481V208.597C76.9481 208.207 77.0431 207.857 77.2331 207.547C77.4231 207.237 77.6731 206.992 77.9831 206.812C78.2931 206.622 78.6431 206.527 79.0331 206.527H85.1531C85.5431 206.527 85.8931 206.622 86.2031 206.812C86.5131 206.992 86.7581 207.237 86.9381 207.547C87.1281 207.857 87.2231 208.207 87.2231 208.597V210.787C87.2231 210.907 87.2131 211.032 87.1931 211.162C87.1731 211.282 87.1431 211.397 87.1031 211.507C87.2831 211.697 87.4181 211.922 87.5081 212.182C87.6081 212.432 87.6581 212.687 87.6581 212.947V215.257C87.6581 215.637 87.5631 215.982 87.3731 216.292C87.1831 216.602 86.9331 216.852 86.6231 217.042C86.3131 217.232 85.9681 217.327 85.5881 217.327H79.0331Z" fill="#100843"/>
</g>
<defs>
<linearGradient id="paint0_linear_3199_4809" x1="266.652" y1="-7.78144" x2="272.747" y2="239.627" gradientUnits="userSpaceOnUse">
<stop stop-color="white"/>
<stop offset="1" stop-color="white" stop-opacity="0"/>
</linearGradient>
<clipPath id="clip0_3199_4809">
<rect width="351" height="245" fill="white"/>
</clipPath>
</defs>
</svg>
