<svg width="293" height="279" viewBox="0 0 293 279" fill="none" xmlns="http://www.w3.org/2000/svg">
<path d="M63.4833 46.4513C74.5484 27.2082 63.8662 10.4425 55.0812 2.45216C54.317 1.75706 54.9067 0.385875 55.9263 0.551555C95.2354 6.9388 117.954 33.5548 124.525 46.4513L254.747 46.4513C276.396 49.1609 287.173 65.1971 291.285 76.7732C292.753 80.9064 293 85.3288 293 89.7149L293 211.883C290.415 233.624 275.003 244.473 263.06 248.836C257.675 250.804 251.87 251 246.137 251L47.5686 251C40.8244 251 33.9375 250.891 27.6516 248.447C8.38038 240.956 1.17541 221.769 -3.41971e-06 211.883L-1.43913e-05 86.3831C1.47481 66.2014 14.7964 54.9702 26.0223 49.7434C32.2656 46.8364 39.2787 46.4513 46.1656 46.4513L63.4833 46.4513Z" fill="white"/>
<rect x="74.001" y="167" width="31" height="18" rx="3" fill="#00B4C2"/>
<rect x="124" y="118" width="69" height="21" rx="3" fill="#FF765A"/>
<path d="M38.123 104C37.447 104 36.823 103.835 36.251 103.506C35.679 103.159 35.2283 102.709 34.899 102.154C34.5696 101.582 34.405 100.949 34.405 100.256V98.6699H38.149V100.074C38.149 100.126 38.1576 100.169 38.175 100.204C38.2096 100.221 38.2443 100.23 38.279 100.23H49.173C49.2076 100.23 49.2423 100.221 49.277 100.204C49.3116 100.169 49.329 100.126 49.329 100.074V96.6679C49.329 96.6332 49.3116 96.6072 49.277 96.5899C49.2423 96.5552 49.2076 96.5379 49.173 96.5379H38.123C37.447 96.5379 36.823 96.3732 36.251 96.0439C35.679 95.6972 35.2283 95.2379 34.899 94.6659C34.5696 94.0939 34.405 93.4699 34.405 92.7939V89.0239C34.405 88.3306 34.5696 87.7066 34.899 87.1519C35.2283 86.5799 35.679 86.1292 36.251 85.7999C36.823 85.4532 37.447 85.2799 38.123 85.2799H49.381C50.057 85.2799 50.6723 85.4532 51.227 85.7999C51.799 86.1292 52.2583 86.5799 52.605 87.1519C52.9516 87.7066 53.125 88.3306 53.125 89.0239V90.6099H49.329V89.2059C49.329 89.1539 49.3116 89.1192 49.277 89.1019C49.2423 89.0672 49.2076 89.0499 49.173 89.0499H38.279C38.2443 89.0499 38.2096 89.0672 38.175 89.1019C38.1576 89.1192 38.149 89.1539 38.149 89.2059V92.6119C38.149 92.6466 38.1576 92.6812 38.175 92.7159C38.2096 92.7332 38.2443 92.7419 38.279 92.7419H49.381C50.057 92.7419 50.6723 92.9152 51.227 93.2619C51.799 93.5912 52.2583 94.0419 52.605 94.6139C52.9516 95.1859 53.125 95.8099 53.125 96.4859V100.256C53.125 100.949 52.9516 101.582 52.605 102.154C52.2583 102.709 51.799 103.159 51.227 103.506C50.6723 103.835 50.057 104 49.381 104H38.123ZM55.9108 104V83.9799H59.6028V88.9199H67.5328C68.1915 88.9199 68.7982 89.0932 69.3528 89.4399C69.9075 89.7692 70.3495 90.2112 70.6788 90.7659C71.0255 91.3206 71.1988 91.9272 71.1988 92.5859V104H67.5068V92.7679C67.5068 92.7332 67.4895 92.6986 67.4548 92.6639C67.4375 92.6292 67.4028 92.6119 67.3508 92.6119H59.7588C59.7242 92.6119 59.6895 92.6292 59.6548 92.6639C59.6202 92.6986 59.6028 92.7332 59.6028 92.7679V104H55.9108ZM73.382 104V89.0239C73.382 88.3306 73.5467 87.7066 73.876 87.1519C74.2227 86.5799 74.6734 86.1292 75.228 85.7999C75.8 85.4532 76.4327 85.2799 77.126 85.2799H88.332C89.0254 85.2799 89.6494 85.4532 90.204 85.7999C90.776 86.1292 91.2354 86.5799 91.582 87.1519C91.9287 87.7066 92.102 88.3306 92.102 89.0239V104H88.306V97.8379H77.126V104H73.382ZM77.126 94.0939H88.306V89.2059C88.306 89.1539 88.2887 89.1192 88.254 89.1019C88.2367 89.0672 88.202 89.0499 88.15 89.0499H77.282C77.23 89.0499 77.1867 89.0672 77.152 89.1019C77.1347 89.1192 77.126 89.1539 77.126 89.2059V94.0939ZM94.5444 104V85.2799H98.2624V104H94.5444ZM100.801 104V83.9799H104.493V88.9199H112.423C113.099 88.9199 113.715 89.0932 114.269 89.4399C114.824 89.7692 115.266 90.2112 115.595 90.7659C115.925 91.3206 116.089 91.9272 116.089 92.5859V100.334C116.089 100.993 115.925 101.599 115.595 102.154C115.266 102.709 114.824 103.159 114.269 103.506C113.715 103.835 113.099 104 112.423 104H100.801ZM104.649 100.308H112.241C112.293 100.308 112.328 100.291 112.345 100.256C112.38 100.221 112.397 100.187 112.397 100.152V92.7679C112.397 92.7332 112.38 92.6986 112.345 92.6639C112.328 92.6292 112.293 92.6119 112.241 92.6119H104.649C104.615 92.6119 104.58 92.6292 104.545 92.6639C104.511 92.6986 104.493 92.7332 104.493 92.7679V100.152C104.493 100.187 104.511 100.221 104.545 100.256C104.58 100.291 104.615 100.308 104.649 100.308ZM121.529 104C120.87 104 120.255 103.835 119.683 103.506C119.128 103.159 118.686 102.709 118.357 102.154C118.027 101.599 117.863 100.993 117.863 100.334V94.5879H129.459V92.7679C129.459 92.7332 129.441 92.6986 129.407 92.6639C129.372 92.6292 129.337 92.6119 129.303 92.6119H117.863V88.9199H129.485C130.161 88.9199 130.776 89.0932 131.331 89.4399C131.885 89.7692 132.327 90.2112 132.657 90.7659C132.986 91.3206 133.151 91.9272 133.151 92.5859V104H121.529ZM121.711 100.308H129.459V97.8899H121.555V100.152C121.555 100.187 121.572 100.221 121.607 100.256C121.641 100.291 121.676 100.308 121.711 100.308ZM147.965 104C147.271 104 146.639 103.835 146.067 103.506C145.512 103.159 145.061 102.709 144.715 102.154C144.385 101.582 144.221 100.949 144.221 100.256V89.0239C144.221 88.3306 144.385 87.7066 144.715 87.1519C145.061 86.5799 145.512 86.1292 146.067 85.7999C146.639 85.4532 147.271 85.2799 147.965 85.2799H162.889V89.0499H148.849C148.571 89.0499 148.355 89.1279 148.199 89.2839C148.043 89.4226 147.965 89.6392 147.965 89.9339V99.3459C147.965 99.6232 148.043 99.8399 148.199 99.9959C148.355 100.152 148.571 100.23 148.849 100.23H162.889V104H147.965ZM165.548 104V83.9799H169.24V88.9199H177.17C177.828 88.9199 178.435 89.0932 178.99 89.4399C179.544 89.7692 179.986 90.2112 180.316 90.7659C180.662 91.3206 180.836 91.9272 180.836 92.5859V104H177.144V92.7679C177.144 92.7332 177.126 92.6986 177.092 92.6639C177.074 92.6292 177.04 92.6119 176.988 92.6119H169.396C169.361 92.6119 169.326 92.6292 169.292 92.6639C169.257 92.6986 169.24 92.7332 169.24 92.7679V104H165.548ZM186.554 104C185.895 104 185.28 103.835 184.708 103.506C184.153 103.159 183.711 102.709 183.382 102.154C183.053 101.599 182.888 100.993 182.888 100.334V94.5879H194.484V92.7679C194.484 92.7332 194.467 92.6986 194.432 92.6639C194.397 92.6292 194.363 92.6119 194.328 92.6119H182.888V88.9199H194.51C195.186 88.9199 195.801 89.0932 196.356 89.4399C196.911 89.7692 197.353 90.2112 197.682 90.7659C198.011 91.3206 198.176 91.9272 198.176 92.5859V104H186.554ZM186.736 100.308H194.484V97.8899H186.58V100.152C186.58 100.187 186.597 100.221 186.632 100.256C186.667 100.291 186.701 100.308 186.736 100.308ZM204.659 104C203.983 104 203.368 103.835 202.813 103.506C202.258 103.159 201.808 102.709 201.461 102.154C201.132 101.599 200.967 100.993 200.967 100.334V84.3699H204.659V88.9199H210.405V92.6119H204.659V100.152C204.659 100.187 204.676 100.221 204.711 100.256C204.746 100.291 204.78 100.308 204.815 100.308H210.405V104H204.659ZM212.8 104V83.9799H216.492V88.9199H224.422C225.098 88.9199 225.713 89.0932 226.268 89.4399C226.822 89.7692 227.264 90.2112 227.594 90.7659C227.923 91.3206 228.088 91.9272 228.088 92.5859V100.334C228.088 100.993 227.923 101.599 227.594 102.154C227.264 102.709 226.822 103.159 226.268 103.506C225.713 103.835 225.098 104 224.422 104H212.8ZM216.648 100.308H224.24C224.292 100.308 224.326 100.291 224.344 100.256C224.378 100.221 224.396 100.187 224.396 100.152V92.7679C224.396 92.7332 224.378 92.6986 224.344 92.6639C224.326 92.6292 224.292 92.6119 224.24 92.6119H216.648C216.613 92.6119 216.578 92.6292 216.544 92.6639C216.509 92.6986 216.492 92.7332 216.492 92.7679V100.152C216.492 100.187 216.509 100.221 216.544 100.256C216.578 100.291 216.613 100.308 216.648 100.308ZM233.729 104C233.071 104 232.464 103.835 231.909 103.506C231.355 103.159 230.904 102.709 230.557 102.154C230.228 101.599 230.063 100.993 230.063 100.334V92.5859C230.063 91.9272 230.228 91.3206 230.557 90.7659C230.904 90.2112 231.355 89.7692 231.909 89.4399C232.464 89.0932 233.071 88.9199 233.729 88.9199H241.685C242.361 88.9199 242.977 89.0932 243.531 89.4399C244.086 89.7692 244.528 90.2112 244.857 90.7659C245.187 91.3206 245.351 91.9272 245.351 92.5859V100.334C245.351 100.993 245.187 101.599 244.857 102.154C244.528 102.709 244.086 103.159 243.531 103.506C242.977 103.835 242.361 104 241.685 104H233.729ZM233.911 100.308H241.503C241.538 100.308 241.573 100.291 241.607 100.256C241.642 100.221 241.659 100.187 241.659 100.152V92.7679C241.659 92.7332 241.642 92.6986 241.607 92.6639C241.573 92.6292 241.538 92.6119 241.503 92.6119H233.911C233.877 92.6119 233.842 92.6292 233.807 92.6639C233.773 92.6986 233.755 92.7332 233.755 92.7679V100.152C233.755 100.187 233.773 100.221 233.807 100.256C233.842 100.291 233.877 100.308 233.911 100.308ZM251.327 104C250.651 104 250.036 103.835 249.481 103.506C248.926 103.159 248.476 102.709 248.129 102.154C247.8 101.599 247.635 100.993 247.635 100.334V84.3699H251.327V88.9199H257.073V92.6119H251.327V100.152C251.327 100.187 251.344 100.221 251.379 100.256C251.414 100.291 251.448 100.308 251.483 100.308H257.073V104H251.327Z" fill="#090136"/>
<circle cx="37.501" cy="128.5" r="2.5" fill="#090136"/>
<circle cx="37.501" cy="153.5" r="2.5" fill="#090136"/>
<circle cx="37.501" cy="177.5" r="2.5" fill="#090136"/>
<path d="M57.471 127.07C57.2003 126.501 56.8083 126.062 56.295 125.754C55.7816 125.437 55.1843 125.278 54.503 125.278C53.8216 125.278 53.2056 125.437 52.655 125.754C52.1136 126.062 51.6843 126.51 51.367 127.098C51.059 127.677 50.905 128.349 50.905 129.114C50.905 129.879 51.059 130.551 51.367 131.13C51.6843 131.709 52.1136 132.157 52.655 132.474C53.2056 132.782 53.8216 132.936 54.503 132.936C55.455 132.936 56.239 132.651 56.855 132.082C57.471 131.513 57.8303 130.743 57.933 129.772H54.041V128.736H59.291V129.716C59.2163 130.519 58.9643 131.256 58.535 131.928C58.1056 132.591 57.541 133.118 56.841 133.51C56.141 133.893 55.3616 134.084 54.503 134.084C53.5976 134.084 52.7716 133.874 52.025 133.454C51.2783 133.025 50.6856 132.432 50.247 131.676C49.8176 130.92 49.603 130.066 49.603 129.114C49.603 128.162 49.8176 127.308 50.247 126.552C50.6856 125.787 51.2783 125.194 52.025 124.774C52.7716 124.345 53.5976 124.13 54.503 124.13C55.539 124.13 56.4536 124.387 57.247 124.9C58.0496 125.413 58.633 126.137 58.997 127.07H57.471ZM64.3215 134.126C63.6028 134.126 62.9495 133.963 62.3615 133.636C61.7828 133.309 61.3255 132.847 60.9895 132.25C60.6628 131.643 60.4995 130.943 60.4995 130.15C60.4995 129.366 60.6675 128.675 61.0035 128.078C61.3488 127.471 61.8155 127.009 62.4035 126.692C62.9915 126.365 63.6495 126.202 64.3775 126.202C65.1055 126.202 65.7635 126.365 66.3515 126.692C66.9395 127.009 67.4015 127.467 67.7375 128.064C68.0828 128.661 68.2555 129.357 68.2555 130.15C68.2555 130.943 68.0781 131.643 67.7235 132.25C67.3781 132.847 66.9068 133.309 66.3095 133.636C65.7121 133.963 65.0495 134.126 64.3215 134.126ZM64.3215 133.006C64.7788 133.006 65.2081 132.899 65.6095 132.684C66.0108 132.469 66.3328 132.147 66.5755 131.718C66.8275 131.289 66.9535 130.766 66.9535 130.15C66.9535 129.534 66.8321 129.011 66.5895 128.582C66.3468 128.153 66.0295 127.835 65.6375 127.63C65.2455 127.415 64.8208 127.308 64.3635 127.308C63.8968 127.308 63.4675 127.415 63.0755 127.63C62.6928 127.835 62.3848 128.153 62.1515 128.582C61.9181 129.011 61.8015 129.534 61.8015 130.15C61.8015 130.775 61.9135 131.303 62.1375 131.732C62.3708 132.161 62.6788 132.483 63.0615 132.698C63.4441 132.903 63.8641 133.006 64.3215 133.006ZM73.2765 134.126C72.5579 134.126 71.9045 133.963 71.3165 133.636C70.7379 133.309 70.2805 132.847 69.9445 132.25C69.6179 131.643 69.4545 130.943 69.4545 130.15C69.4545 129.366 69.6225 128.675 69.9585 128.078C70.3039 127.471 70.7705 127.009 71.3585 126.692C71.9465 126.365 72.6045 126.202 73.3325 126.202C74.0605 126.202 74.7185 126.365 75.3065 126.692C75.8945 127.009 76.3565 127.467 76.6925 128.064C77.0379 128.661 77.2105 129.357 77.2105 130.15C77.2105 130.943 77.0332 131.643 76.6785 132.25C76.3332 132.847 75.8619 133.309 75.2645 133.636C74.6672 133.963 74.0045 134.126 73.2765 134.126ZM73.2765 133.006C73.7339 133.006 74.1632 132.899 74.5645 132.684C74.9659 132.469 75.2879 132.147 75.5305 131.718C75.7825 131.289 75.9085 130.766 75.9085 130.15C75.9085 129.534 75.7872 129.011 75.5445 128.582C75.3019 128.153 74.9845 127.835 74.5925 127.63C74.2005 127.415 73.7759 127.308 73.3185 127.308C72.8519 127.308 72.4225 127.415 72.0305 127.63C71.6479 127.835 71.3399 128.153 71.1065 128.582C70.8732 129.011 70.7565 129.534 70.7565 130.15C70.7565 130.775 70.8685 131.303 71.0925 131.732C71.3259 132.161 71.6339 132.483 72.0165 132.698C72.3992 132.903 72.8192 133.006 73.2765 133.006ZM82.0496 126.202C82.7123 126.202 83.291 126.347 83.7856 126.636C84.2896 126.925 84.663 127.289 84.9056 127.728V126.328H86.1936V134.168C86.1936 134.868 86.0443 135.489 85.7456 136.03C85.447 136.581 85.0176 137.01 84.4576 137.318C83.907 137.626 83.263 137.78 82.5256 137.78C81.5176 137.78 80.6776 137.542 80.0056 137.066C79.3336 136.59 78.937 135.941 78.8156 135.12H80.0756C80.2156 135.587 80.505 135.96 80.9436 136.24C81.3823 136.529 81.9096 136.674 82.5256 136.674C83.2256 136.674 83.795 136.455 84.2336 136.016C84.6816 135.577 84.9056 134.961 84.9056 134.168V132.558C84.6536 133.006 84.2803 133.379 83.7856 133.678C83.291 133.977 82.7123 134.126 82.0496 134.126C81.3683 134.126 80.7476 133.958 80.1876 133.622C79.637 133.286 79.203 132.815 78.8856 132.208C78.5683 131.601 78.4096 130.911 78.4096 130.136C78.4096 129.352 78.5683 128.666 78.8856 128.078C79.203 127.481 79.637 127.019 80.1876 126.692C80.7476 126.365 81.3683 126.202 82.0496 126.202ZM84.9056 130.15C84.9056 129.571 84.789 129.067 84.5556 128.638C84.3223 128.209 84.005 127.882 83.6036 127.658C83.2116 127.425 82.7776 127.308 82.3016 127.308C81.8256 127.308 81.3916 127.42 80.9996 127.644C80.6076 127.868 80.295 128.195 80.0616 128.624C79.8283 129.053 79.7116 129.557 79.7116 130.136C79.7116 130.724 79.8283 131.237 80.0616 131.676C80.295 132.105 80.6076 132.437 80.9996 132.67C81.3916 132.894 81.8256 133.006 82.3016 133.006C82.7776 133.006 83.2116 132.894 83.6036 132.67C84.005 132.437 84.3223 132.105 84.5556 131.676C84.789 131.237 84.9056 130.729 84.9056 130.15ZM89.6206 123.64V134H88.3466V123.64H89.6206ZM98.7919 129.87C98.7919 130.113 98.7779 130.369 98.7499 130.64H92.6179C92.6645 131.396 92.9212 131.989 93.3879 132.418C93.8639 132.838 94.4379 133.048 95.1099 133.048C95.6605 133.048 96.1179 132.922 96.4819 132.67C96.8552 132.409 97.1165 132.063 97.2659 131.634H98.6379C98.4325 132.371 98.0219 132.973 97.4059 133.44C96.7899 133.897 96.0245 134.126 95.1099 134.126C94.3819 134.126 93.7285 133.963 93.1499 133.636C92.5805 133.309 92.1325 132.847 91.8059 132.25C91.4792 131.643 91.3159 130.943 91.3159 130.15C91.3159 129.357 91.4745 128.661 91.7919 128.064C92.1092 127.467 92.5525 127.009 93.1219 126.692C93.7005 126.365 94.3632 126.202 95.1099 126.202C95.8379 126.202 96.4819 126.361 97.0419 126.678C97.6019 126.995 98.0312 127.434 98.3299 127.994C98.6379 128.545 98.7919 129.17 98.7919 129.87ZM97.4759 129.604C97.4759 129.119 97.3685 128.703 97.1539 128.358C96.9392 128.003 96.6452 127.737 96.2719 127.56C95.9079 127.373 95.5019 127.28 95.0539 127.28C94.4099 127.28 93.8592 127.485 93.4019 127.896C92.9539 128.307 92.6972 128.876 92.6319 129.604H97.4759ZM107.552 134.126C106.833 134.126 106.18 133.963 105.592 133.636C105.013 133.309 104.556 132.847 104.22 132.25C103.893 131.643 103.73 130.943 103.73 130.15C103.73 129.366 103.898 128.675 104.234 128.078C104.579 127.471 105.046 127.009 105.634 126.692C106.222 126.365 106.88 126.202 107.608 126.202C108.336 126.202 108.994 126.365 109.582 126.692C110.17 127.009 110.632 127.467 110.968 128.064C111.313 128.661 111.486 129.357 111.486 130.15C111.486 130.943 111.309 131.643 110.954 132.25C110.609 132.847 110.137 133.309 109.54 133.636C108.943 133.963 108.28 134.126 107.552 134.126ZM107.552 133.006C108.009 133.006 108.439 132.899 108.84 132.684C109.241 132.469 109.563 132.147 109.806 131.718C110.058 131.289 110.184 130.766 110.184 130.15C110.184 129.534 110.063 129.011 109.82 128.582C109.577 128.153 109.26 127.835 108.868 127.63C108.476 127.415 108.051 127.308 107.594 127.308C107.127 127.308 106.698 127.415 106.306 127.63C105.923 127.835 105.615 128.153 105.382 128.582C105.149 129.011 105.032 129.534 105.032 130.15C105.032 130.775 105.144 131.303 105.368 131.732C105.601 132.161 105.909 132.483 106.292 132.698C106.675 132.903 107.095 133.006 107.552 133.006ZM116.899 126.188C117.832 126.188 118.588 126.473 119.167 127.042C119.746 127.602 120.035 128.414 120.035 129.478V134H118.775V129.66C118.775 128.895 118.584 128.311 118.201 127.91C117.818 127.499 117.296 127.294 116.633 127.294C115.961 127.294 115.424 127.504 115.023 127.924C114.631 128.344 114.435 128.955 114.435 129.758V134H113.161V126.328H114.435V127.42C114.687 127.028 115.028 126.725 115.457 126.51C115.896 126.295 116.376 126.188 116.899 126.188ZM55.847 155.83H51.591L50.807 158H49.463L52.991 148.298H54.461L57.975 158H56.631L55.847 155.83ZM55.483 154.794L53.719 149.866L51.955 154.794H55.483ZM62.2286 158.126C61.6406 158.126 61.1132 158.028 60.6466 157.832C60.1799 157.627 59.8112 157.347 59.5406 156.992C59.2699 156.628 59.1206 156.213 59.0926 155.746H60.4086C60.4459 156.129 60.6232 156.441 60.9406 156.684C61.2672 156.927 61.6919 157.048 62.2146 157.048C62.6999 157.048 63.0826 156.941 63.3626 156.726C63.6426 156.511 63.7826 156.241 63.7826 155.914C63.7826 155.578 63.6332 155.331 63.3346 155.172C63.0359 155.004 62.5739 154.841 61.9486 154.682C61.3792 154.533 60.9126 154.383 60.5486 154.234C60.1939 154.075 59.8859 153.847 59.6246 153.548C59.3726 153.24 59.2466 152.839 59.2466 152.344C59.2466 151.952 59.3632 151.593 59.5966 151.266C59.8299 150.939 60.1612 150.683 60.5906 150.496C61.0199 150.3 61.5099 150.202 62.0606 150.202C62.9099 150.202 63.5959 150.417 64.1186 150.846C64.6412 151.275 64.9212 151.863 64.9586 152.61H63.6846C63.6566 152.209 63.4932 151.887 63.1946 151.644C62.9052 151.401 62.5132 151.28 62.0186 151.28C61.5612 151.28 61.1972 151.378 60.9266 151.574C60.6559 151.77 60.5206 152.027 60.5206 152.344C60.5206 152.596 60.5999 152.806 60.7586 152.974C60.9266 153.133 61.1319 153.263 61.3746 153.366C61.6266 153.459 61.9719 153.567 62.4106 153.688C62.9612 153.837 63.4092 153.987 63.7546 154.136C64.0999 154.276 64.3939 154.491 64.6366 154.78C64.8886 155.069 65.0192 155.447 65.0286 155.914C65.0286 156.334 64.9119 156.712 64.6786 157.048C64.4452 157.384 64.1139 157.65 63.6846 157.846C63.2646 158.033 62.7792 158.126 62.2286 158.126ZM71.111 158L68.101 154.612V158H66.827V147.64H68.101V153.73L71.055 150.328H72.833L69.221 154.15L72.847 158H71.111ZM87.9845 150.328L85.5905 158H84.2745L82.4265 151.91L80.5785 158H79.2625L76.8545 150.328H78.1565L79.9205 156.768L81.8245 150.328H83.1265L84.9885 156.782L86.7245 150.328H87.9845ZM93.0569 150.188C93.6356 150.188 94.1582 150.314 94.6249 150.566C95.0916 150.809 95.4556 151.177 95.7169 151.672C95.9876 152.167 96.1229 152.769 96.1229 153.478V158H94.8629V153.66C94.8629 152.895 94.6716 152.311 94.2889 151.91C93.9062 151.499 93.3836 151.294 92.7209 151.294C92.0489 151.294 91.5122 151.504 91.1109 151.924C90.7189 152.344 90.5229 152.955 90.5229 153.758V158H89.2489V147.64H90.5229V151.42C90.7749 151.028 91.1202 150.725 91.5589 150.51C92.0069 150.295 92.5062 150.188 93.0569 150.188ZM97.728 154.136C97.728 153.352 97.8866 152.666 98.204 152.078C98.5213 151.481 98.9553 151.019 99.506 150.692C100.066 150.365 100.687 150.202 101.368 150.202C102.04 150.202 102.623 150.347 103.118 150.636C103.613 150.925 103.981 151.289 104.224 151.728V150.328H105.512V158H104.224V156.572C103.972 157.02 103.594 157.393 103.09 157.692C102.595 157.981 102.017 158.126 101.354 158.126C100.673 158.126 100.057 157.958 99.506 157.622C98.9553 157.286 98.5213 156.815 98.204 156.208C97.8866 155.601 97.728 154.911 97.728 154.136ZM104.224 154.15C104.224 153.571 104.107 153.067 103.874 152.638C103.641 152.209 103.323 151.882 102.922 151.658C102.53 151.425 102.096 151.308 101.62 151.308C101.144 151.308 100.71 151.42 100.318 151.644C99.926 151.868 99.6133 152.195 99.38 152.624C99.1466 153.053 99.03 153.557 99.03 154.136C99.03 154.724 99.1466 155.237 99.38 155.676C99.6133 156.105 99.926 156.437 100.318 156.67C100.71 156.894 101.144 157.006 101.62 157.006C102.096 157.006 102.53 156.894 102.922 156.67C103.323 156.437 103.641 156.105 103.874 155.676C104.107 155.237 104.224 154.729 104.224 154.15ZM109.219 151.378V155.9C109.219 156.273 109.298 156.539 109.457 156.698C109.616 156.847 109.891 156.922 110.283 156.922H111.221V158H110.073C109.364 158 108.832 157.837 108.477 157.51C108.122 157.183 107.945 156.647 107.945 155.9V151.378H106.951V150.328H107.945V148.396H109.219V150.328H111.221V151.378H109.219ZM119.765 153.87C119.765 154.113 119.751 154.369 119.723 154.64H113.591C113.637 155.396 113.894 155.989 114.361 156.418C114.837 156.838 115.411 157.048 116.083 157.048C116.633 157.048 117.091 156.922 117.455 156.67C117.828 156.409 118.089 156.063 118.239 155.634H119.611C119.405 156.371 118.995 156.973 118.379 157.44C117.763 157.897 116.997 158.126 116.083 158.126C115.355 158.126 114.701 157.963 114.123 157.636C113.553 157.309 113.105 156.847 112.779 156.25C112.452 155.643 112.289 154.943 112.289 154.15C112.289 153.357 112.447 152.661 112.765 152.064C113.082 151.467 113.525 151.009 114.095 150.692C114.673 150.365 115.336 150.202 116.083 150.202C116.811 150.202 117.455 150.361 118.015 150.678C118.575 150.995 119.004 151.434 119.303 151.994C119.611 152.545 119.765 153.17 119.765 153.87ZM118.449 153.604C118.449 153.119 118.341 152.703 118.127 152.358C117.912 152.003 117.618 151.737 117.245 151.56C116.881 151.373 116.475 151.28 116.027 151.28C115.383 151.28 114.832 151.485 114.375 151.896C113.927 152.307 113.67 152.876 113.605 153.604H118.449ZM124.302 156.824L126.682 150.328H128.04L125.03 158H123.546L120.536 150.328H121.908L124.302 156.824ZM136.294 153.87C136.294 154.113 136.28 154.369 136.252 154.64H130.12C130.166 155.396 130.423 155.989 130.89 156.418C131.366 156.838 131.94 157.048 132.612 157.048C133.162 157.048 133.62 156.922 133.984 156.67C134.357 156.409 134.618 156.063 134.768 155.634H136.14C135.934 156.371 135.524 156.973 134.908 157.44C134.292 157.897 133.526 158.126 132.612 158.126C131.884 158.126 131.23 157.963 130.652 157.636C130.082 157.309 129.634 156.847 129.308 156.25C128.981 155.643 128.818 154.943 128.818 154.15C128.818 153.357 128.976 152.661 129.294 152.064C129.611 151.467 130.054 151.009 130.624 150.692C131.202 150.365 131.865 150.202 132.612 150.202C133.34 150.202 133.984 150.361 134.544 150.678C135.104 150.995 135.533 151.434 135.832 151.994C136.14 152.545 136.294 153.17 136.294 153.87ZM134.978 153.604C134.978 153.119 134.87 152.703 134.656 152.358C134.441 152.003 134.147 151.737 133.774 151.56C133.41 151.373 133.004 151.28 132.556 151.28C131.912 151.28 131.361 151.485 130.904 151.896C130.456 152.307 130.199 152.876 130.134 153.604H134.978ZM139.249 151.574C139.473 151.135 139.791 150.795 140.201 150.552C140.621 150.309 141.13 150.188 141.727 150.188V151.504H141.391C139.963 151.504 139.249 152.279 139.249 153.828V158H137.975V150.328H139.249V151.574ZM153.539 150.328L148.919 161.612H147.603L149.115 157.916L146.021 150.328H147.435L149.843 156.544L152.223 150.328H153.539ZM158.165 158.126C157.447 158.126 156.793 157.963 156.205 157.636C155.627 157.309 155.169 156.847 154.833 156.25C154.507 155.643 154.343 154.943 154.343 154.15C154.343 153.366 154.511 152.675 154.847 152.078C155.193 151.471 155.659 151.009 156.247 150.692C156.835 150.365 157.493 150.202 158.221 150.202C158.949 150.202 159.607 150.365 160.195 150.692C160.783 151.009 161.245 151.467 161.581 152.064C161.927 152.661 162.099 153.357 162.099 154.15C162.099 154.943 161.922 155.643 161.567 156.25C161.222 156.847 160.751 157.309 160.153 157.636C159.556 157.963 158.893 158.126 158.165 158.126ZM158.165 157.006C158.623 157.006 159.052 156.899 159.453 156.684C159.855 156.469 160.177 156.147 160.419 155.718C160.671 155.289 160.797 154.766 160.797 154.15C160.797 153.534 160.676 153.011 160.433 152.582C160.191 152.153 159.873 151.835 159.481 151.63C159.089 151.415 158.665 151.308 158.207 151.308C157.741 151.308 157.311 151.415 156.919 151.63C156.537 151.835 156.229 152.153 155.995 152.582C155.762 153.011 155.645 153.534 155.645 154.15C155.645 154.775 155.757 155.303 155.981 155.732C156.215 156.161 156.523 156.483 156.905 156.698C157.288 156.903 157.708 157.006 158.165 157.006ZM170.578 150.328V158H169.304V156.866C169.062 157.258 168.721 157.566 168.282 157.79C167.853 158.005 167.377 158.112 166.854 158.112C166.257 158.112 165.72 157.991 165.244 157.748C164.768 157.496 164.39 157.123 164.11 156.628C163.84 156.133 163.704 155.531 163.704 154.822V150.328H164.964V154.654C164.964 155.41 165.156 155.993 165.538 156.404C165.921 156.805 166.444 157.006 167.106 157.006C167.788 157.006 168.324 156.796 168.716 156.376C169.108 155.956 169.304 155.345 169.304 154.542V150.328H170.578ZM186.682 150.328L184.288 158H182.972L181.124 151.91L179.276 158H177.96L175.552 150.328H176.854L178.618 156.768L180.522 150.328H181.824L183.686 156.782L185.422 150.328H186.682ZM187.47 154.136C187.47 153.352 187.629 152.666 187.946 152.078C188.263 151.481 188.697 151.019 189.248 150.692C189.808 150.365 190.429 150.202 191.11 150.202C191.782 150.202 192.365 150.347 192.86 150.636C193.355 150.925 193.723 151.289 193.966 151.728V150.328H195.254V158H193.966V156.572C193.714 157.02 193.336 157.393 192.832 157.692C192.337 157.981 191.759 158.126 191.096 158.126C190.415 158.126 189.799 157.958 189.248 157.622C188.697 157.286 188.263 156.815 187.946 156.208C187.629 155.601 187.47 154.911 187.47 154.136ZM193.966 154.15C193.966 153.571 193.849 153.067 193.616 152.638C193.383 152.209 193.065 151.882 192.664 151.658C192.272 151.425 191.838 151.308 191.362 151.308C190.886 151.308 190.452 151.42 190.06 151.644C189.668 151.868 189.355 152.195 189.122 152.624C188.889 153.053 188.772 153.557 188.772 154.136C188.772 154.724 188.889 155.237 189.122 155.676C189.355 156.105 189.668 156.437 190.06 156.67C190.452 156.894 190.886 157.006 191.362 157.006C191.838 157.006 192.272 156.894 192.664 156.67C193.065 156.437 193.383 156.105 193.616 155.676C193.849 155.237 193.966 154.729 193.966 154.15ZM201.145 150.188C202.078 150.188 202.834 150.473 203.413 151.042C203.992 151.602 204.281 152.414 204.281 153.478V158H203.021V153.66C203.021 152.895 202.83 152.311 202.447 151.91C202.064 151.499 201.542 151.294 200.879 151.294C200.207 151.294 199.67 151.504 199.269 151.924C198.877 152.344 198.681 152.955 198.681 153.758V158H197.407V150.328H198.681V151.42C198.933 151.028 199.274 150.725 199.703 150.51C200.142 150.295 200.622 150.188 201.145 150.188ZM207.916 151.378V155.9C207.916 156.273 207.996 156.539 208.154 156.698C208.313 156.847 208.588 156.922 208.98 156.922H209.918V158H208.77C208.061 158 207.529 157.837 207.174 157.51C206.82 157.183 206.642 156.647 206.642 155.9V151.378H205.648V150.328H206.642V148.396H207.916V150.328H209.918V151.378H207.916ZM57.471 175.07C57.2003 174.501 56.8083 174.062 56.295 173.754C55.7816 173.437 55.1843 173.278 54.503 173.278C53.8216 173.278 53.2056 173.437 52.655 173.754C52.1136 174.062 51.6843 174.51 51.367 175.098C51.059 175.677 50.905 176.349 50.905 177.114C50.905 177.879 51.059 178.551 51.367 179.13C51.6843 179.709 52.1136 180.157 52.655 180.474C53.2056 180.782 53.8216 180.936 54.503 180.936C55.455 180.936 56.239 180.651 56.855 180.082C57.471 179.513 57.8303 178.743 57.933 177.772H54.041V176.736H59.291V177.716C59.2163 178.519 58.9643 179.256 58.535 179.928C58.1056 180.591 57.541 181.118 56.841 181.51C56.141 181.893 55.3616 182.084 54.503 182.084C53.5976 182.084 52.7716 181.874 52.025 181.454C51.2783 181.025 50.6856 180.432 50.247 179.676C49.8176 178.92 49.603 178.066 49.603 177.114C49.603 176.162 49.8176 175.308 50.247 174.552C50.6856 173.787 51.2783 173.194 52.025 172.774C52.7716 172.345 53.5976 172.13 54.503 172.13C55.539 172.13 56.4536 172.387 57.247 172.9C58.0496 173.413 58.633 174.137 58.997 175.07H57.471ZM67.9755 177.87C67.9755 178.113 67.9615 178.369 67.9335 178.64H61.8015C61.8481 179.396 62.1048 179.989 62.5715 180.418C63.0475 180.838 63.6215 181.048 64.2935 181.048C64.8441 181.048 65.3015 180.922 65.6655 180.67C66.0388 180.409 66.3001 180.063 66.4495 179.634H67.8215C67.6161 180.371 67.2055 180.973 66.5895 181.44C65.9735 181.897 65.2081 182.126 64.2935 182.126C63.5655 182.126 62.9121 181.963 62.3335 181.636C61.7641 181.309 61.3161 180.847 60.9895 180.25C60.6628 179.643 60.4995 178.943 60.4995 178.15C60.4995 177.357 60.6581 176.661 60.9755 176.064C61.2928 175.467 61.7361 175.009 62.3055 174.692C62.8841 174.365 63.5468 174.202 64.2935 174.202C65.0215 174.202 65.6655 174.361 66.2255 174.678C66.7855 174.995 67.2148 175.434 67.5135 175.994C67.8215 176.545 67.9755 177.17 67.9755 177.87ZM66.6595 177.604C66.6595 177.119 66.5521 176.703 66.3375 176.358C66.1228 176.003 65.8288 175.737 65.4555 175.56C65.0915 175.373 64.6855 175.28 64.2375 175.28C63.5935 175.28 63.0428 175.485 62.5855 175.896C62.1375 176.307 61.8808 176.876 61.8155 177.604H66.6595ZM71.2111 175.378V179.9C71.2111 180.273 71.2904 180.539 71.4491 180.698C71.6078 180.847 71.8831 180.922 72.2751 180.922H73.2131V182H72.0651C71.3558 182 70.8238 181.837 70.4691 181.51C70.1144 181.183 69.9371 180.647 69.9371 179.9V175.378H68.9431V174.328H69.9371V172.396H71.2111V174.328H73.2131V175.378H71.2111ZM110.9 182.126C110.312 182.126 109.785 182.028 109.318 181.832C108.852 181.627 108.483 181.347 108.212 180.992C107.942 180.628 107.792 180.213 107.764 179.746H109.08C109.118 180.129 109.295 180.441 109.612 180.684C109.939 180.927 110.364 181.048 110.886 181.048C111.372 181.048 111.754 180.941 112.034 180.726C112.314 180.511 112.454 180.241 112.454 179.914C112.454 179.578 112.305 179.331 112.006 179.172C111.708 179.004 111.246 178.841 110.62 178.682C110.051 178.533 109.584 178.383 109.22 178.234C108.866 178.075 108.558 177.847 108.296 177.548C108.044 177.24 107.918 176.839 107.918 176.344C107.918 175.952 108.035 175.593 108.268 175.266C108.502 174.939 108.833 174.683 109.262 174.496C109.692 174.3 110.182 174.202 110.732 174.202C111.582 174.202 112.268 174.417 112.79 174.846C113.313 175.275 113.593 175.863 113.63 176.61H112.356C112.328 176.209 112.165 175.887 111.866 175.644C111.577 175.401 111.185 175.28 110.69 175.28C110.233 175.28 109.869 175.378 109.598 175.574C109.328 175.77 109.192 176.027 109.192 176.344C109.192 176.596 109.272 176.806 109.43 176.974C109.598 177.133 109.804 177.263 110.046 177.366C110.298 177.459 110.644 177.567 111.082 177.688C111.633 177.837 112.081 177.987 112.426 178.136C112.772 178.276 113.066 178.491 113.308 178.78C113.56 179.069 113.691 179.447 113.7 179.914C113.7 180.334 113.584 180.712 113.35 181.048C113.117 181.384 112.786 181.65 112.356 181.846C111.936 182.033 111.451 182.126 110.9 182.126ZM117.053 175.378V179.9C117.053 180.273 117.132 180.539 117.291 180.698C117.45 180.847 117.725 180.922 118.117 180.922H119.055V182H117.907C117.198 182 116.666 181.837 116.311 181.51C115.956 181.183 115.779 180.647 115.779 179.9V175.378H114.785V174.328H115.779V172.396H117.053V174.328H119.055V175.378H117.053ZM121.873 175.574C122.097 175.135 122.414 174.795 122.825 174.552C123.245 174.309 123.753 174.188 124.351 174.188V175.504H124.015C122.587 175.504 121.873 176.279 121.873 177.828V182H120.599V174.328H121.873V175.574ZM125.345 178.136C125.345 177.352 125.504 176.666 125.821 176.078C126.138 175.481 126.572 175.019 127.123 174.692C127.683 174.365 128.304 174.202 128.985 174.202C129.657 174.202 130.24 174.347 130.735 174.636C131.23 174.925 131.598 175.289 131.841 175.728V174.328H133.129V182H131.841V180.572C131.589 181.02 131.211 181.393 130.707 181.692C130.212 181.981 129.634 182.126 128.971 182.126C128.29 182.126 127.674 181.958 127.123 181.622C126.572 181.286 126.138 180.815 125.821 180.208C125.504 179.601 125.345 178.911 125.345 178.136ZM131.841 178.15C131.841 177.571 131.724 177.067 131.491 176.638C131.258 176.209 130.94 175.882 130.539 175.658C130.147 175.425 129.713 175.308 129.237 175.308C128.761 175.308 128.327 175.42 127.935 175.644C127.543 175.868 127.23 176.195 126.997 176.624C126.764 177.053 126.647 177.557 126.647 178.136C126.647 178.724 126.764 179.237 126.997 179.676C127.23 180.105 127.543 180.437 127.935 180.67C128.327 180.894 128.761 181.006 129.237 181.006C129.713 181.006 130.147 180.894 130.539 180.67C130.94 180.437 131.258 180.105 131.491 179.676C131.724 179.237 131.841 178.729 131.841 178.15ZM135.94 173.082C135.697 173.082 135.492 172.998 135.324 172.83C135.156 172.662 135.072 172.457 135.072 172.214C135.072 171.971 135.156 171.766 135.324 171.598C135.492 171.43 135.697 171.346 135.94 171.346C136.173 171.346 136.369 171.43 136.528 171.598C136.696 171.766 136.78 171.971 136.78 172.214C136.78 172.457 136.696 172.662 136.528 172.83C136.369 172.998 136.173 173.082 135.94 173.082ZM136.556 174.328V182H135.282V174.328H136.556ZM141.891 174.202C142.554 174.202 143.133 174.347 143.627 174.636C144.131 174.925 144.505 175.289 144.747 175.728V174.328H146.035V182.168C146.035 182.868 145.886 183.489 145.587 184.03C145.289 184.581 144.859 185.01 144.299 185.318C143.749 185.626 143.105 185.78 142.367 185.78C141.359 185.78 140.519 185.542 139.847 185.066C139.175 184.59 138.779 183.941 138.657 183.12H139.917C140.057 183.587 140.347 183.96 140.785 184.24C141.224 184.529 141.751 184.674 142.367 184.674C143.067 184.674 143.637 184.455 144.075 184.016C144.523 183.577 144.747 182.961 144.747 182.168V180.558C144.495 181.006 144.122 181.379 143.627 181.678C143.133 181.977 142.554 182.126 141.891 182.126C141.21 182.126 140.589 181.958 140.029 181.622C139.479 181.286 139.045 180.815 138.727 180.208C138.41 179.601 138.251 178.911 138.251 178.136C138.251 177.352 138.41 176.666 138.727 176.078C139.045 175.481 139.479 175.019 140.029 174.692C140.589 174.365 141.21 174.202 141.891 174.202ZM144.747 178.15C144.747 177.571 144.631 177.067 144.397 176.638C144.164 176.209 143.847 175.882 143.445 175.658C143.053 175.425 142.619 175.308 142.143 175.308C141.667 175.308 141.233 175.42 140.841 175.644C140.449 175.868 140.137 176.195 139.903 176.624C139.67 177.053 139.553 177.557 139.553 178.136C139.553 178.724 139.67 179.237 139.903 179.676C140.137 180.105 140.449 180.437 140.841 180.67C141.233 180.894 141.667 181.006 142.143 181.006C142.619 181.006 143.053 180.894 143.445 180.67C143.847 180.437 144.164 180.105 144.397 179.676C144.631 179.237 144.747 178.729 144.747 178.15ZM151.996 174.188C152.575 174.188 153.098 174.314 153.564 174.566C154.031 174.809 154.395 175.177 154.656 175.672C154.927 176.167 155.062 176.769 155.062 177.478V182H153.802V177.66C153.802 176.895 153.611 176.311 153.228 175.91C152.846 175.499 152.323 175.294 151.66 175.294C150.988 175.294 150.452 175.504 150.05 175.924C149.658 176.344 149.462 176.955 149.462 177.758V182H148.188V171.64H149.462V175.42C149.714 175.028 150.06 174.725 150.498 174.51C150.946 174.295 151.446 174.188 151.996 174.188ZM158.697 175.378V179.9C158.697 180.273 158.777 180.539 158.935 180.698C159.094 180.847 159.369 180.922 159.761 180.922H160.699V182H159.551C158.842 182 158.31 181.837 157.955 181.51C157.601 181.183 157.423 180.647 157.423 179.9V175.378H156.429V174.328H157.423V172.396H158.697V174.328H160.699V175.378H158.697ZM167.529 175.378V179.9C167.529 180.273 167.609 180.539 167.767 180.698C167.926 180.847 168.201 180.922 168.593 180.922H169.531V182H168.383C167.674 182 167.142 181.837 166.787 181.51C166.433 181.183 166.255 180.647 166.255 179.9V175.378H165.261V174.328H166.255V172.396H167.529V174.328H169.531V175.378H167.529ZM174.421 182.126C173.702 182.126 173.049 181.963 172.461 181.636C171.882 181.309 171.425 180.847 171.089 180.25C170.762 179.643 170.599 178.943 170.599 178.15C170.599 177.366 170.767 176.675 171.103 176.078C171.448 175.471 171.915 175.009 172.503 174.692C173.091 174.365 173.749 174.202 174.477 174.202C175.205 174.202 175.863 174.365 176.451 174.692C177.039 175.009 177.501 175.467 177.837 176.064C178.182 176.661 178.355 177.357 178.355 178.15C178.355 178.943 178.178 179.643 177.823 180.25C177.478 180.847 177.006 181.309 176.409 181.636C175.812 181.963 175.149 182.126 174.421 182.126ZM174.421 181.006C174.878 181.006 175.308 180.899 175.709 180.684C176.11 180.469 176.432 180.147 176.675 179.718C176.927 179.289 177.053 178.766 177.053 178.15C177.053 177.534 176.932 177.011 176.689 176.582C176.446 176.153 176.129 175.835 175.737 175.63C175.345 175.415 174.92 175.308 174.463 175.308C173.996 175.308 173.567 175.415 173.175 175.63C172.792 175.835 172.484 176.153 172.251 176.582C172.018 177.011 171.901 177.534 171.901 178.15C171.901 178.775 172.013 179.303 172.237 179.732C172.47 180.161 172.778 180.483 173.161 180.698C173.544 180.903 173.964 181.006 174.421 181.006ZM190.371 174.328L185.751 185.612H184.435L185.947 181.916L182.853 174.328H184.267L186.675 180.544L189.055 174.328H190.371ZM194.997 182.126C194.279 182.126 193.625 181.963 193.037 181.636C192.459 181.309 192.001 180.847 191.665 180.25C191.339 179.643 191.175 178.943 191.175 178.15C191.175 177.366 191.343 176.675 191.679 176.078C192.025 175.471 192.491 175.009 193.079 174.692C193.667 174.365 194.325 174.202 195.053 174.202C195.781 174.202 196.439 174.365 197.027 174.692C197.615 175.009 198.077 175.467 198.413 176.064C198.759 176.661 198.931 177.357 198.931 178.15C198.931 178.943 198.754 179.643 198.399 180.25C198.054 180.847 197.583 181.309 196.985 181.636C196.388 181.963 195.725 182.126 194.997 182.126ZM194.997 181.006C195.455 181.006 195.884 180.899 196.285 180.684C196.687 180.469 197.009 180.147 197.251 179.718C197.503 179.289 197.629 178.766 197.629 178.15C197.629 177.534 197.508 177.011 197.265 176.582C197.023 176.153 196.705 175.835 196.313 175.63C195.921 175.415 195.497 175.308 195.039 175.308C194.573 175.308 194.143 175.415 193.751 175.63C193.369 175.835 193.061 176.153 192.827 176.582C192.594 177.011 192.477 177.534 192.477 178.15C192.477 178.775 192.589 179.303 192.813 179.732C193.047 180.161 193.355 180.483 193.737 180.698C194.12 180.903 194.54 181.006 194.997 181.006ZM207.41 174.328V182H206.136V180.866C205.894 181.258 205.553 181.566 205.114 181.79C204.685 182.005 204.209 182.112 203.686 182.112C203.089 182.112 202.552 181.991 202.076 181.748C201.6 181.496 201.222 181.123 200.942 180.628C200.672 180.133 200.536 179.531 200.536 178.822V174.328H201.796V178.654C201.796 179.41 201.988 179.993 202.37 180.404C202.753 180.805 203.276 181.006 203.938 181.006C204.62 181.006 205.156 180.796 205.548 180.376C205.94 179.956 206.136 179.345 206.136 178.542V174.328H207.41ZM210.835 175.574C211.059 175.135 211.377 174.795 211.787 174.552C212.207 174.309 212.716 174.188 213.313 174.188V175.504H212.977C211.549 175.504 210.835 176.279 210.835 177.828V182H209.561V174.328H210.835V175.574ZM56.085 196.242V197.278H53.425V206H52.151V197.278H49.477V196.242H56.085ZM64.6532 201.87C64.6532 202.113 64.6392 202.369 64.6112 202.64H58.4792C58.5259 203.396 58.7825 203.989 59.2492 204.418C59.7252 204.838 60.2992 205.048 60.9712 205.048C61.5219 205.048 61.9792 204.922 62.3432 204.67C62.7165 204.409 62.9779 204.063 63.1272 203.634H64.4992C64.2939 204.371 63.8832 204.973 63.2672 205.44C62.6512 205.897 61.8859 206.126 60.9712 206.126C60.2432 206.126 59.5899 205.963 59.0112 205.636C58.4419 205.309 57.9939 204.847 57.6672 204.25C57.3405 203.643 57.1772 202.943 57.1772 202.15C57.1772 201.357 57.3359 200.661 57.6532 200.064C57.9705 199.467 58.4139 199.009 58.9832 198.692C59.5619 198.365 60.2245 198.202 60.9712 198.202C61.6992 198.202 62.3432 198.361 62.9032 198.678C63.4632 198.995 63.8925 199.434 64.1912 199.994C64.4992 200.545 64.6532 201.17 64.6532 201.87ZM63.3372 201.604C63.3372 201.119 63.2299 200.703 63.0152 200.358C62.8005 200.003 62.5065 199.737 62.1332 199.56C61.7692 199.373 61.3632 199.28 60.9152 199.28C60.2712 199.28 59.7205 199.485 59.2632 199.896C58.8152 200.307 58.5585 200.876 58.4932 201.604H63.3372ZM67.6088 195.64V206H66.3348V195.64H67.6088ZM76.7801 201.87C76.7801 202.113 76.7661 202.369 76.7381 202.64H70.6061C70.6528 203.396 70.9095 203.989 71.3761 204.418C71.8521 204.838 72.4261 205.048 73.0981 205.048C73.6488 205.048 74.1061 204.922 74.4701 204.67C74.8435 204.409 75.1048 204.063 75.2541 203.634H76.6261C76.4208 204.371 76.0101 204.973 75.3941 205.44C74.7781 205.897 74.0128 206.126 73.0981 206.126C72.3701 206.126 71.7168 205.963 71.1381 205.636C70.5688 205.309 70.1208 204.847 69.7941 204.25C69.4675 203.643 69.3041 202.943 69.3041 202.15C69.3041 201.357 69.4628 200.661 69.7801 200.064C70.0975 199.467 70.5408 199.009 71.1101 198.692C71.6888 198.365 72.3515 198.202 73.0981 198.202C73.8261 198.202 74.4701 198.361 75.0301 198.678C75.5901 198.995 76.0195 199.434 76.3181 199.994C76.6261 200.545 76.7801 201.17 76.7801 201.87ZM75.4641 201.604C75.4641 201.119 75.3568 200.703 75.1421 200.358C74.9275 200.003 74.6335 199.737 74.2601 199.56C73.8961 199.373 73.4901 199.28 73.0421 199.28C72.3981 199.28 71.8475 199.485 71.3901 199.896C70.9421 200.307 70.6855 200.876 70.6201 201.604H75.4641ZM81.6258 198.202C82.2885 198.202 82.8671 198.347 83.3618 198.636C83.8658 198.925 84.2391 199.289 84.4818 199.728V198.328H85.7698V206.168C85.7698 206.868 85.6205 207.489 85.3218 208.03C85.0231 208.581 84.5938 209.01 84.0338 209.318C83.4831 209.626 82.8391 209.78 82.1018 209.78C81.0938 209.78 80.2538 209.542 79.5818 209.066C78.9098 208.59 78.5131 207.941 78.3918 207.12H79.6518C79.7918 207.587 80.0811 207.96 80.5198 208.24C80.9585 208.529 81.4858 208.674 82.1018 208.674C82.8018 208.674 83.3711 208.455 83.8098 208.016C84.2578 207.577 84.4818 206.961 84.4818 206.168V204.558C84.2298 205.006 83.8565 205.379 83.3618 205.678C82.8671 205.977 82.2885 206.126 81.6258 206.126C80.9445 206.126 80.3238 205.958 79.7638 205.622C79.2131 205.286 78.7791 204.815 78.4618 204.208C78.1445 203.601 77.9858 202.911 77.9858 202.136C77.9858 201.352 78.1445 200.666 78.4618 200.078C78.7791 199.481 79.2131 199.019 79.7638 198.692C80.3238 198.365 80.9445 198.202 81.6258 198.202ZM84.4818 202.15C84.4818 201.571 84.3651 201.067 84.1318 200.638C83.8985 200.209 83.5811 199.882 83.1798 199.658C82.7878 199.425 82.3538 199.308 81.8778 199.308C81.4018 199.308 80.9678 199.42 80.5758 199.644C80.1838 199.868 79.8711 200.195 79.6378 200.624C79.4045 201.053 79.2878 201.557 79.2878 202.136C79.2878 202.724 79.4045 203.237 79.6378 203.676C79.8711 204.105 80.1838 204.437 80.5758 204.67C80.9678 204.894 81.4018 205.006 81.8778 205.006C82.3538 205.006 82.7878 204.894 83.1798 204.67C83.5811 204.437 83.8985 204.105 84.1318 203.676C84.3651 203.237 84.4818 202.729 84.4818 202.15ZM89.1967 199.574C89.4207 199.135 89.7381 198.795 90.1487 198.552C90.5687 198.309 91.0774 198.188 91.6747 198.188V199.504H91.3387C89.9107 199.504 89.1967 200.279 89.1967 201.828V206H87.9227V198.328H89.1967V199.574ZM92.6694 202.136C92.6694 201.352 92.828 200.666 93.1454 200.078C93.4627 199.481 93.8967 199.019 94.4474 198.692C95.0074 198.365 95.628 198.202 96.3094 198.202C96.9814 198.202 97.5647 198.347 98.0594 198.636C98.554 198.925 98.9227 199.289 99.1654 199.728V198.328H100.453V206H99.1654V204.572C98.9134 205.02 98.5354 205.393 98.0314 205.692C97.5367 205.981 96.958 206.126 96.2954 206.126C95.614 206.126 94.998 205.958 94.4474 205.622C93.8967 205.286 93.4627 204.815 93.1454 204.208C92.828 203.601 92.6694 202.911 92.6694 202.136ZM99.1654 202.15C99.1654 201.571 99.0487 201.067 98.8154 200.638C98.582 200.209 98.2647 199.882 97.8634 199.658C97.4714 199.425 97.0374 199.308 96.5614 199.308C96.0854 199.308 95.6514 199.42 95.2594 199.644C94.8674 199.868 94.5547 200.195 94.3214 200.624C94.088 201.053 93.9714 201.557 93.9714 202.136C93.9714 202.724 94.088 203.237 94.3214 203.676C94.5547 204.105 94.8674 204.437 95.2594 204.67C95.6514 204.894 96.0854 205.006 96.5614 205.006C97.0374 205.006 97.4714 204.894 97.8634 204.67C98.2647 204.437 98.582 204.105 98.8154 203.676C99.0487 203.237 99.1654 202.729 99.1654 202.15ZM111.832 198.188C112.43 198.188 112.962 198.314 113.428 198.566C113.895 198.809 114.264 199.177 114.534 199.672C114.805 200.167 114.94 200.769 114.94 201.478V206H113.68V201.66C113.68 200.895 113.489 200.311 113.106 199.91C112.733 199.499 112.224 199.294 111.58 199.294C110.918 199.294 110.39 199.509 109.998 199.938C109.606 200.358 109.41 200.969 109.41 201.772V206H108.15V201.66C108.15 200.895 107.959 200.311 107.576 199.91C107.203 199.499 106.694 199.294 106.05 199.294C105.388 199.294 104.86 199.509 104.468 199.938C104.076 200.358 103.88 200.969 103.88 201.772V206H102.606V198.328H103.88V199.434C104.132 199.033 104.468 198.725 104.888 198.51C105.318 198.295 105.789 198.188 106.302 198.188C106.946 198.188 107.516 198.333 108.01 198.622C108.505 198.911 108.874 199.336 109.116 199.896C109.331 199.355 109.686 198.935 110.18 198.636C110.675 198.337 111.226 198.188 111.832 198.188Z" fill="#090136"/>
<path d="M128.943 134.098C128.299 134.098 127.72 133.986 127.207 133.762C126.703 133.529 126.306 133.211 126.017 132.81C125.727 132.399 125.578 131.928 125.569 131.396H126.927C126.973 131.853 127.16 132.241 127.487 132.558C127.823 132.866 128.308 133.02 128.943 133.02C129.549 133.02 130.025 132.871 130.371 132.572C130.725 132.264 130.903 131.872 130.903 131.396C130.903 131.023 130.8 130.719 130.595 130.486C130.389 130.253 130.133 130.075 129.825 129.954C129.517 129.833 129.101 129.702 128.579 129.562C127.935 129.394 127.417 129.226 127.025 129.058C126.642 128.89 126.311 128.629 126.031 128.274C125.76 127.91 125.625 127.425 125.625 126.818C125.625 126.286 125.76 125.815 126.031 125.404C126.301 124.993 126.679 124.676 127.165 124.452C127.659 124.228 128.224 124.116 128.859 124.116C129.773 124.116 130.52 124.345 131.099 124.802C131.687 125.259 132.018 125.866 132.093 126.622H130.693C130.646 126.249 130.45 125.922 130.105 125.642C129.759 125.353 129.302 125.208 128.733 125.208C128.201 125.208 127.767 125.348 127.431 125.628C127.095 125.899 126.927 126.281 126.927 126.776C126.927 127.131 127.025 127.42 127.221 127.644C127.426 127.868 127.673 128.041 127.963 128.162C128.261 128.274 128.677 128.405 129.209 128.554C129.853 128.731 130.371 128.909 130.763 129.086C131.155 129.254 131.491 129.52 131.771 129.884C132.051 130.239 132.191 130.724 132.191 131.34C132.191 131.816 132.065 132.264 131.813 132.684C131.561 133.104 131.187 133.445 130.693 133.706C130.198 133.967 129.615 134.098 128.943 134.098ZM135.619 127.378V131.9C135.619 132.273 135.699 132.539 135.857 132.698C136.016 132.847 136.291 132.922 136.683 132.922H137.621V134H136.473C135.764 134 135.232 133.837 134.877 133.51C134.523 133.183 134.345 132.647 134.345 131.9V127.378H133.351V126.328H134.345V124.396H135.619V126.328H137.621V127.378H135.619ZM146.165 129.87C146.165 130.113 146.151 130.369 146.123 130.64H139.991C140.038 131.396 140.294 131.989 140.761 132.418C141.237 132.838 141.811 133.048 142.483 133.048C143.034 133.048 143.491 132.922 143.855 132.67C144.228 132.409 144.49 132.063 144.639 131.634H146.011C145.806 132.371 145.395 132.973 144.779 133.44C144.163 133.897 143.398 134.126 142.483 134.126C141.755 134.126 141.102 133.963 140.523 133.636C139.954 133.309 139.506 132.847 139.179 132.25C138.852 131.643 138.689 130.943 138.689 130.15C138.689 129.357 138.848 128.661 139.165 128.064C139.482 127.467 139.926 127.009 140.495 126.692C141.074 126.365 141.736 126.202 142.483 126.202C143.211 126.202 143.855 126.361 144.415 126.678C144.975 126.995 145.404 127.434 145.703 127.994C146.011 128.545 146.165 129.17 146.165 129.87ZM144.849 129.604C144.849 129.119 144.742 128.703 144.527 128.358C144.312 128.003 144.018 127.737 143.645 127.56C143.281 127.373 142.875 127.28 142.427 127.28C141.783 127.28 141.232 127.485 140.775 127.896C140.327 128.307 140.07 128.876 140.005 129.604H144.849ZM149.121 127.574C149.345 127.135 149.662 126.795 150.073 126.552C150.493 126.309 151.001 126.188 151.599 126.188V127.504H151.263C149.835 127.504 149.121 128.279 149.121 129.828V134H147.847V126.328H149.121V127.574ZM160.069 129.87C160.069 130.113 160.055 130.369 160.027 130.64H153.895C153.942 131.396 154.199 131.989 154.665 132.418C155.141 132.838 155.715 133.048 156.387 133.048C156.938 133.048 157.395 132.922 157.759 132.67C158.133 132.409 158.394 132.063 158.543 131.634H159.915C159.71 132.371 159.299 132.973 158.683 133.44C158.067 133.897 157.302 134.126 156.387 134.126C155.659 134.126 155.006 133.963 154.427 133.636C153.858 133.309 153.41 132.847 153.083 132.25C152.757 131.643 152.593 130.943 152.593 130.15C152.593 129.357 152.752 128.661 153.069 128.064C153.387 127.467 153.83 127.009 154.399 126.692C154.978 126.365 155.641 126.202 156.387 126.202C157.115 126.202 157.759 126.361 158.319 126.678C158.879 126.995 159.309 127.434 159.607 127.994C159.915 128.545 160.069 129.17 160.069 129.87ZM158.753 129.604C158.753 129.119 158.646 128.703 158.431 128.358C158.217 128.003 157.923 127.737 157.549 127.56C157.185 127.373 156.779 127.28 156.331 127.28C155.687 127.28 155.137 127.485 154.679 127.896C154.231 128.307 153.975 128.876 153.909 129.604H158.753ZM165.097 134.126C164.378 134.126 163.725 133.963 163.137 133.636C162.558 133.309 162.101 132.847 161.765 132.25C161.438 131.643 161.275 130.943 161.275 130.15C161.275 129.366 161.443 128.675 161.779 128.078C162.124 127.471 162.591 127.009 163.179 126.692C163.767 126.365 164.425 126.202 165.153 126.202C165.881 126.202 166.539 126.365 167.127 126.692C167.715 127.009 168.177 127.467 168.513 128.064C168.858 128.661 169.031 129.357 169.031 130.15C169.031 130.943 168.854 131.643 168.499 132.25C168.154 132.847 167.682 133.309 167.085 133.636C166.488 133.963 165.825 134.126 165.097 134.126ZM165.097 133.006C165.554 133.006 165.984 132.899 166.385 132.684C166.786 132.469 167.108 132.147 167.351 131.718C167.603 131.289 167.729 130.766 167.729 130.15C167.729 129.534 167.608 129.011 167.365 128.582C167.122 128.153 166.805 127.835 166.413 127.63C166.021 127.415 165.596 127.308 165.139 127.308C164.672 127.308 164.243 127.415 163.851 127.63C163.468 127.835 163.16 128.153 162.927 128.582C162.694 129.011 162.577 129.534 162.577 130.15C162.577 130.775 162.689 131.303 162.913 131.732C163.146 132.161 163.454 132.483 163.837 132.698C164.22 132.903 164.64 133.006 165.097 133.006ZM171.364 125.082C171.121 125.082 170.916 124.998 170.748 124.83C170.58 124.662 170.496 124.457 170.496 124.214C170.496 123.971 170.58 123.766 170.748 123.598C170.916 123.43 171.121 123.346 171.364 123.346C171.597 123.346 171.793 123.43 171.952 123.598C172.12 123.766 172.204 123.971 172.204 124.214C172.204 124.457 172.12 124.662 171.952 124.83C171.793 124.998 171.597 125.082 171.364 125.082ZM171.98 126.328V134H170.706V126.328H171.98ZM173.675 130.136C173.675 129.352 173.834 128.666 174.151 128.078C174.469 127.481 174.903 127.019 175.453 126.692C176.013 126.365 176.639 126.202 177.329 126.202C177.927 126.202 178.482 126.342 178.995 126.622C179.509 126.893 179.901 127.252 180.171 127.7V123.64H181.459V134H180.171V132.558C179.919 133.015 179.546 133.393 179.051 133.692C178.557 133.981 177.978 134.126 177.315 134.126C176.634 134.126 176.013 133.958 175.453 133.622C174.903 133.286 174.469 132.815 174.151 132.208C173.834 131.601 173.675 130.911 173.675 130.136ZM180.171 130.15C180.171 129.571 180.055 129.067 179.821 128.638C179.588 128.209 179.271 127.882 178.869 127.658C178.477 127.425 178.043 127.308 177.567 127.308C177.091 127.308 176.657 127.42 176.265 127.644C175.873 127.868 175.561 128.195 175.327 128.624C175.094 129.053 174.977 129.557 174.977 130.136C174.977 130.724 175.094 131.237 175.327 131.676C175.561 132.105 175.873 132.437 176.265 132.67C176.657 132.894 177.091 133.006 177.567 133.006C178.043 133.006 178.477 132.894 178.869 132.67C179.271 132.437 179.588 132.105 179.821 131.676C180.055 131.237 180.171 130.729 180.171 130.15ZM186.328 134.126C185.74 134.126 185.213 134.028 184.746 133.832C184.28 133.627 183.911 133.347 183.64 132.992C183.37 132.628 183.22 132.213 183.192 131.746H184.508C184.546 132.129 184.723 132.441 185.04 132.684C185.367 132.927 185.792 133.048 186.314 133.048C186.8 133.048 187.182 132.941 187.462 132.726C187.742 132.511 187.882 132.241 187.882 131.914C187.882 131.578 187.733 131.331 187.434 131.172C187.136 131.004 186.674 130.841 186.048 130.682C185.479 130.533 185.012 130.383 184.648 130.234C184.294 130.075 183.986 129.847 183.724 129.548C183.472 129.24 183.346 128.839 183.346 128.344C183.346 127.952 183.463 127.593 183.696 127.266C183.93 126.939 184.261 126.683 184.69 126.496C185.12 126.3 185.61 126.202 186.16 126.202C187.01 126.202 187.696 126.417 188.218 126.846C188.741 127.275 189.021 127.863 189.058 128.61H187.784C187.756 128.209 187.593 127.887 187.294 127.644C187.005 127.401 186.613 127.28 186.118 127.28C185.661 127.28 185.297 127.378 185.026 127.574C184.756 127.77 184.62 128.027 184.62 128.344C184.62 128.596 184.7 128.806 184.858 128.974C185.026 129.133 185.232 129.263 185.474 129.366C185.726 129.459 186.072 129.567 186.51 129.688C187.061 129.837 187.509 129.987 187.854 130.136C188.2 130.276 188.494 130.491 188.736 130.78C188.988 131.069 189.119 131.447 189.128 131.914C189.128 132.334 189.012 132.712 188.778 133.048C188.545 133.384 188.214 133.65 187.784 133.846C187.364 134.033 186.879 134.126 186.328 134.126ZM79.1471 173.082C78.9045 173.082 78.6991 172.998 78.5311 172.83C78.3631 172.662 78.2791 172.457 78.2791 172.214C78.2791 171.971 78.3631 171.766 78.5311 171.598C78.6991 171.43 78.9045 171.346 79.1471 171.346C79.3805 171.346 79.5765 171.43 79.7351 171.598C79.9031 171.766 79.9871 171.971 79.9871 172.214C79.9871 172.457 79.9031 172.662 79.7351 172.83C79.5765 172.998 79.3805 173.082 79.1471 173.082ZM79.7631 174.328V182H78.4891V174.328H79.7631ZM85.6724 174.188C86.6058 174.188 87.3618 174.473 87.9404 175.042C88.5191 175.602 88.8084 176.414 88.8084 177.478V182H87.5484V177.66C87.5484 176.895 87.3571 176.311 86.9744 175.91C86.5918 175.499 86.0691 175.294 85.4064 175.294C84.7344 175.294 84.1978 175.504 83.7964 175.924C83.4044 176.344 83.2084 176.955 83.2084 177.758V182H81.9344V174.328H83.2084V175.42C83.4604 175.028 83.8011 174.725 84.2304 174.51C84.6691 174.295 85.1498 174.188 85.6724 174.188ZM94.0115 175.378H92.4015V182H91.1275V175.378H90.1335V174.328H91.1275V173.782C91.1275 172.923 91.3469 172.298 91.7855 171.906C92.2335 171.505 92.9475 171.304 93.9275 171.304V172.368C93.3675 172.368 92.9709 172.48 92.7375 172.704C92.5135 172.919 92.4015 173.278 92.4015 173.782V174.328H94.0115V175.378ZM98.8429 182.126C98.1243 182.126 97.4709 181.963 96.8829 181.636C96.3043 181.309 95.8469 180.847 95.5109 180.25C95.1843 179.643 95.0209 178.943 95.0209 178.15C95.0209 177.366 95.1889 176.675 95.5249 176.078C95.8703 175.471 96.3369 175.009 96.9249 174.692C97.5129 174.365 98.1709 174.202 98.8989 174.202C99.6269 174.202 100.285 174.365 100.873 174.692C101.461 175.009 101.923 175.467 102.259 176.064C102.604 176.661 102.777 177.357 102.777 178.15C102.777 178.943 102.6 179.643 102.245 180.25C101.9 180.847 101.428 181.309 100.831 181.636C100.234 181.963 99.5709 182.126 98.8429 182.126ZM98.8429 181.006C99.3003 181.006 99.7296 180.899 100.131 180.684C100.532 180.469 100.854 180.147 101.097 179.718C101.349 179.289 101.475 178.766 101.475 178.15C101.475 177.534 101.354 177.011 101.111 176.582C100.868 176.153 100.551 175.835 100.159 175.63C99.7669 175.415 99.3423 175.308 98.8849 175.308C98.4183 175.308 97.9889 175.415 97.5969 175.63C97.2143 175.835 96.9063 176.153 96.6729 176.582C96.4396 177.011 96.3229 177.534 96.3229 178.15C96.3229 178.775 96.4349 179.303 96.6589 179.732C96.8923 180.161 97.2003 180.483 97.5829 180.698C97.9656 180.903 98.3856 181.006 98.8429 181.006Z" fill="white"/>
</svg>
