<svg width="293" height="251" viewBox="0 0 293 251" fill="none" xmlns="http://www.w3.org/2000/svg">
<path d="M63.4833 204.549C74.5485 223.792 63.8662 240.557 55.0813 248.548C54.317 249.243 54.9067 250.614 55.9264 250.448C95.2354 244.061 117.954 217.445 124.525 204.549H254.747C276.397 201.839 287.173 185.803 291.285 174.227C292.753 170.094 293 165.671 293 161.285V39.1169C290.415 17.3763 275.003 6.52698 263.06 2.16355C257.675 0.196332 251.87 0 246.137 0H47.5686C40.8244 0 33.9375 0.109133 27.6516 2.55266C8.38038 10.0439 1.17541 29.2308 0 39.1169V164.617C1.47482 184.799 14.7964 196.03 26.0223 201.257C32.2656 204.164 39.2787 204.549 46.1657 204.549H63.4833Z" fill="white"/>
<path d="M32.12 58.0001V43.6001H35.18L40.22 49.6201L45.24 43.6001H48.32V58.0001H45.42V47.9001L40.22 54.1201L35 47.9201V58.0001H32.12ZM53.2389 58.0001C52.7322 58.0001 52.2589 57.8734 51.8189 57.6201C51.3922 57.3534 51.0522 57.0067 50.7989 56.5801C50.5456 56.1534 50.4189 55.6867 50.4189 55.1801V50.7601H59.3389V49.3601C59.3389 49.3334 59.3256 49.3067 59.2989 49.2801C59.2722 49.2534 59.2456 49.2401 59.2189 49.2401H50.4189V46.4001H59.3589C59.8789 46.4001 60.3522 46.5334 60.7789 46.8001C61.2056 47.0534 61.5456 47.3934 61.7989 47.8201C62.0522 48.2467 62.1789 48.7134 62.1789 49.2201V58.0001H53.2389ZM53.3789 55.1601H59.3389V53.3001H53.2589V55.0401C53.2589 55.0667 53.2722 55.0934 53.2989 55.1201C53.3256 55.1467 53.3522 55.1601 53.3789 55.1601ZM63.8369 58.0001V49.2201C63.8369 48.7134 63.9635 48.2467 64.2169 47.8201C64.4835 47.3934 64.8302 47.0534 65.2569 46.8001C65.6969 46.5334 66.1702 46.4001 66.6769 46.4001H73.0969V49.2401H66.7969C66.7702 49.2401 66.7435 49.2534 66.7169 49.2801C66.6902 49.3067 66.6769 49.3334 66.6769 49.3601V58.0001H63.8369ZM74.3652 58.0001V42.6001H77.2052V50.7601H79.0252L83.0452 46.4001H85.9852V47.2801L81.5252 52.2001L85.9852 57.1201V58.0001H83.0452L79.0252 53.6401H77.2052V58.0001H74.3652ZM90.0353 58.0001C89.5286 58.0001 89.062 57.8734 88.6353 57.6201C88.2086 57.3534 87.862 57.0067 87.5953 56.5801C87.342 56.1534 87.2153 55.6867 87.2153 55.1801V49.2201C87.2153 48.7134 87.342 48.2467 87.5953 47.8201C87.862 47.3934 88.2086 47.0534 88.6353 46.8001C89.062 46.5334 89.5286 46.4001 90.0353 46.4001H96.1553C96.6753 46.4001 97.1486 46.5334 97.5753 46.8001C98.002 47.0534 98.342 47.3934 98.5953 47.8201C98.8486 48.2467 98.9753 48.7134 98.9753 49.2201V53.6401H90.0553V55.0401C90.0553 55.0667 90.0686 55.0934 90.0953 55.1201C90.122 55.1467 90.1486 55.1601 90.1753 55.1601H98.9753V58.0001H90.0353ZM90.0553 51.1001H96.1353V49.3601C96.1353 49.3334 96.122 49.3067 96.0953 49.2801C96.0686 49.2534 96.042 49.2401 96.0153 49.2401H90.1753C90.1486 49.2401 90.122 49.2534 90.0953 49.2801C90.0686 49.3067 90.0553 49.3334 90.0553 49.3601V51.1001ZM103.943 58.0001C103.423 58.0001 102.95 57.8734 102.523 57.6201C102.096 57.3534 101.75 57.0067 101.483 56.5801C101.23 56.1534 101.103 55.6867 101.103 55.1801V42.9001H103.943V46.4001H108.363V49.2401H103.943V55.0401C103.943 55.0667 103.956 55.0934 103.983 55.1201C104.01 55.1467 104.036 55.1601 104.063 55.1601H108.363V58.0001H103.943ZM127.698 58.0001L123.438 52.9201H127.218L130.738 57.1001V58.0001H127.698ZM116.378 58.0001V43.6201H127.878C128.411 43.6201 128.891 43.7534 129.318 44.0201C129.758 44.2734 130.111 44.6201 130.378 45.0601C130.644 45.5001 130.778 45.9801 130.778 46.5001V50.3001C130.778 50.8201 130.644 51.3001 130.378 51.7401C130.111 52.1667 129.758 52.5134 129.318 52.7801C128.891 53.0334 128.411 53.1601 127.878 53.1601L119.258 53.1801V58.0001H116.378ZM119.378 50.2601H127.738C127.778 50.2601 127.804 50.2534 127.818 50.2401C127.844 50.2134 127.858 50.1867 127.858 50.1601V46.6201C127.858 46.5801 127.844 46.5534 127.818 46.5401C127.804 46.5134 127.778 46.5001 127.738 46.5001H119.378C119.338 46.5001 119.304 46.5134 119.278 46.5401C119.264 46.5534 119.258 46.5801 119.258 46.6201V50.1601C119.258 50.1867 119.264 50.2134 119.278 50.2401C119.304 50.2534 119.338 50.2601 119.378 50.2601ZM135.602 58.0001C135.095 58.0001 134.628 57.8734 134.202 57.6201C133.775 57.3534 133.428 57.0067 133.162 56.5801C132.908 56.1534 132.782 55.6867 132.782 55.1801V49.2201C132.782 48.7134 132.908 48.2467 133.162 47.8201C133.428 47.3934 133.775 47.0534 134.202 46.8001C134.628 46.5334 135.095 46.4001 135.602 46.4001H141.722C142.242 46.4001 142.715 46.5334 143.142 46.8001C143.568 47.0534 143.908 47.3934 144.162 47.8201C144.415 48.2467 144.542 48.7134 144.542 49.2201V53.6401H135.622V55.0401C135.622 55.0667 135.635 55.0934 135.662 55.1201C135.688 55.1467 135.715 55.1601 135.742 55.1601H144.542V58.0001H135.602ZM135.622 51.1001H141.702V49.3601C141.702 49.3334 141.688 49.3067 141.662 49.2801C141.635 49.2534 141.608 49.2401 141.582 49.2401H135.742C135.715 49.2401 135.688 49.2534 135.662 49.2801C135.635 49.3067 135.622 49.3334 135.622 49.3601V51.1001ZM149.214 58.0001C148.707 58.0001 148.24 57.8734 147.814 57.6201C147.387 57.3534 147.04 57.0067 146.774 56.5801C146.52 56.1534 146.394 55.6867 146.394 55.1801V54.6601H149.234V55.0401C149.234 55.0667 149.247 55.0934 149.274 55.1201C149.3 55.1467 149.327 55.1601 149.354 55.1601H155.194C155.22 55.1601 155.247 55.1467 155.274 55.1201C155.3 55.0934 155.314 55.0667 155.314 55.0401V53.7401C155.314 53.7134 155.3 53.6934 155.274 53.6801C155.247 53.6534 155.22 53.6401 155.194 53.6401H149.214C148.707 53.6401 148.24 53.5134 147.814 53.2601C147.387 52.9934 147.04 52.6467 146.774 52.2201C146.52 51.7934 146.394 51.3201 146.394 50.8001V49.2201C146.394 48.7134 146.52 48.2467 146.774 47.8201C147.04 47.3934 147.387 47.0534 147.814 46.8001C148.24 46.5334 148.707 46.4001 149.214 46.4001H155.334C155.854 46.4001 156.327 46.5334 156.754 46.8001C157.18 47.0534 157.52 47.3934 157.774 47.8201C158.04 48.2467 158.174 48.7134 158.174 49.2201V49.7401H155.314V49.3601C155.314 49.3334 155.3 49.3067 155.274 49.2801C155.247 49.2534 155.22 49.2401 155.194 49.2401H149.354C149.327 49.2401 149.3 49.2534 149.274 49.2801C149.247 49.3067 149.234 49.3334 149.234 49.3601V50.6601C149.234 50.6867 149.247 50.7134 149.274 50.7401C149.3 50.7534 149.327 50.7601 149.354 50.7601H155.334C155.854 50.7601 156.327 50.8934 156.754 51.1601C157.18 51.4134 157.52 51.7534 157.774 52.1801C158.04 52.6067 158.174 53.0801 158.174 53.6001V55.1801C158.174 55.6867 158.04 56.1534 157.774 56.5801C157.52 57.0067 157.18 57.3534 156.754 57.6201C156.327 57.8734 155.854 58.0001 155.334 58.0001H149.214ZM162.594 58.0001C162.087 58.0001 161.621 57.8734 161.194 57.6201C160.767 57.3534 160.421 57.0067 160.154 56.5801C159.901 56.1534 159.774 55.6867 159.774 55.1801V49.2201C159.774 48.7134 159.901 48.2467 160.154 47.8201C160.421 47.3934 160.767 47.0534 161.194 46.8001C161.621 46.5334 162.087 46.4001 162.594 46.4001H168.714C169.234 46.4001 169.707 46.5334 170.134 46.8001C170.561 47.0534 170.901 47.3934 171.154 47.8201C171.407 48.2467 171.534 48.7134 171.534 49.2201V53.6401H162.614V55.0401C162.614 55.0667 162.627 55.0934 162.654 55.1201C162.681 55.1467 162.707 55.1601 162.734 55.1601H171.534V58.0001H162.594ZM162.614 51.1001H168.694V49.3601C168.694 49.3334 168.681 49.3067 168.654 49.2801C168.627 49.2534 168.601 49.2401 168.574 49.2401H162.734C162.707 49.2401 162.681 49.2534 162.654 49.2801C162.627 49.3067 162.614 49.3334 162.614 49.3601V51.1001ZM176.462 58.0001C175.955 58.0001 175.482 57.8734 175.042 57.6201C174.615 57.3534 174.275 57.0067 174.022 56.5801C173.768 56.1534 173.642 55.6867 173.642 55.1801V50.7601H182.562V49.3601C182.562 49.3334 182.548 49.3067 182.522 49.2801C182.495 49.2534 182.468 49.2401 182.442 49.2401H173.642V46.4001H182.582C183.102 46.4001 183.575 46.5334 184.002 46.8001C184.428 47.0534 184.768 47.3934 185.022 47.8201C185.275 48.2467 185.402 48.7134 185.402 49.2201V58.0001H176.462ZM176.602 55.1601H182.562V53.3001H176.482V55.0401C176.482 55.0667 176.495 55.0934 176.522 55.1201C176.548 55.1467 176.575 55.1601 176.602 55.1601ZM187.06 58.0001V49.2201C187.06 48.7134 187.186 48.2467 187.44 47.8201C187.706 47.3934 188.053 47.0534 188.48 46.8001C188.92 46.5334 189.393 46.4001 189.9 46.4001H196.32V49.2401H190.02C189.993 49.2401 189.966 49.2534 189.94 49.2801C189.913 49.3067 189.9 49.3334 189.9 49.3601V58.0001H187.06ZM200.348 58.0001C199.841 58.0001 199.374 57.8734 198.948 57.6201C198.521 57.3534 198.174 57.0067 197.908 56.5801C197.654 56.1534 197.528 55.6867 197.528 55.1801V49.2201C197.528 48.7134 197.654 48.2467 197.908 47.8201C198.174 47.3934 198.521 47.0534 198.948 46.8001C199.374 46.5334 199.841 46.4001 200.348 46.4001H209.268V49.2401H200.488C200.461 49.2401 200.434 49.2534 200.408 49.2801C200.381 49.3067 200.368 49.3334 200.368 49.3601V55.0401C200.368 55.0667 200.381 55.0934 200.408 55.1201C200.434 55.1467 200.461 55.1601 200.488 55.1601H209.288V58.0001H200.348ZM210.967 58.0001V42.6001H213.807V46.4001H219.907C220.413 46.4001 220.88 46.5334 221.307 46.8001C221.733 47.0534 222.073 47.3934 222.327 47.8201C222.593 48.2467 222.727 48.7134 222.727 49.2201V58.0001H219.887V49.3601C219.887 49.3334 219.873 49.3067 219.847 49.2801C219.833 49.2534 219.807 49.2401 219.767 49.2401H213.927C213.9 49.2401 213.873 49.2534 213.847 49.2801C213.82 49.3067 213.807 49.3334 213.807 49.3601V58.0001H210.967ZM230.735 58.0001V43.6001H241.695C242.215 43.6001 242.688 43.7334 243.115 44.0001C243.555 44.2534 243.908 44.6001 244.175 45.0401C244.441 45.4667 244.575 45.9467 244.575 46.4801V49.2401C244.575 49.4134 244.561 49.5801 244.535 49.7401C244.508 49.8867 244.468 50.0334 244.415 50.1801C244.628 50.4601 244.801 50.7667 244.935 51.1001C245.068 51.4201 245.135 51.7467 245.135 52.0801V55.1201C245.135 55.6534 245.001 56.1401 244.735 56.5801C244.468 57.0067 244.115 57.3534 243.675 57.6201C243.248 57.8734 242.768 58.0001 242.235 58.0001H230.735ZM233.735 55.1001H242.095C242.135 55.1001 242.161 55.0934 242.175 55.0801C242.201 55.0534 242.215 55.0201 242.215 54.9801V52.2401C242.215 52.2134 242.201 52.1867 242.175 52.1601C242.161 52.1334 242.135 52.1201 242.095 52.1201H233.735C233.695 52.1201 233.661 52.1334 233.635 52.1601C233.621 52.1867 233.615 52.2134 233.615 52.2401V54.9801C233.615 55.0201 233.621 55.0534 233.635 55.0801C233.661 55.0934 233.695 55.1001 233.735 55.1001ZM233.735 49.2201H241.535C241.561 49.2201 241.588 49.2134 241.615 49.2001C241.641 49.1734 241.655 49.1467 241.655 49.1201V46.6201C241.655 46.5801 241.641 46.5534 241.615 46.5401C241.588 46.5134 241.561 46.5001 241.535 46.5001H233.735C233.695 46.5001 233.661 46.5134 233.635 46.5401C233.621 46.5534 233.615 46.5801 233.615 46.6201V49.1201C233.615 49.1467 233.621 49.1734 233.635 49.2001C233.661 49.2134 233.695 49.2201 233.735 49.2201ZM250.035 58.0001C249.529 58.0001 249.062 57.8734 248.635 57.6201C248.209 57.3534 247.862 57.0067 247.595 56.5801C247.342 56.1534 247.215 55.6867 247.215 55.1801V49.2201C247.215 48.7134 247.342 48.2467 247.595 47.8201C247.862 47.3934 248.209 47.0534 248.635 46.8001C249.062 46.5334 249.529 46.4001 250.035 46.4001H256.155C256.675 46.4001 257.149 46.5334 257.575 46.8001C258.002 47.0534 258.342 47.3934 258.595 47.8201C258.849 48.2467 258.975 48.7134 258.975 49.2201V55.1801C258.975 55.6867 258.849 56.1534 258.595 56.5801C258.342 57.0067 258.002 57.3534 257.575 57.6201C257.149 57.8734 256.675 58.0001 256.155 58.0001H250.035ZM250.175 55.1601H256.015C256.042 55.1601 256.069 55.1467 256.095 55.1201C256.122 55.0934 256.135 55.0667 256.135 55.0401V49.3601C256.135 49.3334 256.122 49.3067 256.095 49.2801C256.069 49.2534 256.042 49.2401 256.015 49.2401H250.175C250.149 49.2401 250.122 49.2534 250.095 49.2801C250.069 49.3067 250.055 49.3334 250.055 49.3601V55.0401C250.055 55.0667 250.069 55.0934 250.095 55.1201C250.122 55.1467 250.149 55.1601 250.175 55.1601ZM263.572 58.0001C263.052 58.0001 262.579 57.8734 262.152 57.6201C261.725 57.3534 261.379 57.0067 261.112 56.5801C260.859 56.1534 260.732 55.6867 260.732 55.1801V42.9001H263.572V46.4001H267.992V49.2401H263.572V55.0401C263.572 55.0667 263.585 55.0934 263.612 55.1201C263.639 55.1467 263.665 55.1601 263.692 55.1601H267.992V58.0001H263.572Z" fill="#090136"/>
<rect x="40" y="152" width="103" height="21" rx="3" fill="#FF765A"/>
<rect x="169" y="84" width="67" height="18" rx="3" fill="#00B4C2"/>
<path d="M50.594 88.242V89.278H46.352V92.568H49.796V93.604H46.352V98H45.078V88.242H50.594ZM52.7907 89.082C52.548 89.082 52.3427 88.998 52.1747 88.83C52.0067 88.662 51.9227 88.4567 51.9227 88.214C51.9227 87.9714 52.0067 87.766 52.1747 87.598C52.3427 87.43 52.548 87.346 52.7907 87.346C53.024 87.346 53.22 87.43 53.3787 87.598C53.5467 87.766 53.6307 87.9714 53.6307 88.214C53.6307 88.4567 53.5467 88.662 53.3787 88.83C53.22 88.998 53.024 89.082 52.7907 89.082ZM53.4067 90.328V98H52.1327V90.328H53.4067ZM59.316 90.188C60.2493 90.188 61.0053 90.4727 61.584 91.042C62.1627 91.602 62.452 92.414 62.452 93.478V98H61.192V93.66C61.192 92.8947 61.0007 92.3114 60.618 91.91C60.2353 91.4994 59.7127 91.294 59.05 91.294C58.378 91.294 57.8413 91.504 57.44 91.924C57.048 92.344 56.852 92.9554 56.852 93.758V98H55.578V90.328H56.852V91.42C57.104 91.028 57.4447 90.7247 57.874 90.51C58.3127 90.2954 58.7933 90.188 59.316 90.188ZM64.0571 94.136C64.0571 93.352 64.2157 92.666 64.5331 92.078C64.8504 91.4807 65.2844 91.0187 65.8351 90.692C66.3951 90.3654 67.0204 90.202 67.7111 90.202C68.3084 90.202 68.8637 90.342 69.3771 90.622C69.8904 90.8927 70.2824 91.252 70.5531 91.7V87.64H71.8411V98H70.5531V96.558C70.3011 97.0154 69.9277 97.3934 69.4331 97.692C68.9384 97.9814 68.3597 98.126 67.6971 98.126C67.0157 98.126 66.3951 97.958 65.8351 97.622C65.2844 97.286 64.8504 96.8147 64.5331 96.208C64.2157 95.6014 64.0571 94.9107 64.0571 94.136ZM70.5531 94.15C70.5531 93.5714 70.4364 93.0674 70.2031 92.638C69.9697 92.2087 69.6524 91.882 69.2511 91.658C68.8591 91.4247 68.4251 91.308 67.9491 91.308C67.4731 91.308 67.0391 91.42 66.6471 91.644C66.2551 91.868 65.9424 92.1947 65.7091 92.624C65.4757 93.0534 65.3591 93.5574 65.3591 94.136C65.3591 94.724 65.4757 95.2374 65.7091 95.676C65.9424 96.1054 66.2551 96.4367 66.6471 96.67C67.0391 96.894 67.4731 97.006 67.9491 97.006C68.4251 97.006 68.8591 96.894 69.2511 96.67C69.6524 96.4367 69.9697 96.1054 70.2031 95.676C70.4364 95.2374 70.5531 94.7287 70.5531 94.15ZM79.2804 91.378V95.9C79.2804 96.2734 79.3598 96.5394 79.5184 96.698C79.6771 96.8474 79.9524 96.922 80.3444 96.922H81.2824V98H80.1344C79.4251 98 78.8931 97.8367 78.5384 97.51C78.1838 97.1834 78.0064 96.6467 78.0064 95.9V91.378H77.0124V90.328H78.0064V88.396H79.2804V90.328H81.2824V91.378H79.2804ZM86.634 90.188C87.2127 90.188 87.7354 90.314 88.202 90.566C88.6687 90.8087 89.0327 91.1774 89.294 91.672C89.5647 92.1667 89.7 92.7687 89.7 93.478V98H88.44V93.66C88.44 92.8947 88.2487 92.3114 87.866 91.91C87.4834 91.4994 86.9607 91.294 86.298 91.294C85.626 91.294 85.0894 91.504 84.688 91.924C84.296 92.344 84.1 92.9554 84.1 93.758V98H82.826V87.64H84.1V91.42C84.352 91.028 84.6974 90.7247 85.136 90.51C85.584 90.2954 86.0834 90.188 86.634 90.188ZM98.7811 93.87C98.7811 94.1127 98.7671 94.3694 98.7391 94.64H92.6071C92.6538 95.396 92.9105 95.9887 93.3771 96.418C93.8531 96.838 94.4271 97.048 95.0991 97.048C95.6498 97.048 96.1071 96.922 96.4711 96.67C96.8445 96.4087 97.1058 96.0634 97.2551 95.634H98.6271C98.4218 96.3714 98.0111 96.9734 97.3951 97.44C96.7791 97.8974 96.0138 98.126 95.0991 98.126C94.3711 98.126 93.7178 97.9627 93.1391 97.636C92.5698 97.3094 92.1218 96.8474 91.7951 96.25C91.4685 95.6434 91.3051 94.9434 91.3051 94.15C91.3051 93.3567 91.4638 92.6614 91.7811 92.064C92.0985 91.4667 92.5418 91.0094 93.1111 90.692C93.6898 90.3654 94.3525 90.202 95.0991 90.202C95.8271 90.202 96.4711 90.3607 97.0311 90.678C97.5911 90.9954 98.0205 91.434 98.3191 91.994C98.6271 92.5447 98.7811 93.17 98.7811 93.87ZM97.4651 93.604C97.4651 93.1187 97.3578 92.7034 97.1431 92.358C96.9285 92.0034 96.6345 91.7374 96.2611 91.56C95.8971 91.3734 95.4911 91.28 95.0431 91.28C94.3991 91.28 93.8485 91.4854 93.3911 91.896C92.9431 92.3067 92.6865 92.876 92.6211 93.604H97.4651ZM105.469 91.756C105.731 91.2987 106.113 90.9254 106.617 90.636C107.121 90.3467 107.695 90.202 108.339 90.202C109.03 90.202 109.651 90.3654 110.201 90.692C110.752 91.0187 111.186 91.4807 111.503 92.078C111.821 92.666 111.979 93.352 111.979 94.136C111.979 94.9107 111.821 95.6014 111.503 96.208C111.186 96.8147 110.747 97.286 110.187 97.622C109.637 97.958 109.021 98.126 108.339 98.126C107.677 98.126 107.093 97.9814 106.589 97.692C106.095 97.4027 105.721 97.034 105.469 96.586V98H104.195V87.64H105.469V91.756ZM110.677 94.136C110.677 93.5574 110.561 93.0534 110.327 92.624C110.094 92.1947 109.777 91.868 109.375 91.644C108.983 91.42 108.549 91.308 108.073 91.308C107.607 91.308 107.173 91.4247 106.771 91.658C106.379 91.882 106.062 92.2134 105.819 92.652C105.586 93.0814 105.469 93.5807 105.469 94.15C105.469 94.7287 105.586 95.2374 105.819 95.676C106.062 96.1054 106.379 96.4367 106.771 96.67C107.173 96.894 107.607 97.006 108.073 97.006C108.549 97.006 108.983 96.894 109.375 96.67C109.777 96.4367 110.094 96.1054 110.327 95.676C110.561 95.2374 110.677 94.724 110.677 94.136ZM120.656 93.87C120.656 94.1127 120.642 94.3694 120.614 94.64H114.482C114.529 95.396 114.785 95.9887 115.252 96.418C115.728 96.838 116.302 97.048 116.974 97.048C117.525 97.048 117.982 96.922 118.346 96.67C118.719 96.4087 118.981 96.0634 119.13 95.634H120.502C120.297 96.3714 119.886 96.9734 119.27 97.44C118.654 97.8974 117.889 98.126 116.974 98.126C116.246 98.126 115.593 97.9627 115.014 97.636C114.445 97.3094 113.997 96.8474 113.67 96.25C113.343 95.6434 113.18 94.9434 113.18 94.15C113.18 93.3567 113.339 92.6614 113.656 92.064C113.973 91.4667 114.417 91.0094 114.986 90.692C115.565 90.3654 116.227 90.202 116.974 90.202C117.702 90.202 118.346 90.3607 118.906 90.678C119.466 90.9954 119.895 91.434 120.194 91.994C120.502 92.5447 120.656 93.17 120.656 93.87ZM119.34 93.604C119.34 93.1187 119.233 92.7034 119.018 92.358C118.803 92.0034 118.509 91.7374 118.136 91.56C117.772 91.3734 117.366 91.28 116.918 91.28C116.274 91.28 115.723 91.4854 115.266 91.896C114.818 92.3067 114.561 92.876 114.496 93.604H119.34ZM125.054 98.126C124.466 98.126 123.938 98.028 123.472 97.832C123.005 97.6267 122.636 97.3467 122.366 96.992C122.095 96.628 121.946 96.2127 121.918 95.746H123.234C123.271 96.1287 123.448 96.4414 123.766 96.684C124.092 96.9267 124.517 97.048 125.04 97.048C125.525 97.048 125.908 96.9407 126.188 96.726C126.468 96.5114 126.608 96.2407 126.608 95.914C126.608 95.578 126.458 95.3307 126.16 95.172C125.861 95.004 125.399 94.8407 124.774 94.682C124.204 94.5327 123.738 94.3834 123.374 94.234C123.019 94.0754 122.711 93.8467 122.45 93.548C122.198 93.24 122.072 92.8387 122.072 92.344C122.072 91.952 122.188 91.5927 122.422 91.266C122.655 90.9394 122.986 90.6827 123.416 90.496C123.845 90.3 124.335 90.202 124.886 90.202C125.735 90.202 126.421 90.4167 126.944 90.846C127.466 91.2754 127.746 91.8634 127.784 92.61H126.51C126.482 92.2087 126.318 91.8867 126.02 91.644C125.73 91.4014 125.338 91.28 124.844 91.28C124.386 91.28 124.022 91.378 123.752 91.574C123.481 91.77 123.346 92.0267 123.346 92.344C123.346 92.596 123.425 92.806 123.584 92.974C123.752 93.1327 123.957 93.2634 124.2 93.366C124.452 93.4594 124.797 93.5667 125.236 93.688C125.786 93.8374 126.234 93.9867 126.58 94.136C126.925 94.276 127.219 94.4907 127.462 94.78C127.714 95.0694 127.844 95.4474 127.854 95.914C127.854 96.334 127.737 96.712 127.504 97.048C127.27 97.384 126.939 97.65 126.51 97.846C126.09 98.0327 125.604 98.126 125.054 98.126ZM131.206 91.378V95.9C131.206 96.2734 131.286 96.5394 131.444 96.698C131.603 96.8474 131.878 96.922 132.27 96.922H133.208V98H132.06C131.351 98 130.819 97.8367 130.464 97.51C130.11 97.1834 129.932 96.6467 129.932 95.9V91.378H128.938V90.328H129.932V88.396H131.206V90.328H133.208V91.378H131.206ZM138.008 94.15C138.008 93.3567 138.167 92.666 138.484 92.078C138.802 91.4807 139.24 91.0187 139.8 90.692C140.37 90.3654 141.018 90.202 141.746 90.202C142.689 90.202 143.464 90.4307 144.07 90.888C144.686 91.3454 145.092 91.98 145.288 92.792H143.916C143.786 92.3254 143.529 91.9567 143.146 91.686C142.773 91.4154 142.306 91.28 141.746 91.28C141.018 91.28 140.43 91.532 139.982 92.036C139.534 92.5307 139.31 93.2354 139.31 94.15C139.31 95.074 139.534 95.788 139.982 96.292C140.43 96.796 141.018 97.048 141.746 97.048C142.306 97.048 142.773 96.9174 143.146 96.656C143.52 96.3947 143.776 96.0214 143.916 95.536H145.288C145.083 96.32 144.672 96.95 144.056 97.426C143.44 97.8927 142.67 98.126 141.746 98.126C141.018 98.126 140.37 97.9627 139.8 97.636C139.24 97.3094 138.802 96.8474 138.484 96.25C138.167 95.6527 138.008 94.9527 138.008 94.15ZM150.334 98.126C149.615 98.126 148.962 97.9627 148.374 97.636C147.795 97.3094 147.338 96.8474 147.002 96.25C146.675 95.6434 146.512 94.9434 146.512 94.15C146.512 93.366 146.68 92.6754 147.016 92.078C147.361 91.4714 147.828 91.0094 148.416 90.692C149.004 90.3654 149.662 90.202 150.39 90.202C151.118 90.202 151.776 90.3654 152.364 90.692C152.952 91.0094 153.414 91.4667 153.75 92.064C154.095 92.6614 154.268 93.3567 154.268 94.15C154.268 94.9434 154.091 95.6434 153.736 96.25C153.391 96.8474 152.919 97.3094 152.322 97.636C151.725 97.9627 151.062 98.126 150.334 98.126ZM150.334 97.006C150.791 97.006 151.221 96.8987 151.622 96.684C152.023 96.4694 152.345 96.1474 152.588 95.718C152.84 95.2887 152.966 94.766 152.966 94.15C152.966 93.534 152.845 93.0114 152.602 92.582C152.359 92.1527 152.042 91.8354 151.65 91.63C151.258 91.4154 150.833 91.308 150.376 91.308C149.909 91.308 149.48 91.4154 149.088 91.63C148.705 91.8354 148.397 92.1527 148.164 92.582C147.931 93.0114 147.814 93.534 147.814 94.15C147.814 94.7754 147.926 95.3027 148.15 95.732C148.383 96.1614 148.691 96.4834 149.074 96.698C149.457 96.9034 149.877 97.006 150.334 97.006ZM156.601 89.082C156.359 89.082 156.153 88.998 155.985 88.83C155.817 88.662 155.733 88.4567 155.733 88.214C155.733 87.9714 155.817 87.766 155.985 87.598C156.153 87.43 156.359 87.346 156.601 87.346C156.835 87.346 157.031 87.43 157.189 87.598C157.357 87.766 157.441 87.9714 157.441 88.214C157.441 88.4567 157.357 88.662 157.189 88.83C157.031 88.998 156.835 89.082 156.601 89.082ZM157.217 90.328V98H155.943V90.328H157.217ZM163.127 90.188C164.06 90.188 164.816 90.4727 165.395 91.042C165.973 91.602 166.263 92.414 166.263 93.478V98H165.003V93.66C165.003 92.8947 164.811 92.3114 164.429 91.91C164.046 91.4994 163.523 91.294 162.861 91.294C162.189 91.294 161.652 91.504 161.251 91.924C160.859 92.344 160.663 92.9554 160.663 93.758V98H159.389V90.328H160.663V91.42C160.915 91.028 161.255 90.7247 161.685 90.51C162.123 90.2954 162.604 90.188 163.127 90.188ZM50.37 121L46.352 116.548V121H45.078V111.242H46.352V115.764L50.384 111.242H51.994L47.57 116.128L52.036 121H50.37ZM60.4589 116.87C60.4589 117.113 60.4449 117.369 60.4169 117.64H54.2849C54.3315 118.396 54.5882 118.989 55.0549 119.418C55.5309 119.838 56.1049 120.048 56.7769 120.048C57.3275 120.048 57.7849 119.922 58.1489 119.67C58.5222 119.409 58.7835 119.063 58.9329 118.634H60.3049C60.0995 119.371 59.6889 119.973 59.0729 120.44C58.4569 120.897 57.6915 121.126 56.7769 121.126C56.0489 121.126 55.3955 120.963 54.8169 120.636C54.2475 120.309 53.7995 119.847 53.4729 119.25C53.1462 118.643 52.9829 117.943 52.9829 117.15C52.9829 116.357 53.1415 115.661 53.4589 115.064C53.7762 114.467 54.2195 114.009 54.7889 113.692C55.3675 113.365 56.0302 113.202 56.7769 113.202C57.5049 113.202 58.1489 113.361 58.7089 113.678C59.2689 113.995 59.6982 114.434 59.9969 114.994C60.3049 115.545 60.4589 116.17 60.4589 116.87ZM59.1429 116.604C59.1429 116.119 59.0355 115.703 58.8209 115.358C58.6062 115.003 58.3122 114.737 57.9389 114.56C57.5749 114.373 57.1689 114.28 56.7209 114.28C56.0769 114.28 55.5262 114.485 55.0689 114.896C54.6209 115.307 54.3642 115.876 54.2989 116.604H59.1429ZM69.1405 116.87C69.1405 117.113 69.1265 117.369 69.0985 117.64H62.9665C63.0132 118.396 63.2698 118.989 63.7365 119.418C64.2125 119.838 64.7865 120.048 65.4585 120.048C66.0092 120.048 66.4665 119.922 66.8305 119.67C67.2038 119.409 67.4652 119.063 67.6145 118.634H68.9865C68.7812 119.371 68.3705 119.973 67.7545 120.44C67.1385 120.897 66.3732 121.126 65.4585 121.126C64.7305 121.126 64.0772 120.963 63.4985 120.636C62.9292 120.309 62.4812 119.847 62.1545 119.25C61.8278 118.643 61.6645 117.943 61.6645 117.15C61.6645 116.357 61.8232 115.661 62.1405 115.064C62.4578 114.467 62.9012 114.009 63.4705 113.692C64.0492 113.365 64.7118 113.202 65.4585 113.202C66.1865 113.202 66.8305 113.361 67.3905 113.678C67.9505 113.995 68.3798 114.434 68.6785 114.994C68.9865 115.545 69.1405 116.17 69.1405 116.87ZM67.8245 116.604C67.8245 116.119 67.7172 115.703 67.5025 115.358C67.2878 115.003 66.9938 114.737 66.6205 114.56C66.2565 114.373 65.8505 114.28 65.4025 114.28C64.7585 114.28 64.2078 114.485 63.7505 114.896C63.3025 115.307 63.0458 115.876 62.9805 116.604H67.8245ZM72.0961 114.742C72.3481 114.303 72.7215 113.939 73.2161 113.65C73.7201 113.351 74.3035 113.202 74.9661 113.202C75.6475 113.202 76.2635 113.365 76.8141 113.692C77.3741 114.019 77.8128 114.481 78.1301 115.078C78.4475 115.666 78.6061 116.352 78.6061 117.136C78.6061 117.911 78.4475 118.601 78.1301 119.208C77.8128 119.815 77.3741 120.286 76.8141 120.622C76.2635 120.958 75.6475 121.126 74.9661 121.126C74.3128 121.126 73.7341 120.981 73.2301 120.692C72.7355 120.393 72.3575 120.025 72.0961 119.586V124.64H70.8221V113.328H72.0961V114.742ZM77.3041 117.136C77.3041 116.557 77.1875 116.053 76.9541 115.624C76.7208 115.195 76.4035 114.868 76.0021 114.644C75.6101 114.42 75.1761 114.308 74.7001 114.308C74.2335 114.308 73.7995 114.425 73.3981 114.658C73.0061 114.882 72.6888 115.213 72.4461 115.652C72.2128 116.081 72.0961 116.581 72.0961 117.15C72.0961 117.729 72.2128 118.237 72.4461 118.676C72.6888 119.105 73.0061 119.437 73.3981 119.67C73.7995 119.894 74.2335 120.006 74.7001 120.006C75.1761 120.006 75.6101 119.894 76.0021 119.67C76.4035 119.437 76.7208 119.105 76.9541 118.676C77.1875 118.237 77.3041 117.724 77.3041 117.136ZM83.5395 117.136C83.5395 116.352 83.6982 115.666 84.0155 115.078C84.3328 114.481 84.7668 114.019 85.3175 113.692C85.8775 113.365 86.4982 113.202 87.1795 113.202C87.8515 113.202 88.4348 113.347 88.9295 113.636C89.4242 113.925 89.7928 114.289 90.0355 114.728V113.328H91.3235V121H90.0355V119.572C89.7835 120.02 89.4055 120.393 88.9015 120.692C88.4068 120.981 87.8282 121.126 87.1655 121.126C86.4842 121.126 85.8682 120.958 85.3175 120.622C84.7668 120.286 84.3328 119.815 84.0155 119.208C83.6982 118.601 83.5395 117.911 83.5395 117.136ZM90.0355 117.15C90.0355 116.571 89.9188 116.067 89.6855 115.638C89.4522 115.209 89.1348 114.882 88.7335 114.658C88.3415 114.425 87.9075 114.308 87.4315 114.308C86.9555 114.308 86.5215 114.42 86.1295 114.644C85.7375 114.868 85.4248 115.195 85.1915 115.624C84.9582 116.053 84.8415 116.557 84.8415 117.136C84.8415 117.724 84.9582 118.237 85.1915 118.676C85.4248 119.105 85.7375 119.437 86.1295 119.67C86.5215 119.894 86.9555 120.006 87.4315 120.006C87.9075 120.006 88.3415 119.894 88.7335 119.67C89.1348 119.437 89.4522 119.105 89.6855 118.676C89.9188 118.237 90.0355 117.729 90.0355 117.15ZM97.2144 113.188C98.1478 113.188 98.9038 113.473 99.4824 114.042C100.061 114.602 100.35 115.414 100.35 116.478V121H99.0904V116.66C99.0904 115.895 98.8991 115.311 98.5164 114.91C98.1338 114.499 97.6111 114.294 96.9484 114.294C96.2764 114.294 95.7398 114.504 95.3384 114.924C94.9464 115.344 94.7504 115.955 94.7504 116.758V121H93.4764V113.328H94.7504V114.42C95.0024 114.028 95.3431 113.725 95.7724 113.51C96.2111 113.295 96.6918 113.188 97.2144 113.188ZM113.164 116.87C113.164 117.113 113.15 117.369 113.122 117.64H106.99C107.037 118.396 107.293 118.989 107.76 119.418C108.236 119.838 108.81 120.048 109.482 120.048C110.033 120.048 110.49 119.922 110.854 119.67C111.227 119.409 111.489 119.063 111.638 118.634H113.01C112.805 119.371 112.394 119.973 111.778 120.44C111.162 120.897 110.397 121.126 109.482 121.126C108.754 121.126 108.101 120.963 107.522 120.636C106.953 120.309 106.505 119.847 106.178 119.25C105.851 118.643 105.688 117.943 105.688 117.15C105.688 116.357 105.847 115.661 106.164 115.064C106.481 114.467 106.925 114.009 107.494 113.692C108.073 113.365 108.735 113.202 109.482 113.202C110.21 113.202 110.854 113.361 111.414 113.678C111.974 113.995 112.403 114.434 112.702 114.994C113.01 115.545 113.164 116.17 113.164 116.87ZM111.848 116.604C111.848 116.119 111.741 115.703 111.526 115.358C111.311 115.003 111.017 114.737 110.644 114.56C110.28 114.373 109.874 114.28 109.426 114.28C108.782 114.28 108.231 114.485 107.774 114.896C107.326 115.307 107.069 115.876 107.004 116.604H111.848ZM121.454 113.328L116.834 124.612H115.518L117.03 120.916L113.936 113.328H115.35L117.758 119.544L120.138 113.328H121.454ZM129.734 116.87C129.734 117.113 129.72 117.369 129.692 117.64H123.56C123.607 118.396 123.864 118.989 124.33 119.418C124.806 119.838 125.38 120.048 126.052 120.048C126.603 120.048 127.06 119.922 127.424 119.67C127.798 119.409 128.059 119.063 128.208 118.634H129.58C129.375 119.371 128.964 119.973 128.348 120.44C127.732 120.897 126.967 121.126 126.052 121.126C125.324 121.126 124.671 120.963 124.092 120.636C123.523 120.309 123.075 119.847 122.748 119.25C122.422 118.643 122.258 117.943 122.258 117.15C122.258 116.357 122.417 115.661 122.734 115.064C123.052 114.467 123.495 114.009 124.064 113.692C124.643 113.365 125.306 113.202 126.052 113.202C126.78 113.202 127.424 113.361 127.984 113.678C128.544 113.995 128.974 114.434 129.272 114.994C129.58 115.545 129.734 116.17 129.734 116.87ZM128.418 116.604C128.418 116.119 128.311 115.703 128.096 115.358C127.882 115.003 127.588 114.737 127.214 114.56C126.85 114.373 126.444 114.28 125.996 114.28C125.352 114.28 124.802 114.485 124.344 114.896C123.896 115.307 123.64 115.876 123.574 116.604H128.418ZM138.494 121.126C137.776 121.126 137.122 120.963 136.534 120.636C135.956 120.309 135.498 119.847 135.162 119.25C134.836 118.643 134.672 117.943 134.672 117.15C134.672 116.366 134.84 115.675 135.176 115.078C135.522 114.471 135.988 114.009 136.576 113.692C137.164 113.365 137.822 113.202 138.55 113.202C139.278 113.202 139.936 113.365 140.524 113.692C141.112 114.009 141.574 114.467 141.91 115.064C142.256 115.661 142.428 116.357 142.428 117.15C142.428 117.943 142.251 118.643 141.896 119.25C141.551 119.847 141.08 120.309 140.482 120.636C139.885 120.963 139.222 121.126 138.494 121.126ZM138.494 120.006C138.952 120.006 139.381 119.899 139.782 119.684C140.184 119.469 140.506 119.147 140.748 118.718C141 118.289 141.126 117.766 141.126 117.15C141.126 116.534 141.005 116.011 140.762 115.582C140.52 115.153 140.202 114.835 139.81 114.63C139.418 114.415 138.994 114.308 138.536 114.308C138.07 114.308 137.64 114.415 137.248 114.63C136.866 114.835 136.558 115.153 136.324 115.582C136.091 116.011 135.974 116.534 135.974 117.15C135.974 117.775 136.086 118.303 136.31 118.732C136.544 119.161 136.852 119.483 137.234 119.698C137.617 119.903 138.037 120.006 138.494 120.006ZM147.841 113.188C148.775 113.188 149.531 113.473 150.109 114.042C150.688 114.602 150.977 115.414 150.977 116.478V121H149.717V116.66C149.717 115.895 149.526 115.311 149.143 114.91C148.761 114.499 148.238 114.294 147.575 114.294C146.903 114.294 146.367 114.504 145.965 114.924C145.573 115.344 145.377 115.955 145.377 116.758V121H144.103V113.328H145.377V114.42C145.629 114.028 145.97 113.725 146.399 113.51C146.838 113.295 147.319 113.188 147.841 113.188ZM163.399 113.328L158.779 124.612H157.463L158.975 120.916L155.881 113.328H157.295L159.703 119.544L162.083 113.328H163.399ZM168.026 121.126C167.307 121.126 166.654 120.963 166.066 120.636C165.487 120.309 165.03 119.847 164.694 119.25C164.367 118.643 164.204 117.943 164.204 117.15C164.204 116.366 164.372 115.675 164.708 115.078C165.053 114.471 165.52 114.009 166.108 113.692C166.696 113.365 167.354 113.202 168.082 113.202C168.81 113.202 169.468 113.365 170.056 113.692C170.644 114.009 171.106 114.467 171.442 115.064C171.787 115.661 171.96 116.357 171.96 117.15C171.96 117.943 171.782 118.643 171.428 119.25C171.082 119.847 170.611 120.309 170.014 120.636C169.416 120.963 168.754 121.126 168.026 121.126ZM168.026 120.006C168.483 120.006 168.912 119.899 169.314 119.684C169.715 119.469 170.037 119.147 170.28 118.718C170.532 118.289 170.658 117.766 170.658 117.15C170.658 116.534 170.536 116.011 170.294 115.582C170.051 115.153 169.734 114.835 169.342 114.63C168.95 114.415 168.525 114.308 168.068 114.308C167.601 114.308 167.172 114.415 166.78 114.63C166.397 114.835 166.089 115.153 165.856 115.582C165.622 116.011 165.506 116.534 165.506 117.15C165.506 117.775 165.618 118.303 165.842 118.732C166.075 119.161 166.383 119.483 166.766 119.698C167.148 119.903 167.568 120.006 168.026 120.006ZM180.439 113.328V121H179.165V119.866C178.922 120.258 178.581 120.566 178.143 120.79C177.713 121.005 177.237 121.112 176.715 121.112C176.117 121.112 175.581 120.991 175.105 120.748C174.629 120.496 174.251 120.123 173.971 119.628C173.7 119.133 173.565 118.531 173.565 117.822V113.328H174.825V117.654C174.825 118.41 175.016 118.993 175.399 119.404C175.781 119.805 176.304 120.006 176.967 120.006C177.648 120.006 178.185 119.796 178.577 119.376C178.969 118.956 179.165 118.345 179.165 117.542V113.328H180.439ZM183.864 114.574C184.088 114.135 184.405 113.795 184.816 113.552C185.236 113.309 185.744 113.188 186.342 113.188V114.504H186.006C184.578 114.504 183.864 115.279 183.864 116.828V121H182.59V113.328H183.864V114.574ZM192.819 114.742C193.071 114.303 193.444 113.939 193.939 113.65C194.443 113.351 195.026 113.202 195.689 113.202C196.37 113.202 196.986 113.365 197.537 113.692C198.097 114.019 198.535 114.481 198.853 115.078C199.17 115.666 199.329 116.352 199.329 117.136C199.329 117.911 199.17 118.601 198.853 119.208C198.535 119.815 198.097 120.286 197.537 120.622C196.986 120.958 196.37 121.126 195.689 121.126C195.035 121.126 194.457 120.981 193.953 120.692C193.458 120.393 193.08 120.025 192.819 119.586V124.64H191.545V113.328H192.819V114.742ZM198.027 117.136C198.027 116.557 197.91 116.053 197.677 115.624C197.443 115.195 197.126 114.868 196.725 114.644C196.333 114.42 195.899 114.308 195.423 114.308C194.956 114.308 194.522 114.425 194.121 114.658C193.729 114.882 193.411 115.213 193.169 115.652C192.935 116.081 192.819 116.581 192.819 117.15C192.819 117.729 192.935 118.237 193.169 118.676C193.411 119.105 193.729 119.437 194.121 119.67C194.522 119.894 194.956 120.006 195.423 120.006C195.899 120.006 196.333 119.894 196.725 119.67C197.126 119.437 197.443 119.105 197.677 118.676C197.91 118.237 198.027 117.724 198.027 117.136ZM204.352 121.126C203.633 121.126 202.98 120.963 202.392 120.636C201.813 120.309 201.356 119.847 201.02 119.25C200.693 118.643 200.53 117.943 200.53 117.15C200.53 116.366 200.698 115.675 201.034 115.078C201.379 114.471 201.846 114.009 202.434 113.692C203.022 113.365 203.68 113.202 204.408 113.202C205.136 113.202 205.794 113.365 206.382 113.692C206.97 114.009 207.432 114.467 207.768 115.064C208.113 115.661 208.286 116.357 208.286 117.15C208.286 117.943 208.108 118.643 207.754 119.25C207.408 119.847 206.937 120.309 206.34 120.636C205.742 120.963 205.08 121.126 204.352 121.126ZM204.352 120.006C204.809 120.006 205.238 119.899 205.64 119.684C206.041 119.469 206.363 119.147 206.606 118.718C206.858 118.289 206.984 117.766 206.984 117.15C206.984 116.534 206.862 116.011 206.62 115.582C206.377 115.153 206.06 114.835 205.668 114.63C205.276 114.415 204.851 114.308 204.394 114.308C203.927 114.308 203.498 114.415 203.106 114.63C202.723 114.835 202.415 115.153 202.182 115.582C201.948 116.011 201.832 116.534 201.832 117.15C201.832 117.775 201.944 118.303 202.168 118.732C202.401 119.161 202.709 119.483 203.092 119.698C203.474 119.903 203.894 120.006 204.352 120.006ZM211.235 114.574C211.459 114.135 211.776 113.795 212.187 113.552C212.607 113.309 213.115 113.188 213.713 113.188V114.504H213.377C211.949 114.504 211.235 115.279 211.235 116.828V121H209.961V113.328H211.235V114.574ZM216.737 114.378V118.9C216.737 119.273 216.817 119.539 216.975 119.698C217.134 119.847 217.409 119.922 217.801 119.922H218.739V121H217.591C216.882 121 216.35 120.837 215.995 120.51C215.641 120.183 215.463 119.647 215.463 118.9V114.378H214.469V113.328H215.463V111.396H216.737V113.328H218.739V114.378H216.737ZM223.405 114.378H221.795V121H220.521V114.378H219.527V113.328H220.521V112.782C220.521 111.923 220.74 111.298 221.179 110.906C221.627 110.505 222.341 110.304 223.321 110.304V111.368C222.761 111.368 222.364 111.48 222.131 111.704C221.907 111.919 221.795 112.278 221.795 112.782V113.328H223.405V114.378ZM228.237 121.126C227.518 121.126 226.865 120.963 226.277 120.636C225.698 120.309 225.241 119.847 224.905 119.25C224.578 118.643 224.415 117.943 224.415 117.15C224.415 116.366 224.583 115.675 224.919 115.078C225.264 114.471 225.731 114.009 226.319 113.692C226.907 113.365 227.565 113.202 228.293 113.202C229.021 113.202 229.679 113.365 230.267 113.692C230.855 114.009 231.317 114.467 231.653 115.064C231.998 115.661 232.171 116.357 232.171 117.15C232.171 117.943 231.993 118.643 231.639 119.25C231.293 119.847 230.822 120.309 230.225 120.636C229.627 120.963 228.965 121.126 228.237 121.126ZM228.237 120.006C228.694 120.006 229.123 119.899 229.525 119.684C229.926 119.469 230.248 119.147 230.491 118.718C230.743 118.289 230.869 117.766 230.869 117.15C230.869 116.534 230.747 116.011 230.505 115.582C230.262 115.153 229.945 114.835 229.553 114.63C229.161 114.415 228.736 114.308 228.279 114.308C227.812 114.308 227.383 114.415 226.991 114.63C226.608 114.835 226.3 115.153 226.067 115.582C225.833 116.011 225.717 116.534 225.717 117.15C225.717 117.775 225.829 118.303 226.053 118.732C226.286 119.161 226.594 119.483 226.977 119.698C227.359 119.903 227.779 120.006 228.237 120.006ZM235.12 110.64V121H233.846V110.64H235.12ZM237.949 112.082C237.706 112.082 237.501 111.998 237.333 111.83C237.165 111.662 237.081 111.457 237.081 111.214C237.081 110.971 237.165 110.766 237.333 110.598C237.501 110.43 237.706 110.346 237.949 110.346C238.182 110.346 238.378 110.43 238.537 110.598C238.705 110.766 238.789 110.971 238.789 111.214C238.789 111.457 238.705 111.662 238.537 111.83C238.378 111.998 238.182 112.082 237.949 112.082ZM238.565 113.328V121H237.291V113.328H238.565ZM244.082 121.126C243.364 121.126 242.71 120.963 242.122 120.636C241.544 120.309 241.086 119.847 240.75 119.25C240.424 118.643 240.26 117.943 240.26 117.15C240.26 116.366 240.428 115.675 240.764 115.078C241.11 114.471 241.576 114.009 242.164 113.692C242.752 113.365 243.41 113.202 244.138 113.202C244.866 113.202 245.524 113.365 246.112 113.692C246.7 114.009 247.162 114.467 247.498 115.064C247.844 115.661 248.016 116.357 248.016 117.15C248.016 117.943 247.839 118.643 247.484 119.25C247.139 119.847 246.668 120.309 246.07 120.636C245.473 120.963 244.81 121.126 244.082 121.126ZM244.082 120.006C244.54 120.006 244.969 119.899 245.37 119.684C245.772 119.469 246.094 119.147 246.336 118.718C246.588 118.289 246.714 117.766 246.714 117.15C246.714 116.534 246.593 116.011 246.35 115.582C246.108 115.153 245.79 114.835 245.398 114.63C245.006 114.415 244.582 114.308 244.124 114.308C243.658 114.308 243.228 114.415 242.836 114.63C242.454 114.835 242.146 115.153 241.912 115.582C241.679 116.011 241.562 116.534 241.562 117.15C241.562 117.775 241.674 118.303 241.898 118.732C242.132 119.161 242.44 119.483 242.822 119.698C243.205 119.903 243.625 120.006 244.082 120.006ZM49.964 138.974C50.3187 139.03 50.6407 139.175 50.93 139.408C51.2287 139.641 51.462 139.931 51.63 140.276C51.8073 140.621 51.896 140.99 51.896 141.382C51.896 141.877 51.77 142.325 51.518 142.726C51.266 143.118 50.8973 143.431 50.412 143.664C49.936 143.888 49.3713 144 48.718 144H45.078V134.242H48.578C49.2407 134.242 49.8053 134.354 50.272 134.578C50.7387 134.793 51.0887 135.087 51.322 135.46C51.5553 135.833 51.672 136.253 51.672 136.72C51.672 137.299 51.5133 137.779 51.196 138.162C50.888 138.535 50.4773 138.806 49.964 138.974ZM46.352 138.456H48.494C49.0913 138.456 49.5533 138.316 49.88 138.036C50.2067 137.756 50.37 137.369 50.37 136.874C50.37 136.379 50.2067 135.992 49.88 135.712C49.5533 135.432 49.082 135.292 48.466 135.292H46.352V138.456ZM48.606 142.95C49.2407 142.95 49.7353 142.801 50.09 142.502C50.4447 142.203 50.622 141.788 50.622 141.256C50.622 140.715 50.4353 140.29 50.062 139.982C49.6887 139.665 49.1893 139.506 48.564 139.506H46.352V142.95H48.606ZM60.6639 139.87C60.6639 140.113 60.6499 140.369 60.6219 140.64H54.4899C54.5366 141.396 54.7933 141.989 55.2599 142.418C55.7359 142.838 56.3099 143.048 56.9819 143.048C57.5326 143.048 57.9899 142.922 58.3539 142.67C58.7273 142.409 58.9886 142.063 59.1379 141.634H60.5099C60.3046 142.371 59.8939 142.973 59.2779 143.44C58.6619 143.897 57.8966 144.126 56.9819 144.126C56.2539 144.126 55.6006 143.963 55.0219 143.636C54.4526 143.309 54.0046 142.847 53.6779 142.25C53.3513 141.643 53.1879 140.943 53.1879 140.15C53.1879 139.357 53.3466 138.661 53.6639 138.064C53.9813 137.467 54.4246 137.009 54.9939 136.692C55.5726 136.365 56.2353 136.202 56.9819 136.202C57.7099 136.202 58.3539 136.361 58.9139 136.678C59.4739 136.995 59.9033 137.434 60.2019 137.994C60.5099 138.545 60.6639 139.17 60.6639 139.87ZM59.3479 139.604C59.3479 139.119 59.2406 138.703 59.0259 138.358C58.8113 138.003 58.5173 137.737 58.1439 137.56C57.7799 137.373 57.3739 137.28 56.9259 137.28C56.2819 137.28 55.7313 137.485 55.2739 137.896C54.8259 138.307 54.5693 138.876 54.5039 139.604H59.3479ZM67.352 137.574C67.576 137.135 67.8933 136.795 68.304 136.552C68.724 136.309 69.2327 136.188 69.83 136.188V137.504H69.494C68.066 137.504 67.352 138.279 67.352 139.828V144H66.078V136.328H67.352V137.574ZM78.3007 139.87C78.3007 140.113 78.2867 140.369 78.2587 140.64H72.1267C72.1733 141.396 72.43 141.989 72.8967 142.418C73.3727 142.838 73.9467 143.048 74.6187 143.048C75.1693 143.048 75.6267 142.922 75.9907 142.67C76.364 142.409 76.6253 142.063 76.7747 141.634H78.1467C77.9413 142.371 77.5307 142.973 76.9147 143.44C76.2987 143.897 75.5333 144.126 74.6187 144.126C73.8907 144.126 73.2373 143.963 72.6587 143.636C72.0893 143.309 71.6413 142.847 71.3147 142.25C70.988 141.643 70.8247 140.943 70.8247 140.15C70.8247 139.357 70.9833 138.661 71.3007 138.064C71.618 137.467 72.0613 137.009 72.6307 136.692C73.2093 136.365 73.872 136.202 74.6187 136.202C75.3467 136.202 75.9907 136.361 76.5507 136.678C77.1107 136.995 77.54 137.434 77.8387 137.994C78.1467 138.545 78.3007 139.17 78.3007 139.87ZM76.9847 139.604C76.9847 139.119 76.8773 138.703 76.6627 138.358C76.448 138.003 76.154 137.737 75.7807 137.56C75.4167 137.373 75.0107 137.28 74.5627 137.28C73.9187 137.28 73.368 137.485 72.9107 137.896C72.4627 138.307 72.206 138.876 72.1407 139.604H76.9847ZM83.1463 136.202C83.809 136.202 84.3876 136.347 84.8823 136.636C85.3863 136.925 85.7596 137.289 86.0023 137.728V136.328H87.2903V144.168C87.2903 144.868 87.141 145.489 86.8423 146.03C86.5436 146.581 86.1143 147.01 85.5543 147.318C85.0036 147.626 84.3596 147.78 83.6223 147.78C82.6143 147.78 81.7743 147.542 81.1023 147.066C80.4303 146.59 80.0336 145.941 79.9123 145.12H81.1723C81.3123 145.587 81.6016 145.96 82.0403 146.24C82.479 146.529 83.0063 146.674 83.6223 146.674C84.3223 146.674 84.8916 146.455 85.3303 146.016C85.7783 145.577 86.0023 144.961 86.0023 144.168V142.558C85.7503 143.006 85.377 143.379 84.8823 143.678C84.3876 143.977 83.809 144.126 83.1463 144.126C82.465 144.126 81.8443 143.958 81.2843 143.622C80.7336 143.286 80.2996 142.815 79.9823 142.208C79.665 141.601 79.5063 140.911 79.5063 140.136C79.5063 139.352 79.665 138.666 79.9823 138.078C80.2996 137.481 80.7336 137.019 81.2843 136.692C81.8443 136.365 82.465 136.202 83.1463 136.202ZM86.0023 140.15C86.0023 139.571 85.8856 139.067 85.6523 138.638C85.419 138.209 85.1016 137.882 84.7003 137.658C84.3083 137.425 83.8743 137.308 83.3983 137.308C82.9223 137.308 82.4883 137.42 82.0963 137.644C81.7043 137.868 81.3916 138.195 81.1583 138.624C80.925 139.053 80.8083 139.557 80.8083 140.136C80.8083 140.724 80.925 141.237 81.1583 141.676C81.3916 142.105 81.7043 142.437 82.0963 142.67C82.4883 142.894 82.9223 143.006 83.3983 143.006C83.8743 143.006 84.3083 142.894 84.7003 142.67C85.1016 142.437 85.419 142.105 85.6523 141.676C85.8856 141.237 86.0023 140.729 86.0023 140.15ZM96.2472 136.328V144H94.9732V142.866C94.7306 143.258 94.3899 143.566 93.9512 143.79C93.5219 144.005 93.0459 144.112 92.5232 144.112C91.9259 144.112 91.3892 143.991 90.9132 143.748C90.4372 143.496 90.0592 143.123 89.7792 142.628C89.5086 142.133 89.3732 141.531 89.3732 140.822V136.328H90.6332V140.654C90.6332 141.41 90.8246 141.993 91.2072 142.404C91.5899 142.805 92.1126 143.006 92.7752 143.006C93.4566 143.006 93.9932 142.796 94.3852 142.376C94.7772 141.956 94.9732 141.345 94.9732 140.542V136.328H96.2472ZM99.6723 133.64V144H98.3983V133.64H99.6723ZM101.368 140.136C101.368 139.352 101.526 138.666 101.844 138.078C102.161 137.481 102.595 137.019 103.146 136.692C103.706 136.365 104.326 136.202 105.008 136.202C105.68 136.202 106.263 136.347 106.758 136.636C107.252 136.925 107.621 137.289 107.864 137.728V136.328H109.152V144H107.864V142.572C107.612 143.02 107.234 143.393 106.73 143.692C106.235 143.981 105.656 144.126 104.994 144.126C104.312 144.126 103.696 143.958 103.146 143.622C102.595 143.286 102.161 142.815 101.844 142.208C101.526 141.601 101.368 140.911 101.368 140.136ZM107.864 140.15C107.864 139.571 107.747 139.067 107.514 138.638C107.28 138.209 106.963 137.882 106.562 137.658C106.17 137.425 105.736 137.308 105.26 137.308C104.784 137.308 104.35 137.42 103.958 137.644C103.566 137.868 103.253 138.195 103.02 138.624C102.786 139.053 102.67 139.557 102.67 140.136C102.67 140.724 102.786 141.237 103.02 141.676C103.253 142.105 103.566 142.437 103.958 142.67C104.35 142.894 104.784 143.006 105.26 143.006C105.736 143.006 106.17 142.894 106.562 142.67C106.963 142.437 107.28 142.105 107.514 141.676C107.747 141.237 107.864 140.729 107.864 140.15ZM112.579 137.574C112.803 137.135 113.12 136.795 113.531 136.552C113.951 136.309 114.459 136.188 115.057 136.188V137.504H114.721C113.293 137.504 112.579 138.279 112.579 139.828V144H111.305V136.328H112.579V137.574ZM117.801 133.64V144H116.527V133.64H117.801ZM126.581 136.328L121.961 147.612H120.645L122.157 143.916L119.063 136.328H120.477L122.885 142.544L125.265 136.328H126.581ZM132.252 135.082C132.009 135.082 131.804 134.998 131.636 134.83C131.468 134.662 131.384 134.457 131.384 134.214C131.384 133.971 131.468 133.766 131.636 133.598C131.804 133.43 132.009 133.346 132.252 133.346C132.485 133.346 132.681 133.43 132.84 133.598C133.008 133.766 133.092 133.971 133.092 134.214C133.092 134.457 133.008 134.662 132.84 134.83C132.681 134.998 132.485 135.082 132.252 135.082ZM132.868 136.328V144H131.594V136.328H132.868ZM138.777 136.188C139.71 136.188 140.466 136.473 141.045 137.042C141.624 137.602 141.913 138.414 141.913 139.478V144H140.653V139.66C140.653 138.895 140.462 138.311 140.079 137.91C139.696 137.499 139.174 137.294 138.511 137.294C137.839 137.294 137.302 137.504 136.901 137.924C136.509 138.344 136.313 138.955 136.313 139.758V144H135.039V136.328H136.313V137.42C136.565 137.028 136.906 136.725 137.335 136.51C137.774 136.295 138.254 136.188 138.777 136.188ZM147.116 137.378H145.506V144H144.232V137.378H143.238V136.328H144.232V135.782C144.232 134.923 144.451 134.298 144.89 133.906C145.338 133.505 146.052 133.304 147.032 133.304V134.368C146.472 134.368 146.075 134.48 145.842 134.704C145.618 134.919 145.506 135.278 145.506 135.782V136.328H147.116V137.378ZM151.947 144.126C151.229 144.126 150.575 143.963 149.987 143.636C149.409 143.309 148.951 142.847 148.615 142.25C148.289 141.643 148.125 140.943 148.125 140.15C148.125 139.366 148.293 138.675 148.629 138.078C148.975 137.471 149.441 137.009 150.029 136.692C150.617 136.365 151.275 136.202 152.003 136.202C152.731 136.202 153.389 136.365 153.977 136.692C154.565 137.009 155.027 137.467 155.363 138.064C155.709 138.661 155.881 139.357 155.881 140.15C155.881 140.943 155.704 141.643 155.349 142.25C155.004 142.847 154.533 143.309 153.935 143.636C153.338 143.963 152.675 144.126 151.947 144.126ZM151.947 143.006C152.405 143.006 152.834 142.899 153.235 142.684C153.637 142.469 153.959 142.147 154.201 141.718C154.453 141.289 154.579 140.766 154.579 140.15C154.579 139.534 154.458 139.011 154.215 138.582C153.973 138.153 153.655 137.835 153.263 137.63C152.871 137.415 152.447 137.308 151.989 137.308C151.523 137.308 151.093 137.415 150.701 137.63C150.319 137.835 150.011 138.153 149.777 138.582C149.544 139.011 149.427 139.534 149.427 140.15C149.427 140.775 149.539 141.303 149.763 141.732C149.997 142.161 150.305 142.483 150.687 142.698C151.07 142.903 151.49 143.006 151.947 143.006ZM158.831 137.574C159.055 137.135 159.372 136.795 159.783 136.552C160.203 136.309 160.711 136.188 161.309 136.188V137.504H160.973C159.545 137.504 158.831 138.279 158.831 139.828V144H157.557V136.328H158.831V137.574ZM172.005 136.188C172.603 136.188 173.135 136.314 173.601 136.566C174.068 136.809 174.437 137.177 174.707 137.672C174.978 138.167 175.113 138.769 175.113 139.478V144H173.853V139.66C173.853 138.895 173.662 138.311 173.279 137.91C172.906 137.499 172.397 137.294 171.753 137.294C171.091 137.294 170.563 137.509 170.171 137.938C169.779 138.358 169.583 138.969 169.583 139.772V144H168.323V139.66C168.323 138.895 168.132 138.311 167.749 137.91C167.376 137.499 166.867 137.294 166.223 137.294C165.561 137.294 165.033 137.509 164.641 137.938C164.249 138.358 164.053 138.969 164.053 139.772V144H162.779V136.328H164.053V137.434C164.305 137.033 164.641 136.725 165.061 136.51C165.491 136.295 165.962 136.188 166.475 136.188C167.119 136.188 167.689 136.333 168.183 136.622C168.678 136.911 169.047 137.336 169.289 137.896C169.504 137.355 169.859 136.935 170.353 136.636C170.848 136.337 171.399 136.188 172.005 136.188ZM184.203 139.87C184.203 140.113 184.189 140.369 184.161 140.64H178.029C178.076 141.396 178.332 141.989 178.799 142.418C179.275 142.838 179.849 143.048 180.521 143.048C181.072 143.048 181.529 142.922 181.893 142.67C182.266 142.409 182.528 142.063 182.677 141.634H184.049C183.844 142.371 183.433 142.973 182.817 143.44C182.201 143.897 181.436 144.126 180.521 144.126C179.793 144.126 179.14 143.963 178.561 143.636C177.992 143.309 177.544 142.847 177.217 142.25C176.89 141.643 176.727 140.943 176.727 140.15C176.727 139.357 176.886 138.661 177.203 138.064C177.52 137.467 177.964 137.009 178.533 136.692C179.112 136.365 179.774 136.202 180.521 136.202C181.249 136.202 181.893 136.361 182.453 136.678C183.013 136.995 183.442 137.434 183.741 137.994C184.049 138.545 184.203 139.17 184.203 139.87ZM182.887 139.604C182.887 139.119 182.78 138.703 182.565 138.358C182.35 138.003 182.056 137.737 181.683 137.56C181.319 137.373 180.913 137.28 180.465 137.28C179.821 137.28 179.27 137.485 178.813 137.896C178.365 138.307 178.108 138.876 178.043 139.604H182.887ZM185.409 140.136C185.409 139.352 185.567 138.666 185.885 138.078C186.202 137.481 186.636 137.019 187.187 136.692C187.747 136.365 188.372 136.202 189.063 136.202C189.66 136.202 190.215 136.342 190.729 136.622C191.242 136.893 191.634 137.252 191.905 137.7V133.64H193.193V144H191.905V142.558C191.653 143.015 191.279 143.393 190.785 143.692C190.29 143.981 189.711 144.126 189.049 144.126C188.367 144.126 187.747 143.958 187.187 143.622C186.636 143.286 186.202 142.815 185.885 142.208C185.567 141.601 185.409 140.911 185.409 140.136ZM191.905 140.15C191.905 139.571 191.788 139.067 191.555 138.638C191.321 138.209 191.004 137.882 190.603 137.658C190.211 137.425 189.777 137.308 189.301 137.308C188.825 137.308 188.391 137.42 187.999 137.644C187.607 137.868 187.294 138.195 187.061 138.624C186.827 139.053 186.711 139.557 186.711 140.136C186.711 140.724 186.827 141.237 187.061 141.676C187.294 142.105 187.607 142.437 187.999 142.67C188.391 142.894 188.825 143.006 189.301 143.006C189.777 143.006 190.211 142.894 190.603 142.67C191.004 142.437 191.321 142.105 191.555 141.676C191.788 141.237 191.905 140.729 191.905 140.15ZM198.602 140.136C198.602 139.352 198.761 138.666 199.078 138.078C199.395 137.481 199.829 137.019 200.38 136.692C200.94 136.365 201.561 136.202 202.242 136.202C202.914 136.202 203.497 136.347 203.992 136.636C204.487 136.925 204.855 137.289 205.098 137.728V136.328H206.386V144H205.098V142.572C204.846 143.02 204.468 143.393 203.964 143.692C203.469 143.981 202.891 144.126 202.228 144.126C201.547 144.126 200.931 143.958 200.38 143.622C199.829 143.286 199.395 142.815 199.078 142.208C198.761 141.601 198.602 140.911 198.602 140.136ZM205.098 140.15C205.098 139.571 204.981 139.067 204.748 138.638C204.515 138.209 204.197 137.882 203.796 137.658C203.404 137.425 202.97 137.308 202.494 137.308C202.018 137.308 201.584 137.42 201.192 137.644C200.8 137.868 200.487 138.195 200.254 138.624C200.021 139.053 199.904 139.557 199.904 140.136C199.904 140.724 200.021 141.237 200.254 141.676C200.487 142.105 200.8 142.437 201.192 142.67C201.584 142.894 202.018 143.006 202.494 143.006C202.97 143.006 203.404 142.894 203.796 142.67C204.197 142.437 204.515 142.105 204.748 141.676C204.981 141.237 205.098 140.729 205.098 140.15ZM209.813 137.756C210.074 137.299 210.457 136.925 210.961 136.636C211.465 136.347 212.039 136.202 212.683 136.202C213.374 136.202 213.994 136.365 214.545 136.692C215.096 137.019 215.53 137.481 215.847 138.078C216.164 138.666 216.323 139.352 216.323 140.136C216.323 140.911 216.164 141.601 215.847 142.208C215.53 142.815 215.091 143.286 214.531 143.622C213.98 143.958 213.364 144.126 212.683 144.126C212.02 144.126 211.437 143.981 210.933 143.692C210.438 143.403 210.065 143.034 209.813 142.586V144H208.539V133.64H209.813V137.756ZM215.021 140.136C215.021 139.557 214.904 139.053 214.671 138.624C214.438 138.195 214.12 137.868 213.719 137.644C213.327 137.42 212.893 137.308 212.417 137.308C211.95 137.308 211.516 137.425 211.115 137.658C210.723 137.882 210.406 138.213 210.163 138.652C209.93 139.081 209.813 139.581 209.813 140.15C209.813 140.729 209.93 141.237 210.163 141.676C210.406 142.105 210.723 142.437 211.115 142.67C211.516 142.894 211.95 143.006 212.417 143.006C212.893 143.006 213.327 142.894 213.719 142.67C214.12 142.437 214.438 142.105 214.671 141.676C214.904 141.237 215.021 140.724 215.021 140.136ZM221.346 144.126C220.627 144.126 219.974 143.963 219.386 143.636C218.807 143.309 218.35 142.847 218.014 142.25C217.687 141.643 217.524 140.943 217.524 140.15C217.524 139.366 217.692 138.675 218.028 138.078C218.373 137.471 218.84 137.009 219.428 136.692C220.016 136.365 220.674 136.202 221.402 136.202C222.13 136.202 222.788 136.365 223.376 136.692C223.964 137.009 224.426 137.467 224.762 138.064C225.107 138.661 225.28 139.357 225.28 140.15C225.28 140.943 225.103 141.643 224.748 142.25C224.403 142.847 223.931 143.309 223.334 143.636C222.737 143.963 222.074 144.126 221.346 144.126ZM221.346 143.006C221.803 143.006 222.233 142.899 222.634 142.684C223.035 142.469 223.357 142.147 223.6 141.718C223.852 141.289 223.978 140.766 223.978 140.15C223.978 139.534 223.857 139.011 223.614 138.582C223.371 138.153 223.054 137.835 222.662 137.63C222.27 137.415 221.845 137.308 221.388 137.308C220.921 137.308 220.492 137.415 220.1 137.63C219.717 137.835 219.409 138.153 219.176 138.582C218.943 139.011 218.826 139.534 218.826 140.15C218.826 140.775 218.938 141.303 219.162 141.732C219.395 142.161 219.703 142.483 220.086 142.698C220.469 142.903 220.889 143.006 221.346 143.006ZM233.759 136.328V144H232.485V142.866C232.242 143.258 231.902 143.566 231.463 143.79C231.034 144.005 230.558 144.112 230.035 144.112C229.438 144.112 228.901 143.991 228.425 143.748C227.949 143.496 227.571 143.123 227.291 142.628C227.02 142.133 226.885 141.531 226.885 140.822V136.328H228.145V140.654C228.145 141.41 228.336 141.993 228.719 142.404C229.102 142.805 229.624 143.006 230.287 143.006C230.968 143.006 231.505 142.796 231.897 142.376C232.289 141.956 232.485 141.345 232.485 140.542V136.328H233.759ZM237.464 137.378V141.9C237.464 142.273 237.543 142.539 237.702 142.698C237.861 142.847 238.136 142.922 238.528 142.922H239.466V144H238.318C237.609 144 237.077 143.837 236.722 143.51C236.367 143.183 236.19 142.647 236.19 141.9V137.378H235.196V136.328H236.19V134.396H237.464V136.328H239.466V137.378H237.464Z" fill="#090136"/>
<path d="M173.35 87.64V98H172.076V87.64H173.35ZM175.045 94.136C175.045 93.352 175.204 92.666 175.521 92.078C175.839 91.4807 176.273 91.0187 176.823 90.692C177.383 90.3654 178.004 90.202 178.685 90.202C179.357 90.202 179.941 90.3467 180.435 90.636C180.93 90.9254 181.299 91.2894 181.541 91.728V90.328H182.829V98H181.541V96.572C181.289 97.02 180.911 97.3934 180.407 97.692C179.913 97.9814 179.334 98.126 178.671 98.126C177.99 98.126 177.374 97.958 176.823 97.622C176.273 97.286 175.839 96.8147 175.521 96.208C175.204 95.6014 175.045 94.9107 175.045 94.136ZM181.541 94.15C181.541 93.5714 181.425 93.0674 181.191 92.638C180.958 92.2087 180.641 91.882 180.239 91.658C179.847 91.4247 179.413 91.308 178.937 91.308C178.461 91.308 178.027 91.42 177.635 91.644C177.243 91.868 176.931 92.1947 176.697 92.624C176.464 93.0534 176.347 93.5574 176.347 94.136C176.347 94.724 176.464 95.2374 176.697 95.676C176.931 96.1054 177.243 96.4367 177.635 96.67C178.027 96.894 178.461 97.006 178.937 97.006C179.413 97.006 179.847 96.894 180.239 96.67C180.641 96.4367 180.958 96.1054 181.191 95.676C181.425 95.2374 181.541 94.7287 181.541 94.15ZM191.786 90.328V98H190.512V96.866C190.27 97.258 189.929 97.566 189.49 97.79C189.061 98.0047 188.585 98.112 188.062 98.112C187.465 98.112 186.928 97.9907 186.452 97.748C185.976 97.496 185.598 97.1227 185.318 96.628C185.048 96.1334 184.912 95.5314 184.912 94.822V90.328H186.172V94.654C186.172 95.41 186.364 95.9934 186.746 96.404C187.129 96.8054 187.652 97.006 188.314 97.006C188.996 97.006 189.532 96.796 189.924 96.376C190.316 95.956 190.512 95.3447 190.512 94.542V90.328H191.786ZM197.675 90.188C198.609 90.188 199.365 90.4727 199.943 91.042C200.522 91.602 200.811 92.414 200.811 93.478V98H199.551V93.66C199.551 92.8947 199.36 92.3114 198.977 91.91C198.595 91.4994 198.072 91.294 197.409 91.294C196.737 91.294 196.201 91.504 195.799 91.924C195.407 92.344 195.211 92.9554 195.211 93.758V98H193.937V90.328H195.211V91.42C195.463 91.028 195.804 90.7247 196.233 90.51C196.672 90.2954 197.153 90.188 197.675 90.188ZM202.416 94.15C202.416 93.3567 202.575 92.666 202.892 92.078C203.21 91.4807 203.648 91.0187 204.208 90.692C204.778 90.3654 205.426 90.202 206.154 90.202C207.097 90.202 207.872 90.4307 208.478 90.888C209.094 91.3454 209.5 91.98 209.696 92.792H208.324C208.194 92.3254 207.937 91.9567 207.554 91.686C207.181 91.4154 206.714 91.28 206.154 91.28C205.426 91.28 204.838 91.532 204.39 92.036C203.942 92.5307 203.718 93.2354 203.718 94.15C203.718 95.074 203.942 95.788 204.39 96.292C204.838 96.796 205.426 97.048 206.154 97.048C206.714 97.048 207.181 96.9174 207.554 96.656C207.928 96.3947 208.184 96.0214 208.324 95.536H209.696C209.491 96.32 209.08 96.95 208.464 97.426C207.848 97.8927 207.078 98.126 206.154 98.126C205.426 98.126 204.778 97.9627 204.208 97.636C203.648 97.3094 203.21 96.8474 202.892 96.25C202.575 95.6527 202.416 94.9527 202.416 94.15ZM215.204 90.188C215.783 90.188 216.306 90.314 216.772 90.566C217.239 90.8087 217.603 91.1774 217.864 91.672C218.135 92.1667 218.27 92.7687 218.27 93.478V98H217.01V93.66C217.01 92.8947 216.819 92.3114 216.436 91.91C216.054 91.4994 215.531 91.294 214.868 91.294C214.196 91.294 213.66 91.504 213.258 91.924C212.866 92.344 212.67 92.9554 212.67 93.758V98H211.396V87.64H212.67V91.42C212.922 91.028 213.268 90.7247 213.706 90.51C214.154 90.2954 214.654 90.188 215.204 90.188ZM227.351 93.87C227.351 94.1127 227.337 94.3694 227.309 94.64H221.177C221.224 95.396 221.481 95.9887 221.947 96.418C222.423 96.838 222.997 97.048 223.669 97.048C224.22 97.048 224.677 96.922 225.041 96.67C225.415 96.4087 225.676 96.0634 225.825 95.634H227.197C226.992 96.3714 226.581 96.9734 225.965 97.44C225.349 97.8974 224.584 98.126 223.669 98.126C222.941 98.126 222.288 97.9627 221.709 97.636C221.14 97.3094 220.692 96.8474 220.365 96.25C220.039 95.6434 219.875 94.9434 219.875 94.15C219.875 93.3567 220.034 92.6614 220.351 92.064C220.669 91.4667 221.112 91.0094 221.681 90.692C222.26 90.3654 222.923 90.202 223.669 90.202C224.397 90.202 225.041 90.3607 225.601 90.678C226.161 90.9954 226.591 91.434 226.889 91.994C227.197 92.5447 227.351 93.17 227.351 93.87ZM226.035 93.604C226.035 93.1187 225.928 92.7034 225.713 92.358C225.499 92.0034 225.205 91.7374 224.831 91.56C224.467 91.3734 224.061 91.28 223.613 91.28C222.969 91.28 222.419 91.4854 221.961 91.896C221.513 92.3067 221.257 92.876 221.191 93.604H226.035ZM231.749 98.126C231.161 98.126 230.634 98.028 230.167 97.832C229.7 97.6267 229.332 97.3467 229.061 96.992C228.79 96.628 228.641 96.2127 228.613 95.746H229.929C229.966 96.1287 230.144 96.4414 230.461 96.684C230.788 96.9267 231.212 97.048 231.735 97.048C232.22 97.048 232.603 96.9407 232.883 96.726C233.163 96.5114 233.303 96.2407 233.303 95.914C233.303 95.578 233.154 95.3307 232.855 95.172C232.556 95.004 232.094 94.8407 231.469 94.682C230.9 94.5327 230.433 94.3834 230.069 94.234C229.714 94.0754 229.406 93.8467 229.145 93.548C228.893 93.24 228.767 92.8387 228.767 92.344C228.767 91.952 228.884 91.5927 229.117 91.266C229.35 90.9394 229.682 90.6827 230.111 90.496C230.54 90.3 231.03 90.202 231.581 90.202C232.43 90.202 233.116 90.4167 233.639 90.846C234.162 91.2754 234.442 91.8634 234.479 92.61H233.205C233.177 92.2087 233.014 91.8867 232.715 91.644C232.426 91.4014 232.034 91.28 231.539 91.28C231.082 91.28 230.718 91.378 230.447 91.574C230.176 91.77 230.041 92.0267 230.041 92.344C230.041 92.596 230.12 92.806 230.279 92.974C230.447 93.1327 230.652 93.2634 230.895 93.366C231.147 93.4594 231.492 93.5667 231.931 93.688C232.482 93.8374 232.93 93.9867 233.275 94.136C233.62 94.276 233.914 94.4907 234.157 94.78C234.409 95.0694 234.54 95.4474 234.549 95.914C234.549 96.334 234.432 96.712 234.199 97.048C233.966 97.384 233.634 97.65 233.205 97.846C232.785 98.0327 232.3 98.126 231.749 98.126ZM54.304 159.188C54.9013 159.188 55.4333 159.314 55.9 159.566C56.3667 159.809 56.7353 160.177 57.006 160.672C57.2767 161.167 57.412 161.769 57.412 162.478V167H56.152V162.66C56.152 161.895 55.9607 161.311 55.578 160.91C55.2047 160.499 54.696 160.294 54.052 160.294C53.3893 160.294 52.862 160.509 52.47 160.938C52.078 161.358 51.882 161.969 51.882 162.772V167H50.622V162.66C50.622 161.895 50.4307 161.311 50.048 160.91C49.6747 160.499 49.166 160.294 48.522 160.294C47.8593 160.294 47.332 160.509 46.94 160.938C46.548 161.358 46.352 161.969 46.352 162.772V167H45.078V159.328H46.352V160.434C46.604 160.033 46.94 159.725 47.36 159.51C47.7893 159.295 48.2607 159.188 48.774 159.188C49.418 159.188 49.9873 159.333 50.482 159.622C50.9767 159.911 51.3453 160.336 51.588 160.896C51.8027 160.355 52.1573 159.935 52.652 159.636C53.1467 159.337 53.6973 159.188 54.304 159.188ZM59.0258 163.136C59.0258 162.352 59.1845 161.666 59.5018 161.078C59.8192 160.481 60.2532 160.019 60.8038 159.692C61.3638 159.365 61.9845 159.202 62.6658 159.202C63.3378 159.202 63.9212 159.347 64.4158 159.636C64.9105 159.925 65.2792 160.289 65.5218 160.728V159.328H66.8098V167H65.5218V165.572C65.2698 166.02 64.8918 166.393 64.3878 166.692C63.8932 166.981 63.3145 167.126 62.6518 167.126C61.9705 167.126 61.3545 166.958 60.8038 166.622C60.2532 166.286 59.8192 165.815 59.5018 165.208C59.1845 164.601 59.0258 163.911 59.0258 163.136ZM65.5218 163.15C65.5218 162.571 65.4052 162.067 65.1718 161.638C64.9385 161.209 64.6212 160.882 64.2198 160.658C63.8278 160.425 63.3938 160.308 62.9178 160.308C62.4418 160.308 62.0078 160.42 61.6158 160.644C61.2238 160.868 60.9112 161.195 60.6778 161.624C60.4445 162.053 60.3278 162.557 60.3278 163.136C60.3278 163.724 60.4445 164.237 60.6778 164.676C60.9112 165.105 61.2238 165.437 61.6158 165.67C62.0078 165.894 62.4418 166.006 62.9178 166.006C63.3938 166.006 63.8278 165.894 64.2198 165.67C64.6212 165.437 64.9385 165.105 65.1718 164.676C65.4052 164.237 65.5218 163.729 65.5218 163.15ZM70.2368 160.574C70.4608 160.135 70.7781 159.795 71.1888 159.552C71.6088 159.309 72.1174 159.188 72.7148 159.188V160.504H72.3788C70.9508 160.504 70.2368 161.279 70.2368 162.828V167H68.9628V159.328H70.2368V160.574ZM78.4694 167L75.4594 163.612V167H74.1854V156.64H75.4594V162.73L78.4134 159.328H80.1914L76.5794 163.15L80.2054 167H78.4694ZM88.3905 162.87C88.3905 163.113 88.3765 163.369 88.3485 163.64H82.2165C82.2632 164.396 82.5198 164.989 82.9865 165.418C83.4625 165.838 84.0365 166.048 84.7085 166.048C85.2592 166.048 85.7165 165.922 86.0805 165.67C86.4538 165.409 86.7152 165.063 86.8645 164.634H88.2365C88.0312 165.371 87.6205 165.973 87.0045 166.44C86.3885 166.897 85.6232 167.126 84.7085 167.126C83.9805 167.126 83.3272 166.963 82.7485 166.636C82.1792 166.309 81.7312 165.847 81.4045 165.25C81.0778 164.643 80.9145 163.943 80.9145 163.15C80.9145 162.357 81.0732 161.661 81.3905 161.064C81.7078 160.467 82.1512 160.009 82.7205 159.692C83.2992 159.365 83.9618 159.202 84.7085 159.202C85.4365 159.202 86.0805 159.361 86.6405 159.678C87.2005 159.995 87.6298 160.434 87.9285 160.994C88.2365 161.545 88.3905 162.17 88.3905 162.87ZM87.0745 162.604C87.0745 162.119 86.9672 161.703 86.7525 161.358C86.5378 161.003 86.2438 160.737 85.8705 160.56C85.5065 160.373 85.1005 160.28 84.6525 160.28C84.0085 160.28 83.4578 160.485 83.0005 160.896C82.5525 161.307 82.2958 161.876 82.2305 162.604H87.0745ZM91.6261 160.378V164.9C91.6261 165.273 91.7055 165.539 91.8641 165.698C92.0228 165.847 92.2981 165.922 92.6901 165.922H93.6281V167H92.4801C91.7708 167 91.2388 166.837 90.8841 166.51C90.5295 166.183 90.3521 165.647 90.3521 164.9V160.378H89.3581V159.328H90.3521V157.396H91.6261V159.328H93.6281V160.378H91.6261ZM102.642 159.188C103.576 159.188 104.332 159.473 104.91 160.042C105.489 160.602 105.778 161.414 105.778 162.478V167H104.518V162.66C104.518 161.895 104.327 161.311 103.944 160.91C103.562 160.499 103.039 160.294 102.376 160.294C101.704 160.294 101.168 160.504 100.766 160.924C100.374 161.344 100.178 161.955 100.178 162.758V167H98.9042V159.328H100.178V160.42C100.43 160.028 100.771 159.725 101.2 159.51C101.639 159.295 102.12 159.188 102.642 159.188ZM114.859 162.87C114.859 163.113 114.845 163.369 114.817 163.64H108.685C108.732 164.396 108.989 164.989 109.455 165.418C109.931 165.838 110.505 166.048 111.177 166.048C111.728 166.048 112.185 165.922 112.549 165.67C112.923 165.409 113.184 165.063 113.333 164.634H114.705C114.5 165.371 114.089 165.973 113.473 166.44C112.857 166.897 112.092 167.126 111.177 167.126C110.449 167.126 109.796 166.963 109.217 166.636C108.648 166.309 108.2 165.847 107.873 165.25C107.547 164.643 107.383 163.943 107.383 163.15C107.383 162.357 107.542 161.661 107.859 161.064C108.177 160.467 108.62 160.009 109.189 159.692C109.768 159.365 110.431 159.202 111.177 159.202C111.905 159.202 112.549 159.361 113.109 159.678C113.669 159.995 114.099 160.434 114.397 160.994C114.705 161.545 114.859 162.17 114.859 162.87ZM113.543 162.604C113.543 162.119 113.436 161.703 113.221 161.358C113.007 161.003 112.713 160.737 112.339 160.56C111.975 160.373 111.569 160.28 111.121 160.28C110.477 160.28 109.927 160.485 109.469 160.896C109.021 161.307 108.765 161.876 108.699 162.604H113.543ZM126.761 159.328L124.367 167H123.051L121.203 160.91L119.355 167H118.039L115.631 159.328H116.933L118.697 165.768L120.601 159.328H121.903L123.765 165.782L125.501 159.328H126.761ZM130.741 167.126C130.153 167.126 129.626 167.028 129.159 166.832C128.693 166.627 128.324 166.347 128.053 165.992C127.783 165.628 127.633 165.213 127.605 164.746H128.921C128.959 165.129 129.136 165.441 129.453 165.684C129.78 165.927 130.205 166.048 130.727 166.048C131.213 166.048 131.595 165.941 131.875 165.726C132.155 165.511 132.295 165.241 132.295 164.914C132.295 164.578 132.146 164.331 131.847 164.172C131.549 164.004 131.087 163.841 130.461 163.682C129.892 163.533 129.425 163.383 129.061 163.234C128.707 163.075 128.399 162.847 128.137 162.548C127.885 162.24 127.759 161.839 127.759 161.344C127.759 160.952 127.876 160.593 128.109 160.266C128.343 159.939 128.674 159.683 129.103 159.496C129.533 159.3 130.023 159.202 130.573 159.202C131.423 159.202 132.109 159.417 132.631 159.846C133.154 160.275 133.434 160.863 133.471 161.61H132.197C132.169 161.209 132.006 160.887 131.707 160.644C131.418 160.401 131.026 160.28 130.531 160.28C130.074 160.28 129.71 160.378 129.439 160.574C129.169 160.77 129.033 161.027 129.033 161.344C129.033 161.596 129.113 161.806 129.271 161.974C129.439 162.133 129.645 162.263 129.887 162.366C130.139 162.459 130.485 162.567 130.923 162.688C131.474 162.837 131.922 162.987 132.267 163.136C132.613 163.276 132.907 163.491 133.149 163.78C133.401 164.069 133.532 164.447 133.541 164.914C133.541 165.334 133.425 165.712 133.191 166.048C132.958 166.384 132.627 166.65 132.197 166.846C131.777 167.033 131.292 167.126 130.741 167.126Z" fill="white"/>
<circle cx="33.5" cy="92.5" r="2.5" fill="#090136"/>
<circle cx="33.5" cy="117.5" r="2.5" fill="#090136"/>
<circle cx="33.5" cy="139.5" r="2.5" fill="#090136"/>
</svg>
