<svg width="160" height="113" viewBox="0 0 160 113" fill="none" xmlns="http://www.w3.org/2000/svg">
<path d="M10 -4.37114e-07L131 1.46174e-05C136.523 1.52337e-05 141 4.47716 141 10L141 43.7397C141 44.2387 141.126 44.7402 141.377 45.1711C147.178 55.1029 155.141 51.5834 158.511 53.1887C159.222 53.5273 159.25 54.4418 158.824 55.1039C153.709 63.0526 147.854 63.3282 144.063 64.3464C141.85 64.9405 141 67.2498 141 69.5403L141 73.5C141 79.0229 136.523 83.5 131 83.5L10 83.5C4.47716 83.5 7.57029e-06 79.0229 7.0412e-06 73.5L4.37114e-07 10C1.95703e-07 4.47715 4.47715 -1.95702e-07 10 -4.37114e-07Z" fill="white"/>
<path d="M18.97 20C18.71 20 18.47 19.9367 18.25 19.81C18.03 19.6767 17.8567 19.5033 17.73 19.29C17.6033 19.07 17.54 18.8267 17.54 18.56V17.95H18.98V18.49C18.98 18.51 18.9833 18.5267 18.99 18.54C19.0033 18.5467 19.0167 18.55 19.03 18.55H23.22C23.2333 18.55 23.2467 18.5467 23.26 18.54C23.2733 18.5267 23.28 18.51 23.28 18.49V17.18C23.28 17.1667 23.2733 17.1567 23.26 17.15C23.2467 17.1367 23.2333 17.13 23.22 17.13H18.97C18.71 17.13 18.47 17.0667 18.25 16.94C18.03 16.8067 17.8567 16.63 17.73 16.41C17.6033 16.19 17.54 15.95 17.54 15.69V14.24C17.54 13.9733 17.6033 13.7333 17.73 13.52C17.8567 13.3 18.03 13.1267 18.25 13C18.47 12.8667 18.71 12.8 18.97 12.8H23.3C23.56 12.8 23.7967 12.8667 24.01 13C24.23 13.1267 24.4067 13.3 24.54 13.52C24.6733 13.7333 24.74 13.9733 24.74 14.24V14.85H23.28V14.31C23.28 14.29 23.2733 14.2767 23.26 14.27C23.2467 14.2567 23.2333 14.25 23.22 14.25H19.03C19.0167 14.25 19.0033 14.2567 18.99 14.27C18.9833 14.2767 18.98 14.29 18.98 14.31V15.62C18.98 15.6333 18.9833 15.6467 18.99 15.66C19.0033 15.6667 19.0167 15.67 19.03 15.67H23.3C23.56 15.67 23.7967 15.7367 24.01 15.87C24.23 15.9967 24.4067 16.17 24.54 16.39C24.6733 16.61 24.74 16.85 24.74 17.11V18.56C24.74 18.8267 24.6733 19.07 24.54 19.29C24.4067 19.5033 24.23 19.6767 24.01 19.81C23.7967 19.9367 23.56 20 23.3 20H18.97ZM25.8115 20V14.2H30.2815C30.5415 14.2 30.7782 14.2667 30.9915 14.4C31.2048 14.5267 31.3748 14.6967 31.5015 14.91C31.6282 15.1233 31.6915 15.3567 31.6915 15.61V20H30.2715V15.68C30.2715 15.6667 30.2648 15.6533 30.2515 15.64C30.2448 15.6267 30.2315 15.62 30.2115 15.62H27.2915C27.2782 15.62 27.2648 15.6267 27.2515 15.64C27.2382 15.6533 27.2315 15.6667 27.2315 15.68V20H25.8115ZM32.7544 20V14.2H34.1744V20H32.7544ZM32.7544 13.73V12.3H34.1744V13.73H32.7544ZM35.1572 22.3V14.2H39.6272C39.8872 14.2 40.1239 14.2667 40.3372 14.4C40.5505 14.5267 40.7205 14.6967 40.8472 14.91C40.9739 15.1233 41.0372 15.3567 41.0372 15.61V18.59C41.0372 18.8433 40.9739 19.0767 40.8472 19.29C40.7205 19.5033 40.5505 19.6767 40.3372 19.81C40.1239 19.9367 39.8872 20 39.6272 20H36.5772V22.3H35.1572ZM36.6372 18.58H39.5572C39.5772 18.58 39.5905 18.5733 39.5972 18.56C39.6105 18.5467 39.6172 18.5333 39.6172 18.52V15.68C39.6172 15.6667 39.6105 15.6533 39.5972 15.64C39.5905 15.6267 39.5772 15.62 39.5572 15.62H36.6372C36.6239 15.62 36.6105 15.6267 36.5972 15.64C36.5839 15.6533 36.5772 15.6667 36.5772 15.68V18.52C36.5772 18.5333 36.5839 18.5467 36.5972 18.56C36.6105 18.5733 36.6239 18.58 36.6372 18.58ZM43.1778 20C42.9245 20 42.6911 19.9367 42.4778 19.81C42.2645 19.6767 42.0911 19.5033 41.9578 19.29C41.8311 19.0767 41.7678 18.8433 41.7678 18.59V15.61C41.7678 15.3567 41.8311 15.1233 41.9578 14.91C42.0911 14.6967 42.2645 14.5267 42.4778 14.4C42.6911 14.2667 42.9245 14.2 43.1778 14.2H46.2378C46.4978 14.2 46.7345 14.2667 46.9478 14.4C47.1611 14.5267 47.3311 14.6967 47.4578 14.91C47.5845 15.1233 47.6478 15.3567 47.6478 15.61V17.82H43.1878V18.52C43.1878 18.5333 43.1945 18.5467 43.2078 18.56C43.2211 18.5733 43.2345 18.58 43.2478 18.58H47.6478V20H43.1778ZM43.1878 16.55H46.2278V15.68C46.2278 15.6667 46.2211 15.6533 46.2078 15.64C46.1945 15.6267 46.1811 15.62 46.1678 15.62H43.2478C43.2345 15.62 43.2211 15.6267 43.2078 15.64C43.1945 15.6533 43.1878 15.6667 43.1878 15.68V16.55ZM48.6333 20V15.61C48.6333 15.3567 48.6966 15.1233 48.8233 14.91C48.9566 14.6967 49.1299 14.5267 49.3433 14.4C49.5633 14.2667 49.7999 14.2 50.0533 14.2H53.2633V15.62H50.1133C50.0999 15.62 50.0866 15.6267 50.0733 15.64C50.0599 15.6533 50.0533 15.6667 50.0533 15.68V20H48.6333ZM57.1017 20V12.8H62.5817C62.8417 12.8 63.0784 12.8667 63.2917 13C63.5117 13.1267 63.6884 13.3 63.8217 13.52C63.9551 13.7333 64.0217 13.9733 64.0217 14.24V15.62C64.0217 15.7067 64.0151 15.79 64.0017 15.87C63.9884 15.9433 63.9684 16.0167 63.9417 16.09C64.0484 16.23 64.1351 16.3833 64.2017 16.55C64.2684 16.71 64.3017 16.8733 64.3017 17.04V18.56C64.3017 18.8267 64.2351 19.07 64.1017 19.29C63.9684 19.5033 63.7917 19.6767 63.5717 19.81C63.3584 19.9367 63.1184 20 62.8517 20H57.1017ZM58.6017 18.55H62.7817C62.8017 18.55 62.8151 18.5467 62.8217 18.54C62.8351 18.5267 62.8417 18.51 62.8417 18.49V17.12C62.8417 17.1067 62.8351 17.0933 62.8217 17.08C62.8151 17.0667 62.8017 17.06 62.7817 17.06H58.6017C58.5817 17.06 58.5651 17.0667 58.5517 17.08C58.5451 17.0933 58.5417 17.1067 58.5417 17.12V18.49C58.5417 18.51 58.5451 18.5267 58.5517 18.54C58.5651 18.5467 58.5817 18.55 58.6017 18.55ZM58.6017 15.61H62.5017C62.5151 15.61 62.5284 15.6067 62.5417 15.6C62.5551 15.5867 62.5617 15.5733 62.5617 15.56V14.31C62.5617 14.29 62.5551 14.2767 62.5417 14.27C62.5284 14.2567 62.5151 14.25 62.5017 14.25H58.6017C58.5817 14.25 58.5651 14.2567 58.5517 14.27C58.5451 14.2767 58.5417 14.29 58.5417 14.31V15.56C58.5417 15.5733 58.5451 15.5867 58.5517 15.6C58.5651 15.6067 58.5817 15.61 58.6017 15.61ZM66.752 20C66.4987 20 66.2654 19.9367 66.052 19.81C65.8387 19.6767 65.6654 19.5033 65.532 19.29C65.4054 19.0767 65.342 18.8433 65.342 18.59V15.61C65.342 15.3567 65.4054 15.1233 65.532 14.91C65.6654 14.6967 65.8387 14.5267 66.052 14.4C66.2654 14.2667 66.4987 14.2 66.752 14.2H69.812C70.072 14.2 70.3087 14.2667 70.522 14.4C70.7354 14.5267 70.9054 14.6967 71.032 14.91C71.1587 15.1233 71.222 15.3567 71.222 15.61V18.59C71.222 18.8433 71.1587 19.0767 71.032 19.29C70.9054 19.5033 70.7354 19.6767 70.522 19.81C70.3087 19.9367 70.072 20 69.812 20H66.752ZM66.822 18.58H69.742C69.7554 18.58 69.7687 18.5733 69.782 18.56C69.7954 18.5467 69.802 18.5333 69.802 18.52V15.68C69.802 15.6667 69.7954 15.6533 69.782 15.64C69.7687 15.6267 69.7554 15.62 69.742 15.62H66.822C66.8087 15.62 66.7954 15.6267 66.782 15.64C66.7687 15.6533 66.762 15.6667 66.762 15.68V18.52C66.762 18.5333 66.7687 18.5467 66.782 18.56C66.7954 18.5733 66.8087 18.58 66.822 18.58ZM73.5203 20C73.2603 20 73.0236 19.9367 72.8103 19.81C72.597 19.6767 72.4236 19.5033 72.2903 19.29C72.1636 19.0767 72.1003 18.8433 72.1003 18.59V12.45H73.5203V14.2H75.7303V15.62H73.5203V18.52C73.5203 18.5333 73.527 18.5467 73.5403 18.56C73.5536 18.5733 73.567 18.58 73.5803 18.58H75.7303V20H73.5203Z" fill="#090136"/>
<circle cx="12.25" cy="37.25" r="1.25" fill="#090136"/>
<circle cx="12.25" cy="49.25" r="1.25" fill="#090136"/>
<circle cx="12.25" cy="60.25" r="1.25" fill="#090136"/>
<rect x="52" y="66" width="41" height="10" rx="3" fill="#FF765A"/>
<rect x="56" y="33" width="32" height="9" rx="3" fill="#00B4C2"/>
<path d="M19.423 38.915H17.295L16.903 40H16.231L17.995 35.149H18.73L20.487 40H19.815L19.423 38.915ZM19.241 38.397L18.359 35.933L17.477 38.397H19.241ZM24.6578 36.164V40H24.0208V39.433C23.8995 39.629 23.7291 39.783 23.5098 39.895C23.2951 40.0023 23.0571 40.056 22.7958 40.056C22.4971 40.056 22.2288 39.9953 21.9908 39.874C21.7528 39.748 21.5638 39.5613 21.4238 39.314C21.2885 39.0667 21.2208 38.7657 21.2208 38.411V36.164H21.8508V38.327C21.8508 38.705 21.9465 38.9967 22.1378 39.202C22.3291 39.4027 22.5905 39.503 22.9218 39.503C23.2625 39.503 23.5308 39.398 23.7268 39.188C23.9228 38.978 24.0208 38.6723 24.0208 38.271V36.164H24.6578ZM26.5103 36.689V38.95C26.5103 39.1367 26.55 39.2697 26.6293 39.349C26.7087 39.4237 26.8463 39.461 27.0423 39.461H27.5113V40H26.9373C26.5827 40 26.3167 39.9183 26.1393 39.755C25.962 39.5917 25.8733 39.3233 25.8733 38.95V36.689H25.3763V36.164H25.8733V35.198H26.5103V36.164H27.5113V36.689H26.5103ZM29.9561 40.063C29.5968 40.063 29.2701 39.9813 28.9761 39.818C28.6868 39.6547 28.4581 39.4237 28.2901 39.125C28.1268 38.8217 28.0451 38.4717 28.0451 38.075C28.0451 37.683 28.1291 37.3377 28.2971 37.039C28.4698 36.7357 28.7031 36.5047 28.9971 36.346C29.2911 36.1827 29.6201 36.101 29.9841 36.101C30.3481 36.101 30.6771 36.1827 30.9711 36.346C31.2651 36.5047 31.4961 36.7333 31.6641 37.032C31.8368 37.3307 31.9231 37.6783 31.9231 38.075C31.9231 38.4717 31.8345 38.8217 31.6571 39.125C31.4845 39.4237 31.2488 39.6547 30.9501 39.818C30.6515 39.9813 30.3201 40.063 29.9561 40.063ZM29.9561 39.503C30.1848 39.503 30.3995 39.4493 30.6001 39.342C30.8008 39.2347 30.9618 39.0737 31.0831 38.859C31.2091 38.6443 31.2721 38.383 31.2721 38.075C31.2721 37.767 31.2115 37.5057 31.0901 37.291C30.9688 37.0763 30.8101 36.9177 30.6141 36.815C30.4181 36.7077 30.2058 36.654 29.9771 36.654C29.7438 36.654 29.5291 36.7077 29.3331 36.815C29.1418 36.9177 28.9878 37.0763 28.8711 37.291C28.7545 37.5057 28.6961 37.767 28.6961 38.075C28.6961 38.3877 28.7521 38.6513 28.8641 38.866C28.9808 39.0807 29.1348 39.2417 29.3261 39.349C29.5175 39.4517 29.7275 39.503 29.9561 39.503ZM37.3737 36.094C37.6723 36.094 37.9383 36.157 38.1717 36.283C38.405 36.4043 38.5893 36.5887 38.7247 36.836C38.86 37.0833 38.9277 37.3843 38.9277 37.739V40H38.2977V37.83C38.2977 37.4473 38.202 37.1557 38.0107 36.955C37.824 36.7497 37.5697 36.647 37.2477 36.647C36.9163 36.647 36.6527 36.7543 36.4567 36.969C36.2607 37.179 36.1627 37.4847 36.1627 37.886V40H35.5327V37.83C35.5327 37.4473 35.437 37.1557 35.2457 36.955C35.059 36.7497 34.8047 36.647 34.4827 36.647C34.1513 36.647 33.8877 36.7543 33.6917 36.969C33.4957 37.179 33.3977 37.4847 33.3977 37.886V40H32.7607V36.164H33.3977V36.717C33.5237 36.5163 33.6917 36.3623 33.9017 36.255C34.1163 36.1477 34.352 36.094 34.6087 36.094C34.9307 36.094 35.2153 36.1663 35.4627 36.311C35.71 36.4557 35.8943 36.668 36.0157 36.948C36.123 36.6773 36.3003 36.4673 36.5477 36.318C36.795 36.1687 37.0703 36.094 37.3737 36.094ZM39.7346 38.068C39.7346 37.676 39.8139 37.333 39.9726 37.039C40.1313 36.7403 40.3483 36.5093 40.6236 36.346C40.9036 36.1827 41.2139 36.101 41.5546 36.101C41.8906 36.101 42.1823 36.1733 42.4296 36.318C42.6769 36.4627 42.8613 36.6447 42.9826 36.864V36.164H43.6266V40H42.9826V39.286C42.8566 39.51 42.6676 39.6967 42.4156 39.846C42.1683 39.9907 41.8789 40.063 41.5476 40.063C41.2069 40.063 40.8989 39.979 40.6236 39.811C40.3483 39.643 40.1313 39.4073 39.9726 39.104C39.8139 38.8007 39.7346 38.4553 39.7346 38.068ZM42.9826 38.075C42.9826 37.7857 42.9243 37.5337 42.8076 37.319C42.6909 37.1043 42.5323 36.941 42.3316 36.829C42.1356 36.7123 41.9186 36.654 41.6806 36.654C41.4426 36.654 41.2256 36.71 41.0296 36.822C40.8336 36.934 40.6773 37.0973 40.5606 37.312C40.4439 37.5267 40.3856 37.7787 40.3856 38.068C40.3856 38.362 40.4439 38.6187 40.5606 38.838C40.6773 39.0527 40.8336 39.2183 41.0296 39.335C41.2256 39.447 41.4426 39.503 41.6806 39.503C41.9186 39.503 42.1356 39.447 42.3316 39.335C42.5323 39.2183 42.6909 39.0527 42.8076 38.838C42.9243 38.6187 42.9826 38.3643 42.9826 38.075ZM45.4801 36.689V38.95C45.4801 39.1367 45.5197 39.2697 45.5991 39.349C45.6784 39.4237 45.8161 39.461 46.0121 39.461H46.4811V40H45.9071C45.5524 40 45.2864 39.9183 45.1091 39.755C44.9317 39.5917 44.8431 39.3233 44.8431 38.95V36.689H44.3461V36.164H44.8431V35.198H45.4801V36.164H46.4811V36.689H45.4801ZM50.7529 37.935C50.7529 38.0563 50.7459 38.1847 50.7319 38.32H47.6659C47.6892 38.698 47.8175 38.9943 48.0509 39.209C48.2889 39.419 48.5759 39.524 48.9119 39.524C49.1872 39.524 49.4159 39.461 49.5979 39.335C49.7845 39.2043 49.9152 39.0317 49.9899 38.817H50.6759C50.5732 39.1857 50.3679 39.4867 50.0599 39.72C49.7519 39.9487 49.3692 40.063 48.9119 40.063C48.5479 40.063 48.2212 39.9813 47.9319 39.818C47.6472 39.6547 47.4232 39.4237 47.2599 39.125C47.0965 38.8217 47.0149 38.4717 47.0149 38.075C47.0149 37.6783 47.0942 37.3307 47.2529 37.032C47.4115 36.7333 47.6332 36.5047 47.9179 36.346C48.2072 36.1827 48.5385 36.101 48.9119 36.101C49.2759 36.101 49.5979 36.1803 49.8779 36.339C50.1579 36.4977 50.3725 36.717 50.5219 36.997C50.6759 37.2723 50.7529 37.585 50.7529 37.935ZM50.0949 37.802C50.0949 37.5593 50.0412 37.3517 49.9339 37.179C49.8265 37.0017 49.6795 36.8687 49.4929 36.78C49.3109 36.6867 49.1079 36.64 48.8839 36.64C48.5619 36.64 48.2865 36.7427 48.0579 36.948C47.8339 37.1533 47.7055 37.438 47.6729 37.802H50.0949ZM51.3557 38.068C51.3557 37.676 51.435 37.333 51.5937 37.039C51.7524 36.7403 51.9694 36.5093 52.2447 36.346C52.5247 36.1827 52.8374 36.101 53.1827 36.101C53.4814 36.101 53.759 36.171 54.0157 36.311C54.2724 36.4463 54.4684 36.626 54.6037 36.85V34.82H55.2477V40H54.6037V39.279C54.4777 39.5077 54.291 39.6967 54.0437 39.846C53.7964 39.9907 53.507 40.063 53.1757 40.063C52.835 40.063 52.5247 39.979 52.2447 39.811C51.9694 39.643 51.7524 39.4073 51.5937 39.104C51.435 38.8007 51.3557 38.4553 51.3557 38.068ZM54.6037 38.075C54.6037 37.7857 54.5454 37.5337 54.4287 37.319C54.312 37.1043 54.1534 36.941 53.9527 36.829C53.7567 36.7123 53.5397 36.654 53.3017 36.654C53.0637 36.654 52.8467 36.71 52.6507 36.822C52.4547 36.934 52.2984 37.0973 52.1817 37.312C52.065 37.5267 52.0067 37.7787 52.0067 38.068C52.0067 38.362 52.065 38.6187 52.1817 38.838C52.2984 39.0527 52.4547 39.2183 52.6507 39.335C52.8467 39.447 53.0637 39.503 53.3017 39.503C53.5397 39.503 53.7567 39.447 53.9527 39.335C54.1534 39.2183 54.312 39.0527 54.4287 38.838C54.5454 38.6187 54.6037 38.3643 54.6037 38.075ZM89.9035 36.878C90.0342 36.6493 90.2255 36.4627 90.4775 36.318C90.7295 36.1733 91.0165 36.101 91.3385 36.101C91.6839 36.101 91.9942 36.1827 92.2695 36.346C92.5449 36.5093 92.7619 36.7403 92.9205 37.039C93.0792 37.333 93.1585 37.676 93.1585 38.068C93.1585 38.4553 93.0792 38.8007 92.9205 39.104C92.7619 39.4073 92.5425 39.643 92.2625 39.811C91.9872 39.979 91.6792 40.063 91.3385 40.063C91.0072 40.063 90.7155 39.9907 90.4635 39.846C90.2162 39.7013 90.0295 39.517 89.9035 39.293V40H89.2665V34.82H89.9035V36.878ZM92.5075 38.068C92.5075 37.7787 92.4492 37.5267 92.3325 37.312C92.2159 37.0973 92.0572 36.934 91.8565 36.822C91.6605 36.71 91.4435 36.654 91.2055 36.654C90.9722 36.654 90.7552 36.7123 90.5545 36.829C90.3585 36.941 90.1999 37.1067 90.0785 37.326C89.9619 37.5407 89.9035 37.7903 89.9035 38.075C89.9035 38.3643 89.9619 38.6187 90.0785 38.838C90.1999 39.0527 90.3585 39.2183 90.5545 39.335C90.7552 39.447 90.9722 39.503 91.2055 39.503C91.4435 39.503 91.6605 39.447 91.8565 39.335C92.0572 39.2183 92.2159 39.0527 92.3325 38.838C92.4492 38.6187 92.5075 38.362 92.5075 38.068ZM95.67 40.063C95.3107 40.063 94.984 39.9813 94.69 39.818C94.4007 39.6547 94.172 39.4237 94.004 39.125C93.8407 38.8217 93.759 38.4717 93.759 38.075C93.759 37.683 93.843 37.3377 94.011 37.039C94.1837 36.7357 94.417 36.5047 94.711 36.346C95.005 36.1827 95.334 36.101 95.698 36.101C96.062 36.101 96.391 36.1827 96.685 36.346C96.979 36.5047 97.21 36.7333 97.378 37.032C97.5507 37.3307 97.637 37.6783 97.637 38.075C97.637 38.4717 97.5483 38.8217 97.371 39.125C97.1983 39.4237 96.9627 39.6547 96.664 39.818C96.3653 39.9813 96.034 40.063 95.67 40.063ZM95.67 39.503C95.8987 39.503 96.1133 39.4493 96.314 39.342C96.5147 39.2347 96.6757 39.0737 96.797 38.859C96.923 38.6443 96.986 38.383 96.986 38.075C96.986 37.767 96.9253 37.5057 96.804 37.291C96.6827 37.0763 96.524 36.9177 96.328 36.815C96.132 36.7077 95.9197 36.654 95.691 36.654C95.4577 36.654 95.243 36.7077 95.047 36.815C94.8557 36.9177 94.7017 37.0763 94.585 37.291C94.4683 37.5057 94.41 37.767 94.41 38.075C94.41 38.3877 94.466 38.6513 94.578 38.866C94.6947 39.0807 94.8487 39.2417 95.04 39.349C95.2313 39.4517 95.4413 39.503 95.67 39.503ZM99.2515 36.689V38.95C99.2515 39.1367 99.2912 39.2697 99.3705 39.349C99.4499 39.4237 99.5875 39.461 99.7835 39.461H100.253V40H99.6785C99.3239 40 99.0579 39.9183 98.8805 39.755C98.7032 39.5917 98.6145 39.3233 98.6145 38.95V36.689H98.1175V36.164H98.6145V35.198H99.2515V36.164H100.253V36.689H99.2515ZM18.086 51.049C17.764 51.049 17.4747 50.993 17.218 50.881C16.966 50.7643 16.7677 50.6057 16.623 50.405C16.4783 50.1997 16.4037 49.964 16.399 49.698H17.078C17.1013 49.9267 17.1947 50.1203 17.358 50.279C17.526 50.433 17.7687 50.51 18.086 50.51C18.3893 50.51 18.6273 50.4353 18.8 50.286C18.9773 50.132 19.066 49.936 19.066 49.698C19.066 49.5113 19.0147 49.3597 18.912 49.243C18.8093 49.1263 18.681 49.0377 18.527 48.977C18.373 48.9163 18.1653 48.851 17.904 48.781C17.582 48.697 17.323 48.613 17.127 48.529C16.9357 48.445 16.77 48.3143 16.63 48.137C16.4947 47.955 16.427 47.7123 16.427 47.409C16.427 47.143 16.4947 46.9073 16.63 46.702C16.7653 46.4967 16.9543 46.338 17.197 46.226C17.4443 46.114 17.7267 46.058 18.044 46.058C18.5013 46.058 18.8747 46.1723 19.164 46.401C19.458 46.6297 19.6237 46.933 19.661 47.311H18.961C18.9377 47.1243 18.8397 46.961 18.667 46.821C18.4943 46.6763 18.2657 46.604 17.981 46.604C17.715 46.604 17.498 46.674 17.33 46.814C17.162 46.9493 17.078 47.1407 17.078 47.388C17.078 47.5653 17.127 47.71 17.225 47.822C17.3277 47.934 17.4513 48.0203 17.596 48.081C17.7453 48.137 17.953 48.2023 18.219 48.277C18.541 48.3657 18.8 48.4543 18.996 48.543C19.192 48.627 19.36 48.76 19.5 48.942C19.64 49.1193 19.71 49.362 19.71 49.67C19.71 49.908 19.647 50.132 19.521 50.342C19.395 50.552 19.2083 50.7223 18.961 50.853C18.7137 50.9837 18.422 51.049 18.086 51.049ZM24.1474 48.935C24.1474 49.0563 24.1404 49.1847 24.1264 49.32H21.0604C21.0837 49.698 21.2121 49.9943 21.4454 50.209C21.6834 50.419 21.9704 50.524 22.3064 50.524C22.5817 50.524 22.8104 50.461 22.9924 50.335C23.1791 50.2043 23.3097 50.0317 23.3844 49.817H24.0704C23.9677 50.1857 23.7624 50.4867 23.4544 50.72C23.1464 50.9487 22.7637 51.063 22.3064 51.063C21.9424 51.063 21.6157 50.9813 21.3264 50.818C21.0417 50.6547 20.8177 50.4237 20.6544 50.125C20.4911 49.8217 20.4094 49.4717 20.4094 49.075C20.4094 48.6783 20.4887 48.3307 20.6474 48.032C20.8061 47.7333 21.0277 47.5047 21.3124 47.346C21.6017 47.1827 21.9331 47.101 22.3064 47.101C22.6704 47.101 22.9924 47.1803 23.2724 47.339C23.5524 47.4977 23.7671 47.717 23.9164 47.997C24.0704 48.2723 24.1474 48.585 24.1474 48.935ZM23.4894 48.802C23.4894 48.5593 23.4357 48.3517 23.3284 48.179C23.2211 48.0017 23.0741 47.8687 22.8874 47.78C22.7054 47.6867 22.5024 47.64 22.2784 47.64C21.9564 47.64 21.6811 47.7427 21.4524 47.948C21.2284 48.1533 21.1001 48.438 21.0674 48.802H23.4894ZM25.7652 47.689V49.95C25.7652 50.1367 25.8049 50.2697 25.8842 50.349C25.9636 50.4237 26.1012 50.461 26.2972 50.461H26.7662V51H26.1922C25.8376 51 25.5716 50.9183 25.3942 50.755C25.2169 50.5917 25.1282 50.3233 25.1282 49.95V47.689H24.6312V47.164H25.1282V46.198H25.7652V47.164H26.7662V47.689H25.7652ZM29.1662 49.075C29.1662 48.6783 29.2456 48.333 29.4042 48.039C29.5629 47.7403 29.7822 47.5093 30.0622 47.346C30.3469 47.1827 30.6712 47.101 31.0352 47.101C31.5066 47.101 31.8939 47.2153 32.1972 47.444C32.5052 47.6727 32.7082 47.99 32.8062 48.396H32.1202C32.0549 48.1627 31.9266 47.9783 31.7352 47.843C31.5486 47.7077 31.3152 47.64 31.0352 47.64C30.6712 47.64 30.3772 47.766 30.1532 48.018C29.9292 48.2653 29.8172 48.6177 29.8172 49.075C29.8172 49.537 29.9292 49.894 30.1532 50.146C30.3772 50.398 30.6712 50.524 31.0352 50.524C31.3152 50.524 31.5486 50.4587 31.7352 50.328C31.9219 50.1973 32.0502 50.0107 32.1202 49.768H32.8062C32.7036 50.16 32.4982 50.475 32.1902 50.713C31.8822 50.9463 31.4972 51.063 31.0352 51.063C30.6712 51.063 30.3469 50.9813 30.0622 50.818C29.7822 50.6547 29.5629 50.4237 29.4042 50.125C29.2456 49.8263 29.1662 49.4763 29.1662 49.075ZM37.0582 47.164V51H36.4212V50.433C36.2999 50.629 36.1295 50.783 35.9102 50.895C35.6955 51.0023 35.4575 51.056 35.1962 51.056C34.8975 51.056 34.6292 50.9953 34.3912 50.874C34.1532 50.748 33.9642 50.5613 33.8242 50.314C33.6889 50.0667 33.6212 49.7657 33.6212 49.411V47.164H34.2512V49.327C34.2512 49.705 34.3469 49.9967 34.5382 50.202C34.7295 50.4027 34.9909 50.503 35.3222 50.503C35.6629 50.503 35.9312 50.398 36.1272 50.188C36.3232 49.978 36.4212 49.6723 36.4212 49.271V47.164H37.0582ZM39.4917 51.063C39.1977 51.063 38.9341 51.014 38.7007 50.916C38.4674 50.8133 38.2831 50.6733 38.1477 50.496C38.0124 50.314 37.9377 50.1063 37.9237 49.873H38.5817C38.6004 50.0643 38.6891 50.2207 38.8477 50.342C39.0111 50.4633 39.2234 50.524 39.4847 50.524C39.7274 50.524 39.9187 50.4703 40.0587 50.363C40.1987 50.2557 40.2687 50.1203 40.2687 49.957C40.2687 49.789 40.1941 49.6653 40.0447 49.586C39.8954 49.502 39.6644 49.4203 39.3517 49.341C39.0671 49.2663 38.8337 49.1917 38.6517 49.117C38.4744 49.0377 38.3204 48.9233 38.1897 48.774C38.0637 48.62 38.0007 48.4193 38.0007 48.172C38.0007 47.976 38.0591 47.7963 38.1757 47.633C38.2924 47.4697 38.4581 47.3413 38.6727 47.248C38.8874 47.15 39.1324 47.101 39.4077 47.101C39.8324 47.101 40.1754 47.2083 40.4367 47.423C40.6981 47.6377 40.8381 47.9317 40.8567 48.305H40.2197C40.2057 48.1043 40.1241 47.9433 39.9747 47.822C39.8301 47.7007 39.6341 47.64 39.3867 47.64C39.1581 47.64 38.9761 47.689 38.8407 47.787C38.7054 47.885 38.6377 48.0133 38.6377 48.172C38.6377 48.298 38.6774 48.403 38.7567 48.487C38.8407 48.5663 38.9434 48.6317 39.0647 48.683C39.1907 48.7297 39.3634 48.7833 39.5827 48.844C39.8581 48.9187 40.0821 48.9933 40.2547 49.068C40.4274 49.138 40.5744 49.2453 40.6957 49.39C40.8217 49.5347 40.8871 49.7237 40.8917 49.957C40.8917 50.167 40.8334 50.356 40.7167 50.524C40.6001 50.692 40.4344 50.825 40.2197 50.923C40.0097 51.0163 39.7671 51.063 39.4917 51.063ZM42.568 47.689V49.95C42.568 50.1367 42.6076 50.2697 42.687 50.349C42.7663 50.4237 42.904 50.461 43.1 50.461H43.569V51H42.995C42.6403 51 42.3743 50.9183 42.197 50.755C42.0196 50.5917 41.931 50.3233 41.931 49.95V47.689H41.434V47.164H41.931V46.198H42.568V47.164H43.569V47.689H42.568ZM46.0138 51.063C45.6544 51.063 45.3278 50.9813 45.0338 50.818C44.7444 50.6547 44.5158 50.4237 44.3478 50.125C44.1844 49.8217 44.1028 49.4717 44.1028 49.075C44.1028 48.683 44.1868 48.3377 44.3548 48.039C44.5274 47.7357 44.7608 47.5047 45.0548 47.346C45.3488 47.1827 45.6778 47.101 46.0418 47.101C46.4058 47.101 46.7348 47.1827 47.0288 47.346C47.3228 47.5047 47.5538 47.7333 47.7218 48.032C47.8944 48.3307 47.9808 48.6783 47.9808 49.075C47.9808 49.4717 47.8921 49.8217 47.7148 50.125C47.5421 50.4237 47.3064 50.6547 47.0078 50.818C46.7091 50.9813 46.3778 51.063 46.0138 51.063ZM46.0138 50.503C46.2424 50.503 46.4571 50.4493 46.6578 50.342C46.8584 50.2347 47.0194 50.0737 47.1408 49.859C47.2668 49.6443 47.3298 49.383 47.3298 49.075C47.3298 48.767 47.2691 48.5057 47.1478 48.291C47.0264 48.0763 46.8678 47.9177 46.6718 47.815C46.4758 47.7077 46.2634 47.654 46.0348 47.654C45.8014 47.654 45.5868 47.7077 45.3908 47.815C45.1994 47.9177 45.0454 48.0763 44.9288 48.291C44.8121 48.5057 44.7538 48.767 44.7538 49.075C44.7538 49.3877 44.8098 49.6513 44.9218 49.866C45.0384 50.0807 45.1924 50.2417 45.3838 50.349C45.5751 50.4517 45.7851 50.503 46.0138 50.503ZM53.4313 47.094C53.73 47.094 53.996 47.157 54.2293 47.283C54.4626 47.4043 54.647 47.5887 54.7823 47.836C54.9176 48.0833 54.9853 48.3843 54.9853 48.739V51H54.3553V48.83C54.3553 48.4473 54.2596 48.1557 54.0683 47.955C53.8816 47.7497 53.6273 47.647 53.3053 47.647C52.974 47.647 52.7103 47.7543 52.5143 47.969C52.3183 48.179 52.2203 48.4847 52.2203 48.886V51H51.5903V48.83C51.5903 48.4473 51.4946 48.1557 51.3033 47.955C51.1166 47.7497 50.8623 47.647 50.5403 47.647C50.209 47.647 49.9453 47.7543 49.7493 47.969C49.5533 48.179 49.4553 48.4847 49.4553 48.886V51H48.8183V47.164H49.4553V47.717C49.5813 47.5163 49.7493 47.3623 49.9593 47.255C50.174 47.1477 50.4096 47.094 50.6663 47.094C50.9883 47.094 51.273 47.1663 51.5203 47.311C51.7676 47.4557 51.952 47.668 52.0733 47.948C52.1806 47.6773 52.358 47.4673 52.6053 47.318C52.8526 47.1687 53.128 47.094 53.4313 47.094ZM57.6584 49.075C57.6584 48.6783 57.7378 48.333 57.8964 48.039C58.0551 47.7403 58.2744 47.5093 58.5544 47.346C58.8391 47.1827 59.1634 47.101 59.5274 47.101C59.9988 47.101 60.3861 47.2153 60.6894 47.444C60.9974 47.6727 61.2004 47.99 61.2984 48.396H60.6124C60.5471 48.1627 60.4188 47.9783 60.2274 47.843C60.0408 47.7077 59.8074 47.64 59.5274 47.64C59.1634 47.64 58.8694 47.766 58.6454 48.018C58.4214 48.2653 58.3094 48.6177 58.3094 49.075C58.3094 49.537 58.4214 49.894 58.6454 50.146C58.8694 50.398 59.1634 50.524 59.5274 50.524C59.8074 50.524 60.0408 50.4587 60.2274 50.328C60.4141 50.1973 60.5424 50.0107 60.6124 49.768H61.2984C61.1958 50.16 60.9904 50.475 60.6824 50.713C60.3744 50.9463 59.9894 51.063 59.5274 51.063C59.1634 51.063 58.8391 50.9813 58.5544 50.818C58.2744 50.6547 58.0551 50.4237 57.8964 50.125C57.7378 49.8263 57.6584 49.4763 57.6584 49.075ZM63.8214 51.063C63.462 51.063 63.1354 50.9813 62.8414 50.818C62.552 50.6547 62.3234 50.4237 62.1554 50.125C61.992 49.8217 61.9104 49.4717 61.9104 49.075C61.9104 48.683 61.9944 48.3377 62.1624 48.039C62.335 47.7357 62.5684 47.5047 62.8624 47.346C63.1564 47.1827 63.4854 47.101 63.8494 47.101C64.2134 47.101 64.5424 47.1827 64.8364 47.346C65.1304 47.5047 65.3614 47.7333 65.5294 48.032C65.702 48.3307 65.7884 48.6783 65.7884 49.075C65.7884 49.4717 65.6997 49.8217 65.5224 50.125C65.3497 50.4237 65.114 50.6547 64.8154 50.818C64.5167 50.9813 64.1854 51.063 63.8214 51.063ZM63.8214 50.503C64.05 50.503 64.2647 50.4493 64.4654 50.342C64.666 50.2347 64.827 50.0737 64.9484 49.859C65.0744 49.6443 65.1374 49.383 65.1374 49.075C65.1374 48.767 65.0767 48.5057 64.9554 48.291C64.834 48.0763 64.6754 47.9177 64.4794 47.815C64.2834 47.7077 64.071 47.654 63.8424 47.654C63.609 47.654 63.3944 47.7077 63.1984 47.815C63.007 47.9177 62.853 48.0763 62.7364 48.291C62.6197 48.5057 62.5614 48.767 62.5614 49.075C62.5614 49.3877 62.6174 49.6513 62.7294 49.866C62.846 50.0807 63 50.2417 63.1914 50.349C63.3827 50.4517 63.5927 50.503 63.8214 50.503ZM68.4949 47.094C68.9616 47.094 69.3396 47.2363 69.6289 47.521C69.9182 47.801 70.0629 48.207 70.0629 48.739V51H69.4329V48.83C69.4329 48.4473 69.3372 48.1557 69.1459 47.955C68.9546 47.7497 68.6932 47.647 68.3619 47.647C68.0259 47.647 67.7576 47.752 67.5569 47.962C67.3609 48.172 67.2629 48.4777 67.2629 48.879V51H66.6259V47.164H67.2629V47.71C67.3889 47.514 67.5592 47.3623 67.7739 47.255C67.9932 47.1477 68.2336 47.094 68.4949 47.094ZM70.8655 49.068C70.8655 48.676 70.9448 48.333 71.1035 48.039C71.2621 47.7403 71.4791 47.5093 71.7545 47.346C72.0345 47.1827 72.3471 47.101 72.6925 47.101C72.9911 47.101 73.2688 47.171 73.5255 47.311C73.7821 47.4463 73.9781 47.626 74.1135 47.85V45.82H74.7575V51H74.1135V50.279C73.9875 50.5077 73.8008 50.6967 73.5535 50.846C73.3061 50.9907 73.0168 51.063 72.6855 51.063C72.3448 51.063 72.0345 50.979 71.7545 50.811C71.4791 50.643 71.2621 50.4073 71.1035 50.104C70.9448 49.8007 70.8655 49.4553 70.8655 49.068ZM74.1135 49.075C74.1135 48.7857 74.0551 48.5337 73.9385 48.319C73.8218 48.1043 73.6631 47.941 73.4625 47.829C73.2665 47.7123 73.0495 47.654 72.8115 47.654C72.5735 47.654 72.3565 47.71 72.1605 47.822C71.9645 47.934 71.8081 48.0973 71.6915 48.312C71.5748 48.5267 71.5165 48.7787 71.5165 49.068C71.5165 49.362 71.5748 49.6187 71.6915 49.838C71.8081 50.0527 71.9645 50.2183 72.1605 50.335C72.3565 50.447 72.5735 50.503 72.8115 50.503C73.0495 50.503 73.2665 50.447 73.4625 50.335C73.6631 50.2183 73.8218 50.0527 73.9385 49.838C74.0551 49.6187 74.1135 49.3643 74.1135 49.075ZM76.1629 46.541C76.0416 46.541 75.9389 46.499 75.8549 46.415C75.7709 46.331 75.7289 46.2283 75.7289 46.107C75.7289 45.9857 75.7709 45.883 75.8549 45.799C75.9389 45.715 76.0416 45.673 76.1629 45.673C76.2796 45.673 76.3776 45.715 76.4569 45.799C76.5409 45.883 76.5829 45.9857 76.5829 46.107C76.5829 46.2283 76.5409 46.331 76.4569 46.415C76.3776 46.499 76.2796 46.541 76.1629 46.541ZM76.4709 47.164V51H75.8339V47.164H76.4709ZM78.3336 47.689V49.95C78.3336 50.1367 78.3732 50.2697 78.4526 50.349C78.5319 50.4237 78.6696 50.461 78.8656 50.461H79.3346V51H78.7606C78.4059 51 78.1399 50.9183 77.9626 50.755C77.7852 50.5917 77.6966 50.3233 77.6966 49.95V47.689H77.1996V47.164H77.6966V46.198H78.3336V47.164H79.3346V47.689H78.3336ZM80.4354 46.541C80.314 46.541 80.2114 46.499 80.1274 46.415C80.0434 46.331 80.0014 46.2283 80.0014 46.107C80.0014 45.9857 80.0434 45.883 80.1274 45.799C80.2114 45.715 80.314 45.673 80.4354 45.673C80.552 45.673 80.65 45.715 80.7294 45.799C80.8134 45.883 80.8554 45.9857 80.8554 46.107C80.8554 46.2283 80.8134 46.331 80.7294 46.415C80.65 46.499 80.552 46.541 80.4354 46.541ZM80.7434 47.164V51H80.1064V47.164H80.7434ZM83.502 51.063C83.1427 51.063 82.816 50.9813 82.522 50.818C82.2327 50.6547 82.004 50.4237 81.836 50.125C81.6727 49.8217 81.591 49.4717 81.591 49.075C81.591 48.683 81.675 48.3377 81.843 48.039C82.0157 47.7357 82.249 47.5047 82.543 47.346C82.837 47.1827 83.166 47.101 83.53 47.101C83.894 47.101 84.223 47.1827 84.517 47.346C84.811 47.5047 85.042 47.7333 85.21 48.032C85.3827 48.3307 85.469 48.6783 85.469 49.075C85.469 49.4717 85.3804 49.8217 85.203 50.125C85.0304 50.4237 84.7947 50.6547 84.496 50.818C84.1974 50.9813 83.866 51.063 83.502 51.063ZM83.502 50.503C83.7307 50.503 83.9454 50.4493 84.146 50.342C84.3467 50.2347 84.5077 50.0737 84.629 49.859C84.755 49.6443 84.818 49.383 84.818 49.075C84.818 48.767 84.7574 48.5057 84.636 48.291C84.5147 48.0763 84.356 47.9177 84.16 47.815C83.964 47.7077 83.7517 47.654 83.523 47.654C83.2897 47.654 83.075 47.7077 82.879 47.815C82.6877 47.9177 82.5337 48.0763 82.417 48.291C82.3004 48.5057 82.242 48.767 82.242 49.075C82.242 49.3877 82.298 49.6513 82.41 49.866C82.5267 50.0807 82.6807 50.2417 82.872 50.349C83.0634 50.4517 83.2734 50.503 83.502 50.503ZM88.1756 47.094C88.6422 47.094 89.0202 47.2363 89.3096 47.521C89.5989 47.801 89.7436 48.207 89.7436 48.739V51H89.1136V48.83C89.1136 48.4473 89.0179 48.1557 88.8266 47.955C88.6352 47.7497 88.3739 47.647 88.0426 47.647C87.7066 47.647 87.4382 47.752 87.2376 47.962C87.0416 48.172 86.9436 48.4777 86.9436 48.879V51H86.3066V47.164H86.9436V47.71C87.0696 47.514 87.2399 47.3623 87.4546 47.255C87.6739 47.1477 87.9142 47.094 88.1756 47.094ZM92.1421 51.063C91.8481 51.063 91.5845 51.014 91.3511 50.916C91.1178 50.8133 90.9335 50.6733 90.7981 50.496C90.6628 50.314 90.5881 50.1063 90.5741 49.873H91.2321C91.2508 50.0643 91.3395 50.2207 91.4981 50.342C91.6615 50.4633 91.8738 50.524 92.1351 50.524C92.3778 50.524 92.5691 50.4703 92.7091 50.363C92.8491 50.2557 92.9191 50.1203 92.9191 49.957C92.9191 49.789 92.8445 49.6653 92.6951 49.586C92.5458 49.502 92.3148 49.4203 92.0021 49.341C91.7175 49.2663 91.4841 49.1917 91.3021 49.117C91.1248 49.0377 90.9708 48.9233 90.8401 48.774C90.7141 48.62 90.6511 48.4193 90.6511 48.172C90.6511 47.976 90.7095 47.7963 90.8261 47.633C90.9428 47.4697 91.1085 47.3413 91.3231 47.248C91.5378 47.15 91.7828 47.101 92.0581 47.101C92.4828 47.101 92.8258 47.2083 93.0871 47.423C93.3485 47.6377 93.4885 47.9317 93.5071 48.305H92.8701C92.8561 48.1043 92.7745 47.9433 92.6251 47.822C92.4805 47.7007 92.2845 47.64 92.0371 47.64C91.8085 47.64 91.6265 47.689 91.4911 47.787C91.3558 47.885 91.2881 48.0133 91.2881 48.172C91.2881 48.298 91.3278 48.403 91.4071 48.487C91.4911 48.5663 91.5938 48.6317 91.7151 48.683C91.8411 48.7297 92.0138 48.7833 92.2331 48.844C92.5085 48.9187 92.7325 48.9933 92.9051 49.068C93.0778 49.138 93.2248 49.2453 93.3461 49.39C93.4721 49.5347 93.5375 49.7237 93.5421 49.957C93.5421 50.167 93.4838 50.356 93.3671 50.524C93.2505 50.692 93.0848 50.825 92.8701 50.923C92.6601 51.0163 92.4175 51.063 92.1421 51.063ZM18.982 59.487C19.1593 59.515 19.3203 59.5873 19.465 59.704C19.6143 59.8207 19.731 59.9653 19.815 60.138C19.9037 60.3107 19.948 60.495 19.948 60.691C19.948 60.9383 19.885 61.1623 19.759 61.363C19.633 61.559 19.4487 61.7153 19.206 61.832C18.968 61.944 18.6857 62 18.359 62H16.539V57.121H18.289C18.6203 57.121 18.9027 57.177 19.136 57.289C19.3693 57.3963 19.5443 57.5433 19.661 57.73C19.7777 57.9167 19.836 58.1267 19.836 58.36C19.836 58.6493 19.7567 58.8897 19.598 59.081C19.444 59.2677 19.2387 59.403 18.982 59.487ZM17.176 59.228H18.247C18.5457 59.228 18.7767 59.158 18.94 59.018C19.1033 58.878 19.185 58.6843 19.185 58.437C19.185 58.1897 19.1033 57.996 18.94 57.856C18.7767 57.716 18.541 57.646 18.233 57.646H17.176V59.228ZM18.303 61.475C18.6203 61.475 18.8677 61.4003 19.045 61.251C19.2223 61.1017 19.311 60.894 19.311 60.628C19.311 60.3573 19.2177 60.145 19.031 59.991C18.8443 59.8323 18.5947 59.753 18.282 59.753H17.176V61.475H18.303ZM24.234 58.164V62H23.597V61.433C23.4756 61.629 23.3053 61.783 23.086 61.895C22.8713 62.0023 22.6333 62.056 22.372 62.056C22.0733 62.056 21.805 61.9953 21.567 61.874C21.329 61.748 21.14 61.5613 21 61.314C20.8646 61.0667 20.797 60.7657 20.797 60.411V58.164H21.427V60.327C21.427 60.705 21.5226 60.9967 21.714 61.202C21.9053 61.4027 22.1666 61.503 22.498 61.503C22.8386 61.503 23.107 61.398 23.303 61.188C23.499 60.978 23.597 60.6723 23.597 60.271V58.164H24.234ZM28.6135 58.164L26.3035 63.806H25.6455L26.4015 61.958L24.8545 58.164H25.5615L26.7655 61.272L27.9555 58.164H28.6135ZM34.8651 62L34.2281 61.356C33.9901 61.6033 33.7357 61.7877 33.4651 61.909C33.1944 62.0257 32.8887 62.084 32.5481 62.084C32.2121 62.084 31.9134 62.0233 31.6521 61.902C31.3954 61.7807 31.1947 61.608 31.0501 61.384C30.9101 61.16 30.8401 60.8987 30.8401 60.6C30.8401 60.2593 30.9357 59.9607 31.1271 59.704C31.3231 59.4427 31.6101 59.2373 31.9881 59.088C31.8387 58.9107 31.7314 58.7473 31.6661 58.598C31.6007 58.4487 31.5681 58.2853 31.5681 58.108C31.5681 57.9027 31.6194 57.7183 31.7221 57.555C31.8294 57.387 31.9811 57.2563 32.1771 57.163C32.3731 57.0697 32.5994 57.023 32.8561 57.023C33.1081 57.023 33.3274 57.072 33.5141 57.17C33.7007 57.268 33.8407 57.4057 33.9341 57.583C34.0274 57.7557 34.0694 57.9493 34.0601 58.164H33.4231C33.4277 57.9727 33.3741 57.8233 33.2621 57.716C33.1501 57.604 33.0054 57.548 32.8281 57.548C32.6414 57.548 32.4897 57.6017 32.3731 57.709C32.2611 57.8117 32.2051 57.9447 32.2051 58.108C32.2051 58.248 32.2424 58.3833 32.3171 58.514C32.3964 58.6447 32.5271 58.8057 32.7091 58.997L34.1651 60.46L34.2911 60.264L34.7671 59.466H35.4531L34.8791 60.46C34.7997 60.6 34.7064 60.747 34.5991 60.901L35.6981 62H34.8651ZM32.5481 61.538C32.8001 61.538 33.0264 61.489 33.2271 61.391C33.4324 61.293 33.6261 61.1413 33.8081 60.936L32.3731 59.494C31.7757 59.7227 31.4771 60.0843 31.4771 60.579C31.4771 60.8543 31.5751 61.083 31.7711 61.265C31.9717 61.447 32.2307 61.538 32.5481 61.538ZM39.5191 62.063C39.2251 62.063 38.9614 62.014 38.7281 61.916C38.4947 61.8133 38.3104 61.6733 38.1751 61.496C38.0397 61.314 37.9651 61.1063 37.9511 60.873H38.6091C38.6277 61.0643 38.7164 61.2207 38.8751 61.342C39.0384 61.4633 39.2507 61.524 39.5121 61.524C39.7547 61.524 39.9461 61.4703 40.0861 61.363C40.2261 61.2557 40.2961 61.1203 40.2961 60.957C40.2961 60.789 40.2214 60.6653 40.0721 60.586C39.9227 60.502 39.6917 60.4203 39.3791 60.341C39.0944 60.2663 38.8611 60.1917 38.6791 60.117C38.5017 60.0377 38.3477 59.9233 38.2171 59.774C38.0911 59.62 38.0281 59.4193 38.0281 59.172C38.0281 58.976 38.0864 58.7963 38.2031 58.633C38.3197 58.4697 38.4854 58.3413 38.7001 58.248C38.9147 58.15 39.1597 58.101 39.4351 58.101C39.8597 58.101 40.2027 58.2083 40.4641 58.423C40.7254 58.6377 40.8654 58.9317 40.8841 59.305H40.2471C40.2331 59.1043 40.1514 58.9433 40.0021 58.822C39.8574 58.7007 39.6614 58.64 39.4141 58.64C39.1854 58.64 39.0034 58.689 38.8681 58.787C38.7327 58.885 38.6651 59.0133 38.6651 59.172C38.6651 59.298 38.7047 59.403 38.7841 59.487C38.8681 59.5663 38.9707 59.6317 39.0921 59.683C39.2181 59.7297 39.3907 59.7833 39.6101 59.844C39.8854 59.9187 40.1094 59.9933 40.2821 60.068C40.4547 60.138 40.6017 60.2453 40.7231 60.39C40.8491 60.5347 40.9144 60.7237 40.9191 60.957C40.9191 61.167 40.8607 61.356 40.7441 61.524C40.6274 61.692 40.4617 61.825 40.2471 61.923C40.0371 62.0163 39.7944 62.063 39.5191 62.063ZM45.3183 59.935C45.3183 60.0563 45.3113 60.1847 45.2973 60.32H42.2313C42.2546 60.698 42.383 60.9943 42.6163 61.209C42.8543 61.419 43.1413 61.524 43.4773 61.524C43.7526 61.524 43.9813 61.461 44.1633 61.335C44.35 61.2043 44.4806 61.0317 44.5553 60.817H45.2413C45.1386 61.1857 44.9333 61.4867 44.6253 61.72C44.3173 61.9487 43.9346 62.063 43.4773 62.063C43.1133 62.063 42.7866 61.9813 42.4973 61.818C42.2126 61.6547 41.9886 61.4237 41.8253 61.125C41.662 60.8217 41.5803 60.4717 41.5803 60.075C41.5803 59.6783 41.6596 59.3307 41.8183 59.032C41.977 58.7333 42.1986 58.5047 42.4833 58.346C42.7726 58.1827 43.104 58.101 43.4773 58.101C43.8413 58.101 44.1633 58.1803 44.4433 58.339C44.7233 58.4977 44.938 58.717 45.0873 58.997C45.2413 59.2723 45.3183 59.585 45.3183 59.935ZM44.6603 59.802C44.6603 59.5593 44.6066 59.3517 44.4993 59.179C44.392 59.0017 44.245 58.8687 44.0583 58.78C43.8763 58.6867 43.6733 58.64 43.4493 58.64C43.1273 58.64 42.852 58.7427 42.6233 58.948C42.3993 59.1533 42.271 59.438 42.2383 59.802H44.6603ZM46.7961 56.82V62H46.1591V56.82H46.7961ZM48.5188 56.82V62H47.8818V56.82H48.5188ZM51.2326 60.068C51.2326 59.676 51.312 59.333 51.4706 59.039C51.6293 58.7403 51.8463 58.5093 52.1216 58.346C52.4016 58.1827 52.712 58.101 53.0526 58.101C53.3886 58.101 53.6803 58.1733 53.9276 58.318C54.175 58.4627 54.3593 58.6447 54.4806 58.864V58.164H55.1246V62H54.4806V61.286C54.3546 61.51 54.1656 61.6967 53.9136 61.846C53.6663 61.9907 53.377 62.063 53.0456 62.063C52.705 62.063 52.397 61.979 52.1216 61.811C51.8463 61.643 51.6293 61.4073 51.4706 61.104C51.312 60.8007 51.2326 60.4553 51.2326 60.068ZM54.4806 60.075C54.4806 59.7857 54.4223 59.5337 54.3056 59.319C54.189 59.1043 54.0303 58.941 53.8296 58.829C53.6336 58.7123 53.4166 58.654 53.1786 58.654C52.9406 58.654 52.7236 58.71 52.5276 58.822C52.3316 58.934 52.1753 59.0973 52.0586 59.312C51.942 59.5267 51.8836 59.7787 51.8836 60.068C51.8836 60.362 51.942 60.6187 52.0586 60.838C52.1753 61.0527 52.3316 61.2183 52.5276 61.335C52.7236 61.447 52.9406 61.503 53.1786 61.503C53.4166 61.503 53.6336 61.447 53.8296 61.335C54.0303 61.2183 54.189 61.0527 54.3056 60.838C54.4223 60.6187 54.4806 60.3643 54.4806 60.075ZM59.6031 58.164V62H58.9661V61.433C58.8448 61.629 58.6744 61.783 58.4551 61.895C58.2404 62.0023 58.0024 62.056 57.7411 62.056C57.4424 62.056 57.1741 61.9953 56.9361 61.874C56.6981 61.748 56.5091 61.5613 56.3691 61.314C56.2338 61.0667 56.1661 60.7657 56.1661 60.411V58.164H56.7961V60.327C56.7961 60.705 56.8918 60.9967 57.0831 61.202C57.2744 61.4027 57.5358 61.503 57.8671 61.503C58.2078 61.503 58.4761 61.398 58.6721 61.188C58.8681 60.978 58.9661 60.6723 58.9661 60.271V58.164H59.6031ZM61.4556 58.689V60.95C61.4556 61.1367 61.4953 61.2697 61.5746 61.349C61.654 61.4237 61.7916 61.461 61.9876 61.461H62.4566V62H61.8826C61.528 62 61.262 61.9183 61.0846 61.755C60.9073 61.5917 60.8186 61.3233 60.8186 60.95V58.689H60.3216V58.164H60.8186V57.198H61.4556V58.164H62.4566V58.689H61.4556ZM64.9015 62.063C64.5421 62.063 64.2155 61.9813 63.9215 61.818C63.6321 61.6547 63.4035 61.4237 63.2355 61.125C63.0721 60.8217 62.9905 60.4717 62.9905 60.075C62.9905 59.683 63.0745 59.3377 63.2425 59.039C63.4151 58.7357 63.6485 58.5047 63.9425 58.346C64.2365 58.1827 64.5655 58.101 64.9295 58.101C65.2935 58.101 65.6225 58.1827 65.9165 58.346C66.2105 58.5047 66.4415 58.7333 66.6095 59.032C66.7821 59.3307 66.8685 59.6783 66.8685 60.075C66.8685 60.4717 66.7798 60.8217 66.6025 61.125C66.4298 61.4237 66.1941 61.6547 65.8955 61.818C65.5968 61.9813 65.2655 62.063 64.9015 62.063ZM64.9015 61.503C65.1301 61.503 65.3448 61.4493 65.5455 61.342C65.7461 61.2347 65.9071 61.0737 66.0285 60.859C66.1545 60.6443 66.2175 60.383 66.2175 60.075C66.2175 59.767 66.1568 59.5057 66.0355 59.291C65.9141 59.0763 65.7555 58.9177 65.5595 58.815C65.3635 58.7077 65.1511 58.654 64.9225 58.654C64.6891 58.654 64.4745 58.7077 64.2785 58.815C64.0871 58.9177 63.9331 59.0763 63.8165 59.291C63.6998 59.5057 63.6415 59.767 63.6415 60.075C63.6415 60.3877 63.6975 60.6513 63.8095 60.866C63.9261 61.0807 64.0801 61.2417 64.2715 61.349C64.4628 61.4517 64.6728 61.503 64.9015 61.503ZM72.319 58.094C72.6177 58.094 72.8837 58.157 73.117 58.283C73.3503 58.4043 73.5347 58.5887 73.67 58.836C73.8053 59.0833 73.873 59.3843 73.873 59.739V62H73.243V59.83C73.243 59.4473 73.1473 59.1557 72.956 58.955C72.7693 58.7497 72.515 58.647 72.193 58.647C71.8617 58.647 71.598 58.7543 71.402 58.969C71.206 59.179 71.108 59.4847 71.108 59.886V62H70.478V59.83C70.478 59.4473 70.3823 59.1557 70.191 58.955C70.0043 58.7497 69.75 58.647 69.428 58.647C69.0967 58.647 68.833 58.7543 68.637 58.969C68.441 59.179 68.343 59.4847 68.343 59.886V62H67.706V58.164H68.343V58.717C68.469 58.5163 68.637 58.3623 68.847 58.255C69.0617 58.1477 69.2973 58.094 69.554 58.094C69.876 58.094 70.1607 58.1663 70.408 58.311C70.6553 58.4557 70.8397 58.668 70.961 58.948C71.0683 58.6773 71.2457 58.4673 71.493 58.318C71.7403 58.1687 72.0157 58.094 72.319 58.094ZM74.6799 60.068C74.6799 59.676 74.7592 59.333 74.9179 59.039C75.0766 58.7403 75.2936 58.5093 75.5689 58.346C75.8489 58.1827 76.1592 58.101 76.4999 58.101C76.8359 58.101 77.1276 58.1733 77.3749 58.318C77.6222 58.4627 77.8066 58.6447 77.9279 58.864V58.164H78.5719V62H77.9279V61.286C77.8019 61.51 77.6129 61.6967 77.3609 61.846C77.1136 61.9907 76.8242 62.063 76.4929 62.063C76.1522 62.063 75.8442 61.979 75.5689 61.811C75.2936 61.643 75.0766 61.4073 74.9179 61.104C74.7592 60.8007 74.6799 60.4553 74.6799 60.068ZM77.9279 60.075C77.9279 59.7857 77.8696 59.5337 77.7529 59.319C77.6362 59.1043 77.4776 58.941 77.2769 58.829C77.0809 58.7123 76.8639 58.654 76.6259 58.654C76.3879 58.654 76.1709 58.71 75.9749 58.822C75.7789 58.934 75.6226 59.0973 75.5059 59.312C75.3892 59.5267 75.3309 59.7787 75.3309 60.068C75.3309 60.362 75.3892 60.6187 75.5059 60.838C75.6226 61.0527 75.7789 61.2183 75.9749 61.335C76.1709 61.447 76.3879 61.503 76.6259 61.503C76.8639 61.503 77.0809 61.447 77.2769 61.335C77.4776 61.2183 77.6362 61.0527 77.7529 60.838C77.8696 60.6187 77.9279 60.3643 77.9279 60.075ZM80.4254 58.689V60.95C80.4254 61.1367 80.465 61.2697 80.5444 61.349C80.6237 61.4237 80.7614 61.461 80.9574 61.461H81.4264V62H80.8524C80.4977 62 80.2317 61.9183 80.0544 61.755C79.877 61.5917 79.7884 61.3233 79.7884 60.95V58.689H79.2914V58.164H79.7884V57.198H80.4254V58.164H81.4264V58.689H80.4254ZM82.5272 57.541C82.4058 57.541 82.3032 57.499 82.2192 57.415C82.1352 57.331 82.0932 57.2283 82.0932 57.107C82.0932 56.9857 82.1352 56.883 82.2192 56.799C82.3032 56.715 82.4058 56.673 82.5272 56.673C82.6438 56.673 82.7418 56.715 82.8212 56.799C82.9052 56.883 82.9472 56.9857 82.9472 57.107C82.9472 57.2283 82.9052 57.331 82.8212 57.415C82.7418 57.499 82.6438 57.541 82.5272 57.541ZM82.8352 58.164V62H82.1982V58.164H82.8352ZM83.6828 60.075C83.6828 59.6783 83.7622 59.333 83.9208 59.039C84.0795 58.7403 84.2988 58.5093 84.5788 58.346C84.8635 58.1827 85.1878 58.101 85.5518 58.101C86.0232 58.101 86.4105 58.2153 86.7138 58.444C87.0218 58.6727 87.2248 58.99 87.3228 59.396H86.6368C86.5715 59.1627 86.4432 58.9783 86.2518 58.843C86.0652 58.7077 85.8318 58.64 85.5518 58.64C85.1878 58.64 84.8938 58.766 84.6698 59.018C84.4458 59.2653 84.3338 59.6177 84.3338 60.075C84.3338 60.537 84.4458 60.894 84.6698 61.146C84.8938 61.398 85.1878 61.524 85.5518 61.524C85.8318 61.524 86.0652 61.4587 86.2518 61.328C86.4385 61.1973 86.5668 61.0107 86.6368 60.768H87.3228C87.2202 61.16 87.0148 61.475 86.7068 61.713C86.3988 61.9463 86.0138 62.063 85.5518 62.063C85.1878 62.063 84.8635 61.9813 84.5788 61.818C84.2988 61.6547 84.0795 61.4237 83.9208 61.125C83.7622 60.8263 83.6828 60.4763 83.6828 60.075ZM87.9348 60.068C87.9348 59.676 88.0141 59.333 88.1728 59.039C88.3315 58.7403 88.5485 58.5093 88.8238 58.346C89.1038 58.1827 89.4141 58.101 89.7548 58.101C90.0908 58.101 90.3825 58.1733 90.6298 58.318C90.8771 58.4627 91.0615 58.6447 91.1828 58.864V58.164H91.8268V62H91.1828V61.286C91.0568 61.51 90.8678 61.6967 90.6158 61.846C90.3685 61.9907 90.0791 62.063 89.7478 62.063C89.4071 62.063 89.0991 61.979 88.8238 61.811C88.5485 61.643 88.3315 61.4073 88.1728 61.104C88.0141 60.8007 87.9348 60.4553 87.9348 60.068ZM91.1828 60.075C91.1828 59.7857 91.1245 59.5337 91.0078 59.319C90.8911 59.1043 90.7325 58.941 90.5318 58.829C90.3358 58.7123 90.1188 58.654 89.8808 58.654C89.6428 58.654 89.4258 58.71 89.2298 58.822C89.0338 58.934 88.8775 59.0973 88.7608 59.312C88.6441 59.5267 88.5858 59.7787 88.5858 60.068C88.5858 60.362 88.6441 60.6187 88.7608 60.838C88.8775 61.0527 89.0338 61.2183 89.2298 61.335C89.4258 61.447 89.6428 61.503 89.8808 61.503C90.1188 61.503 90.3358 61.447 90.5318 61.335C90.7325 61.2183 90.8911 61.0527 91.0078 60.838C91.1245 60.6187 91.1828 60.3643 91.1828 60.075ZM93.5403 56.82V62H92.9033V56.82H93.5403ZM95.2629 56.82V62H94.6259V56.82H95.2629ZM99.6526 58.164L97.3426 63.806H96.6846L97.4406 61.958L95.8936 58.164H96.6006L97.8046 61.272L98.9946 58.164H99.6526ZM102.796 58.878C102.927 58.6493 103.118 58.4627 103.37 58.318C103.622 58.1733 103.909 58.101 104.231 58.101C104.576 58.101 104.887 58.1827 105.162 58.346C105.437 58.5093 105.654 58.7403 105.813 59.039C105.972 59.333 106.051 59.676 106.051 60.068C106.051 60.4553 105.972 60.8007 105.813 61.104C105.654 61.4073 105.435 61.643 105.155 61.811C104.88 61.979 104.572 62.063 104.231 62.063C103.9 62.063 103.608 61.9907 103.356 61.846C103.109 61.7013 102.922 61.517 102.796 61.293V62H102.159V56.82H102.796V58.878ZM105.4 60.068C105.4 59.7787 105.342 59.5267 105.225 59.312C105.108 59.0973 104.95 58.934 104.749 58.822C104.553 58.71 104.336 58.654 104.098 58.654C103.865 58.654 103.648 58.7123 103.447 58.829C103.251 58.941 103.092 59.1067 102.971 59.326C102.854 59.5407 102.796 59.7903 102.796 60.075C102.796 60.3643 102.854 60.6187 102.971 60.838C103.092 61.0527 103.251 61.2183 103.447 61.335C103.648 61.447 103.865 61.503 104.098 61.503C104.336 61.503 104.553 61.447 104.749 61.335C104.95 61.2183 105.108 61.0527 105.225 60.838C105.342 60.6187 105.4 60.362 105.4 60.068ZM106.652 60.068C106.652 59.676 106.731 59.333 106.89 59.039C107.048 58.7403 107.265 58.5093 107.541 58.346C107.821 58.1827 108.131 58.101 108.472 58.101C108.808 58.101 109.099 58.1733 109.347 58.318C109.594 58.4627 109.778 58.6447 109.9 58.864V58.164H110.544V62H109.9V61.286C109.774 61.51 109.585 61.6967 109.333 61.846C109.085 61.9907 108.796 62.063 108.465 62.063C108.124 62.063 107.816 61.979 107.541 61.811C107.265 61.643 107.048 61.4073 106.89 61.104C106.731 60.8007 106.652 60.4553 106.652 60.068ZM109.9 60.075C109.9 59.7857 109.841 59.5337 109.725 59.319C109.608 59.1043 109.449 58.941 109.249 58.829C109.053 58.7123 108.836 58.654 108.598 58.654C108.36 58.654 108.143 58.71 107.947 58.822C107.751 58.934 107.594 59.0973 107.478 59.312C107.361 59.5267 107.303 59.7787 107.303 60.068C107.303 60.362 107.361 60.6187 107.478 60.838C107.594 61.0527 107.751 61.2183 107.947 61.335C108.143 61.447 108.36 61.503 108.598 61.503C108.836 61.503 109.053 61.447 109.249 61.335C109.449 61.2183 109.608 61.0527 109.725 60.838C109.841 60.6187 109.9 60.3643 109.9 60.075ZM112.978 62.063C112.684 62.063 112.42 62.014 112.187 61.916C111.954 61.8133 111.769 61.6733 111.634 61.496C111.499 61.314 111.424 61.1063 111.41 60.873H112.068C112.087 61.0643 112.175 61.2207 112.334 61.342C112.497 61.4633 112.71 61.524 112.971 61.524C113.214 61.524 113.405 61.4703 113.545 61.363C113.685 61.2557 113.755 61.1203 113.755 60.957C113.755 60.789 113.68 60.6653 113.531 60.586C113.382 60.502 113.151 60.4203 112.838 60.341C112.553 60.2663 112.32 60.1917 112.138 60.117C111.961 60.0377 111.807 59.9233 111.676 59.774C111.55 59.62 111.487 59.4193 111.487 59.172C111.487 58.976 111.545 58.7963 111.662 58.633C111.779 58.4697 111.944 58.3413 112.159 58.248C112.374 58.15 112.619 58.101 112.894 58.101C113.319 58.101 113.662 58.2083 113.923 58.423C114.184 58.6377 114.324 58.9317 114.343 59.305H113.706C113.692 59.1043 113.61 58.9433 113.461 58.822C113.316 58.7007 113.12 58.64 112.873 58.64C112.644 58.64 112.462 58.689 112.327 58.787C112.192 58.885 112.124 59.0133 112.124 59.172C112.124 59.298 112.164 59.403 112.243 59.487C112.327 59.5663 112.43 59.6317 112.551 59.683C112.677 59.7297 112.85 59.7833 113.069 59.844C113.344 59.9187 113.568 59.9933 113.741 60.068C113.914 60.138 114.061 60.2453 114.182 60.39C114.308 60.5347 114.373 60.7237 114.378 60.957C114.378 61.167 114.32 61.356 114.203 61.524C114.086 61.692 113.921 61.825 113.706 61.923C113.496 62.0163 113.253 62.063 112.978 62.063ZM118.777 59.935C118.777 60.0563 118.77 60.1847 118.756 60.32H115.69C115.714 60.698 115.842 60.9943 116.075 61.209C116.313 61.419 116.6 61.524 116.936 61.524C117.212 61.524 117.44 61.461 117.622 61.335C117.809 61.2043 117.94 61.0317 118.014 60.817H118.7C118.598 61.1857 118.392 61.4867 118.084 61.72C117.776 61.9487 117.394 62.063 116.936 62.063C116.572 62.063 116.246 61.9813 115.956 61.818C115.672 61.6547 115.448 61.4237 115.284 61.125C115.121 60.8217 115.039 60.4717 115.039 60.075C115.039 59.6783 115.119 59.3307 115.277 59.032C115.436 58.7333 115.658 58.5047 115.942 58.346C116.232 58.1827 116.563 58.101 116.936 58.101C117.3 58.101 117.622 58.1803 117.902 58.339C118.182 58.4977 118.397 58.717 118.546 58.997C118.7 59.2723 118.777 59.585 118.777 59.935ZM118.119 59.802C118.119 59.5593 118.066 59.3517 117.958 59.179C117.851 59.0017 117.704 58.8687 117.517 58.78C117.335 58.6867 117.132 58.64 116.908 58.64C116.586 58.64 116.311 58.7427 116.082 58.948C115.858 59.1533 115.73 59.438 115.697 59.802H118.119ZM119.38 60.068C119.38 59.676 119.459 59.333 119.618 59.039C119.777 58.7403 119.994 58.5093 120.269 58.346C120.549 58.1827 120.862 58.101 121.207 58.101C121.506 58.101 121.783 58.171 122.04 58.311C122.297 58.4463 122.493 58.626 122.628 58.85V56.82H123.272V62H122.628V61.279C122.502 61.5077 122.315 61.6967 122.068 61.846C121.821 61.9907 121.531 62.063 121.2 62.063C120.859 62.063 120.549 61.979 120.269 61.811C119.994 61.643 119.777 61.4073 119.618 61.104C119.459 60.8007 119.38 60.4553 119.38 60.068ZM122.628 60.075C122.628 59.7857 122.57 59.5337 122.453 59.319C122.336 59.1043 122.178 58.941 121.977 58.829C121.781 58.7123 121.564 58.654 121.326 58.654C121.088 58.654 120.871 58.71 120.675 58.822C120.479 58.934 120.323 59.0973 120.206 59.312C120.089 59.5267 120.031 59.7787 120.031 60.068C120.031 60.362 120.089 60.6187 120.206 60.838C120.323 61.0527 120.479 61.2183 120.675 61.335C120.871 61.447 121.088 61.503 121.326 61.503C121.564 61.503 121.781 61.447 121.977 61.335C122.178 61.2183 122.336 61.0527 122.453 60.838C122.57 60.6187 122.628 60.3643 122.628 60.075ZM18.212 73.063C17.8527 73.063 17.526 72.9813 17.232 72.818C16.9427 72.6547 16.714 72.4237 16.546 72.125C16.3827 71.8217 16.301 71.4717 16.301 71.075C16.301 70.683 16.385 70.3377 16.553 70.039C16.7257 69.7357 16.959 69.5047 17.253 69.346C17.547 69.1827 17.876 69.101 18.24 69.101C18.604 69.101 18.933 69.1827 19.227 69.346C19.521 69.5047 19.752 69.7333 19.92 70.032C20.0927 70.3307 20.179 70.6783 20.179 71.075C20.179 71.4717 20.0903 71.8217 19.913 72.125C19.7403 72.4237 19.5047 72.6547 19.206 72.818C18.9073 72.9813 18.576 73.063 18.212 73.063ZM18.212 72.503C18.4407 72.503 18.6553 72.4493 18.856 72.342C19.0567 72.2347 19.2177 72.0737 19.339 71.859C19.465 71.6443 19.528 71.383 19.528 71.075C19.528 70.767 19.4673 70.5057 19.346 70.291C19.2247 70.0763 19.066 69.9177 18.87 69.815C18.674 69.7077 18.4617 69.654 18.233 69.654C17.9997 69.654 17.785 69.7077 17.589 69.815C17.3977 69.9177 17.2437 70.0763 17.127 70.291C17.0103 70.5057 16.952 70.767 16.952 71.075C16.952 71.3877 17.008 71.6513 17.12 71.866C17.2367 72.0807 17.3907 72.2417 17.582 72.349C17.7733 72.4517 17.9833 72.503 18.212 72.503ZM22.8855 69.094C23.3522 69.094 23.7302 69.2363 24.0195 69.521C24.3089 69.801 24.4535 70.207 24.4535 70.739V73H23.8235V70.83C23.8235 70.4473 23.7279 70.1557 23.5365 69.955C23.3452 69.7497 23.0839 69.647 22.7525 69.647C22.4165 69.647 22.1482 69.752 21.9475 69.962C21.7515 70.172 21.6535 70.4777 21.6535 70.879V73H21.0165V69.164H21.6535V69.71C21.7795 69.514 21.9499 69.3623 22.1645 69.255C22.3839 69.1477 22.6242 69.094 22.8855 69.094ZM31.9733 69.094C32.272 69.094 32.538 69.157 32.7713 69.283C33.0046 69.4043 33.189 69.5887 33.3243 69.836C33.4596 70.0833 33.5273 70.3843 33.5273 70.739V73H32.8973V70.83C32.8973 70.4473 32.8016 70.1557 32.6103 69.955C32.4236 69.7497 32.1693 69.647 31.8473 69.647C31.516 69.647 31.2523 69.7543 31.0563 69.969C30.8603 70.179 30.7623 70.4847 30.7623 70.886V73H30.1323V70.83C30.1323 70.4473 30.0366 70.1557 29.8453 69.955C29.6586 69.7497 29.4043 69.647 29.0823 69.647C28.751 69.647 28.4873 69.7543 28.2913 69.969C28.0953 70.179 27.9973 70.4847 27.9973 70.886V73H27.3603V69.164H27.9973V69.717C28.1233 69.5163 28.2913 69.3623 28.5013 69.255C28.716 69.1477 28.9516 69.094 29.2083 69.094C29.5303 69.094 29.815 69.1663 30.0623 69.311C30.3096 69.4557 30.494 69.668 30.6153 69.948C30.7226 69.6773 30.9 69.4673 31.1473 69.318C31.3946 69.1687 31.67 69.094 31.9733 69.094ZM34.3342 71.068C34.3342 70.676 34.4135 70.333 34.5722 70.039C34.7309 69.7403 34.9479 69.5093 35.2232 69.346C35.5032 69.1827 35.8135 69.101 36.1542 69.101C36.4902 69.101 36.7819 69.1733 37.0292 69.318C37.2765 69.4627 37.4609 69.6447 37.5822 69.864V69.164H38.2262V73H37.5822V72.286C37.4562 72.51 37.2672 72.6967 37.0152 72.846C36.7679 72.9907 36.4785 73.063 36.1472 73.063C35.8065 73.063 35.4985 72.979 35.2232 72.811C34.9479 72.643 34.7309 72.4073 34.5722 72.104C34.4135 71.8007 34.3342 71.4553 34.3342 71.068ZM37.5822 71.075C37.5822 70.7857 37.5239 70.5337 37.4072 70.319C37.2905 70.1043 37.1319 69.941 36.9312 69.829C36.7352 69.7123 36.5182 69.654 36.2802 69.654C36.0422 69.654 35.8252 69.71 35.6292 69.822C35.4332 69.934 35.2769 70.0973 35.1602 70.312C35.0435 70.5267 34.9852 70.7787 34.9852 71.068C34.9852 71.362 35.0435 71.6187 35.1602 71.838C35.2769 72.0527 35.4332 72.2183 35.6292 72.335C35.8252 72.447 36.0422 72.503 36.2802 72.503C36.5182 72.503 36.7352 72.447 36.9312 72.335C37.1319 72.2183 37.2905 72.0527 37.4072 71.838C37.5239 71.6187 37.5822 71.3643 37.5822 71.075ZM39.9397 69.787C40.0517 69.5677 40.2103 69.3973 40.4157 69.276C40.6257 69.1547 40.88 69.094 41.1787 69.094V69.752H41.0107C40.2967 69.752 39.9397 70.1393 39.9397 70.914V73H39.3027V69.164H39.9397V69.787ZM44.056 73L42.551 71.306V73H41.914V67.82H42.551V70.865L44.028 69.164H44.917L43.111 71.075L44.924 73H44.056ZM49.0165 70.935C49.0165 71.0563 49.0095 71.1847 48.9955 71.32H45.9295C45.9529 71.698 46.0812 71.9943 46.3145 72.209C46.5525 72.419 46.8395 72.524 47.1755 72.524C47.4509 72.524 47.6795 72.461 47.8615 72.335C48.0482 72.2043 48.1789 72.0317 48.2535 71.817H48.9395C48.8369 72.1857 48.6315 72.4867 48.3235 72.72C48.0155 72.9487 47.6329 73.063 47.1755 73.063C46.8115 73.063 46.4849 72.9813 46.1955 72.818C45.9109 72.6547 45.6869 72.4237 45.5235 72.125C45.3602 71.8217 45.2785 71.4717 45.2785 71.075C45.2785 70.6783 45.3579 70.3307 45.5165 70.032C45.6752 69.7333 45.8969 69.5047 46.1815 69.346C46.4709 69.1827 46.8022 69.101 47.1755 69.101C47.5395 69.101 47.8615 69.1803 48.1415 69.339C48.4215 69.4977 48.6362 69.717 48.7855 69.997C48.9395 70.2723 49.0165 70.585 49.0165 70.935ZM48.3585 70.802C48.3585 70.5593 48.3049 70.3517 48.1975 70.179C48.0902 70.0017 47.9432 69.8687 47.7565 69.78C47.5745 69.6867 47.3715 69.64 47.1475 69.64C46.8255 69.64 46.5502 69.7427 46.3215 69.948C46.0975 70.1533 45.9692 70.438 45.9365 70.802H48.3585ZM50.6344 69.689V71.95C50.6344 72.1367 50.674 72.2697 50.7534 72.349C50.8327 72.4237 50.9704 72.461 51.1664 72.461H51.6354V73H51.0614C50.7067 73 50.4407 72.9183 50.2634 72.755C50.086 72.5917 49.9974 72.3233 49.9974 71.95V69.689H49.5004V69.164H49.9974V68.198H50.6344V69.164H51.6354V69.689H50.6344Z" fill="#090136"/>
<path d="M60.9484 35.121V35.639H58.8274V37.284H60.5494V37.802H58.8274V40H58.1904V35.121H60.9484ZM62.3547 36.787C62.4667 36.5677 62.6254 36.3973 62.8307 36.276C63.0407 36.1547 63.295 36.094 63.5937 36.094V36.752H63.4257C62.7117 36.752 62.3547 37.1393 62.3547 37.914V40H61.7177V36.164H62.3547V36.787ZM66.002 40.063C65.6427 40.063 65.316 39.9813 65.022 39.818C64.7327 39.6547 64.504 39.4237 64.336 39.125C64.1727 38.8217 64.091 38.4717 64.091 38.075C64.091 37.683 64.175 37.3377 64.343 37.039C64.5157 36.7357 64.749 36.5047 65.043 36.346C65.337 36.1827 65.666 36.101 66.03 36.101C66.394 36.101 66.723 36.1827 67.017 36.346C67.311 36.5047 67.542 36.7333 67.71 37.032C67.8827 37.3307 67.969 37.6783 67.969 38.075C67.969 38.4717 67.8804 38.8217 67.703 39.125C67.5304 39.4237 67.2947 39.6547 66.996 39.818C66.6974 39.9813 66.366 40.063 66.002 40.063ZM66.002 39.503C66.2307 39.503 66.4454 39.4493 66.646 39.342C66.8467 39.2347 67.0077 39.0737 67.129 38.859C67.255 38.6443 67.318 38.383 67.318 38.075C67.318 37.767 67.2574 37.5057 67.136 37.291C67.0147 37.0763 66.856 36.9177 66.66 36.815C66.464 36.7077 66.2517 36.654 66.023 36.654C65.7897 36.654 65.575 36.7077 65.379 36.815C65.1877 36.9177 65.0337 37.0763 64.917 37.291C64.8004 37.5057 64.742 37.767 64.742 38.075C64.742 38.3877 64.798 38.6513 64.91 38.866C65.0267 39.0807 65.1807 39.2417 65.372 39.349C65.5634 39.4517 65.7734 39.503 66.002 39.503ZM70.6756 36.094C71.1422 36.094 71.5202 36.2363 71.8096 36.521C72.0989 36.801 72.2436 37.207 72.2436 37.739V40H71.6136V37.83C71.6136 37.4473 71.5179 37.1557 71.3266 36.955C71.1352 36.7497 70.8739 36.647 70.5426 36.647C70.2066 36.647 69.9382 36.752 69.7376 36.962C69.5416 37.172 69.4436 37.4777 69.4436 37.879V40H68.8066V36.164H69.4436V36.71C69.5696 36.514 69.7399 36.3623 69.9546 36.255C70.1739 36.1477 70.4142 36.094 70.6756 36.094ZM74.0611 36.689V38.95C74.0611 39.1367 74.1008 39.2697 74.1801 39.349C74.2595 39.4237 74.3971 39.461 74.5931 39.461H75.0621V40H74.4881C74.1335 40 73.8675 39.9183 73.6901 39.755C73.5128 39.5917 73.4241 39.3233 73.4241 38.95V36.689H72.9271V36.164H73.4241V35.198H74.0611V36.164H75.0621V36.689H74.0611ZM76.4709 36.787C76.5829 36.5677 76.7416 36.3973 76.9469 36.276C77.1569 36.1547 77.4113 36.094 77.7099 36.094V36.752H77.5419C76.8279 36.752 76.4709 37.1393 76.4709 37.914V40H75.8339V36.164H76.4709V36.787ZM81.8473 36.164V40H81.2103V39.433C81.0889 39.629 80.9186 39.783 80.6993 39.895C80.4846 40.0023 80.2466 40.056 79.9853 40.056C79.6866 40.056 79.4183 39.9953 79.1803 39.874C78.9423 39.748 78.7533 39.5613 78.6133 39.314C78.4779 39.0667 78.4103 38.7657 78.4103 38.411V36.164H79.0403V38.327C79.0403 38.705 79.1359 38.9967 79.3273 39.202C79.5186 39.4027 79.7799 39.503 80.1113 39.503C80.4519 39.503 80.7203 39.398 80.9163 39.188C81.1123 38.978 81.2103 38.6723 81.2103 38.271V36.164H81.8473ZM84.7918 36.094C85.2585 36.094 85.6365 36.2363 85.9258 36.521C86.2151 36.801 86.3598 37.207 86.3598 37.739V40H85.7298V37.83C85.7298 37.4473 85.6341 37.1557 85.4428 36.955C85.2515 36.7497 84.9901 36.647 84.6588 36.647C84.3228 36.647 84.0545 36.752 83.8538 36.962C83.6578 37.172 83.5598 37.4777 83.5598 37.879V40H82.9228V36.164H83.5598V36.71C83.6858 36.514 83.8561 36.3623 84.0708 36.255C84.2901 36.1477 84.5305 36.094 84.7918 36.094ZM55.6314 73.063C55.3374 73.063 55.0737 73.014 54.8404 72.916C54.607 72.8133 54.4227 72.6733 54.2874 72.496C54.152 72.314 54.0774 72.1063 54.0634 71.873H54.7214C54.74 72.0643 54.8287 72.2207 54.9874 72.342C55.1507 72.4633 55.363 72.524 55.6244 72.524C55.867 72.524 56.0584 72.4703 56.1984 72.363C56.3384 72.2557 56.4084 72.1203 56.4084 71.957C56.4084 71.789 56.3337 71.6653 56.1844 71.586C56.035 71.502 55.804 71.4203 55.4914 71.341C55.2067 71.2663 54.9734 71.1917 54.7914 71.117C54.614 71.0377 54.46 70.9233 54.3294 70.774C54.2034 70.62 54.1404 70.4193 54.1404 70.172C54.1404 69.976 54.1987 69.7963 54.3154 69.633C54.432 69.4697 54.5977 69.3413 54.8124 69.248C55.027 69.15 55.272 69.101 55.5474 69.101C55.972 69.101 56.315 69.2083 56.5764 69.423C56.8377 69.6377 56.9777 69.9317 56.9964 70.305H56.3594C56.3454 70.1043 56.2637 69.9433 56.1144 69.822C55.9697 69.7007 55.7737 69.64 55.5264 69.64C55.2977 69.64 55.1157 69.689 54.9804 69.787C54.845 69.885 54.7774 70.0133 54.7774 70.172C54.7774 70.298 54.817 70.403 54.8964 70.487C54.9804 70.5663 55.083 70.6317 55.2044 70.683C55.3304 70.7297 55.503 70.7833 55.7224 70.844C55.9977 70.9187 56.2217 70.9933 56.3944 71.068C56.567 71.138 56.714 71.2453 56.8354 71.39C56.9614 71.5347 57.0267 71.7237 57.0314 71.957C57.0314 72.167 56.973 72.356 56.8564 72.524C56.7397 72.692 56.574 72.825 56.3594 72.923C56.1494 73.0163 55.9067 73.063 55.6314 73.063ZM61.4306 70.935C61.4306 71.0563 61.4236 71.1847 61.4096 71.32H58.3436C58.3669 71.698 58.4953 71.9943 58.7286 72.209C58.9666 72.419 59.2536 72.524 59.5896 72.524C59.8649 72.524 60.0936 72.461 60.2756 72.335C60.4623 72.2043 60.5929 72.0317 60.6676 71.817H61.3536C61.2509 72.1857 61.0456 72.4867 60.7376 72.72C60.4296 72.9487 60.0469 73.063 59.5896 73.063C59.2256 73.063 58.8989 72.9813 58.6096 72.818C58.3249 72.6547 58.1009 72.4237 57.9376 72.125C57.7743 71.8217 57.6926 71.4717 57.6926 71.075C57.6926 70.6783 57.7719 70.3307 57.9306 70.032C58.0893 69.7333 58.3109 69.5047 58.5956 69.346C58.8849 69.1827 59.2163 69.101 59.5896 69.101C59.9536 69.101 60.2756 69.1803 60.5556 69.339C60.8356 69.4977 61.0503 69.717 61.1996 69.997C61.3536 70.2723 61.4306 70.585 61.4306 70.935ZM60.7726 70.802C60.7726 70.5593 60.7189 70.3517 60.6116 70.179C60.5043 70.0017 60.3573 69.8687 60.1706 69.78C59.9886 69.6867 59.7856 69.64 59.5616 69.64C59.2396 69.64 58.9643 69.7427 58.7356 69.948C58.5116 70.1533 58.3833 70.438 58.3506 70.802H60.7726ZM64.1404 69.094C64.6071 69.094 64.9851 69.2363 65.2744 69.521C65.5638 69.801 65.7084 70.207 65.7084 70.739V73H65.0784V70.83C65.0784 70.4473 64.9828 70.1557 64.7914 69.955C64.6001 69.7497 64.3388 69.647 64.0074 69.647C63.6714 69.647 63.4031 69.752 63.2024 69.962C63.0064 70.172 62.9084 70.4777 62.9084 70.879V73H62.2714V69.164H62.9084V69.71C63.0344 69.514 63.2048 69.3623 63.4194 69.255C63.6388 69.1477 63.8791 69.094 64.1404 69.094ZM67.526 69.689V71.95C67.526 72.1367 67.5656 72.2697 67.645 72.349C67.7243 72.4237 67.862 72.461 68.058 72.461H68.527V73H67.953C67.5983 73 67.3323 72.9183 67.155 72.755C66.9776 72.5917 66.889 72.3233 66.889 71.95V69.689H66.392V69.164H66.889V68.198H67.526V69.164H68.527V69.689H67.526ZM69.6278 68.541C69.5064 68.541 69.4038 68.499 69.3198 68.415C69.2358 68.331 69.1938 68.2283 69.1938 68.107C69.1938 67.9857 69.2358 67.883 69.3198 67.799C69.4038 67.715 69.5064 67.673 69.6278 67.673C69.7444 67.673 69.8424 67.715 69.9218 67.799C70.0058 67.883 70.0478 67.9857 70.0478 68.107C70.0478 68.2283 70.0058 68.331 69.9218 68.415C69.8424 68.499 69.7444 68.541 69.6278 68.541ZM69.9358 69.164V73H69.2988V69.164H69.9358ZM75.6344 69.094C75.9331 69.094 76.1991 69.157 76.4324 69.283C76.6658 69.4043 76.8501 69.5887 76.9854 69.836C77.1208 70.0833 77.1884 70.3843 77.1884 70.739V73H76.5584V70.83C76.5584 70.4473 76.4628 70.1557 76.2714 69.955C76.0848 69.7497 75.8304 69.647 75.5084 69.647C75.1771 69.647 74.9134 69.7543 74.7174 69.969C74.5214 70.179 74.4234 70.4847 74.4234 70.886V73H73.7934V70.83C73.7934 70.4473 73.6978 70.1557 73.5064 69.955C73.3198 69.7497 73.0654 69.647 72.7434 69.647C72.4121 69.647 72.1484 69.7543 71.9524 69.969C71.7564 70.179 71.6584 70.4847 71.6584 70.886V73H71.0214V69.164H71.6584V69.717C71.7844 69.5163 71.9524 69.3623 72.1624 69.255C72.3771 69.1477 72.6128 69.094 72.8694 69.094C73.1914 69.094 73.4761 69.1663 73.7234 69.311C73.9708 69.4557 74.1551 69.668 74.2764 69.948C74.3838 69.6773 74.5611 69.4673 74.8084 69.318C75.0558 69.1687 75.3311 69.094 75.6344 69.094ZM81.7333 70.935C81.7333 71.0563 81.7263 71.1847 81.7123 71.32H78.6463C78.6697 71.698 78.798 71.9943 79.0313 72.209C79.2693 72.419 79.5563 72.524 79.8923 72.524C80.1677 72.524 80.3963 72.461 80.5783 72.335C80.765 72.2043 80.8957 72.0317 80.9703 71.817H81.6563C81.5537 72.1857 81.3483 72.4867 81.0403 72.72C80.7323 72.9487 80.3497 73.063 79.8923 73.063C79.5283 73.063 79.2017 72.9813 78.9123 72.818C78.6277 72.6547 78.4037 72.4237 78.2403 72.125C78.077 71.8217 77.9953 71.4717 77.9953 71.075C77.9953 70.6783 78.0747 70.3307 78.2333 70.032C78.392 69.7333 78.6137 69.5047 78.8983 69.346C79.1877 69.1827 79.519 69.101 79.8923 69.101C80.2563 69.101 80.5783 69.1803 80.8583 69.339C81.1383 69.4977 81.353 69.717 81.5023 69.997C81.6563 70.2723 81.7333 70.585 81.7333 70.935ZM81.0753 70.802C81.0753 70.5593 81.0217 70.3517 80.9143 70.179C80.807 70.0017 80.66 69.8687 80.4733 69.78C80.2913 69.6867 80.0883 69.64 79.8643 69.64C79.5423 69.64 79.267 69.7427 79.0383 69.948C78.8143 70.1533 78.686 70.438 78.6533 70.802H81.0753ZM84.4432 69.094C84.9098 69.094 85.2878 69.2363 85.5772 69.521C85.8665 69.801 86.0112 70.207 86.0112 70.739V73H85.3812V70.83C85.3812 70.4473 85.2855 70.1557 85.0942 69.955C84.9028 69.7497 84.6415 69.647 84.3102 69.647C83.9742 69.647 83.7058 69.752 83.5052 69.962C83.3092 70.172 83.2112 70.4777 83.2112 70.879V73H82.5742V69.164H83.2112V69.71C83.3372 69.514 83.5075 69.3623 83.7222 69.255C83.9415 69.1477 84.1818 69.094 84.4432 69.094ZM87.8287 69.689V71.95C87.8287 72.1367 87.8684 72.2697 87.9477 72.349C88.027 72.4237 88.1647 72.461 88.3607 72.461H88.8297V73H88.2557C87.901 73 87.635 72.9183 87.4577 72.755C87.2804 72.5917 87.1917 72.3233 87.1917 71.95V69.689H86.6947V69.164H87.1917V68.198H87.8287V69.164H88.8297V69.689H87.8287Z" fill="white"/>
</svg>
