<svg width="160" height="84" viewBox="0 0 160 84" fill="none" xmlns="http://www.w3.org/2000/svg">
<path d="M149.5 4.74388e-06L28.5 1.82455e-05C22.9772 1.88617e-05 18.5 4.47716 18.5 10L18.5 41.5C18.5 43.1569 17.1479 44.4801 15.4978 44.6298C7.13466 45.3886 3.62489 49.3547 1.46069 53.4103C0.740659 54.7596 1.8961 56.3688 3.40899 56.5927C8.43815 57.3371 13.0616 60.5833 16.0786 63.423C17.7465 64.9929 18.5 67.2498 18.5 69.5403L18.5 73.5C18.5 79.0229 22.9771 83.5 28.5 83.5L149.5 83.5C155.023 83.5 159.5 79.0229 159.5 73.5L159.5 10C159.5 4.47716 155.023 4.12762e-06 149.5 4.74388e-06Z" fill="white"/>
<path d="M35.167 21C34.881 21 34.617 20.9303 34.375 20.791C34.133 20.6443 33.9423 20.4537 33.803 20.219C33.6637 19.977 33.594 19.7093 33.594 19.416V18.745H35.178V19.339C35.178 19.361 35.1817 19.3793 35.189 19.394C35.2037 19.4013 35.2183 19.405 35.233 19.405H39.842C39.8567 19.405 39.8713 19.4013 39.886 19.394C39.9007 19.3793 39.908 19.361 39.908 19.339V17.898C39.908 17.8833 39.9007 17.8723 39.886 17.865C39.8713 17.8503 39.8567 17.843 39.842 17.843H35.167C34.881 17.843 34.617 17.7733 34.375 17.634C34.133 17.4873 33.9423 17.293 33.803 17.051C33.6637 16.809 33.594 16.545 33.594 16.259V14.664C33.594 14.3707 33.6637 14.1067 33.803 13.872C33.9423 13.63 34.133 13.4393 34.375 13.3C34.617 13.1533 34.881 13.08 35.167 13.08H39.93C40.216 13.08 40.4763 13.1533 40.711 13.3C40.953 13.4393 41.1473 13.63 41.294 13.872C41.4407 14.1067 41.514 14.3707 41.514 14.664V15.335H39.908V14.741C39.908 14.719 39.9007 14.7043 39.886 14.697C39.8713 14.6823 39.8567 14.675 39.842 14.675H35.233C35.2183 14.675 35.2037 14.6823 35.189 14.697C35.1817 14.7043 35.178 14.719 35.178 14.741V16.182C35.178 16.1967 35.1817 16.2113 35.189 16.226C35.2037 16.2333 35.2183 16.237 35.233 16.237H39.93C40.216 16.237 40.4763 16.3103 40.711 16.457C40.953 16.5963 41.1473 16.787 41.294 17.029C41.4407 17.271 41.514 17.535 41.514 17.821V19.416C41.514 19.7093 41.4407 19.977 41.294 20.219C41.1473 20.4537 40.953 20.6443 40.711 20.791C40.4763 20.9303 40.216 21 39.93 21H35.167ZM42.7256 21V13.08H44.3096V16.237H49.2266V13.08H50.8106V21H49.2266V17.843H44.3096V21H42.7256ZM52.0931 21V14.664C52.0931 14.3707 52.1627 14.1067 52.3021 13.872C52.4487 13.63 52.6394 13.4393 52.8741 13.3C53.1161 13.1533 53.3837 13.08 53.6771 13.08H58.4181C58.7114 13.08 58.9754 13.1533 59.2101 13.3C59.4521 13.4393 59.6464 13.63 59.7931 13.872C59.9397 14.1067 60.0131 14.3707 60.0131 14.664V21H58.4071V18.393H53.6771V21H52.0931ZM53.6771 16.809H58.4071V14.741C58.4071 14.719 58.3997 14.7043 58.3851 14.697C58.3777 14.6823 58.3631 14.675 58.3411 14.675H53.7431C53.7211 14.675 53.7027 14.6823 53.6881 14.697C53.6807 14.7043 53.6771 14.719 53.6771 14.741V16.809ZM61.0464 21V13.08H62.6194V21H61.0464ZM63.6519 21V13.08H69.6799C69.9659 13.08 70.2263 13.1533 70.4609 13.3C70.7029 13.4393 70.8973 13.63 71.0439 13.872C71.1906 14.1067 71.2639 14.3707 71.2639 14.664V16.182C71.2639 16.2773 71.2566 16.369 71.2419 16.457C71.2273 16.5377 71.2053 16.6183 71.1759 16.699C71.2933 16.853 71.3886 17.0217 71.4619 17.205C71.5353 17.381 71.5719 17.5607 71.5719 17.744V19.416C71.5719 19.7093 71.4986 19.977 71.3519 20.219C71.2053 20.4537 71.0109 20.6443 70.7689 20.791C70.5343 20.9303 70.2703 21 69.9769 21H63.6519ZM65.3019 19.405H69.8999C69.9219 19.405 69.9366 19.4013 69.9439 19.394C69.9586 19.3793 69.9659 19.361 69.9659 19.339V17.832C69.9659 17.8173 69.9586 17.8027 69.9439 17.788C69.9366 17.7733 69.9219 17.766 69.8999 17.766H65.3019C65.2799 17.766 65.2616 17.7733 65.2469 17.788C65.2396 17.8027 65.2359 17.8173 65.2359 17.832V19.339C65.2359 19.361 65.2396 19.3793 65.2469 19.394C65.2616 19.4013 65.2799 19.405 65.3019 19.405ZM65.3019 16.171H69.5919C69.6066 16.171 69.6213 16.1673 69.6359 16.16C69.6506 16.1453 69.6579 16.1307 69.6579 16.116V14.741C69.6579 14.719 69.6506 14.7043 69.6359 14.697C69.6213 14.6823 69.6066 14.675 69.5919 14.675H65.3019C65.2799 14.675 65.2616 14.6823 65.2469 14.697C65.2396 14.7043 65.2359 14.719 65.2359 14.741V16.116C65.2359 16.1307 65.2396 16.1453 65.2469 16.16C65.2616 16.1673 65.2799 16.171 65.3019 16.171ZM72.7933 21V14.664C72.7933 14.3707 72.8629 14.1067 73.0023 13.872C73.1489 13.63 73.3396 13.4393 73.5743 13.3C73.8163 13.1533 74.0839 13.08 74.3773 13.08H79.1183C79.4116 13.08 79.6756 13.1533 79.9103 13.3C80.1523 13.4393 80.3466 13.63 80.4933 13.872C80.6399 14.1067 80.7133 14.3707 80.7133 14.664V21H79.1073V18.393H74.3773V21H72.7933ZM74.3773 16.809H79.1073V14.741C79.1073 14.719 79.0999 14.7043 79.0853 14.697C79.0779 14.6823 79.0633 14.675 79.0413 14.675H74.4433C74.4213 14.675 74.4029 14.6823 74.3883 14.697C74.3809 14.7043 74.3773 14.719 74.3773 14.741V16.809ZM87.0203 21C86.727 21 86.4593 20.9303 86.2173 20.791C85.9826 20.6443 85.792 20.4537 85.6453 20.219C85.506 19.977 85.4363 19.7093 85.4363 19.416V14.664C85.4363 14.3707 85.506 14.1067 85.6453 13.872C85.792 13.63 85.9826 13.4393 86.2173 13.3C86.4593 13.1533 86.727 13.08 87.0203 13.08H93.3343V14.675H87.3943C87.277 14.675 87.1853 14.708 87.1193 14.774C87.0533 14.8327 87.0203 14.9243 87.0203 15.049V19.031C87.0203 19.1483 87.0533 19.24 87.1193 19.306C87.1853 19.372 87.277 19.405 87.3943 19.405H93.3343V21H87.0203ZM94.4592 21V12.53H96.0212V14.62H99.3762C99.6549 14.62 99.9116 14.6933 100.146 14.84C100.381 14.9793 100.568 15.1663 100.707 15.401C100.854 15.6357 100.927 15.8923 100.927 16.171V21H99.3652V16.248C99.3652 16.2333 99.3579 16.2187 99.3432 16.204C99.3359 16.1893 99.3212 16.182 99.2992 16.182H96.0872C96.0726 16.182 96.0579 16.1893 96.0432 16.204C96.0286 16.2187 96.0212 16.2333 96.0212 16.248V21H94.4592ZM103.347 21C103.068 21 102.808 20.9303 102.566 20.791C102.331 20.6443 102.144 20.4537 102.005 20.219C101.865 19.9843 101.796 19.7277 101.796 19.449V17.018H106.702V16.248C106.702 16.2333 106.694 16.2187 106.68 16.204C106.665 16.1893 106.65 16.182 106.636 16.182H101.796V14.62H106.713C106.999 14.62 107.259 14.6933 107.494 14.84C107.728 14.9793 107.915 15.1663 108.055 15.401C108.194 15.6357 108.264 15.8923 108.264 16.171V21H103.347ZM103.424 19.438H106.702V18.415H103.358V19.372C103.358 19.3867 103.365 19.4013 103.38 19.416C103.394 19.4307 103.409 19.438 103.424 19.438ZM111.006 21C110.72 21 110.46 20.9303 110.225 20.791C109.991 20.6443 109.8 20.4537 109.653 20.219C109.514 19.9843 109.444 19.7277 109.444 19.449V12.695H111.006V14.62H113.437V16.182H111.006V19.372C111.006 19.3867 111.014 19.4013 111.028 19.416C111.043 19.4307 111.058 19.438 111.072 19.438H113.437V21H111.006ZM114.45 21V12.53H116.012V14.62H119.367C119.653 14.62 119.914 14.6933 120.148 14.84C120.383 14.9793 120.57 15.1663 120.709 15.401C120.849 15.6357 120.918 15.8923 120.918 16.171V19.449C120.918 19.7277 120.849 19.9843 120.709 20.219C120.57 20.4537 120.383 20.6443 120.148 20.791C119.914 20.9303 119.653 21 119.367 21H114.45ZM116.078 19.438H119.29C119.312 19.438 119.327 19.4307 119.334 19.416C119.349 19.4013 119.356 19.3867 119.356 19.372V16.248C119.356 16.2333 119.349 16.2187 119.334 16.204C119.327 16.1893 119.312 16.182 119.29 16.182H116.078C116.064 16.182 116.049 16.1893 116.034 16.204C116.02 16.2187 116.012 16.2333 116.012 16.248V19.372C116.012 19.3867 116.02 19.4013 116.034 19.416C116.049 19.4307 116.064 19.438 116.078 19.438ZM123.305 21C123.027 21 122.77 20.9303 122.535 20.791C122.301 20.6443 122.11 20.4537 121.963 20.219C121.824 19.9843 121.754 19.7277 121.754 19.449V16.171C121.754 15.8923 121.824 15.6357 121.963 15.401C122.11 15.1663 122.301 14.9793 122.535 14.84C122.77 14.6933 123.027 14.62 123.305 14.62H126.671C126.957 14.62 127.218 14.6933 127.452 14.84C127.687 14.9793 127.874 15.1663 128.013 15.401C128.153 15.6357 128.222 15.8923 128.222 16.171V19.449C128.222 19.7277 128.153 19.9843 128.013 20.219C127.874 20.4537 127.687 20.6443 127.452 20.791C127.218 20.9303 126.957 21 126.671 21H123.305ZM123.382 19.438H126.594C126.609 19.438 126.624 19.4307 126.638 19.416C126.653 19.4013 126.66 19.3867 126.66 19.372V16.248C126.66 16.2333 126.653 16.2187 126.638 16.204C126.624 16.1893 126.609 16.182 126.594 16.182H123.382C123.368 16.182 123.353 16.1893 123.338 16.204C123.324 16.2187 123.316 16.2333 123.316 16.248V19.372C123.316 19.3867 123.324 19.4013 123.338 19.416C123.353 19.4307 123.368 19.438 123.382 19.438ZM130.75 21C130.464 21 130.204 20.9303 129.969 20.791C129.735 20.6443 129.544 20.4537 129.397 20.219C129.258 19.9843 129.188 19.7277 129.188 19.449V12.695H130.75V14.62H133.181V16.182H130.75V19.372C130.75 19.3867 130.758 19.4013 130.772 19.416C130.787 19.4307 130.802 19.438 130.816 19.438H133.181V21H130.75Z" fill="#090136"/>
<rect x="46" y="59" width="15" height="9" rx="3" fill="#00B4C2"/>
<rect x="69" y="34" width="37" height="11" rx="3" fill="#FF765A"/>
<path d="M37.235 38.535C37.0997 38.2503 36.9037 38.031 36.647 37.877C36.3903 37.7183 36.0917 37.639 35.751 37.639C35.4103 37.639 35.1023 37.7183 34.827 37.877C34.5563 38.031 34.3417 38.255 34.183 38.549C34.029 38.8383 33.952 39.1743 33.952 39.557C33.952 39.9397 34.029 40.2757 34.183 40.565C34.3417 40.8543 34.5563 41.0783 34.827 41.237C35.1023 41.391 35.4103 41.468 35.751 41.468C36.227 41.468 36.619 41.3257 36.927 41.041C37.235 40.7563 37.4147 40.3713 37.466 39.886H35.52V39.368H38.145V39.858C38.1077 40.2593 37.9817 40.628 37.767 40.964C37.5523 41.2953 37.27 41.559 36.92 41.755C36.57 41.9463 36.1803 42.042 35.751 42.042C35.2983 42.042 34.8853 41.937 34.512 41.727C34.1387 41.5123 33.8423 41.216 33.623 40.838C33.4083 40.46 33.301 40.033 33.301 39.557C33.301 39.081 33.4083 38.654 33.623 38.276C33.8423 37.8933 34.1387 37.597 34.512 37.387C34.8853 37.1723 35.2983 37.065 35.751 37.065C36.269 37.065 36.7263 37.1933 37.123 37.45C37.5243 37.7067 37.816 38.0683 37.998 38.535H37.235ZM40.6602 42.063C40.3009 42.063 39.9742 41.9813 39.6802 41.818C39.3909 41.6547 39.1622 41.4237 38.9942 41.125C38.8309 40.8217 38.7492 40.4717 38.7492 40.075C38.7492 39.683 38.8332 39.3377 39.0012 39.039C39.1739 38.7357 39.4072 38.5047 39.7012 38.346C39.9952 38.1827 40.3242 38.101 40.6882 38.101C41.0522 38.101 41.3812 38.1827 41.6752 38.346C41.9692 38.5047 42.2002 38.7333 42.3682 39.032C42.5409 39.3307 42.6272 39.6783 42.6272 40.075C42.6272 40.4717 42.5386 40.8217 42.3612 41.125C42.1886 41.4237 41.9529 41.6547 41.6542 41.818C41.3556 41.9813 41.0242 42.063 40.6602 42.063ZM40.6602 41.503C40.8889 41.503 41.1036 41.4493 41.3042 41.342C41.5049 41.2347 41.6659 41.0737 41.7872 40.859C41.9132 40.6443 41.9762 40.383 41.9762 40.075C41.9762 39.767 41.9156 39.5057 41.7942 39.291C41.6729 39.0763 41.5142 38.9177 41.3182 38.815C41.1222 38.7077 40.9099 38.654 40.6812 38.654C40.4479 38.654 40.2332 38.7077 40.0372 38.815C39.8459 38.9177 39.6919 39.0763 39.5752 39.291C39.4586 39.5057 39.4002 39.767 39.4002 40.075C39.4002 40.3877 39.4562 40.6513 39.5682 40.866C39.6849 41.0807 39.8389 41.2417 40.0302 41.349C40.2216 41.4517 40.4316 41.503 40.6602 41.503ZM45.1378 42.063C44.7784 42.063 44.4518 41.9813 44.1578 41.818C43.8684 41.6547 43.6398 41.4237 43.4718 41.125C43.3084 40.8217 43.2268 40.4717 43.2268 40.075C43.2268 39.683 43.3108 39.3377 43.4788 39.039C43.6514 38.7357 43.8848 38.5047 44.1788 38.346C44.4728 38.1827 44.8018 38.101 45.1658 38.101C45.5298 38.101 45.8588 38.1827 46.1528 38.346C46.4468 38.5047 46.6778 38.7333 46.8458 39.032C47.0184 39.3307 47.1048 39.6783 47.1048 40.075C47.1048 40.4717 47.0161 40.8217 46.8388 41.125C46.6661 41.4237 46.4304 41.6547 46.1318 41.818C45.8331 41.9813 45.5018 42.063 45.1378 42.063ZM45.1378 41.503C45.3664 41.503 45.5811 41.4493 45.7818 41.342C45.9824 41.2347 46.1434 41.0737 46.2648 40.859C46.3908 40.6443 46.4538 40.383 46.4538 40.075C46.4538 39.767 46.3931 39.5057 46.2718 39.291C46.1504 39.0763 45.9918 38.9177 45.7958 38.815C45.5998 38.7077 45.3874 38.654 45.1588 38.654C44.9254 38.654 44.7108 38.7077 44.5148 38.815C44.3234 38.9177 44.1694 39.0763 44.0528 39.291C43.9361 39.5057 43.8778 39.767 43.8778 40.075C43.8778 40.3877 43.9338 40.6513 44.0458 40.866C44.1624 41.0807 44.3164 41.2417 44.5078 41.349C44.6991 41.4517 44.9091 41.503 45.1378 41.503ZM49.5243 38.101C49.8557 38.101 50.145 38.1733 50.3923 38.318C50.6443 38.4627 50.831 38.6447 50.9523 38.864V38.164H51.5963V42.084C51.5963 42.434 51.5217 42.7443 51.3723 43.015C51.223 43.2903 51.0083 43.505 50.7283 43.659C50.453 43.813 50.131 43.89 49.7623 43.89C49.2583 43.89 48.8383 43.771 48.5023 43.533C48.1663 43.295 47.968 42.9707 47.9073 42.56H48.5373C48.6073 42.7933 48.752 42.98 48.9713 43.12C49.1907 43.2647 49.4543 43.337 49.7623 43.337C50.1123 43.337 50.397 43.2273 50.6163 43.008C50.8403 42.7887 50.9523 42.4807 50.9523 42.084V41.279C50.8263 41.503 50.6397 41.6897 50.3923 41.839C50.145 41.9883 49.8557 42.063 49.5243 42.063C49.1837 42.063 48.8733 41.979 48.5933 41.811C48.318 41.643 48.101 41.4073 47.9423 41.104C47.7837 40.8007 47.7043 40.4553 47.7043 40.068C47.7043 39.676 47.7837 39.333 47.9423 39.039C48.101 38.7403 48.318 38.5093 48.5933 38.346C48.8733 38.1827 49.1837 38.101 49.5243 38.101ZM50.9523 40.075C50.9523 39.7857 50.894 39.5337 50.7773 39.319C50.6607 39.1043 50.502 38.941 50.3013 38.829C50.1053 38.7123 49.8883 38.654 49.6503 38.654C49.4123 38.654 49.1953 38.71 48.9993 38.822C48.8033 38.934 48.647 39.0973 48.5303 39.312C48.4137 39.5267 48.3553 39.7787 48.3553 40.068C48.3553 40.362 48.4137 40.6187 48.5303 40.838C48.647 41.0527 48.8033 41.2183 48.9993 41.335C49.1953 41.447 49.4123 41.503 49.6503 41.503C49.8883 41.503 50.1053 41.447 50.3013 41.335C50.502 41.2183 50.6607 41.0527 50.7773 40.838C50.894 40.6187 50.9523 40.3643 50.9523 40.075ZM53.3098 36.82V42H52.6728V36.82H53.3098ZM57.8954 39.935C57.8954 40.0563 57.8884 40.1847 57.8744 40.32H54.8084C54.8318 40.698 54.9601 40.9943 55.1934 41.209C55.4314 41.419 55.7184 41.524 56.0544 41.524C56.3298 41.524 56.5584 41.461 56.7404 41.335C56.9271 41.2043 57.0578 41.0317 57.1324 40.817H57.8184C57.7158 41.1857 57.5104 41.4867 57.2024 41.72C56.8944 41.9487 56.5118 42.063 56.0544 42.063C55.6904 42.063 55.3638 41.9813 55.0744 41.818C54.7898 41.6547 54.5658 41.4237 54.4024 41.125C54.2391 40.8217 54.1574 40.4717 54.1574 40.075C54.1574 39.6783 54.2368 39.3307 54.3954 39.032C54.5541 38.7333 54.7758 38.5047 55.0604 38.346C55.3498 38.1827 55.6811 38.101 56.0544 38.101C56.4184 38.101 56.7404 38.1803 57.0204 38.339C57.3004 38.4977 57.5151 38.717 57.6644 38.997C57.8184 39.2723 57.8954 39.585 57.8954 39.935ZM57.2374 39.802C57.2374 39.5593 57.1838 39.3517 57.0764 39.179C56.9691 39.0017 56.8221 38.8687 56.6354 38.78C56.4534 38.6867 56.2504 38.64 56.0264 38.64C55.7044 38.64 55.4291 38.7427 55.2004 38.948C54.9764 39.1533 54.8481 39.438 54.8154 39.802H57.2374ZM62.2755 42.063C61.9161 42.063 61.5895 41.9813 61.2955 41.818C61.0061 41.6547 60.7775 41.4237 60.6095 41.125C60.4461 40.8217 60.3645 40.4717 60.3645 40.075C60.3645 39.683 60.4485 39.3377 60.6165 39.039C60.7891 38.7357 61.0225 38.5047 61.3165 38.346C61.6105 38.1827 61.9395 38.101 62.3035 38.101C62.6675 38.101 62.9965 38.1827 63.2905 38.346C63.5845 38.5047 63.8155 38.7333 63.9835 39.032C64.1561 39.3307 64.2425 39.6783 64.2425 40.075C64.2425 40.4717 64.1538 40.8217 63.9765 41.125C63.8038 41.4237 63.5681 41.6547 63.2695 41.818C62.9708 41.9813 62.6395 42.063 62.2755 42.063ZM62.2755 41.503C62.5041 41.503 62.7188 41.4493 62.9195 41.342C63.1201 41.2347 63.2811 41.0737 63.4025 40.859C63.5285 40.6443 63.5915 40.383 63.5915 40.075C63.5915 39.767 63.5308 39.5057 63.4095 39.291C63.2881 39.0763 63.1295 38.9177 62.9335 38.815C62.7375 38.7077 62.5251 38.654 62.2965 38.654C62.0631 38.654 61.8485 38.7077 61.6525 38.815C61.4611 38.9177 61.3071 39.0763 61.1905 39.291C61.0738 39.5057 61.0155 39.767 61.0155 40.075C61.0155 40.3877 61.0715 40.6513 61.1835 40.866C61.3001 41.0807 61.4541 41.2417 61.6455 41.349C61.8368 41.4517 62.0468 41.503 62.2755 41.503ZM66.949 38.094C67.4157 38.094 67.7937 38.2363 68.083 38.521C68.3723 38.801 68.517 39.207 68.517 39.739V42H67.887V39.83C67.887 39.4473 67.7913 39.1557 67.6 38.955C67.4087 38.7497 67.1473 38.647 66.816 38.647C66.48 38.647 66.2117 38.752 66.011 38.962C65.815 39.172 65.717 39.4777 65.717 39.879V42H65.08V38.164H65.717V38.71C65.843 38.514 66.0133 38.3623 66.228 38.255C66.4473 38.1477 66.6877 38.094 66.949 38.094ZM36.423 52.915H34.295L33.903 54H33.231L34.995 49.149H35.73L37.487 54H36.815L36.423 52.915ZM36.241 52.397L35.359 49.933L34.477 52.397H36.241ZM39.6138 54.063C39.3198 54.063 39.0561 54.014 38.8228 53.916C38.5895 53.8133 38.4051 53.6733 38.2698 53.496C38.1345 53.314 38.0598 53.1063 38.0458 52.873H38.7038C38.7225 53.0643 38.8111 53.2207 38.9698 53.342C39.1331 53.4633 39.3455 53.524 39.6068 53.524C39.8495 53.524 40.0408 53.4703 40.1808 53.363C40.3208 53.2557 40.3908 53.1203 40.3908 52.957C40.3908 52.789 40.3161 52.6653 40.1668 52.586C40.0175 52.502 39.7865 52.4203 39.4738 52.341C39.1891 52.2663 38.9558 52.1917 38.7738 52.117C38.5965 52.0377 38.4425 51.9233 38.3118 51.774C38.1858 51.62 38.1228 51.4193 38.1228 51.172C38.1228 50.976 38.1811 50.7963 38.2978 50.633C38.4145 50.4697 38.5801 50.3413 38.7948 50.248C39.0095 50.15 39.2545 50.101 39.5298 50.101C39.9545 50.101 40.2975 50.2083 40.5588 50.423C40.8201 50.6377 40.9601 50.9317 40.9788 51.305H40.3418C40.3278 51.1043 40.2461 50.9433 40.0968 50.822C39.9521 50.7007 39.7561 50.64 39.5088 50.64C39.2801 50.64 39.0981 50.689 38.9628 50.787C38.8275 50.885 38.7598 51.0133 38.7598 51.172C38.7598 51.298 38.7995 51.403 38.8788 51.487C38.9628 51.5663 39.0655 51.6317 39.1868 51.683C39.3128 51.7297 39.4855 51.7833 39.7048 51.844C39.9801 51.9187 40.2041 51.9933 40.3768 52.068C40.5495 52.138 40.6965 52.2453 40.8178 52.39C40.9438 52.5347 41.0091 52.7237 41.0138 52.957C41.0138 53.167 40.9555 53.356 40.8388 53.524C40.7221 53.692 40.5565 53.825 40.3418 53.923C40.1318 54.0163 39.8891 54.063 39.6138 54.063ZM44.055 54L42.55 52.306V54H41.913V48.82H42.55V51.865L44.027 50.164H44.916L43.11 52.075L44.923 54H44.055ZM52.4918 50.164L51.2948 54H50.6368L49.7128 50.955L48.7888 54H48.1308L46.9268 50.164H47.5778L48.4598 53.384L49.4118 50.164H50.0628L50.9938 53.391L51.8618 50.164H52.4918ZM55.028 50.094C55.3173 50.094 55.5786 50.157 55.812 50.283C56.0453 50.4043 56.2273 50.5887 56.358 50.836C56.4933 51.0833 56.561 51.3843 56.561 51.739V54H55.931V51.83C55.931 51.4473 55.8353 51.1557 55.644 50.955C55.4526 50.7497 55.1913 50.647 54.86 50.647C54.524 50.647 54.2556 50.752 54.055 50.962C53.859 51.172 53.761 51.4777 53.761 51.879V54H53.124V48.82H53.761V50.71C53.887 50.514 54.0596 50.3623 54.279 50.255C54.503 50.1477 54.7526 50.094 55.028 50.094ZM57.3635 52.068C57.3635 51.676 57.4428 51.333 57.6015 51.039C57.7602 50.7403 57.9772 50.5093 58.2525 50.346C58.5325 50.1827 58.8428 50.101 59.1835 50.101C59.5195 50.101 59.8112 50.1733 60.0585 50.318C60.3058 50.4627 60.4902 50.6447 60.6115 50.864V50.164H61.2555V54H60.6115V53.286C60.4855 53.51 60.2965 53.6967 60.0445 53.846C59.7972 53.9907 59.5078 54.063 59.1765 54.063C58.8358 54.063 58.5278 53.979 58.2525 53.811C57.9772 53.643 57.7602 53.4073 57.6015 53.104C57.4428 52.8007 57.3635 52.4553 57.3635 52.068ZM60.6115 52.075C60.6115 51.7857 60.5532 51.5337 60.4365 51.319C60.3198 51.1043 60.1612 50.941 59.9605 50.829C59.7645 50.7123 59.5475 50.654 59.3095 50.654C59.0715 50.654 58.8545 50.71 58.6585 50.822C58.4625 50.934 58.3062 51.0973 58.1895 51.312C58.0728 51.5267 58.0145 51.7787 58.0145 52.068C58.0145 52.362 58.0728 52.6187 58.1895 52.838C58.3062 53.0527 58.4625 53.2183 58.6585 53.335C58.8545 53.447 59.0715 53.503 59.3095 53.503C59.5475 53.503 59.7645 53.447 59.9605 53.335C60.1612 53.2183 60.3198 53.0527 60.4365 52.838C60.5532 52.6187 60.6115 52.3643 60.6115 52.075ZM63.109 50.689V52.95C63.109 53.1367 63.1486 53.2697 63.228 53.349C63.3073 53.4237 63.445 53.461 63.641 53.461H64.11V54H63.536C63.1813 54 62.9153 53.9183 62.738 53.755C62.5606 53.5917 62.472 53.3233 62.472 52.95V50.689H61.975V50.164H62.472V49.198H63.109V50.164H64.11V50.689H63.109ZM68.3818 51.935C68.3818 52.0563 68.3748 52.1847 68.3608 52.32H65.2948C65.3181 52.698 65.4464 52.9943 65.6798 53.209C65.9178 53.419 66.2048 53.524 66.5408 53.524C66.8161 53.524 67.0448 53.461 67.2268 53.335C67.4134 53.2043 67.5441 53.0317 67.6188 52.817H68.3048C68.2021 53.1857 67.9968 53.4867 67.6888 53.72C67.3808 53.9487 66.9981 54.063 66.5408 54.063C66.1768 54.063 65.8501 53.9813 65.5608 53.818C65.2761 53.6547 65.0521 53.4237 64.8888 53.125C64.7254 52.8217 64.6438 52.4717 64.6438 52.075C64.6438 51.6783 64.7231 51.3307 64.8818 51.032C65.0404 50.7333 65.2621 50.5047 65.5468 50.346C65.8361 50.1827 66.1674 50.101 66.5408 50.101C66.9048 50.101 67.2268 50.1803 67.5068 50.339C67.7868 50.4977 68.0014 50.717 68.1508 50.997C68.3048 51.2723 68.3818 51.585 68.3818 51.935ZM67.7238 51.802C67.7238 51.5593 67.6701 51.3517 67.5628 51.179C67.4554 51.0017 67.3084 50.8687 67.1218 50.78C66.9398 50.6867 66.7368 50.64 66.5128 50.64C66.1908 50.64 65.9154 50.7427 65.6868 50.948C65.4628 51.1533 65.3344 51.438 65.3018 51.802H67.7238ZM70.6506 53.412L71.8406 50.164H72.5196L71.0146 54H70.2726L68.7676 50.164H69.4536L70.6506 53.412ZM76.6464 51.935C76.6464 52.0563 76.6394 52.1847 76.6254 52.32H73.5594C73.5828 52.698 73.7111 52.9943 73.9444 53.209C74.1824 53.419 74.4694 53.524 74.8054 53.524C75.0808 53.524 75.3094 53.461 75.4914 53.335C75.6781 53.2043 75.8088 53.0317 75.8834 52.817H76.5694C76.4668 53.1857 76.2614 53.4867 75.9534 53.72C75.6454 53.9487 75.2628 54.063 74.8054 54.063C74.4414 54.063 74.1148 53.9813 73.8254 53.818C73.5408 53.6547 73.3168 53.4237 73.1534 53.125C72.9901 52.8217 72.9084 52.4717 72.9084 52.075C72.9084 51.6783 72.9878 51.3307 73.1464 51.032C73.3051 50.7333 73.5268 50.5047 73.8114 50.346C74.1008 50.1827 74.4321 50.101 74.8054 50.101C75.1694 50.101 75.4914 50.1803 75.7714 50.339C76.0514 50.4977 76.2661 50.717 76.4154 50.997C76.5694 51.2723 76.6464 51.585 76.6464 51.935ZM75.9884 51.802C75.9884 51.5593 75.9348 51.3517 75.8274 51.179C75.7201 51.0017 75.5731 50.8687 75.3864 50.78C75.2044 50.6867 75.0014 50.64 74.7774 50.64C74.4554 50.64 74.1801 50.7427 73.9514 50.948C73.7274 51.1533 73.5991 51.438 73.5664 51.802H75.9884ZM78.1242 50.787C78.2362 50.5677 78.3949 50.3973 78.6002 50.276C78.8102 50.1547 79.0646 50.094 79.3632 50.094V50.752H79.1952C78.4812 50.752 78.1242 51.1393 78.1242 51.914V54H77.4872V50.164H78.1242V50.787ZM85.2688 50.164L82.9588 55.806H82.3008L83.0568 53.958L81.5098 50.164H82.2168L83.4208 53.272L84.6108 50.164H85.2688ZM87.5821 54.063C87.2228 54.063 86.8961 53.9813 86.6021 53.818C86.3128 53.6547 86.0841 53.4237 85.9161 53.125C85.7528 52.8217 85.6711 52.4717 85.6711 52.075C85.6711 51.683 85.7551 51.3377 85.9231 51.039C86.0958 50.7357 86.3291 50.5047 86.6231 50.346C86.9171 50.1827 87.2461 50.101 87.6101 50.101C87.9741 50.101 88.3031 50.1827 88.5971 50.346C88.8911 50.5047 89.1221 50.7333 89.2901 51.032C89.4628 51.3307 89.5491 51.6783 89.5491 52.075C89.5491 52.4717 89.4605 52.8217 89.2831 53.125C89.1105 53.4237 88.8748 53.6547 88.5761 53.818C88.2775 53.9813 87.9461 54.063 87.5821 54.063ZM87.5821 53.503C87.8108 53.503 88.0255 53.4493 88.2261 53.342C88.4268 53.2347 88.5878 53.0737 88.7091 52.859C88.8351 52.6443 88.8981 52.383 88.8981 52.075C88.8981 51.767 88.8375 51.5057 88.7161 51.291C88.5948 51.0763 88.4361 50.9177 88.2401 50.815C88.0441 50.7077 87.8318 50.654 87.6031 50.654C87.3698 50.654 87.1551 50.7077 86.9591 50.815C86.7678 50.9177 86.6138 51.0763 86.4971 51.291C86.3805 51.5057 86.3221 51.767 86.3221 52.075C86.3221 52.3877 86.3781 52.6513 86.4901 52.866C86.6068 53.0807 86.7608 53.2417 86.9521 53.349C87.1435 53.4517 87.3535 53.503 87.5821 53.503ZM93.7887 50.164V54H93.1517V53.433C93.0303 53.629 92.86 53.783 92.6407 53.895C92.426 54.0023 92.188 54.056 91.9267 54.056C91.628 54.056 91.3597 53.9953 91.1217 53.874C90.8837 53.748 90.6947 53.5613 90.5547 53.314C90.4193 53.0667 90.3517 52.7657 90.3517 52.411V50.164H90.9817V52.327C90.9817 52.705 91.0773 52.9967 91.2687 53.202C91.46 53.4027 91.7213 53.503 92.0527 53.503C92.3933 53.503 92.6617 53.398 92.8577 53.188C93.0537 52.978 93.1517 52.6723 93.1517 52.271V50.164H93.7887ZM101.84 50.164L100.643 54H99.9854L99.0614 50.955L98.1374 54H97.4794L96.2754 50.164H96.9264L97.8084 53.384L98.7604 50.164H99.4114L100.342 53.391L101.21 50.164H101.84ZM102.235 52.068C102.235 51.676 102.314 51.333 102.473 51.039C102.631 50.7403 102.848 50.5093 103.124 50.346C103.404 50.1827 103.714 50.101 104.055 50.101C104.391 50.101 104.682 50.1733 104.93 50.318C105.177 50.4627 105.361 50.6447 105.483 50.864V50.164H106.127V54H105.483V53.286C105.357 53.51 105.168 53.6967 104.916 53.846C104.668 53.9907 104.379 54.063 104.048 54.063C103.707 54.063 103.399 53.979 103.124 53.811C102.848 53.643 102.631 53.4073 102.473 53.104C102.314 52.8007 102.235 52.4553 102.235 52.068ZM105.483 52.075C105.483 51.7857 105.424 51.5337 105.308 51.319C105.191 51.1043 105.032 50.941 104.832 50.829C104.636 50.7123 104.419 50.654 104.181 50.654C103.943 50.654 103.726 50.71 103.53 50.822C103.334 50.934 103.177 51.0973 103.061 51.312C102.944 51.5267 102.886 51.7787 102.886 52.068C102.886 52.362 102.944 52.6187 103.061 52.838C103.177 53.0527 103.334 53.2183 103.53 53.335C103.726 53.447 103.943 53.503 104.181 53.503C104.419 53.503 104.636 53.447 104.832 53.335C105.032 53.2183 105.191 53.0527 105.308 52.838C105.424 52.6187 105.483 52.3643 105.483 52.075ZM109.072 50.094C109.539 50.094 109.917 50.2363 110.206 50.521C110.495 50.801 110.64 51.207 110.64 51.739V54H110.01V51.83C110.01 51.4473 109.914 51.1557 109.723 50.955C109.532 50.7497 109.27 50.647 108.939 50.647C108.603 50.647 108.335 50.752 108.134 50.962C107.938 51.172 107.84 51.4777 107.84 51.879V54H107.203V50.164H107.84V50.71C107.966 50.514 108.136 50.3623 108.351 50.255C108.57 50.1477 108.811 50.094 109.072 50.094ZM112.458 50.689V52.95C112.458 53.1367 112.497 53.2697 112.577 53.349C112.656 53.4237 112.794 53.461 112.99 53.461H113.459V54H112.885C112.53 54 112.264 53.9183 112.087 53.755C111.909 53.5917 111.821 53.3233 111.821 52.95V50.689H111.324V50.164H111.821V49.198H112.458V50.164H113.459V50.689H112.458ZM37.235 62.535C37.0997 62.2503 36.9037 62.031 36.647 61.877C36.3903 61.7183 36.0917 61.639 35.751 61.639C35.4103 61.639 35.1023 61.7183 34.827 61.877C34.5563 62.031 34.3417 62.255 34.183 62.549C34.029 62.8383 33.952 63.1743 33.952 63.557C33.952 63.9397 34.029 64.2757 34.183 64.565C34.3417 64.8543 34.5563 65.0783 34.827 65.237C35.1023 65.391 35.4103 65.468 35.751 65.468C36.227 65.468 36.619 65.3257 36.927 65.041C37.235 64.7563 37.4147 64.3713 37.466 63.886H35.52V63.368H38.145V63.858C38.1077 64.2593 37.9817 64.628 37.767 64.964C37.5523 65.2953 37.27 65.559 36.92 65.755C36.57 65.9463 36.1803 66.042 35.751 66.042C35.2983 66.042 34.8853 65.937 34.512 65.727C34.1387 65.5123 33.8423 65.216 33.623 64.838C33.4083 64.46 33.301 64.033 33.301 63.557C33.301 63.081 33.4083 62.654 33.623 62.276C33.8423 61.8933 34.1387 61.597 34.512 61.387C34.8853 61.1723 35.2983 61.065 35.751 61.065C36.269 61.065 36.7263 61.1933 37.123 61.45C37.5243 61.7067 37.816 62.0683 37.998 62.535H37.235ZM42.4872 63.935C42.4872 64.0563 42.4802 64.1847 42.4662 64.32H39.4002C39.4236 64.698 39.5519 64.9943 39.7852 65.209C40.0232 65.419 40.3102 65.524 40.6462 65.524C40.9216 65.524 41.1502 65.461 41.3322 65.335C41.5189 65.2043 41.6496 65.0317 41.7242 64.817H42.4102C42.3076 65.1857 42.1022 65.4867 41.7942 65.72C41.4862 65.9487 41.1036 66.063 40.6462 66.063C40.2822 66.063 39.9556 65.9813 39.6662 65.818C39.3816 65.6547 39.1576 65.4237 38.9942 65.125C38.8309 64.8217 38.7492 64.4717 38.7492 64.075C38.7492 63.6783 38.8286 63.3307 38.9872 63.032C39.1459 62.7333 39.3676 62.5047 39.6522 62.346C39.9416 62.1827 40.2729 62.101 40.6462 62.101C41.0102 62.101 41.3322 62.1803 41.6122 62.339C41.8922 62.4977 42.1069 62.717 42.2562 62.997C42.4102 63.2723 42.4872 63.585 42.4872 63.935ZM41.8292 63.802C41.8292 63.5593 41.7756 63.3517 41.6682 63.179C41.5609 63.0017 41.4139 62.8687 41.2272 62.78C41.0452 62.6867 40.8422 62.64 40.6182 62.64C40.2962 62.64 40.0209 62.7427 39.7922 62.948C39.5682 63.1533 39.4399 63.438 39.4072 63.802H41.8292ZM44.1051 62.689V64.95C44.1051 65.1367 44.1447 65.2697 44.2241 65.349C44.3034 65.4237 44.4411 65.461 44.6371 65.461H45.1061V66H44.5321C44.1774 66 43.9114 65.9183 43.7341 65.755C43.5567 65.5917 43.4681 65.3233 43.4681 64.95V62.689H42.9711V62.164H43.4681V61.198H44.1051V62.164H45.1061V62.689H44.1051ZM63.9497 66.063C63.6557 66.063 63.3921 66.014 63.1587 65.916C62.9254 65.8133 62.7411 65.6733 62.6057 65.496C62.4704 65.314 62.3957 65.1063 62.3817 64.873H63.0397C63.0584 65.0643 63.1471 65.2207 63.3057 65.342C63.4691 65.4633 63.6814 65.524 63.9427 65.524C64.1854 65.524 64.3767 65.4703 64.5167 65.363C64.6567 65.2557 64.7267 65.1203 64.7267 64.957C64.7267 64.789 64.6521 64.6653 64.5027 64.586C64.3534 64.502 64.1224 64.4203 63.8097 64.341C63.5251 64.2663 63.2917 64.1917 63.1097 64.117C62.9324 64.0377 62.7784 63.9233 62.6477 63.774C62.5217 63.62 62.4587 63.4193 62.4587 63.172C62.4587 62.976 62.5171 62.7963 62.6337 62.633C62.7504 62.4697 62.9161 62.3413 63.1307 62.248C63.3454 62.15 63.5904 62.101 63.8657 62.101C64.2904 62.101 64.6334 62.2083 64.8947 62.423C65.1561 62.6377 65.2961 62.9317 65.3147 63.305H64.6777C64.6637 63.1043 64.5821 62.9433 64.4327 62.822C64.2881 62.7007 64.0921 62.64 63.8447 62.64C63.6161 62.64 63.4341 62.689 63.2987 62.787C63.1634 62.885 63.0957 63.0133 63.0957 63.172C63.0957 63.298 63.1354 63.403 63.2147 63.487C63.2987 63.5663 63.4014 63.6317 63.5227 63.683C63.6487 63.7297 63.8214 63.7833 64.0407 63.844C64.3161 63.9187 64.5401 63.9933 64.7127 64.068C64.8854 64.138 65.0324 64.2453 65.1537 64.39C65.2797 64.5347 65.3451 64.7237 65.3497 64.957C65.3497 65.167 65.2914 65.356 65.1747 65.524C65.0581 65.692 64.8924 65.825 64.6777 65.923C64.4677 66.0163 64.2251 66.063 63.9497 66.063ZM67.026 62.689V64.95C67.026 65.1367 67.0656 65.2697 67.145 65.349C67.2243 65.4237 67.362 65.461 67.558 65.461H68.027V66H67.453C67.0983 66 66.8323 65.9183 66.655 65.755C66.4776 65.5917 66.389 65.3233 66.389 64.95V62.689H65.892V62.164H66.389V61.198H67.026V62.164H68.027V62.689H67.026ZM69.4358 62.787C69.5478 62.5677 69.7064 62.3973 69.9118 62.276C70.1218 62.1547 70.3761 62.094 70.6748 62.094V62.752H70.5068C69.7928 62.752 69.4358 63.1393 69.4358 63.914V66H68.7988V62.164H69.4358V62.787ZM71.1721 64.068C71.1721 63.676 71.2514 63.333 71.4101 63.039C71.5688 62.7403 71.7858 62.5093 72.0611 62.346C72.3411 62.1827 72.6514 62.101 72.9921 62.101C73.3281 62.101 73.6198 62.1733 73.8671 62.318C74.1144 62.4627 74.2988 62.6447 74.4201 62.864V62.164H75.0641V66H74.4201V65.286C74.2941 65.51 74.1051 65.6967 73.8531 65.846C73.6058 65.9907 73.3164 66.063 72.9851 66.063C72.6444 66.063 72.3364 65.979 72.0611 65.811C71.7858 65.643 71.5688 65.4073 71.4101 65.104C71.2514 64.8007 71.1721 64.4553 71.1721 64.068ZM74.4201 64.075C74.4201 63.7857 74.3618 63.5337 74.2451 63.319C74.1284 63.1043 73.9698 62.941 73.7691 62.829C73.5731 62.7123 73.3561 62.654 73.1181 62.654C72.8801 62.654 72.6631 62.71 72.4671 62.822C72.2711 62.934 72.1148 63.0973 71.9981 63.312C71.8814 63.5267 71.8231 63.7787 71.8231 64.068C71.8231 64.362 71.8814 64.6187 71.9981 64.838C72.1148 65.0527 72.2711 65.2183 72.4671 65.335C72.6631 65.447 72.8801 65.503 73.1181 65.503C73.3561 65.503 73.5731 65.447 73.7691 65.335C73.9698 65.2183 74.1284 65.0527 74.2451 64.838C74.3618 64.6187 74.4201 64.3643 74.4201 64.075ZM76.4696 61.541C76.3482 61.541 76.2456 61.499 76.1616 61.415C76.0776 61.331 76.0356 61.2283 76.0356 61.107C76.0356 60.9857 76.0776 60.883 76.1616 60.799C76.2456 60.715 76.3482 60.673 76.4696 60.673C76.5862 60.673 76.6842 60.715 76.7636 60.799C76.8476 60.883 76.8896 60.9857 76.8896 61.107C76.8896 61.2283 76.8476 61.331 76.7636 61.415C76.6842 61.499 76.5862 61.541 76.4696 61.541ZM76.7776 62.164V66H76.1406V62.164H76.7776ZM79.4452 62.101C79.7766 62.101 80.0659 62.1733 80.3132 62.318C80.5652 62.4627 80.7519 62.6447 80.8732 62.864V62.164H81.5172V66.084C81.5172 66.434 81.4426 66.7443 81.2932 67.015C81.1439 67.2903 80.9292 67.505 80.6492 67.659C80.3739 67.813 80.0519 67.89 79.6832 67.89C79.1792 67.89 78.7592 67.771 78.4232 67.533C78.0872 67.295 77.8889 66.9707 77.8282 66.56H78.4582C78.5282 66.7933 78.6729 66.98 78.8922 67.12C79.1116 67.2647 79.3752 67.337 79.6832 67.337C80.0332 67.337 80.3179 67.2273 80.5372 67.008C80.7612 66.7887 80.8732 66.4807 80.8732 66.084V65.279C80.7472 65.503 80.5606 65.6897 80.3132 65.839C80.0659 65.9883 79.7766 66.063 79.4452 66.063C79.1046 66.063 78.7942 65.979 78.5142 65.811C78.2389 65.643 78.0219 65.4073 77.8632 65.104C77.7046 64.8007 77.6252 64.4553 77.6252 64.068C77.6252 63.676 77.7046 63.333 77.8632 63.039C78.0219 62.7403 78.2389 62.5093 78.5142 62.346C78.7942 62.1827 79.1046 62.101 79.4452 62.101ZM80.8732 64.075C80.8732 63.7857 80.8149 63.5337 80.6982 63.319C80.5816 63.1043 80.4229 62.941 80.2222 62.829C80.0262 62.7123 79.8092 62.654 79.5712 62.654C79.3332 62.654 79.1162 62.71 78.9202 62.822C78.7242 62.934 78.5679 63.0973 78.4512 63.312C78.3346 63.5267 78.2762 63.7787 78.2762 64.068C78.2762 64.362 78.3346 64.6187 78.4512 64.838C78.5679 65.0527 78.7242 65.2183 78.9202 65.335C79.1162 65.447 79.3332 65.503 79.5712 65.503C79.8092 65.503 80.0262 65.447 80.2222 65.335C80.4229 65.2183 80.5816 65.0527 80.6982 64.838C80.8149 64.6187 80.8732 64.3643 80.8732 64.075ZM84.4977 62.094C84.787 62.094 85.0484 62.157 85.2817 62.283C85.515 62.4043 85.697 62.5887 85.8277 62.836C85.963 63.0833 86.0307 63.3843 86.0307 63.739V66H85.4007V63.83C85.4007 63.4473 85.305 63.1557 85.1137 62.955C84.9224 62.7497 84.661 62.647 84.3297 62.647C83.9937 62.647 83.7254 62.752 83.5247 62.962C83.3287 63.172 83.2307 63.4777 83.2307 63.879V66H82.5937V60.82H83.2307V62.71C83.3567 62.514 83.5294 62.3623 83.7487 62.255C83.9727 62.1477 84.2224 62.094 84.4977 62.094ZM87.8482 62.689V64.95C87.8482 65.1367 87.8879 65.2697 87.9672 65.349C88.0466 65.4237 88.1842 65.461 88.3802 65.461H88.8492V66H88.2752C87.9206 66 87.6546 65.9183 87.4772 65.755C87.2999 65.5917 87.2112 65.3233 87.2112 64.95V62.689H86.7142V62.164H87.2112V61.198H87.8482V62.164H88.8492V62.689H87.8482ZM92.2642 62.689V64.95C92.2642 65.1367 92.3039 65.2697 92.3832 65.349C92.4626 65.4237 92.6002 65.461 92.7962 65.461H93.2652V66H92.6912C92.3366 66 92.0706 65.9183 91.8932 65.755C91.7159 65.5917 91.6272 65.3233 91.6272 64.95V62.689H91.1302V62.164H91.6272V61.198H92.2642V62.164H93.2652V62.689H92.2642ZM95.71 66.063C95.3507 66.063 95.024 65.9813 94.73 65.818C94.4407 65.6547 94.212 65.4237 94.044 65.125C93.8807 64.8217 93.799 64.4717 93.799 64.075C93.799 63.683 93.883 63.3377 94.051 63.039C94.2237 62.7357 94.457 62.5047 94.751 62.346C95.045 62.1827 95.374 62.101 95.738 62.101C96.102 62.101 96.431 62.1827 96.725 62.346C97.019 62.5047 97.25 62.7333 97.418 63.032C97.5907 63.3307 97.677 63.6783 97.677 64.075C97.677 64.4717 97.5884 64.8217 97.411 65.125C97.2384 65.4237 97.0027 65.6547 96.704 65.818C96.4054 65.9813 96.074 66.063 95.71 66.063ZM95.71 65.503C95.9387 65.503 96.1534 65.4493 96.354 65.342C96.5547 65.2347 96.7157 65.0737 96.837 64.859C96.963 64.6443 97.026 64.383 97.026 64.075C97.026 63.767 96.9654 63.5057 96.844 63.291C96.7227 63.0763 96.564 62.9177 96.368 62.815C96.172 62.7077 95.9597 62.654 95.731 62.654C95.4977 62.654 95.283 62.7077 95.087 62.815C94.8957 62.9177 94.7417 63.0763 94.625 63.291C94.5084 63.5057 94.45 63.767 94.45 64.075C94.45 64.3877 94.506 64.6513 94.618 64.866C94.7347 65.0807 94.8887 65.2417 95.08 65.349C95.2714 65.4517 95.4814 65.503 95.71 65.503ZM103.685 62.164L101.375 67.806H100.717L101.473 65.958L99.9258 62.164H100.633L101.837 65.272L103.027 62.164H103.685ZM105.998 66.063C105.639 66.063 105.312 65.9813 105.018 65.818C104.729 65.6547 104.5 65.4237 104.332 65.125C104.169 64.8217 104.087 64.4717 104.087 64.075C104.087 63.683 104.171 63.3377 104.339 63.039C104.512 62.7357 104.745 62.5047 105.039 62.346C105.333 62.1827 105.662 62.101 106.026 62.101C106.39 62.101 106.719 62.1827 107.013 62.346C107.307 62.5047 107.538 62.7333 107.706 63.032C107.879 63.3307 107.965 63.6783 107.965 64.075C107.965 64.4717 107.876 64.8217 107.699 65.125C107.526 65.4237 107.291 65.6547 106.992 65.818C106.693 65.9813 106.362 66.063 105.998 66.063ZM105.998 65.503C106.227 65.503 106.441 65.4493 106.642 65.342C106.843 65.2347 107.004 65.0737 107.125 64.859C107.251 64.6443 107.314 64.383 107.314 64.075C107.314 63.767 107.253 63.5057 107.132 63.291C107.011 63.0763 106.852 62.9177 106.656 62.815C106.46 62.7077 106.248 62.654 106.019 62.654C105.786 62.654 105.571 62.7077 105.375 62.815C105.184 62.9177 105.03 63.0763 104.913 63.291C104.796 63.5057 104.738 63.767 104.738 64.075C104.738 64.3877 104.794 64.6513 104.906 64.866C105.023 65.0807 105.177 65.2417 105.368 65.349C105.559 65.4517 105.769 65.503 105.998 65.503ZM112.205 62.164V66H111.568V65.433C111.446 65.629 111.276 65.783 111.057 65.895C110.842 66.0023 110.604 66.056 110.343 66.056C110.044 66.056 109.776 65.9953 109.538 65.874C109.3 65.748 109.111 65.5613 108.971 65.314C108.835 65.0667 108.768 64.7657 108.768 64.411V62.164H109.398V64.327C109.398 64.705 109.493 64.9967 109.685 65.202C109.876 65.4027 110.137 65.503 110.469 65.503C110.809 65.503 111.078 65.398 111.274 65.188C111.47 64.978 111.568 64.6723 111.568 64.271V62.164H112.205ZM113.917 62.787C114.029 62.5677 114.188 62.3973 114.393 62.276C114.603 62.1547 114.858 62.094 115.156 62.094V62.752H114.988C114.274 62.752 113.917 63.1393 113.917 63.914V66H113.28V62.164H113.917V62.787ZM120.761 61.121V61.639H119.431V66H118.794V61.639H117.457V61.121H120.761ZM125.045 63.935C125.045 64.0563 125.038 64.1847 125.024 64.32H121.958C121.981 64.698 122.11 64.9943 122.343 65.209C122.581 65.419 122.868 65.524 123.204 65.524C123.479 65.524 123.708 65.461 123.89 65.335C124.077 65.2043 124.207 65.0317 124.282 64.817H124.968C124.865 65.1857 124.66 65.4867 124.352 65.72C124.044 65.9487 123.661 66.063 123.204 66.063C122.84 66.063 122.513 65.9813 122.224 65.818C121.939 65.6547 121.715 65.4237 121.552 65.125C121.389 64.8217 121.307 64.4717 121.307 64.075C121.307 63.6783 121.386 63.3307 121.545 63.032C121.704 62.7333 121.925 62.5047 122.21 62.346C122.499 62.1827 122.831 62.101 123.204 62.101C123.568 62.101 123.89 62.1803 124.17 62.339C124.45 62.4977 124.665 62.717 124.814 62.997C124.968 63.2723 125.045 63.585 125.045 63.935ZM124.387 63.802C124.387 63.5593 124.333 63.3517 124.226 63.179C124.119 63.0017 123.972 62.8687 123.785 62.78C123.603 62.6867 123.4 62.64 123.176 62.64C122.854 62.64 122.579 62.7427 122.35 62.948C122.126 63.1533 121.998 63.438 121.965 63.802H124.387ZM126.523 60.82V66H125.886V60.82H126.523ZM131.108 63.935C131.108 64.0563 131.101 64.1847 131.087 64.32H128.021C128.045 64.698 128.173 64.9943 128.406 65.209C128.644 65.419 128.931 65.524 129.267 65.524C129.543 65.524 129.771 65.461 129.953 65.335C130.14 65.2043 130.271 65.0317 130.345 64.817H131.031C130.929 65.1857 130.723 65.4867 130.415 65.72C130.107 65.9487 129.725 66.063 129.267 66.063C128.903 66.063 128.577 65.9813 128.287 65.818C128.003 65.6547 127.779 65.4237 127.615 65.125C127.452 64.8217 127.37 64.4717 127.37 64.075C127.37 63.6783 127.45 63.3307 127.608 63.032C127.767 62.7333 127.989 62.5047 128.273 62.346C128.563 62.1827 128.894 62.101 129.267 62.101C129.631 62.101 129.953 62.1803 130.233 62.339C130.513 62.4977 130.728 62.717 130.877 62.997C131.031 63.2723 131.108 63.585 131.108 63.935ZM130.45 63.802C130.45 63.5593 130.397 63.3517 130.289 63.179C130.182 63.0017 130.035 62.8687 129.848 62.78C129.666 62.6867 129.463 62.64 129.239 62.64C128.917 62.64 128.642 62.7427 128.413 62.948C128.189 63.1533 128.061 63.438 128.028 63.802H130.45ZM133.531 62.101C133.862 62.101 134.152 62.1733 134.399 62.318C134.651 62.4627 134.838 62.6447 134.959 62.864V62.164H135.603V66.084C135.603 66.434 135.528 66.7443 135.379 67.015C135.23 67.2903 135.015 67.505 134.735 67.659C134.46 67.813 134.138 67.89 133.769 67.89C133.265 67.89 132.845 67.771 132.509 67.533C132.173 67.295 131.975 66.9707 131.914 66.56H132.544C132.614 66.7933 132.759 66.98 132.978 67.12C133.197 67.2647 133.461 67.337 133.769 67.337C134.119 67.337 134.404 67.2273 134.623 67.008C134.847 66.7887 134.959 66.4807 134.959 66.084V65.279C134.833 65.503 134.646 65.6897 134.399 65.839C134.152 65.9883 133.862 66.063 133.531 66.063C133.19 66.063 132.88 65.979 132.6 65.811C132.325 65.643 132.108 65.4073 131.949 65.104C131.79 64.8007 131.711 64.4553 131.711 64.068C131.711 63.676 131.79 63.333 131.949 63.039C132.108 62.7403 132.325 62.5093 132.6 62.346C132.88 62.1827 133.19 62.101 133.531 62.101ZM134.959 64.075C134.959 63.7857 134.901 63.5337 134.784 63.319C134.667 63.1043 134.509 62.941 134.308 62.829C134.112 62.7123 133.895 62.654 133.657 62.654C133.419 62.654 133.202 62.71 133.006 62.822C132.81 62.934 132.654 63.0973 132.537 63.312C132.42 63.5267 132.362 63.7787 132.362 64.068C132.362 64.362 132.42 64.6187 132.537 64.838C132.654 65.0527 132.81 65.2183 133.006 65.335C133.202 65.447 133.419 65.503 133.657 65.503C133.895 65.503 134.112 65.447 134.308 65.335C134.509 65.2183 134.667 65.0527 134.784 64.838C134.901 64.6187 134.959 64.3643 134.959 64.075ZM137.317 62.787C137.429 62.5677 137.587 62.3973 137.793 62.276C138.003 62.1547 138.257 62.094 138.556 62.094V62.752H138.388C137.674 62.752 137.317 63.1393 137.317 63.914V66H136.68V62.164H137.317V62.787ZM139.053 64.068C139.053 63.676 139.132 63.333 139.291 63.039C139.45 62.7403 139.667 62.5093 139.942 62.346C140.222 62.1827 140.532 62.101 140.873 62.101C141.209 62.101 141.501 62.1733 141.748 62.318C141.995 62.4627 142.18 62.6447 142.301 62.864V62.164H142.945V66H142.301V65.286C142.175 65.51 141.986 65.6967 141.734 65.846C141.487 65.9907 141.197 66.063 140.866 66.063C140.525 66.063 140.217 65.979 139.942 65.811C139.667 65.643 139.45 65.4073 139.291 65.104C139.132 64.8007 139.053 64.4553 139.053 64.068ZM142.301 64.075C142.301 63.7857 142.243 63.5337 142.126 63.319C142.009 63.1043 141.851 62.941 141.65 62.829C141.454 62.7123 141.237 62.654 140.999 62.654C140.761 62.654 140.544 62.71 140.348 62.822C140.152 62.934 139.996 63.0973 139.879 63.312C139.762 63.5267 139.704 63.7787 139.704 64.068C139.704 64.362 139.762 64.6187 139.879 64.838C139.996 65.0527 140.152 65.2183 140.348 65.335C140.544 65.447 140.761 65.503 140.999 65.503C141.237 65.503 141.454 65.447 141.65 65.335C141.851 65.2183 142.009 65.0527 142.126 64.838C142.243 64.6187 142.301 64.3643 142.301 64.075ZM148.634 62.094C148.933 62.094 149.199 62.157 149.432 62.283C149.666 62.4043 149.85 62.5887 149.985 62.836C150.121 63.0833 150.188 63.3843 150.188 63.739V66H149.558V63.83C149.558 63.4473 149.463 63.1557 149.271 62.955C149.085 62.7497 148.83 62.647 148.508 62.647C148.177 62.647 147.913 62.7543 147.717 62.969C147.521 63.179 147.423 63.4847 147.423 63.886V66H146.793V63.83C146.793 63.4473 146.698 63.1557 146.506 62.955C146.32 62.7497 146.065 62.647 145.743 62.647C145.412 62.647 145.148 62.7543 144.952 62.969C144.756 63.179 144.658 63.4847 144.658 63.886V66H144.021V62.164H144.658V62.717C144.784 62.5163 144.952 62.3623 145.162 62.255C145.377 62.1477 145.613 62.094 145.869 62.094C146.191 62.094 146.476 62.1663 146.723 62.311C146.971 62.4557 147.155 62.668 147.276 62.948C147.384 62.6773 147.561 62.4673 147.808 62.318C148.056 62.1687 148.331 62.094 148.634 62.094Z" fill="#090136"/>
<path d="M72.9708 42.049C72.6488 42.049 72.3594 41.993 72.1028 41.881C71.8508 41.7643 71.6524 41.6057 71.5078 41.405C71.3631 41.1997 71.2884 40.964 71.2838 40.698H71.9628C71.9861 40.9267 72.0794 41.1203 72.2428 41.279C72.4108 41.433 72.6534 41.51 72.9708 41.51C73.2741 41.51 73.5121 41.4353 73.6848 41.286C73.8621 41.132 73.9508 40.936 73.9508 40.698C73.9508 40.5113 73.8994 40.3597 73.7968 40.243C73.6941 40.1263 73.5658 40.0377 73.4118 39.977C73.2578 39.9163 73.0501 39.851 72.7888 39.781C72.4668 39.697 72.2078 39.613 72.0118 39.529C71.8204 39.445 71.6548 39.3143 71.5148 39.137C71.3794 38.955 71.3118 38.7123 71.3118 38.409C71.3118 38.143 71.3794 37.9073 71.5148 37.702C71.6501 37.4967 71.8391 37.338 72.0818 37.226C72.3291 37.114 72.6114 37.058 72.9288 37.058C73.3861 37.058 73.7594 37.1723 74.0488 37.401C74.3428 37.6297 74.5084 37.933 74.5458 38.311H73.8458C73.8224 38.1243 73.7244 37.961 73.5518 37.821C73.3791 37.6763 73.1504 37.604 72.8658 37.604C72.5998 37.604 72.3828 37.674 72.2148 37.814C72.0468 37.9493 71.9628 38.1407 71.9628 38.388C71.9628 38.5653 72.0118 38.71 72.1098 38.822C72.2124 38.934 72.3361 39.0203 72.4808 39.081C72.6301 39.137 72.8378 39.2023 73.1038 39.277C73.4258 39.3657 73.6848 39.4543 73.8808 39.543C74.0768 39.627 74.2448 39.76 74.3848 39.942C74.5248 40.1193 74.5948 40.362 74.5948 40.67C74.5948 40.908 74.5318 41.132 74.4058 41.342C74.2798 41.552 74.0931 41.7223 73.8458 41.853C73.5984 41.9837 73.3068 42.049 72.9708 42.049ZM76.3092 38.689V40.95C76.3092 41.1367 76.3488 41.2697 76.4282 41.349C76.5075 41.4237 76.6452 41.461 76.8412 41.461H77.3102V42H76.7362C76.3815 42 76.1155 41.9183 75.9382 41.755C75.7608 41.5917 75.6722 41.3233 75.6722 40.95V38.689H75.1752V38.164H75.6722V37.198H76.3092V38.164H77.3102V38.689H76.3092ZM81.582 39.935C81.582 40.0563 81.575 40.1847 81.561 40.32H78.495C78.5183 40.698 78.6466 40.9943 78.88 41.209C79.118 41.419 79.405 41.524 79.741 41.524C80.0163 41.524 80.245 41.461 80.427 41.335C80.6136 41.2043 80.7443 41.0317 80.819 40.817H81.505C81.4023 41.1857 81.197 41.4867 80.889 41.72C80.581 41.9487 80.1983 42.063 79.741 42.063C79.377 42.063 79.0503 41.9813 78.761 41.818C78.4763 41.6547 78.2523 41.4237 78.089 41.125C77.9256 40.8217 77.844 40.4717 77.844 40.075C77.844 39.6783 77.9233 39.3307 78.082 39.032C78.2406 38.7333 78.4623 38.5047 78.747 38.346C79.0363 38.1827 79.3676 38.101 79.741 38.101C80.105 38.101 80.427 38.1803 80.707 38.339C80.987 38.4977 81.2016 38.717 81.351 38.997C81.505 39.2723 81.582 39.585 81.582 39.935ZM80.924 39.802C80.924 39.5593 80.8703 39.3517 80.763 39.179C80.6556 39.0017 80.5086 38.8687 80.322 38.78C80.14 38.6867 79.937 38.64 79.713 38.64C79.391 38.64 79.1156 38.7427 78.887 38.948C78.663 39.1533 78.5346 39.438 78.502 39.802H80.924ZM83.0598 38.787C83.1718 38.5677 83.3305 38.3973 83.5358 38.276C83.7458 38.1547 84.0001 38.094 84.2988 38.094V38.752H84.1308C83.4168 38.752 83.0598 39.1393 83.0598 39.914V42H82.4228V38.164H83.0598V38.787ZM88.5341 39.935C88.5341 40.0563 88.5271 40.1847 88.5131 40.32H85.4471C85.4705 40.698 85.5988 40.9943 85.8321 41.209C86.0701 41.419 86.3571 41.524 86.6931 41.524C86.9685 41.524 87.1971 41.461 87.3791 41.335C87.5658 41.2043 87.6965 41.0317 87.7711 40.817H88.4571C88.3545 41.1857 88.1491 41.4867 87.8411 41.72C87.5331 41.9487 87.1505 42.063 86.6931 42.063C86.3291 42.063 86.0025 41.9813 85.7131 41.818C85.4285 41.6547 85.2045 41.4237 85.0411 41.125C84.8778 40.8217 84.7961 40.4717 84.7961 40.075C84.7961 39.6783 84.8755 39.3307 85.0341 39.032C85.1928 38.7333 85.4145 38.5047 85.6991 38.346C85.9885 38.1827 86.3198 38.101 86.6931 38.101C87.0571 38.101 87.3791 38.1803 87.6591 38.339C87.9391 38.4977 88.1538 38.717 88.3031 38.997C88.4571 39.2723 88.5341 39.585 88.5341 39.935ZM87.8761 39.802C87.8761 39.5593 87.8225 39.3517 87.7151 39.179C87.6078 39.0017 87.4608 38.8687 87.2741 38.78C87.0921 38.6867 86.8891 38.64 86.6651 38.64C86.3431 38.64 86.0678 38.7427 85.8391 38.948C85.6151 39.1533 85.4868 39.438 85.4541 39.802H87.8761ZM91.0479 42.063C90.6886 42.063 90.3619 41.9813 90.0679 41.818C89.7786 41.6547 89.5499 41.4237 89.3819 41.125C89.2186 40.8217 89.1369 40.4717 89.1369 40.075C89.1369 39.683 89.2209 39.3377 89.3889 39.039C89.5616 38.7357 89.7949 38.5047 90.0889 38.346C90.3829 38.1827 90.7119 38.101 91.0759 38.101C91.4399 38.101 91.7689 38.1827 92.0629 38.346C92.3569 38.5047 92.5879 38.7333 92.7559 39.032C92.9286 39.3307 93.0149 39.6783 93.0149 40.075C93.0149 40.4717 92.9263 40.8217 92.7489 41.125C92.5763 41.4237 92.3406 41.6547 92.0419 41.818C91.7433 41.9813 91.4119 42.063 91.0479 42.063ZM91.0479 41.503C91.2766 41.503 91.4913 41.4493 91.6919 41.342C91.8926 41.2347 92.0536 41.0737 92.1749 40.859C92.3009 40.6443 92.3639 40.383 92.3639 40.075C92.3639 39.767 92.3033 39.5057 92.1819 39.291C92.0606 39.0763 91.9019 38.9177 91.7059 38.815C91.5099 38.7077 91.2976 38.654 91.0689 38.654C90.8356 38.654 90.6209 38.7077 90.4249 38.815C90.2336 38.9177 90.0796 39.0763 89.9629 39.291C89.8463 39.5057 89.7879 39.767 89.7879 40.075C89.7879 40.3877 89.8439 40.6513 89.9559 40.866C90.0726 41.0807 90.2266 41.2417 90.4179 41.349C90.6093 41.4517 90.8193 41.503 91.0479 41.503ZM94.1815 37.541C94.0601 37.541 93.9575 37.499 93.8735 37.415C93.7895 37.331 93.7475 37.2283 93.7475 37.107C93.7475 36.9857 93.7895 36.883 93.8735 36.799C93.9575 36.715 94.0601 36.673 94.1815 36.673C94.2981 36.673 94.3961 36.715 94.4755 36.799C94.5595 36.883 94.6015 36.9857 94.6015 37.107C94.6015 37.2283 94.5595 37.331 94.4755 37.415C94.3961 37.499 94.2981 37.541 94.1815 37.541ZM94.4895 38.164V42H93.8525V38.164H94.4895ZM95.3371 40.068C95.3371 39.676 95.4165 39.333 95.5751 39.039C95.7338 38.7403 95.9508 38.5093 96.2261 38.346C96.5061 38.1827 96.8188 38.101 97.1641 38.101C97.4628 38.101 97.7405 38.171 97.9971 38.311C98.2538 38.4463 98.4498 38.626 98.5851 38.85V36.82H99.2291V42H98.5851V41.279C98.4591 41.5077 98.2725 41.6967 98.0251 41.846C97.7778 41.9907 97.4885 42.063 97.1571 42.063C96.8165 42.063 96.5061 41.979 96.2261 41.811C95.9508 41.643 95.7338 41.4073 95.5751 41.104C95.4165 40.8007 95.3371 40.4553 95.3371 40.068ZM98.5851 40.075C98.5851 39.7857 98.5268 39.5337 98.4101 39.319C98.2935 39.1043 98.1348 38.941 97.9341 38.829C97.7381 38.7123 97.5211 38.654 97.2831 38.654C97.0451 38.654 96.8281 38.71 96.6321 38.822C96.4361 38.934 96.2798 39.0973 96.1631 39.312C96.0465 39.5267 95.9881 39.7787 95.9881 40.068C95.9881 40.362 96.0465 40.6187 96.1631 40.838C96.2798 41.0527 96.4361 41.2183 96.6321 41.335C96.8281 41.447 97.0451 41.503 97.2831 41.503C97.5211 41.503 97.7381 41.447 97.9341 41.335C98.1348 41.2183 98.2935 41.0527 98.4101 40.838C98.5268 40.6187 98.5851 40.3643 98.5851 40.075ZM101.664 42.063C101.37 42.063 101.106 42.014 100.873 41.916C100.639 41.8133 100.455 41.6733 100.32 41.496C100.184 41.314 100.11 41.1063 100.096 40.873H100.754C100.772 41.0643 100.861 41.2207 101.02 41.342C101.183 41.4633 101.395 41.524 101.657 41.524C101.899 41.524 102.091 41.4703 102.231 41.363C102.371 41.2557 102.441 41.1203 102.441 40.957C102.441 40.789 102.366 40.6653 102.217 40.586C102.067 40.502 101.836 40.4203 101.524 40.341C101.239 40.2663 101.006 40.1917 100.824 40.117C100.646 40.0377 100.492 39.9233 100.362 39.774C100.236 39.62 100.173 39.4193 100.173 39.172C100.173 38.976 100.231 38.7963 100.348 38.633C100.464 38.4697 100.63 38.3413 100.845 38.248C101.059 38.15 101.304 38.101 101.58 38.101C102.004 38.101 102.347 38.2083 102.609 38.423C102.87 38.6377 103.01 38.9317 103.029 39.305H102.392C102.378 39.1043 102.296 38.9433 102.147 38.822C102.002 38.7007 101.806 38.64 101.559 38.64C101.33 38.64 101.148 38.689 101.013 38.787C100.877 38.885 100.81 39.0133 100.81 39.172C100.81 39.298 100.849 39.403 100.929 39.487C101.013 39.5663 101.115 39.6317 101.237 39.683C101.363 39.7297 101.535 39.7833 101.755 39.844C102.03 39.9187 102.254 39.9933 102.427 40.068C102.599 40.138 102.746 40.2453 102.868 40.39C102.994 40.5347 103.059 40.7237 103.064 40.957C103.064 41.167 103.005 41.356 102.889 41.524C102.772 41.692 102.606 41.825 102.392 41.923C102.182 42.0163 101.939 42.063 101.664 42.063ZM48.0731 61.541C47.9517 61.541 47.8491 61.499 47.7651 61.415C47.6811 61.331 47.6391 61.2283 47.6391 61.107C47.6391 60.9857 47.6811 60.883 47.7651 60.799C47.8491 60.715 47.9517 60.673 48.0731 60.673C48.1897 60.673 48.2877 60.715 48.3671 60.799C48.4511 60.883 48.4931 60.9857 48.4931 61.107C48.4931 61.2283 48.4511 61.331 48.3671 61.415C48.2877 61.499 48.1897 61.541 48.0731 61.541ZM48.3811 62.164V66H47.7441V62.164H48.3811ZM51.3357 62.094C51.8024 62.094 52.1804 62.2363 52.4697 62.521C52.7591 62.801 52.9037 63.207 52.9037 63.739V66H52.2737V63.83C52.2737 63.4473 52.1781 63.1557 51.9867 62.955C51.7954 62.7497 51.5341 62.647 51.2027 62.647C50.8667 62.647 50.5984 62.752 50.3977 62.962C50.2017 63.172 50.1037 63.4777 50.1037 63.879V66H49.4667V62.164H50.1037V62.71C50.2297 62.514 50.4001 62.3623 50.6147 62.255C50.8341 62.1477 51.0744 62.094 51.3357 62.094ZM55.5053 62.689H54.7003V66H54.0633V62.689H53.5663V62.164H54.0633V61.891C54.0633 61.4617 54.1729 61.149 54.3923 60.953C54.6163 60.7523 54.9733 60.652 55.4633 60.652V61.184C55.1833 61.184 54.9849 61.24 54.8683 61.352C54.7563 61.4593 54.7003 61.639 54.7003 61.891V62.164H55.5053V62.689ZM57.921 66.063C57.5617 66.063 57.235 65.9813 56.941 65.818C56.6517 65.6547 56.423 65.4237 56.255 65.125C56.0917 64.8217 56.01 64.4717 56.01 64.075C56.01 63.683 56.094 63.3377 56.262 63.039C56.4347 62.7357 56.668 62.5047 56.962 62.346C57.256 62.1827 57.585 62.101 57.949 62.101C58.313 62.101 58.642 62.1827 58.936 62.346C59.23 62.5047 59.461 62.7333 59.629 63.032C59.8017 63.3307 59.888 63.6783 59.888 64.075C59.888 64.4717 59.7993 64.8217 59.622 65.125C59.4493 65.4237 59.2137 65.6547 58.915 65.818C58.6163 65.9813 58.285 66.063 57.921 66.063ZM57.921 65.503C58.1497 65.503 58.3643 65.4493 58.565 65.342C58.7657 65.2347 58.9267 65.0737 59.048 64.859C59.174 64.6443 59.237 64.383 59.237 64.075C59.237 63.767 59.1763 63.5057 59.055 63.291C58.9337 63.0763 58.775 62.9177 58.579 62.815C58.383 62.7077 58.1707 62.654 57.942 62.654C57.7087 62.654 57.494 62.7077 57.298 62.815C57.1067 62.9177 56.9527 63.0763 56.836 63.291C56.7193 63.5057 56.661 63.767 56.661 64.075C56.661 64.3877 56.717 64.6513 56.829 64.866C56.9457 65.0807 57.0997 65.2417 57.291 65.349C57.4823 65.4517 57.6923 65.503 57.921 65.503Z" fill="white"/>
<circle cx="28.25" cy="39.25" r="1.25" fill="#090136"/>
<circle cx="28.25" cy="51.75" r="1.25" fill="#090136"/>
<circle cx="28.25" cy="63.75" r="1.25" fill="#090136"/>
</svg>
