<svg width="96" height="161" viewBox="0 0 96 161" fill="none" xmlns="http://www.w3.org/2000/svg">
<path d="M96 129L96 28.5001C96 22.9772 91.5229 18.5001 86 18.5001L81.5 18.5001C79.8432 18.5001 78.5199 17.1479 78.3702 15.4978C77.6114 7.1347 73.6453 3.62491 69.5897 1.46069C68.2404 0.740659 66.6312 1.8961 66.4073 3.40899C65.6629 8.43817 62.4167 13.0617 59.5771 16.0786C58.0072 17.7466 55.7503 18.5001 53.4597 18.5001L10 18.5001C4.47716 18.5001 1.0143e-05 22.9772 9.66021e-06 28.5L8.74228e-07 129C3.91406e-07 134.523 4.47716 139 10 139L86 139C91.5228 139 96 134.523 96 129Z" fill="white"/>
<rect x="27.9998" y="109" width="43" height="10" rx="3" fill="#FF765A"/>
<rect x="14.9998" y="74" width="50" height="9" rx="3" fill="#00B4C2"/>
<path d="M14.9498 40C14.6964 40 14.4631 39.9367 14.2498 39.81C14.0431 39.6833 13.8764 39.5167 13.7498 39.31C13.6231 39.0967 13.5598 38.8633 13.5598 38.61V34.19C13.5598 33.9367 13.6231 33.7067 13.7498 33.5C13.8764 33.2867 14.0431 33.1167 14.2498 32.99C14.4631 32.8633 14.6964 32.8 14.9498 32.8H20.7398V34.13H15.2298C15.1231 34.13 15.0364 34.16 14.9698 34.22C14.9098 34.28 14.8798 34.3667 14.8798 34.48V38.32C14.8798 38.4267 14.9098 38.5133 14.9698 38.58C15.0364 38.64 15.1231 38.67 15.2298 38.67H20.7398V40H14.9498ZM23.1124 40C22.8591 40 22.6291 39.9367 22.4224 39.81C22.2157 39.6833 22.0491 39.5167 21.9224 39.31C21.7957 39.1033 21.7324 38.8733 21.7324 38.62V35.58C21.7324 35.3267 21.7957 35.0967 21.9224 34.89C22.0491 34.6833 22.2157 34.5167 22.4224 34.39C22.6291 34.2633 22.8591 34.2 23.1124 34.2H26.2424C26.4957 34.2 26.7257 34.2633 26.9324 34.39C27.1457 34.5167 27.3124 34.6833 27.4324 34.89C27.5591 35.0967 27.6224 35.3267 27.6224 35.58V38.62C27.6224 38.8733 27.5591 39.1033 27.4324 39.31C27.3124 39.5167 27.1491 39.6833 26.9424 39.81C26.7357 39.9367 26.5024 40 26.2424 40H23.1124ZM23.1624 38.69H26.1924C26.2257 38.69 26.2524 38.68 26.2724 38.66C26.2991 38.6333 26.3124 38.6033 26.3124 38.57V35.63C26.3124 35.5967 26.2991 35.57 26.2724 35.55C26.2524 35.5233 26.2257 35.51 26.1924 35.51H23.1624C23.1291 35.51 23.0991 35.5233 23.0724 35.55C23.0524 35.57 23.0424 35.5967 23.0424 35.63V38.57C23.0424 38.6033 23.0524 38.6333 23.0724 38.66C23.0991 38.68 23.1291 38.69 23.1624 38.69ZM28.6862 40V34.2H35.8762C36.1362 34.2 36.3696 34.2633 36.5762 34.39C36.7829 34.5167 36.9462 34.6833 37.0662 34.89C37.1929 35.0967 37.2562 35.3267 37.2562 35.58V40H35.9562V35.63C35.9562 35.5967 35.9429 35.57 35.9162 35.55C35.8896 35.5233 35.8596 35.51 35.8262 35.51H33.7562C33.7229 35.51 33.6929 35.5233 33.6662 35.55C33.6462 35.57 33.6362 35.5967 33.6362 35.63V40H32.3162V35.63C32.3162 35.5967 32.3029 35.57 32.2762 35.55C32.2562 35.5233 32.2296 35.51 32.1962 35.51H30.1162C30.0829 35.51 30.0529 35.5233 30.0262 35.55C30.0062 35.57 29.9962 35.5967 29.9962 35.63V40H28.6862ZM38.071 42.3V34.2H42.581C42.8343 34.2 43.0643 34.2633 43.271 34.39C43.4843 34.5167 43.651 34.6833 43.771 34.89C43.8977 35.0967 43.961 35.3267 43.961 35.58V38.62C43.961 38.8733 43.8977 39.1033 43.771 39.31C43.651 39.5167 43.4843 39.6833 43.271 39.81C43.0643 39.9367 42.8343 40 42.581 40H39.381V42.3H38.071ZM39.501 38.69H42.531C42.5643 38.69 42.591 38.68 42.611 38.66C42.6377 38.6333 42.651 38.6033 42.651 38.57V35.63C42.651 35.5967 42.6377 35.57 42.611 35.55C42.591 35.5233 42.5643 35.51 42.531 35.51H39.501C39.4677 35.51 39.4377 35.5233 39.411 35.55C39.391 35.57 39.381 35.5967 39.381 35.63V38.57C39.381 38.6033 39.391 38.6333 39.411 38.66C39.4377 38.68 39.4677 38.69 39.501 38.69ZM46.0716 40C45.8183 40 45.585 39.9367 45.3716 39.81C45.165 39.6833 44.9983 39.5167 44.8716 39.31C44.7516 39.1033 44.6916 38.8733 44.6916 38.62V36.44H49.2716V35.63C49.2716 35.5967 49.2583 35.57 49.2316 35.55C49.2116 35.5233 49.185 35.51 49.1516 35.51H44.6916V34.2H49.2016C49.455 34.2 49.685 34.2633 49.8916 34.39C50.105 34.5167 50.2716 34.6833 50.3916 34.89C50.5183 35.0967 50.5816 35.3267 50.5816 35.58V40H46.0716ZM46.1216 38.69H49.2716V37.62H46.0016V38.57C46.0016 38.6033 46.0116 38.6333 46.0316 38.66C46.0583 38.68 46.0883 38.69 46.1216 38.69ZM51.5476 40V34.2H56.0576C56.3109 34.2 56.5409 34.2633 56.7476 34.39C56.9609 34.5167 57.1276 34.6833 57.2476 34.89C57.3742 35.0967 57.4376 35.3267 57.4376 35.58V40H56.1276V35.63C56.1276 35.5967 56.1142 35.57 56.0876 35.55C56.0676 35.5233 56.0409 35.51 56.0076 35.51H52.9776C52.9442 35.51 52.9142 35.5233 52.8876 35.55C52.8676 35.57 52.8576 35.5967 52.8576 35.63V40H51.5476ZM58.4905 40V34.2H59.8005V40H58.4905ZM58.4905 33.62V32.3H59.8005V33.62H58.4905ZM62.0773 40C61.8239 40 61.5939 39.9367 61.3873 39.81C61.1806 39.6833 61.0139 39.5167 60.8873 39.31C60.7606 39.1033 60.6973 38.8733 60.6973 38.62V35.58C60.6973 35.3267 60.7606 35.0967 60.8873 34.89C61.0139 34.6833 61.1806 34.5167 61.3873 34.39C61.5939 34.2633 61.8239 34.2 62.0773 34.2H65.2073C65.4606 34.2 65.6906 34.2633 65.8973 34.39C66.1106 34.5167 66.2773 34.6833 66.3973 34.89C66.5239 35.0967 66.5873 35.3267 66.5873 35.58V38.62C66.5873 38.8733 66.5239 39.1033 66.3973 39.31C66.2773 39.5167 66.1139 39.6833 65.9073 39.81C65.7006 39.9367 65.4673 40 65.2073 40H62.0773ZM62.1273 38.69H65.1573C65.1906 38.69 65.2173 38.68 65.2373 38.66C65.2639 38.6333 65.2773 38.6033 65.2773 38.57V35.63C65.2773 35.5967 65.2639 35.57 65.2373 35.55C65.2173 35.5233 65.1906 35.51 65.1573 35.51H62.1273C62.0939 35.51 62.0639 35.5233 62.0373 35.55C62.0173 35.57 62.0073 35.5967 62.0073 35.63V38.57C62.0073 38.6033 62.0173 38.6333 62.0373 38.66C62.0639 38.68 62.0939 38.69 62.1273 38.69ZM67.4069 40V34.2H71.9169C72.1703 34.2 72.4003 34.2633 72.6069 34.39C72.8203 34.5167 72.9869 34.6833 73.1069 34.89C73.2336 35.0967 73.2969 35.3267 73.2969 35.58V40H71.9869V35.63C71.9869 35.5967 71.9736 35.57 71.9469 35.55C71.9269 35.5233 71.9003 35.51 71.8669 35.51H68.8369C68.8036 35.51 68.7736 35.5233 68.7469 35.55C68.7269 35.57 68.7169 35.5967 68.7169 35.63V40H67.4069ZM13.5898 53V45.8H19.1098C19.3631 45.8 19.5931 45.8633 19.7998 45.99C20.0131 46.1167 20.1831 46.2867 20.3098 46.5C20.4364 46.7067 20.4998 46.9367 20.4998 47.19V48.6C20.4998 48.6867 20.4931 48.77 20.4798 48.85C20.4664 48.93 20.4431 49.0067 20.4098 49.08C20.5231 49.2333 20.6131 49.3933 20.6798 49.56C20.7531 49.7267 20.7898 49.8933 20.7898 50.06V51.61C20.7898 51.8633 20.7264 52.0967 20.5998 52.31C20.4731 52.5167 20.3031 52.6833 20.0898 52.81C19.8764 52.9367 19.6431 53 19.3898 53H13.5898ZM15.0298 51.67H19.3298C19.3631 51.67 19.3931 51.66 19.4198 51.64C19.4464 51.6133 19.4598 51.5833 19.4598 51.55V50.12C19.4598 50.0867 19.4464 50.06 19.4198 50.04C19.3931 50.0133 19.3631 50 19.3298 50H15.0298C14.9964 50 14.9664 50.0133 14.9398 50.04C14.9198 50.06 14.9098 50.0867 14.9098 50.12V51.55C14.9098 51.5833 14.9198 51.6133 14.9398 51.64C14.9664 51.66 14.9964 51.67 15.0298 51.67ZM15.0298 48.67H19.0498C19.0831 48.67 19.1098 48.66 19.1298 48.64C19.1498 48.6133 19.1598 48.5833 19.1598 48.55V47.25C19.1598 47.2167 19.1498 47.19 19.1298 47.17C19.1098 47.1433 19.0831 47.13 19.0498 47.13H15.0298C14.9964 47.13 14.9664 47.1433 14.9398 47.17C14.9198 47.19 14.9098 47.2167 14.9098 47.25V48.55C14.9098 48.5833 14.9198 48.6133 14.9398 48.64C14.9664 48.66 14.9964 48.67 15.0298 48.67ZM23.2101 53C22.9567 53 22.7267 52.9367 22.5201 52.81C22.3134 52.6833 22.1467 52.5167 22.0201 52.31C21.8934 52.1033 21.8301 51.8733 21.8301 51.62V48.58C21.8301 48.3267 21.8934 48.0967 22.0201 47.89C22.1467 47.6833 22.3134 47.5167 22.5201 47.39C22.7267 47.2633 22.9567 47.2 23.2101 47.2H26.3401C26.5934 47.2 26.8234 47.2633 27.0301 47.39C27.2434 47.5167 27.4101 47.6833 27.5301 47.89C27.6567 48.0967 27.7201 48.3267 27.7201 48.58V51.62C27.7201 51.8733 27.6567 52.1033 27.5301 52.31C27.4101 52.5167 27.2467 52.6833 27.0401 52.81C26.8334 52.9367 26.6001 53 26.3401 53H23.2101ZM23.2601 51.69H26.2901C26.3234 51.69 26.3501 51.68 26.3701 51.66C26.3967 51.6333 26.4101 51.6033 26.4101 51.57V48.63C26.4101 48.5967 26.3967 48.57 26.3701 48.55C26.3501 48.5233 26.3234 48.51 26.2901 48.51H23.2601C23.2267 48.51 23.1967 48.5233 23.1701 48.55C23.1501 48.57 23.1401 48.5967 23.1401 48.63V51.57C23.1401 51.6033 23.1501 51.6333 23.1701 51.66C23.1967 51.68 23.2267 51.69 23.2601 51.69ZM29.9586 53C29.7053 53 29.4753 52.9367 29.2686 52.81C29.0619 52.6833 28.8953 52.5167 28.7686 52.31C28.6419 52.1033 28.5786 51.8733 28.5786 51.62V45.42H29.8886V47.2H32.1486V48.51H29.8886V51.57C29.8886 51.6033 29.8986 51.6333 29.9186 51.66C29.9453 51.68 29.9753 51.69 30.0086 51.69H32.1486V53H29.9586Z" fill="#090136"/>
<path d="M21.5418 63.1209V63.6389H20.2118V67.9999H19.5748V63.6389H18.2378V63.1209H21.5418ZM22.0879 66.0679C22.0879 65.6759 22.1672 65.3329 22.3259 65.0389C22.4845 64.7402 22.7015 64.5092 22.9769 64.3459C23.2569 64.1825 23.5672 64.1009 23.9079 64.1009C24.2439 64.1009 24.5355 64.1732 24.7829 64.3179C25.0302 64.4625 25.2145 64.6445 25.3359 64.8639V64.1639H25.9799V67.9999H25.3359V67.2859C25.2099 67.5099 25.0209 67.6965 24.7689 67.8459C24.5215 67.9905 24.2322 68.0629 23.9009 68.0629C23.5602 68.0629 23.2522 67.9789 22.9769 67.8109C22.7015 67.6429 22.4845 67.4072 22.3259 67.1039C22.1672 66.8005 22.0879 66.4552 22.0879 66.0679ZM25.3359 66.0749C25.3359 65.7855 25.2775 65.5335 25.1609 65.3189C25.0442 65.1042 24.8855 64.9409 24.6849 64.8289C24.4889 64.7122 24.2719 64.6539 24.0339 64.6539C23.7959 64.6539 23.5789 64.7099 23.3829 64.8219C23.1869 64.9339 23.0305 65.0972 22.9139 65.3119C22.7972 65.5265 22.7389 65.7785 22.7389 66.0679C22.7389 66.3619 22.7972 66.6185 22.9139 66.8379C23.0305 67.0525 23.1869 67.2182 23.3829 67.3349C23.5789 67.4469 23.7959 67.5029 24.0339 67.5029C24.2719 67.5029 24.4889 67.4469 24.6849 67.3349C24.8855 67.2182 25.0442 67.0525 25.1609 66.8379C25.2775 66.6185 25.3359 66.3642 25.3359 66.0749ZM27.6933 62.8199V67.9999H27.0563V62.8199H27.6933ZM30.921 67.9999L29.416 66.3059V67.9999H28.779V62.8199H29.416V65.8649L30.893 64.1639H31.782L29.976 66.0749L31.789 67.9999H30.921ZM39.3577 64.1639L38.1607 67.9999H37.5027L36.5787 64.9549L35.6547 67.9999H34.9967L33.7927 64.1639H34.4437L35.3257 67.3839L36.2777 64.1639H36.9287L37.8597 67.3909L38.7277 64.1639H39.3577ZM40.3189 63.5409C40.1976 63.5409 40.0949 63.4989 40.0109 63.4149C39.9269 63.3309 39.8849 63.2282 39.8849 63.1069C39.8849 62.9855 39.9269 62.8829 40.0109 62.7989C40.0949 62.7149 40.1976 62.6729 40.3189 62.6729C40.4356 62.6729 40.5336 62.7149 40.6129 62.7989C40.6969 62.8829 40.7389 62.9855 40.7389 63.1069C40.7389 63.2282 40.6969 63.3309 40.6129 63.4149C40.5336 63.4989 40.4356 63.5409 40.3189 63.5409ZM40.6269 64.1639V67.9999H39.9899V64.1639H40.6269ZM42.4896 64.6889V66.9499C42.4896 67.1365 42.5293 67.2695 42.6086 67.3489C42.6879 67.4235 42.8256 67.4609 43.0216 67.4609H43.4906V67.9999H42.9166C42.5619 67.9999 42.2959 67.9182 42.1186 67.7549C41.9413 67.5915 41.8526 67.3232 41.8526 66.9499V64.6889H41.3556V64.1639H41.8526V63.1979H42.4896V64.1639H43.4906V64.6889H42.4896ZM46.1664 64.0939C46.4557 64.0939 46.7171 64.1569 46.9504 64.2829C47.1837 64.4042 47.3657 64.5885 47.4964 64.8359C47.6317 65.0832 47.6994 65.3842 47.6994 65.7389V67.9999H47.0694V65.8299C47.0694 65.4472 46.9737 65.1555 46.7824 64.9549C46.5911 64.7495 46.3297 64.6469 45.9984 64.6469C45.6624 64.6469 45.3941 64.7519 45.1934 64.9619C44.9974 65.1719 44.8994 65.4775 44.8994 65.8789V67.9999H44.2624V62.8199H44.8994V64.7099C45.0254 64.5139 45.1981 64.3622 45.4174 64.2549C45.6414 64.1475 45.8911 64.0939 46.1664 64.0939ZM51.3831 64.6889V66.9499C51.3831 67.1365 51.4228 67.2695 51.5021 67.3489C51.5815 67.4235 51.7191 67.4609 51.9151 67.4609H52.3841V67.9999H51.8101C51.4555 67.9999 51.1895 67.9182 51.0121 67.7549C50.8348 67.5915 50.7461 67.3232 50.7461 66.9499V64.6889H50.2491V64.1639H50.7461V63.1979H51.3831V64.1639H52.3841V64.6889H51.3831ZM55.0599 64.0939C55.3493 64.0939 55.6106 64.1569 55.8439 64.2829C56.0773 64.4042 56.2593 64.5885 56.3899 64.8359C56.5253 65.0832 56.5929 65.3842 56.5929 65.7389V67.9999H55.9629V65.8299C55.9629 65.4472 55.8673 65.1555 55.6759 64.9549C55.4846 64.7495 55.2233 64.6469 54.8919 64.6469C54.5559 64.6469 54.2876 64.7519 54.0869 64.9619C53.8909 65.1719 53.7929 65.4775 53.7929 65.8789V67.9999H53.1559V62.8199H53.7929V64.7099C53.9189 64.5139 54.0916 64.3622 54.3109 64.2549C54.5349 64.1475 54.7846 64.0939 55.0599 64.0939ZM61.1335 65.9349C61.1335 66.0562 61.1265 66.1845 61.1125 66.3199H58.0465C58.0698 66.6979 58.1981 66.9942 58.4315 67.2089C58.6695 67.4189 58.9565 67.5239 59.2925 67.5239C59.5678 67.5239 59.7965 67.4609 59.9785 67.3349C60.1651 67.2042 60.2958 67.0315 60.3705 66.8169H61.0565C60.9538 67.1855 60.7485 67.4865 60.4405 67.7199C60.1325 67.9485 59.7498 68.0629 59.2925 68.0629C58.9285 68.0629 58.6018 67.9812 58.3125 67.8179C58.0278 67.6545 57.8038 67.4235 57.6405 67.1249C57.4771 66.8215 57.3955 66.4715 57.3955 66.0749C57.3955 65.6782 57.4748 65.3305 57.6335 65.0319C57.7921 64.7332 58.0138 64.5045 58.2985 64.3459C58.5878 64.1825 58.9191 64.1009 59.2925 64.1009C59.6565 64.1009 59.9785 64.1802 60.2585 64.3389C60.5385 64.4975 60.7531 64.7169 60.9025 64.9969C61.0565 65.2722 61.1335 65.5849 61.1335 65.9349ZM60.4755 65.8019C60.4755 65.5592 60.4218 65.3515 60.3145 65.1789C60.2071 65.0015 60.0601 64.8685 59.8735 64.7799C59.6915 64.6865 59.4885 64.6399 59.2645 64.6399C58.9425 64.6399 58.6671 64.7425 58.4385 64.9479C58.2145 65.1532 58.0861 65.4379 58.0535 65.8019H60.4755ZM18.3008 90.0679C18.3008 89.6759 18.3801 89.3329 18.5388 89.0389C18.6974 88.7402 18.9144 88.5092 19.1898 88.3459C19.4698 88.1825 19.7801 88.1009 20.1208 88.1009C20.4568 88.1009 20.7484 88.1732 20.9958 88.3179C21.2431 88.4625 21.4274 88.6445 21.5488 88.8639V88.1639H22.1928V91.9999H21.5488V91.2859C21.4228 91.5099 21.2338 91.6965 20.9818 91.8459C20.7344 91.9905 20.4451 92.0629 20.1138 92.0629C19.7731 92.0629 19.4651 91.9789 19.1898 91.8109C18.9144 91.6429 18.6974 91.4072 18.5388 91.1039C18.3801 90.8005 18.3008 90.4552 18.3008 90.0679ZM21.5488 90.0749C21.5488 89.7855 21.4904 89.5335 21.3738 89.3189C21.2571 89.1042 21.0984 88.9409 20.8978 88.8289C20.7018 88.7122 20.4848 88.6539 20.2468 88.6539C20.0088 88.6539 19.7918 88.7099 19.5958 88.8219C19.3998 88.9339 19.2434 89.0972 19.1268 89.3119C19.0101 89.5265 18.9518 89.7785 18.9518 90.0679C18.9518 90.3619 19.0101 90.6185 19.1268 90.8379C19.2434 91.0525 19.3998 91.2182 19.5958 91.3349C19.7918 91.4469 20.0088 91.5029 20.2468 91.5029C20.4848 91.5029 20.7018 91.4469 20.8978 91.3349C21.0984 91.2182 21.2571 91.0525 21.3738 90.8379C21.4904 90.6185 21.5488 90.3642 21.5488 90.0749ZM24.6272 92.0629C24.3332 92.0629 24.0696 92.0139 23.8362 91.9159C23.6029 91.8132 23.4186 91.6732 23.2832 91.4959C23.1479 91.3139 23.0732 91.1062 23.0592 90.8729H23.7172C23.7359 91.0642 23.8246 91.2205 23.9832 91.3419C24.1466 91.4632 24.3589 91.5239 24.6202 91.5239C24.8629 91.5239 25.0542 91.4702 25.1942 91.3629C25.3342 91.2555 25.4042 91.1202 25.4042 90.9569C25.4042 90.7889 25.3296 90.6652 25.1802 90.5859C25.0309 90.5019 24.7999 90.4202 24.4872 90.3409C24.2026 90.2662 23.9692 90.1915 23.7872 90.1169C23.6099 90.0375 23.4559 89.9232 23.3252 89.7739C23.1992 89.6199 23.1362 89.4192 23.1362 89.1719C23.1362 88.9759 23.1946 88.7962 23.3112 88.6329C23.4279 88.4695 23.5936 88.3412 23.8082 88.2479C24.0229 88.1499 24.2679 88.1009 24.5432 88.1009C24.9679 88.1009 25.3109 88.2082 25.5722 88.4229C25.8336 88.6375 25.9736 88.9315 25.9922 89.3049H25.3552C25.3412 89.1042 25.2596 88.9432 25.1102 88.8219C24.9656 88.7005 24.7696 88.6399 24.5222 88.6399C24.2936 88.6399 24.1116 88.6889 23.9762 88.7869C23.8409 88.8849 23.7732 89.0132 23.7732 89.1719C23.7732 89.2979 23.8129 89.4029 23.8922 89.4869C23.9762 89.5662 24.0789 89.6315 24.2002 89.6829C24.3262 89.7295 24.4989 89.7832 24.7182 89.8439C24.9936 89.9185 25.2176 89.9932 25.3902 90.0679C25.5629 90.1379 25.7099 90.2452 25.8312 90.3899C25.9572 90.5345 26.0226 90.7235 26.0272 90.9569C26.0272 91.1669 25.9689 91.3559 25.8522 91.5239C25.7356 91.6919 25.5699 91.8249 25.3552 91.9229C25.1452 92.0162 24.9026 92.0629 24.6272 92.0629ZM28.2845 92.0629C27.9905 92.0629 27.7268 92.0139 27.4935 91.9159C27.2601 91.8132 27.0758 91.6732 26.9405 91.4959C26.8051 91.3139 26.7305 91.1062 26.7165 90.8729H27.3745C27.3931 91.0642 27.4818 91.2205 27.6405 91.3419C27.8038 91.4632 28.0161 91.5239 28.2775 91.5239C28.5201 91.5239 28.7115 91.4702 28.8515 91.3629C28.9915 91.2555 29.0615 91.1202 29.0615 90.9569C29.0615 90.7889 28.9868 90.6652 28.8375 90.5859C28.6881 90.5019 28.4571 90.4202 28.1445 90.3409C27.8598 90.2662 27.6265 90.1915 27.4445 90.1169C27.2671 90.0375 27.1131 89.9232 26.9825 89.7739C26.8565 89.6199 26.7935 89.4192 26.7935 89.1719C26.7935 88.9759 26.8518 88.7962 26.9685 88.6329C27.0851 88.4695 27.2508 88.3412 27.4655 88.2479C27.6801 88.1499 27.9251 88.1009 28.2005 88.1009C28.6251 88.1009 28.9681 88.2082 29.2295 88.4229C29.4908 88.6375 29.6308 88.9315 29.6495 89.3049H29.0125C28.9985 89.1042 28.9168 88.9432 28.7675 88.8219C28.6228 88.7005 28.4268 88.6399 28.1795 88.6399C27.9508 88.6399 27.7688 88.6889 27.6335 88.7869C27.4981 88.8849 27.4305 89.0132 27.4305 89.1719C27.4305 89.2979 27.4701 89.4029 27.5495 89.4869C27.6335 89.5662 27.7361 89.6315 27.8575 89.6829C27.9835 89.7295 28.1561 89.7832 28.3755 89.8439C28.6508 89.9185 28.8748 89.9932 29.0475 90.0679C29.2201 90.1379 29.3671 90.2452 29.4885 90.3899C29.6145 90.5345 29.6798 90.7235 29.6845 90.9569C29.6845 91.1669 29.6261 91.3559 29.5095 91.5239C29.3928 91.6919 29.2271 91.8249 29.0125 91.9229C28.8025 92.0162 28.5598 92.0629 28.2845 92.0629ZM30.9127 87.5409C30.7913 87.5409 30.6887 87.4989 30.6047 87.4149C30.5207 87.3309 30.4787 87.2282 30.4787 87.1069C30.4787 86.9855 30.5207 86.8829 30.6047 86.7989C30.6887 86.7149 30.7913 86.6729 30.9127 86.6729C31.0293 86.6729 31.1273 86.7149 31.2067 86.7989C31.2907 86.8829 31.3327 86.9855 31.3327 87.1069C31.3327 87.2282 31.2907 87.3309 31.2067 87.4149C31.1273 87.4989 31.0293 87.5409 30.9127 87.5409ZM31.2207 88.1639V91.9999H30.5837V88.1639H31.2207ZM33.6643 92.0629C33.3703 92.0629 33.1067 92.0139 32.8733 91.9159C32.64 91.8132 32.4557 91.6732 32.3203 91.4959C32.185 91.3139 32.1103 91.1062 32.0963 90.8729H32.7543C32.773 91.0642 32.8617 91.2205 33.0203 91.3419C33.1837 91.4632 33.396 91.5239 33.6573 91.5239C33.9 91.5239 34.0913 91.4702 34.2313 91.3629C34.3713 91.2555 34.4413 91.1202 34.4413 90.9569C34.4413 90.7889 34.3667 90.6652 34.2173 90.5859C34.068 90.5019 33.837 90.4202 33.5243 90.3409C33.2397 90.2662 33.0063 90.1915 32.8243 90.1169C32.647 90.0375 32.493 89.9232 32.3623 89.7739C32.2363 89.6199 32.1733 89.4192 32.1733 89.1719C32.1733 88.9759 32.2317 88.7962 32.3483 88.6329C32.465 88.4695 32.6307 88.3412 32.8453 88.2479C33.06 88.1499 33.305 88.1009 33.5803 88.1009C34.005 88.1009 34.348 88.2082 34.6093 88.4229C34.8707 88.6375 35.0107 88.9315 35.0293 89.3049H34.3923C34.3783 89.1042 34.2967 88.9432 34.1473 88.8219C34.0027 88.7005 33.8067 88.6399 33.5593 88.6399C33.3307 88.6399 33.1487 88.6889 33.0133 88.7869C32.878 88.8849 32.8103 89.0132 32.8103 89.1719C32.8103 89.2979 32.85 89.4029 32.9293 89.4869C33.0133 89.5662 33.116 89.6315 33.2373 89.6829C33.3633 89.7295 33.536 89.7832 33.7553 89.8439C34.0307 89.9185 34.2547 89.9932 34.4273 90.0679C34.6 90.1379 34.747 90.2452 34.8683 90.3899C34.9943 90.5345 35.0597 90.7235 35.0643 90.9569C35.0643 91.1669 35.006 91.3559 34.8893 91.5239C34.7727 91.6919 34.607 91.8249 34.3923 91.9229C34.1823 92.0162 33.9397 92.0629 33.6643 92.0629ZM36.7406 88.6889V90.9499C36.7406 91.1365 36.7802 91.2695 36.8596 91.3489C36.9389 91.4235 37.0766 91.4609 37.2726 91.4609H37.7416V91.9999H37.1676C36.8129 91.9999 36.5469 91.9182 36.3696 91.7549C36.1922 91.5915 36.1036 91.3232 36.1036 90.9499V88.6889H35.6066V88.1639H36.1036V87.1979H36.7406V88.1639H37.7416V88.6889H36.7406ZM38.2754 90.0679C38.2754 89.6759 38.3547 89.3329 38.5134 89.0389C38.672 88.7402 38.889 88.5092 39.1644 88.3459C39.4444 88.1825 39.7547 88.1009 40.0954 88.1009C40.4314 88.1009 40.723 88.1732 40.9704 88.3179C41.2177 88.4625 41.402 88.6445 41.5234 88.8639V88.1639H42.1674V91.9999H41.5234V91.2859C41.3974 91.5099 41.2084 91.6965 40.9564 91.8459C40.709 91.9905 40.4197 92.0629 40.0884 92.0629C39.7477 92.0629 39.4397 91.9789 39.1644 91.8109C38.889 91.6429 38.672 91.4072 38.5134 91.1039C38.3547 90.8005 38.2754 90.4552 38.2754 90.0679ZM41.5234 90.0749C41.5234 89.7855 41.465 89.5335 41.3484 89.3189C41.2317 89.1042 41.073 88.9409 40.8724 88.8289C40.6764 88.7122 40.4594 88.6539 40.2214 88.6539C39.9834 88.6539 39.7664 88.7099 39.5704 88.8219C39.3744 88.9339 39.218 89.0972 39.1014 89.3119C38.9847 89.5265 38.9264 89.7785 38.9264 90.0679C38.9264 90.3619 38.9847 90.6185 39.1014 90.8379C39.218 91.0525 39.3744 91.2182 39.5704 91.3349C39.7664 91.4469 39.9834 91.5029 40.2214 91.5029C40.4594 91.5029 40.6764 91.4469 40.8724 91.3349C41.073 91.2182 41.2317 91.0525 41.3484 90.8379C41.465 90.6185 41.5234 90.3642 41.5234 90.0749ZM45.1128 88.0939C45.5795 88.0939 45.9575 88.2362 46.2468 88.5209C46.5362 88.8009 46.6808 89.2069 46.6808 89.7389V91.9999H46.0508V89.8299C46.0508 89.4472 45.9552 89.1555 45.7638 88.9549C45.5725 88.7495 45.3112 88.6469 44.9798 88.6469C44.6438 88.6469 44.3755 88.7519 44.1748 88.9619C43.9788 89.1719 43.8808 89.4775 43.8808 89.8789V91.9999H43.2438V88.1639H43.8808V88.7099C44.0068 88.5139 44.1772 88.3622 44.3918 88.2549C44.6112 88.1475 44.8515 88.0939 45.1128 88.0939ZM48.4984 88.6889V90.9499C48.4984 91.1365 48.538 91.2695 48.6174 91.3489C48.6967 91.4235 48.8344 91.4609 49.0304 91.4609H49.4994V91.9999H48.9254C48.5707 91.9999 48.3047 91.9182 48.1274 91.7549C47.95 91.5915 47.8614 91.3232 47.8614 90.9499V88.6889H47.3644V88.1639H47.8614V87.1979H48.4984V88.1639H49.4994V88.6889H48.4984ZM22.2978 99.1209V104H21.6608V101.788H19.1758V104H18.5388V99.1209H19.1758V101.263H21.6608V99.1209H22.2978ZM23.1474 102.068C23.1474 101.676 23.2268 101.333 23.3854 101.039C23.5441 100.74 23.7611 100.509 24.0364 100.346C24.3164 100.183 24.6268 100.101 24.9674 100.101C25.3034 100.101 25.5951 100.173 25.8424 100.318C26.0898 100.463 26.2741 100.645 26.3954 100.864V100.164H27.0394V104H26.3954V103.286C26.2694 103.51 26.0804 103.697 25.8284 103.846C25.5811 103.991 25.2918 104.063 24.9604 104.063C24.6198 104.063 24.3118 103.979 24.0364 103.811C23.7611 103.643 23.5441 103.407 23.3854 103.104C23.2268 102.801 23.1474 102.455 23.1474 102.068ZM26.3954 102.075C26.3954 101.786 26.3371 101.534 26.2204 101.319C26.1038 101.104 25.9451 100.941 25.7444 100.829C25.5484 100.712 25.3314 100.654 25.0934 100.654C24.8554 100.654 24.6384 100.71 24.4424 100.822C24.2464 100.934 24.0901 101.097 23.9734 101.312C23.8568 101.527 23.7984 101.779 23.7984 102.068C23.7984 102.362 23.8568 102.619 23.9734 102.838C24.0901 103.053 24.2464 103.218 24.4424 103.335C24.6384 103.447 24.8554 103.503 25.0934 103.503C25.3314 103.503 25.5484 103.447 25.7444 103.335C25.9451 103.218 26.1038 103.053 26.2204 102.838C26.3371 102.619 26.3954 102.364 26.3954 102.075ZM29.5439 103.412L30.7339 100.164H31.4129L29.9079 104H29.1659L27.6609 100.164H28.3469L29.5439 103.412ZM35.5397 101.935C35.5397 102.056 35.5327 102.185 35.5187 102.32H32.4527C32.4761 102.698 32.6044 102.994 32.8377 103.209C33.0757 103.419 33.3627 103.524 33.6987 103.524C33.9741 103.524 34.2027 103.461 34.3847 103.335C34.5714 103.204 34.7021 103.032 34.7767 102.817H35.4627C35.3601 103.186 35.1547 103.487 34.8467 103.72C34.5387 103.949 34.1561 104.063 33.6987 104.063C33.3347 104.063 33.0081 103.981 32.7187 103.818C32.4341 103.655 32.2101 103.424 32.0467 103.125C31.8834 102.822 31.8017 102.472 31.8017 102.075C31.8017 101.678 31.8811 101.331 32.0397 101.032C32.1984 100.733 32.4201 100.505 32.7047 100.346C32.9941 100.183 33.3254 100.101 33.6987 100.101C34.0627 100.101 34.3847 100.18 34.6647 100.339C34.9447 100.498 35.1594 100.717 35.3087 100.997C35.4627 101.272 35.5397 101.585 35.5397 101.935ZM34.8817 101.802C34.8817 101.559 34.8281 101.352 34.7207 101.179C34.6134 101.002 34.4664 100.869 34.2797 100.78C34.0977 100.687 33.8947 100.64 33.6707 100.64C33.3487 100.64 33.0734 100.743 32.8447 100.948C32.6207 101.153 32.4924 101.438 32.4597 101.802H34.8817ZM38.0088 102.068C38.0088 101.676 38.0881 101.333 38.2468 101.039C38.4054 100.74 38.6224 100.509 38.8978 100.346C39.1778 100.183 39.4881 100.101 39.8288 100.101C40.1648 100.101 40.4564 100.173 40.7038 100.318C40.9511 100.463 41.1354 100.645 41.2568 100.864V100.164H41.9008V104H41.2568V103.286C41.1308 103.51 40.9418 103.697 40.6898 103.846C40.4424 103.991 40.1531 104.063 39.8218 104.063C39.4811 104.063 39.1731 103.979 38.8978 103.811C38.6224 103.643 38.4054 103.407 38.2468 103.104C38.0881 102.801 38.0088 102.455 38.0088 102.068ZM41.2568 102.075C41.2568 101.786 41.1984 101.534 41.0818 101.319C40.9651 101.104 40.8064 100.941 40.6058 100.829C40.4098 100.712 40.1928 100.654 39.9548 100.654C39.7168 100.654 39.4998 100.71 39.3038 100.822C39.1078 100.934 38.9514 101.097 38.8348 101.312C38.7181 101.527 38.6598 101.779 38.6598 102.068C38.6598 102.362 38.7181 102.619 38.8348 102.838C38.9514 103.053 39.1078 103.218 39.3038 103.335C39.4998 103.447 39.7168 103.503 39.9548 103.503C40.1928 103.503 40.4098 103.447 40.6058 103.335C40.8064 103.218 40.9651 103.053 41.0818 102.838C41.1984 102.619 41.2568 102.364 41.2568 102.075ZM44.6054 102.068C44.6054 101.676 44.6848 101.333 44.8434 101.039C45.0021 100.74 45.2191 100.509 45.4944 100.346C45.7744 100.183 46.0871 100.101 46.4324 100.101C46.7311 100.101 47.0088 100.171 47.2654 100.311C47.5221 100.446 47.7181 100.626 47.8534 100.85V98.8199H48.4974V104H47.8534V103.279C47.7274 103.508 47.5408 103.697 47.2934 103.846C47.0461 103.991 46.7568 104.063 46.4254 104.063C46.0848 104.063 45.7744 103.979 45.4944 103.811C45.2191 103.643 45.0021 103.407 44.8434 103.104C44.6848 102.801 44.6054 102.455 44.6054 102.068ZM47.8534 102.075C47.8534 101.786 47.7951 101.534 47.6784 101.319C47.5618 101.104 47.4031 100.941 47.2024 100.829C47.0064 100.712 46.7894 100.654 46.5514 100.654C46.3134 100.654 46.0964 100.71 45.9004 100.822C45.7044 100.934 45.5481 101.097 45.4314 101.312C45.3148 101.527 45.2564 101.779 45.2564 102.068C45.2564 102.362 45.3148 102.619 45.4314 102.838C45.5481 103.053 45.7044 103.218 45.9004 103.335C46.0964 103.447 46.3134 103.503 46.5514 103.503C46.7894 103.503 47.0064 103.447 47.2024 103.335C47.4031 103.218 47.5618 103.053 47.6784 102.838C47.7951 102.619 47.8534 102.364 47.8534 102.075ZM49.9029 99.5409C49.7816 99.5409 49.6789 99.4989 49.5949 99.4149C49.5109 99.3309 49.4689 99.2282 49.4689 99.1069C49.4689 98.9855 49.5109 98.8829 49.5949 98.7989C49.6789 98.7149 49.7816 98.6729 49.9029 98.6729C50.0196 98.6729 50.1176 98.7149 50.1969 98.7989C50.2809 98.8829 50.3229 98.9855 50.3229 99.1069C50.3229 99.2282 50.2809 99.3309 50.1969 99.4149C50.1176 99.4989 50.0196 99.5409 49.9029 99.5409ZM50.2109 100.164V104H49.5739V100.164H50.2109ZM52.8786 100.101C53.2099 100.101 53.4992 100.173 53.7466 100.318C53.9986 100.463 54.1852 100.645 54.3066 100.864V100.164H54.9506V104.084C54.9506 104.434 54.8759 104.744 54.7266 105.015C54.5772 105.29 54.3626 105.505 54.0826 105.659C53.8072 105.813 53.4852 105.89 53.1166 105.89C52.6126 105.89 52.1926 105.771 51.8566 105.533C51.5206 105.295 51.3222 104.971 51.2616 104.56H51.8916C51.9616 104.793 52.1062 104.98 52.3256 105.12C52.5449 105.265 52.8086 105.337 53.1166 105.337C53.4666 105.337 53.7512 105.227 53.9706 105.008C54.1946 104.789 54.3066 104.481 54.3066 104.084V103.279C54.1806 103.503 53.9939 103.69 53.7466 103.839C53.4992 103.988 53.2099 104.063 52.8786 104.063C52.5379 104.063 52.2276 103.979 51.9476 103.811C51.6722 103.643 51.4552 103.407 51.2966 103.104C51.1379 102.801 51.0586 102.455 51.0586 102.068C51.0586 101.676 51.1379 101.333 51.2966 101.039C51.4552 100.74 51.6722 100.509 51.9476 100.346C52.2276 100.183 52.5379 100.101 52.8786 100.101ZM54.3066 102.075C54.3066 101.786 54.2482 101.534 54.1316 101.319C54.0149 101.104 53.8562 100.941 53.6556 100.829C53.4596 100.712 53.2426 100.654 53.0046 100.654C52.7666 100.654 52.5496 100.71 52.3536 100.822C52.1576 100.934 52.0012 101.097 51.8846 101.312C51.7679 101.527 51.7096 101.779 51.7096 102.068C51.7096 102.362 51.7679 102.619 51.8846 102.838C52.0012 103.053 52.1576 103.218 52.3536 103.335C52.5496 103.447 52.7666 103.503 53.0046 103.503C53.2426 103.503 53.4596 103.447 53.6556 103.335C53.8562 103.218 54.0149 103.053 54.1316 102.838C54.2482 102.619 54.3066 102.364 54.3066 102.075ZM56.356 99.5409C56.2347 99.5409 56.132 99.4989 56.048 99.4149C55.964 99.3309 55.922 99.2282 55.922 99.1069C55.922 98.9855 55.964 98.8829 56.048 98.7989C56.132 98.7149 56.2347 98.6729 56.356 98.6729C56.4727 98.6729 56.5707 98.7149 56.65 98.7989C56.734 98.8829 56.776 98.9855 56.776 99.1069C56.776 99.2282 56.734 99.3309 56.65 99.4149C56.5707 99.4989 56.4727 99.5409 56.356 99.5409ZM56.664 100.164V104H56.027V100.164H56.664ZM58.5267 100.689V102.95C58.5267 103.137 58.5664 103.27 58.6457 103.349C58.725 103.424 58.8627 103.461 59.0587 103.461H59.5277V104H58.9537C58.599 104 58.333 103.918 58.1557 103.755C57.9784 103.592 57.8897 103.323 57.8897 102.95V100.689H57.3927V100.164H57.8897V99.1979H58.5267V100.164H59.5277V100.689H58.5267ZM60.0615 102.068C60.0615 101.676 60.1408 101.333 60.2995 101.039C60.4582 100.74 60.6752 100.509 60.9505 100.346C61.2305 100.183 61.5408 100.101 61.8815 100.101C62.2175 100.101 62.5092 100.173 62.7565 100.318C63.0038 100.463 63.1882 100.645 63.3095 100.864V100.164H63.9535V104H63.3095V103.286C63.1835 103.51 62.9945 103.697 62.7425 103.846C62.4952 103.991 62.2058 104.063 61.8745 104.063C61.5338 104.063 61.2258 103.979 60.9505 103.811C60.6752 103.643 60.4582 103.407 60.2995 103.104C60.1408 102.801 60.0615 102.455 60.0615 102.068ZM63.3095 102.075C63.3095 101.786 63.2512 101.534 63.1345 101.319C63.0178 101.104 62.8592 100.941 62.6585 100.829C62.4625 100.712 62.2455 100.654 62.0075 100.654C61.7695 100.654 61.5525 100.71 61.3565 100.822C61.1605 100.934 61.0042 101.097 60.8875 101.312C60.7708 101.527 60.7125 101.779 60.7125 102.068C60.7125 102.362 60.7708 102.619 60.8875 102.838C61.0042 103.053 61.1605 103.218 61.3565 103.335C61.5525 103.447 61.7695 103.503 62.0075 103.503C62.2455 103.503 62.4625 103.447 62.6585 103.335C62.8592 103.218 63.0178 103.053 63.1345 102.838C63.2512 102.619 63.3095 102.364 63.3095 102.075ZM65.667 98.8199V104H65.03V98.8199H65.667ZM70.1798 100.689H69.3748V104H68.7378V100.689H68.2408V100.164H68.7378V99.8909C68.7378 99.4615 68.8475 99.1489 69.0668 98.9529C69.2908 98.7522 69.6478 98.6519 70.1378 98.6519V99.1839C69.8578 99.1839 69.6595 99.2399 69.5428 99.3519C69.4308 99.4592 69.3748 99.6389 69.3748 99.8909V100.164H70.1798V100.689ZM71.5595 100.787C71.6715 100.568 71.8302 100.397 72.0355 100.276C72.2455 100.155 72.4999 100.094 72.7985 100.094V100.752H72.6305C71.9165 100.752 71.5595 101.139 71.5595 101.914V104H70.9225V100.164H71.5595V100.787ZM73.8629 99.5409C73.7415 99.5409 73.6389 99.4989 73.5549 99.4149C73.4709 99.3309 73.4289 99.2282 73.4289 99.1069C73.4289 98.9855 73.4709 98.8829 73.5549 98.7989C73.6389 98.7149 73.7415 98.6729 73.8629 98.6729C73.9795 98.6729 74.0775 98.7149 74.1569 98.7989C74.2409 98.8829 74.2829 98.9855 74.2829 99.1069C74.2829 99.2282 74.2409 99.3309 74.1569 99.4149C74.0775 99.4989 73.9795 99.5409 73.8629 99.5409ZM74.1709 100.164V104H73.5339V100.164H74.1709ZM78.7565 101.935C78.7565 102.056 78.7495 102.185 78.7355 102.32H75.6695C75.6929 102.698 75.8212 102.994 76.0545 103.209C76.2925 103.419 76.5795 103.524 76.9155 103.524C77.1909 103.524 77.4195 103.461 77.6015 103.335C77.7882 103.204 77.9189 103.032 77.9935 102.817H78.6795C78.5769 103.186 78.3715 103.487 78.0635 103.72C77.7555 103.949 77.3729 104.063 76.9155 104.063C76.5515 104.063 76.2249 103.981 75.9355 103.818C75.6509 103.655 75.4269 103.424 75.2635 103.125C75.1002 102.822 75.0185 102.472 75.0185 102.075C75.0185 101.678 75.0979 101.331 75.2565 101.032C75.4152 100.733 75.6369 100.505 75.9215 100.346C76.2109 100.183 76.5422 100.101 76.9155 100.101C77.2795 100.101 77.6015 100.18 77.8815 100.339C78.1615 100.498 78.3762 100.717 78.5255 100.997C78.6795 101.272 78.7565 101.585 78.7565 101.935ZM78.0985 101.802C78.0985 101.559 78.0449 101.352 77.9375 101.179C77.8302 101.002 77.6832 100.869 77.4965 100.78C77.3145 100.687 77.1115 100.64 76.8875 100.64C76.5655 100.64 76.2902 100.743 76.0615 100.948C75.8375 101.153 75.7092 101.438 75.6765 101.802H78.0985ZM81.4663 100.094C81.933 100.094 82.311 100.236 82.6003 100.521C82.8897 100.801 83.0343 101.207 83.0343 101.739V104H82.4043V101.83C82.4043 101.447 82.3087 101.156 82.1173 100.955C81.926 100.75 81.6647 100.647 81.3333 100.647C80.9973 100.647 80.729 100.752 80.5283 100.962C80.3323 101.172 80.2343 101.478 80.2343 101.879V104H79.5973V100.164H80.2343V100.71C80.3603 100.514 80.5307 100.362 80.7453 100.255C80.9647 100.148 81.205 100.094 81.4663 100.094ZM83.8369 102.068C83.8369 101.676 83.9162 101.333 84.0749 101.039C84.2336 100.74 84.4506 100.509 84.7259 100.346C85.0059 100.183 85.3186 100.101 85.6639 100.101C85.9626 100.101 86.2402 100.171 86.4969 100.311C86.7536 100.446 86.9496 100.626 87.0849 100.85V98.8199H87.7289V104H87.0849V103.279C86.9589 103.508 86.7722 103.697 86.5249 103.846C86.2776 103.991 85.9882 104.063 85.6569 104.063C85.3162 104.063 85.0059 103.979 84.7259 103.811C84.4506 103.643 84.2336 103.407 84.0749 103.104C83.9162 102.801 83.8369 102.455 83.8369 102.068ZM87.0849 102.075C87.0849 101.786 87.0266 101.534 86.9099 101.319C86.7932 101.104 86.6346 100.941 86.4339 100.829C86.2379 100.712 86.0209 100.654 85.7829 100.654C85.5449 100.654 85.3279 100.71 85.1319 100.822C84.9359 100.934 84.7796 101.097 84.6629 101.312C84.5462 101.527 84.4879 101.779 84.4879 102.068C84.4879 102.362 84.5462 102.619 84.6629 102.838C84.7796 103.053 84.9359 103.218 85.1319 103.335C85.3279 103.447 85.5449 103.503 85.7829 103.503C86.0209 103.503 86.2379 103.447 86.4339 103.335C86.6346 103.218 86.7932 103.053 86.9099 102.838C87.0266 102.619 87.0849 102.364 87.0849 102.075ZM22.3748 116H21.7378L19.1758 112.115V116H18.5388V111.114H19.1758L21.7378 114.992V111.114H22.3748V116ZM25.1336 116.063C24.7743 116.063 24.4476 115.981 24.1536 115.818C23.8643 115.655 23.6356 115.424 23.4676 115.125C23.3043 114.822 23.2226 114.472 23.2226 114.075C23.2226 113.683 23.3066 113.338 23.4746 113.039C23.6473 112.736 23.8806 112.505 24.1746 112.346C24.4686 112.183 24.7976 112.101 25.1616 112.101C25.5256 112.101 25.8546 112.183 26.1486 112.346C26.4426 112.505 26.6736 112.733 26.8416 113.032C27.0143 113.331 27.1006 113.678 27.1006 114.075C27.1006 114.472 27.012 114.822 26.8346 115.125C26.662 115.424 26.4263 115.655 26.1276 115.818C25.829 115.981 25.4976 116.063 25.1336 116.063ZM25.1336 115.503C25.3623 115.503 25.577 115.449 25.7776 115.342C25.9783 115.235 26.1393 115.074 26.2606 114.859C26.3866 114.644 26.4496 114.383 26.4496 114.075C26.4496 113.767 26.389 113.506 26.2676 113.291C26.1463 113.076 25.9876 112.918 25.7916 112.815C25.5956 112.708 25.3833 112.654 25.1546 112.654C24.9213 112.654 24.7066 112.708 24.5106 112.815C24.3193 112.918 24.1653 113.076 24.0486 113.291C23.932 113.506 23.8736 113.767 23.8736 114.075C23.8736 114.388 23.9296 114.651 24.0416 114.866C24.1583 115.081 24.3123 115.242 24.5036 115.349C24.695 115.452 24.905 115.503 25.1336 115.503Z" fill="#090136"/>
<path d="M19.1758 76.8709C19.3018 76.6515 19.4884 76.4695 19.7358 76.3249C19.9878 76.1755 20.2794 76.1009 20.6108 76.1009C20.9514 76.1009 21.2594 76.1825 21.5348 76.3459C21.8148 76.5092 22.0341 76.7402 22.1928 77.0389C22.3514 77.3329 22.4308 77.6759 22.4308 78.0679C22.4308 78.4552 22.3514 78.8005 22.1928 79.1039C22.0341 79.4072 21.8148 79.6429 21.5348 79.8109C21.2594 79.9789 20.9514 80.0629 20.6108 80.0629C20.2841 80.0629 19.9948 79.9905 19.7428 79.8459C19.4954 79.6965 19.3064 79.5122 19.1758 79.2929V81.8199H18.5388V76.1639H19.1758V76.8709ZM21.7798 78.0679C21.7798 77.7785 21.7214 77.5265 21.6048 77.3119C21.4881 77.0972 21.3294 76.9339 21.1288 76.8219C20.9328 76.7099 20.7158 76.6539 20.4778 76.6539C20.2444 76.6539 20.0274 76.7122 19.8268 76.8289C19.6308 76.9409 19.4721 77.1065 19.3508 77.3259C19.2341 77.5405 19.1758 77.7902 19.1758 78.0749C19.1758 78.3642 19.2341 78.6185 19.3508 78.8379C19.4721 79.0525 19.6308 79.2182 19.8268 79.3349C20.0274 79.4469 20.2444 79.5029 20.4778 79.5029C20.7158 79.5029 20.9328 79.4469 21.1288 79.3349C21.3294 79.2182 21.4881 79.0525 21.6048 78.8379C21.7214 78.6185 21.7798 78.3619 21.7798 78.0679ZM26.7692 77.9349C26.7692 78.0562 26.7622 78.1845 26.7482 78.3199H23.6822C23.7056 78.6979 23.8339 78.9942 24.0672 79.2089C24.3052 79.4189 24.5922 79.5239 24.9282 79.5239C25.2036 79.5239 25.4322 79.4609 25.6142 79.3349C25.8009 79.2042 25.9316 79.0315 26.0062 78.8169H26.6922C26.5896 79.1855 26.3842 79.4865 26.0762 79.7199C25.7682 79.9485 25.3856 80.0629 24.9282 80.0629C24.5642 80.0629 24.2376 79.9812 23.9482 79.8179C23.6636 79.6545 23.4396 79.4235 23.2762 79.1249C23.1129 78.8215 23.0312 78.4715 23.0312 78.0749C23.0312 77.6782 23.1106 77.3305 23.2692 77.0319C23.4279 76.7332 23.6496 76.5045 23.9342 76.3459C24.2236 76.1825 24.5549 76.1009 24.9282 76.1009C25.2922 76.1009 25.6142 76.1802 25.8942 76.3389C26.1742 76.4975 26.3889 76.7169 26.5382 76.9969C26.6922 77.2722 26.7692 77.5849 26.7692 77.9349ZM26.1112 77.8019C26.1112 77.5592 26.0576 77.3515 25.9502 77.1789C25.8429 77.0015 25.6959 76.8685 25.5092 76.7799C25.3272 76.6865 25.1242 76.6399 24.9002 76.6399C24.5782 76.6399 24.3029 76.7425 24.0742 76.9479C23.8502 77.1532 23.7219 77.4379 23.6892 77.8019H26.1112ZM28.247 76.7869C28.359 76.5675 28.5177 76.3972 28.723 76.2759C28.933 76.1545 29.1874 76.0939 29.486 76.0939V76.7519H29.318C28.604 76.7519 28.247 77.1392 28.247 77.9139V79.9999H27.61V76.1639H28.247V76.7869ZM31.5794 80.0629C31.2854 80.0629 31.0217 80.0139 30.7884 79.9159C30.555 79.8132 30.3707 79.6732 30.2354 79.4959C30.1 79.3139 30.0254 79.1062 30.0114 78.8729H30.6694C30.688 79.0642 30.7767 79.2205 30.9354 79.3419C31.0987 79.4632 31.311 79.5239 31.5724 79.5239C31.815 79.5239 32.0064 79.4702 32.1464 79.3629C32.2864 79.2555 32.3564 79.1202 32.3564 78.9569C32.3564 78.7889 32.2817 78.6652 32.1324 78.5859C31.983 78.5019 31.752 78.4202 31.4394 78.3409C31.1547 78.2662 30.9214 78.1915 30.7394 78.1169C30.562 78.0375 30.408 77.9232 30.2774 77.7739C30.1514 77.6199 30.0884 77.4192 30.0884 77.1719C30.0884 76.9759 30.1467 76.7962 30.2634 76.6329C30.38 76.4695 30.5457 76.3412 30.7604 76.2479C30.975 76.1499 31.22 76.1009 31.4954 76.1009C31.92 76.1009 32.263 76.2082 32.5244 76.4229C32.7857 76.6375 32.9257 76.9315 32.9444 77.3049H32.3074C32.2934 77.1042 32.2117 76.9432 32.0624 76.8219C31.9177 76.7005 31.7217 76.6399 31.4744 76.6399C31.2457 76.6399 31.0637 76.6889 30.9284 76.7869C30.793 76.8849 30.7254 77.0132 30.7254 77.1719C30.7254 77.2979 30.765 77.4029 30.8444 77.4869C30.9284 77.5662 31.031 77.6315 31.1524 77.6829C31.2784 77.7295 31.451 77.7832 31.6704 77.8439C31.9457 77.9185 32.1697 77.9932 32.3424 78.0679C32.515 78.1379 32.662 78.2452 32.7834 78.3899C32.9094 78.5345 32.9747 78.7235 32.9794 78.9569C32.9794 79.1669 32.921 79.3559 32.8044 79.5239C32.6877 79.6919 32.522 79.8249 32.3074 79.9229C32.0974 80.0162 31.8547 80.0629 31.5794 80.0629ZM35.5516 80.0629C35.1923 80.0629 34.8656 79.9812 34.5716 79.8179C34.2823 79.6545 34.0536 79.4235 33.8856 79.1249C33.7223 78.8215 33.6406 78.4715 33.6406 78.0749C33.6406 77.6829 33.7246 77.3375 33.8926 77.0389C34.0653 76.7355 34.2986 76.5045 34.5926 76.3459C34.8866 76.1825 35.2156 76.1009 35.5796 76.1009C35.9436 76.1009 36.2726 76.1825 36.5666 76.3459C36.8606 76.5045 37.0916 76.7332 37.2596 77.0319C37.4323 77.3305 37.5186 77.6782 37.5186 78.0749C37.5186 78.4715 37.4299 78.8215 37.2526 79.1249C37.0799 79.4235 36.8443 79.6545 36.5456 79.8179C36.2469 79.9812 35.9156 80.0629 35.5516 80.0629ZM35.5516 79.5029C35.7803 79.5029 35.9949 79.4492 36.1956 79.3419C36.3963 79.2345 36.5573 79.0735 36.6786 78.8589C36.8046 78.6442 36.8676 78.3829 36.8676 78.0749C36.8676 77.7669 36.8069 77.5055 36.6856 77.2909C36.5643 77.0762 36.4056 76.9175 36.2096 76.8149C36.0136 76.7075 35.8013 76.6539 35.5726 76.6539C35.3393 76.6539 35.1246 76.7075 34.9286 76.8149C34.7373 76.9175 34.5833 77.0762 34.4666 77.2909C34.3499 77.5055 34.2916 77.7669 34.2916 78.0749C34.2916 78.3875 34.3476 78.6512 34.4596 78.8659C34.5763 79.0805 34.7303 79.2415 34.9216 79.3489C35.1129 79.4515 35.3229 79.5029 35.5516 79.5029ZM40.2251 76.0939C40.6918 76.0939 41.0698 76.2362 41.3591 76.5209C41.6485 76.8009 41.7931 77.2069 41.7931 77.7389V79.9999H41.1631V77.8299C41.1631 77.4472 41.0675 77.1555 40.8761 76.9549C40.6848 76.7495 40.4235 76.6469 40.0921 76.6469C39.7561 76.6469 39.4878 76.7519 39.2871 76.9619C39.0911 77.1719 38.9931 77.4775 38.9931 77.8789V79.9999H38.3561V76.1639H38.9931V76.7099C39.1191 76.5139 39.2895 76.3622 39.5041 76.2549C39.7235 76.1475 39.9638 76.0939 40.2251 76.0939ZM42.5957 78.0679C42.5957 77.6759 42.675 77.3329 42.8337 77.0389C42.9923 76.7402 43.2093 76.5092 43.4847 76.3459C43.7647 76.1825 44.075 76.1009 44.4157 76.1009C44.7517 76.1009 45.0433 76.1732 45.2907 76.3179C45.538 76.4625 45.7223 76.6445 45.8437 76.8639V76.1639H46.4877V79.9999H45.8437V79.2859C45.7177 79.5099 45.5287 79.6965 45.2767 79.8459C45.0293 79.9905 44.74 80.0629 44.4087 80.0629C44.068 80.0629 43.76 79.9789 43.4847 79.8109C43.2093 79.6429 42.9923 79.4072 42.8337 79.1039C42.675 78.8005 42.5957 78.4552 42.5957 78.0679ZM45.8437 78.0749C45.8437 77.7855 45.7853 77.5335 45.6687 77.3189C45.552 77.1042 45.3933 76.9409 45.1927 76.8289C44.9967 76.7122 44.7797 76.6539 44.5417 76.6539C44.3037 76.6539 44.0867 76.7099 43.8907 76.8219C43.6947 76.9339 43.5383 77.0972 43.4217 77.3119C43.305 77.5265 43.2467 77.7785 43.2467 78.0679C43.2467 78.3619 43.305 78.6185 43.4217 78.8379C43.5383 79.0525 43.6947 79.2182 43.8907 79.3349C44.0867 79.4469 44.3037 79.5029 44.5417 79.5029C44.7797 79.5029 44.9967 79.4469 45.1927 79.3349C45.3933 79.2182 45.552 79.0525 45.6687 78.8379C45.7853 78.6185 45.8437 78.3642 45.8437 78.0749ZM48.2011 74.8199V79.9999H47.5641V74.8199H48.2011ZM49.6158 75.5409C49.4945 75.5409 49.3918 75.4989 49.3078 75.4149C49.2238 75.3309 49.1818 75.2282 49.1818 75.1069C49.1818 74.9855 49.2238 74.8829 49.3078 74.7989C49.3918 74.7149 49.4945 74.6729 49.6158 74.6729C49.7325 74.6729 49.8305 74.7149 49.9098 74.7989C49.9938 74.8829 50.0358 74.9855 50.0358 75.1069C50.0358 75.2282 49.9938 75.3309 49.9098 75.4149C49.8305 75.4989 49.7325 75.5409 49.6158 75.5409ZM49.9238 76.1639V79.9999H49.2868V76.1639H49.9238ZM52.3675 80.0629C52.0735 80.0629 51.8098 80.0139 51.5765 79.9159C51.3431 79.8132 51.1588 79.6732 51.0235 79.4959C50.8881 79.3139 50.8135 79.1062 50.7995 78.8729H51.4575C51.4761 79.0642 51.5648 79.2205 51.7235 79.3419C51.8868 79.4632 52.0991 79.5239 52.3605 79.5239C52.6031 79.5239 52.7945 79.4702 52.9345 79.3629C53.0745 79.2555 53.1445 79.1202 53.1445 78.9569C53.1445 78.7889 53.0698 78.6652 52.9205 78.5859C52.7711 78.5019 52.5401 78.4202 52.2275 78.3409C51.9428 78.2662 51.7095 78.1915 51.5275 78.1169C51.3501 78.0375 51.1961 77.9232 51.0655 77.7739C50.9395 77.6199 50.8765 77.4192 50.8765 77.1719C50.8765 76.9759 50.9348 76.7962 51.0515 76.6329C51.1681 76.4695 51.3338 76.3412 51.5485 76.2479C51.7631 76.1499 52.0081 76.1009 52.2835 76.1009C52.7081 76.1009 53.0511 76.2082 53.3125 76.4229C53.5738 76.6375 53.7138 76.9315 53.7325 77.3049H53.0955C53.0815 77.1042 52.9998 76.9432 52.8505 76.8219C52.7058 76.7005 52.5098 76.6399 52.2625 76.6399C52.0338 76.6399 51.8518 76.6889 51.7165 76.7869C51.5811 76.8849 51.5135 77.0132 51.5135 77.1719C51.5135 77.2979 51.5531 77.4029 51.6325 77.4869C51.7165 77.5662 51.8191 77.6315 51.9405 77.6829C52.0665 77.7295 52.2391 77.7832 52.4585 77.8439C52.7338 77.9185 52.9578 77.9932 53.1305 78.0679C53.3031 78.1379 53.4501 78.2452 53.5715 78.3899C53.6975 78.5345 53.7628 78.7235 53.7675 78.9569C53.7675 79.1669 53.7091 79.3559 53.5925 79.5239C53.4758 79.6919 53.3101 79.8249 53.0955 79.9229C52.8855 80.0162 52.6428 80.0629 52.3675 80.0629ZM58.1667 77.9349C58.1667 78.0562 58.1597 78.1845 58.1457 78.3199H55.0797C55.103 78.6979 55.2314 78.9942 55.4647 79.2089C55.7027 79.4189 55.9897 79.5239 56.3257 79.5239C56.601 79.5239 56.8297 79.4609 57.0117 79.3349C57.1984 79.2042 57.329 79.0315 57.4037 78.8169H58.0897C57.987 79.1855 57.7817 79.4865 57.4737 79.7199C57.1657 79.9485 56.783 80.0629 56.3257 80.0629C55.9617 80.0629 55.635 79.9812 55.3457 79.8179C55.061 79.6545 54.837 79.4235 54.6737 79.1249C54.5104 78.8215 54.4287 78.4715 54.4287 78.0749C54.4287 77.6782 54.508 77.3305 54.6667 77.0319C54.8254 76.7332 55.047 76.5045 55.3317 76.3459C55.621 76.1825 55.9524 76.1009 56.3257 76.1009C56.6897 76.1009 57.0117 76.1802 57.2917 76.3389C57.5717 76.4975 57.7864 76.7169 57.9357 76.9969C58.0897 77.2722 58.1667 77.5849 58.1667 77.9349ZM57.5087 77.8019C57.5087 77.5592 57.455 77.3515 57.3477 77.1789C57.2404 77.0015 57.0934 76.8685 56.9067 76.7799C56.7247 76.6865 56.5217 76.6399 56.2977 76.6399C55.9757 76.6399 55.7004 76.7425 55.4717 76.9479C55.2477 77.1532 55.1194 77.4379 55.0867 77.8019H57.5087ZM58.7695 78.0679C58.7695 77.6759 58.8488 77.3329 59.0075 77.0389C59.1662 76.7402 59.3832 76.5092 59.6585 76.3459C59.9385 76.1825 60.2512 76.1009 60.5965 76.1009C60.8952 76.1009 61.1728 76.1709 61.4295 76.3109C61.6862 76.4462 61.8822 76.6259 62.0175 76.8499V74.8199H62.6615V79.9999H62.0175V79.2789C61.8915 79.5075 61.7048 79.6965 61.4575 79.8459C61.2102 79.9905 60.9208 80.0629 60.5895 80.0629C60.2488 80.0629 59.9385 79.9789 59.6585 79.8109C59.3832 79.6429 59.1662 79.4072 59.0075 79.1039C58.8488 78.8005 58.7695 78.4552 58.7695 78.0679ZM62.0175 78.0749C62.0175 77.7855 61.9592 77.5335 61.8425 77.3189C61.7258 77.1042 61.5672 76.9409 61.3665 76.8289C61.1705 76.7122 60.9535 76.6539 60.7155 76.6539C60.4775 76.6539 60.2605 76.7099 60.0645 76.8219C59.8685 76.9339 59.7122 77.0972 59.5955 77.3119C59.4788 77.5265 59.4205 77.7785 59.4205 78.0679C59.4205 78.3619 59.4788 78.6185 59.5955 78.8379C59.7122 79.0525 59.8685 79.2182 60.0645 79.3349C60.2605 79.4469 60.4775 79.5029 60.7155 79.5029C60.9535 79.5029 61.1705 79.4469 61.3665 79.3349C61.5672 79.2182 61.7258 79.0525 61.8425 78.8379C61.9592 78.6185 62.0175 78.3642 62.0175 78.0749ZM30.4414 112.787C30.5534 112.568 30.712 112.397 30.9174 112.276C31.1274 112.155 31.3817 112.094 31.6804 112.094V112.752H31.5124C30.7984 112.752 30.4414 113.139 30.4414 113.914V116H29.8044V112.164H30.4414V112.787ZM35.9157 113.935C35.9157 114.056 35.9087 114.185 35.8947 114.32H32.8287C32.852 114.698 32.9804 114.994 33.2137 115.209C33.4517 115.419 33.7387 115.524 34.0747 115.524C34.35 115.524 34.5787 115.461 34.7607 115.335C34.9474 115.204 35.078 115.032 35.1527 114.817H35.8387C35.736 115.186 35.5307 115.487 35.2227 115.72C34.9147 115.949 34.532 116.063 34.0747 116.063C33.7107 116.063 33.384 115.981 33.0947 115.818C32.81 115.655 32.586 115.424 32.4227 115.125C32.2594 114.822 32.1777 114.472 32.1777 114.075C32.1777 113.678 32.257 113.331 32.4157 113.032C32.5744 112.733 32.796 112.505 33.0807 112.346C33.37 112.183 33.7014 112.101 34.0747 112.101C34.4387 112.101 34.7607 112.18 35.0407 112.339C35.3207 112.498 35.5354 112.717 35.6847 112.997C35.8387 113.272 35.9157 113.585 35.9157 113.935ZM35.2577 113.802C35.2577 113.559 35.204 113.352 35.0967 113.179C34.9894 113.002 34.8424 112.869 34.6557 112.78C34.4737 112.687 34.2707 112.64 34.0467 112.64C33.7247 112.64 33.4494 112.743 33.2207 112.948C32.9967 113.153 32.8684 113.438 32.8357 113.802H35.2577ZM38.1145 116.063C37.8205 116.063 37.5569 116.014 37.3235 115.916C37.0902 115.813 36.9059 115.673 36.7705 115.496C36.6352 115.314 36.5605 115.106 36.5465 114.873H37.2045C37.2232 115.064 37.3119 115.221 37.4705 115.342C37.6339 115.463 37.8462 115.524 38.1075 115.524C38.3502 115.524 38.5415 115.47 38.6815 115.363C38.8215 115.256 38.8915 115.12 38.8915 114.957C38.8915 114.789 38.8169 114.665 38.6675 114.586C38.5182 114.502 38.2872 114.42 37.9745 114.341C37.6899 114.266 37.4565 114.192 37.2745 114.117C37.0972 114.038 36.9432 113.923 36.8125 113.774C36.6865 113.62 36.6235 113.419 36.6235 113.172C36.6235 112.976 36.6819 112.796 36.7985 112.633C36.9152 112.47 37.0809 112.341 37.2955 112.248C37.5102 112.15 37.7552 112.101 38.0305 112.101C38.4552 112.101 38.7982 112.208 39.0595 112.423C39.3209 112.638 39.4609 112.932 39.4795 113.305H38.8425C38.8285 113.104 38.7469 112.943 38.5975 112.822C38.4529 112.701 38.2569 112.64 38.0095 112.64C37.7809 112.64 37.5989 112.689 37.4635 112.787C37.3282 112.885 37.2605 113.013 37.2605 113.172C37.2605 113.298 37.3002 113.403 37.3795 113.487C37.4635 113.566 37.5662 113.632 37.6875 113.683C37.8135 113.73 37.9862 113.783 38.2055 113.844C38.4809 113.919 38.7049 113.993 38.8775 114.068C39.0502 114.138 39.1972 114.245 39.3185 114.39C39.4445 114.535 39.5099 114.724 39.5145 114.957C39.5145 115.167 39.4562 115.356 39.3395 115.524C39.2229 115.692 39.0572 115.825 38.8425 115.923C38.6325 116.016 38.3899 116.063 38.1145 116.063ZM41.1908 112.689V114.95C41.1908 115.137 41.2304 115.27 41.3098 115.349C41.3891 115.424 41.5268 115.461 41.7228 115.461H42.1918V116H41.6178C41.2631 116 40.9971 115.918 40.8198 115.755C40.6424 115.592 40.5538 115.323 40.5538 114.95V112.689H40.0568V112.164H40.5538V111.198H41.1908V112.164H42.1918V112.689H41.1908ZM43.6006 112.787C43.7126 112.568 43.8712 112.397 44.0766 112.276C44.2866 112.155 44.5409 112.094 44.8396 112.094V112.752H44.6716C43.9576 112.752 43.6006 113.139 43.6006 113.914V116H42.9636V112.164H43.6006V112.787ZM45.9039 111.541C45.7826 111.541 45.6799 111.499 45.5959 111.415C45.5119 111.331 45.4699 111.228 45.4699 111.107C45.4699 110.986 45.5119 110.883 45.5959 110.799C45.6799 110.715 45.7826 110.673 45.9039 110.673C46.0206 110.673 46.1186 110.715 46.1979 110.799C46.2819 110.883 46.3239 110.986 46.3239 111.107C46.3239 111.228 46.2819 111.331 46.1979 111.415C46.1186 111.499 46.0206 111.541 45.9039 111.541ZM46.2119 112.164V116H45.5749V112.164H46.2119ZM47.0595 114.075C47.0595 113.678 47.1389 113.333 47.2975 113.039C47.4562 112.74 47.6755 112.509 47.9555 112.346C48.2402 112.183 48.5645 112.101 48.9285 112.101C49.3999 112.101 49.7872 112.215 50.0905 112.444C50.3985 112.673 50.6015 112.99 50.6995 113.396H50.0135C49.9482 113.163 49.8199 112.978 49.6285 112.843C49.4419 112.708 49.2085 112.64 48.9285 112.64C48.5645 112.64 48.2705 112.766 48.0465 113.018C47.8225 113.265 47.7105 113.618 47.7105 114.075C47.7105 114.537 47.8225 114.894 48.0465 115.146C48.2705 115.398 48.5645 115.524 48.9285 115.524C49.2085 115.524 49.4419 115.459 49.6285 115.328C49.8152 115.197 49.9435 115.011 50.0135 114.768H50.6995C50.5969 115.16 50.3915 115.475 50.0835 115.713C49.7755 115.946 49.3905 116.063 48.9285 116.063C48.5645 116.063 48.2402 115.981 47.9555 115.818C47.6755 115.655 47.4562 115.424 47.2975 115.125C47.1389 114.826 47.0595 114.476 47.0595 114.075ZM52.3265 112.689V114.95C52.3265 115.137 52.3662 115.27 52.4455 115.349C52.5248 115.424 52.6625 115.461 52.8585 115.461H53.3275V116H52.7535C52.3988 116 52.1328 115.918 51.9555 115.755C51.7782 115.592 51.6895 115.323 51.6895 114.95V112.689H51.1925V112.164H51.6895V111.198H52.3265V112.164H53.3275V112.689H52.3265ZM54.4283 111.541C54.307 111.541 54.2043 111.499 54.1203 111.415C54.0363 111.331 53.9943 111.228 53.9943 111.107C53.9943 110.986 54.0363 110.883 54.1203 110.799C54.2043 110.715 54.307 110.673 54.4283 110.673C54.545 110.673 54.643 110.715 54.7223 110.799C54.8063 110.883 54.8483 110.986 54.8483 111.107C54.8483 111.228 54.8063 111.331 54.7223 111.415C54.643 111.499 54.545 111.541 54.4283 111.541ZM54.7363 112.164V116H54.0993V112.164H54.7363ZM57.495 116.063C57.1356 116.063 56.809 115.981 56.515 115.818C56.2256 115.655 55.997 115.424 55.829 115.125C55.6656 114.822 55.584 114.472 55.584 114.075C55.584 113.683 55.668 113.338 55.836 113.039C56.0086 112.736 56.242 112.505 56.536 112.346C56.83 112.183 57.159 112.101 57.523 112.101C57.887 112.101 58.216 112.183 58.51 112.346C58.804 112.505 59.035 112.733 59.203 113.032C59.3756 113.331 59.462 113.678 59.462 114.075C59.462 114.472 59.3733 114.822 59.196 115.125C59.0233 115.424 58.7876 115.655 58.489 115.818C58.1903 115.981 57.859 116.063 57.495 116.063ZM57.495 115.503C57.7236 115.503 57.9383 115.449 58.139 115.342C58.3396 115.235 58.5006 115.074 58.622 114.859C58.748 114.644 58.811 114.383 58.811 114.075C58.811 113.767 58.7503 113.506 58.629 113.291C58.5076 113.076 58.349 112.918 58.153 112.815C57.957 112.708 57.7446 112.654 57.516 112.654C57.2826 112.654 57.068 112.708 56.872 112.815C56.6806 112.918 56.5266 113.076 56.41 113.291C56.2933 113.506 56.235 113.767 56.235 114.075C56.235 114.388 56.291 114.651 56.403 114.866C56.5196 115.081 56.6736 115.242 56.865 115.349C57.0563 115.452 57.2663 115.503 57.495 115.503ZM62.1685 112.094C62.6352 112.094 63.0132 112.236 63.3025 112.521C63.5918 112.801 63.7365 113.207 63.7365 113.739V116H63.1065V113.83C63.1065 113.447 63.0108 113.156 62.8195 112.955C62.6282 112.75 62.3668 112.647 62.0355 112.647C61.6995 112.647 61.4312 112.752 61.2305 112.962C61.0345 113.172 60.9365 113.478 60.9365 113.879V116H60.2995V112.164H60.9365V112.71C61.0625 112.514 61.2328 112.362 61.4475 112.255C61.6668 112.148 61.9072 112.094 62.1685 112.094ZM66.135 116.063C65.841 116.063 65.5774 116.014 65.344 115.916C65.1107 115.813 64.9264 115.673 64.791 115.496C64.6557 115.314 64.581 115.106 64.567 114.873H65.225C65.2437 115.064 65.3324 115.221 65.491 115.342C65.6544 115.463 65.8667 115.524 66.128 115.524C66.3707 115.524 66.562 115.47 66.702 115.363C66.842 115.256 66.912 115.12 66.912 114.957C66.912 114.789 66.8374 114.665 66.688 114.586C66.5387 114.502 66.3077 114.42 65.995 114.341C65.7104 114.266 65.477 114.192 65.295 114.117C65.1177 114.038 64.9637 113.923 64.833 113.774C64.707 113.62 64.644 113.419 64.644 113.172C64.644 112.976 64.7024 112.796 64.819 112.633C64.9357 112.47 65.1014 112.341 65.316 112.248C65.5307 112.15 65.7757 112.101 66.051 112.101C66.4757 112.101 66.8187 112.208 67.08 112.423C67.3414 112.638 67.4814 112.932 67.5 113.305H66.863C66.849 113.104 66.7674 112.943 66.618 112.822C66.4734 112.701 66.2774 112.64 66.03 112.64C65.8014 112.64 65.6194 112.689 65.484 112.787C65.3487 112.885 65.281 113.013 65.281 113.172C65.281 113.298 65.3207 113.403 65.4 113.487C65.484 113.566 65.5867 113.632 65.708 113.683C65.834 113.73 66.0067 113.783 66.226 113.844C66.5014 113.919 66.7254 113.993 66.898 114.068C67.0707 114.138 67.2177 114.245 67.339 114.39C67.465 114.535 67.5304 114.724 67.535 114.957C67.535 115.167 67.4767 115.356 67.36 115.524C67.2434 115.692 67.0777 115.825 66.863 115.923C66.653 116.016 66.4104 116.063 66.135 116.063Z" fill="white"/>
<circle cx="13.2464" cy="66.4906" r="1.21635" fill="#090136"/>
<circle cx="13.2464" cy="102.216" r="1.21635" fill="#090136"/>
<circle cx="13.2464" cy="114.216" r="1.21635" fill="#090136"/>
</svg>
