<svg width="351" height="245" viewBox="0 0 351 245" fill="none" xmlns="http://www.w3.org/2000/svg">
<path fill-rule="evenodd" clip-rule="evenodd" d="M2.363e-06 177.796H75.9808L124.163 226.194L105.786 244.653H12.7435C7.76756 239.655 4.97595 236.851 0 231.852L2.363e-06 177.796Z" fill="white"/>
<path fill-rule="evenodd" clip-rule="evenodd" d="M350.449 227.174V15.6435L334.543 1.39282e-05L270.065 1.11098e-05L246.778 23.2663H118.523L95.236 3.4678e-06L15.9014 0L6.852e-06 16.3849L0 173.15H76.7418L126.686 223.051H249.579L271.201 244.653H332.955L350.449 227.174Z" fill="#B4FFFF" fill-opacity="0.09"/>
<path d="M122.609 226.194L105.329 243.551H13.1967L1.09672 231.397V178.898H75.5231L122.609 226.194ZM124.163 226.194L75.9808 177.796H2.363e-06L0 231.852C4.97595 236.851 7.76756 239.655 12.7435 244.653H105.786L124.163 226.194Z" fill="#39FFF0"/>
<path d="M349.35 226.718L332.498 243.554H271.653L250.353 222.273L250.032 221.952H127.138L77.5156 172.373L77.1943 172.052H1.0951L1.09511 16.8277L16.3675 1.09411L94.7835 1.09412L117.749 24.0389L118.07 24.36H247.235L247.557 24.039L270.522 1.09412L334.095 1.09413L349.35 16.0998V226.718ZM350.445 227.17V15.6432L334.543 1.39282e-05L270.065 1.11098e-05L246.778 23.2658H118.523L95.236 3.4678e-06L15.9014 0L6.852e-06 16.3846L0 173.151H76.7418L126.686 223.051H249.579L271.201 244.653H332.955L350.449 227.174L350.445 227.17Z" fill="#39FFF0"/>
<path d="M260.381 1.08625L250.304 11.1093L244.098 17.2811H121.045L108.44 4.74446L104.763 1.08624L260.381 1.08625ZM263.021 7.03307e-06L102.123 0C103.81 1.67874 105.724 3.58191 107.664 5.512C113.991 11.805 120.589 18.3673 120.589 18.3673L244.55 18.3674C244.55 18.3674 247.366 15.5665 251.075 11.8768L263.016 7.03287e-06L263.021 7.03307e-06Z" fill="#39FFF0"/>
<path opacity="0.5" fill-rule="evenodd" clip-rule="evenodd" d="M257.474 5.87757L107.664 5.87756C105.724 3.81467 103.81 1.79007 102.123 0L263.021 7.03307e-06L257.479 5.87757H257.474Z" fill="#39FFF0"/>
<path d="M40.9248 64.1794C40.9248 63.3634 41.1088 62.6314 41.4768 61.9834C41.8448 61.3274 42.3448 60.8154 42.9768 60.4474C43.6168 60.0794 44.3248 59.8954 45.1008 59.8954C46.0128 59.8954 46.8088 60.1154 47.4888 60.5554C48.1688 60.9954 48.6648 61.6194 48.9768 62.4274H47.6688C47.4368 61.9234 47.1008 61.5354 46.6608 61.2634C46.2288 60.9914 45.7088 60.8554 45.1008 60.8554C44.5168 60.8554 43.9928 60.9914 43.5288 61.2634C43.0648 61.5354 42.7008 61.9234 42.4368 62.4274C42.1728 62.9234 42.0408 63.5074 42.0408 64.1794C42.0408 64.8434 42.1728 65.4274 42.4368 65.9314C42.7008 66.4274 43.0648 66.8114 43.5288 67.0834C43.9928 67.3554 44.5168 67.4914 45.1008 67.4914C45.7088 67.4914 46.2288 67.3594 46.6608 67.0954C47.1008 66.8234 47.4368 66.4354 47.6688 65.9314H48.9768C48.6648 66.7314 48.1688 67.3514 47.4888 67.7914C46.8088 68.2234 46.0128 68.4394 45.1008 68.4394C44.3248 68.4394 43.6168 68.2594 42.9768 67.8994C42.3448 67.5314 41.8448 67.0234 41.4768 66.3754C41.1088 65.7274 40.9248 64.9954 40.9248 64.1794ZM53.4703 68.4753C52.8543 68.4753 52.2943 68.3354 51.7903 68.0554C51.2943 67.7754 50.9023 67.3794 50.6143 66.8674C50.3343 66.3474 50.1943 65.7474 50.1943 65.0674C50.1943 64.3954 50.3383 63.8034 50.6263 63.2914C50.9223 62.7714 51.3223 62.3754 51.8263 62.1034C52.3303 61.8234 52.8943 61.6834 53.5183 61.6834C54.1423 61.6834 54.7063 61.8234 55.2103 62.1034C55.7143 62.3754 56.1103 62.7674 56.3983 63.2794C56.6943 63.7914 56.8423 64.3874 56.8423 65.0674C56.8423 65.7474 56.6903 66.3474 56.3863 66.8674C56.0903 67.3794 55.6863 67.7754 55.1743 68.0554C54.6623 68.3354 54.0943 68.4753 53.4703 68.4753ZM53.4703 67.5154C53.8623 67.5154 54.2303 67.4233 54.5743 67.2393C54.9183 67.0553 55.1943 66.7794 55.4023 66.4114C55.6183 66.0434 55.7263 65.5954 55.7263 65.0674C55.7263 64.5394 55.6223 64.0914 55.4143 63.7234C55.2063 63.3554 54.9343 63.0834 54.5983 62.9074C54.2623 62.7234 53.8983 62.6314 53.5063 62.6314C53.1063 62.6314 52.7383 62.7234 52.4023 62.9074C52.0743 63.0834 51.8103 63.3554 51.6103 63.7234C51.4103 64.0914 51.3103 64.5394 51.3103 65.0674C51.3103 65.6034 51.4063 66.0554 51.5983 66.4234C51.7983 66.7914 52.0623 67.0674 52.3903 67.2514C52.7183 67.4274 53.0783 67.5154 53.4703 67.5154ZM61.4821 61.6714C62.2821 61.6714 62.9301 61.9154 63.4261 62.4034C63.9221 62.8834 64.1701 63.5794 64.1701 64.4914V68.3674H63.0901V64.6474C63.0901 63.9914 62.9261 63.4914 62.5981 63.1474C62.2701 62.7954 61.8221 62.6194 61.2541 62.6194C60.6781 62.6194 60.2181 62.7994 59.8741 63.1594C59.5381 63.5194 59.3701 64.0434 59.3701 64.7314V68.3674H58.2781V61.7914H59.3701V62.7274C59.5861 62.3914 59.8781 62.1314 60.2461 61.9474C60.6221 61.7634 61.0341 61.6714 61.4821 61.6714ZM65.5459 65.0674C65.5459 64.3874 65.6819 63.7954 65.9539 63.2914C66.2259 62.7794 66.6019 62.3834 67.0819 62.1034C67.5699 61.8234 68.1259 61.6834 68.7499 61.6834C69.5579 61.6834 70.2219 61.8794 70.7419 62.2714C71.2699 62.6634 71.6179 63.2074 71.7859 63.9034H70.6099C70.4979 63.5034 70.2779 63.1874 69.9499 62.9554C69.6299 62.7234 69.2299 62.6074 68.7499 62.6074C68.1259 62.6074 67.6219 62.8234 67.2379 63.2554C66.8539 63.6794 66.6619 64.2834 66.6619 65.0674C66.6619 65.8594 66.8539 66.4714 67.2379 66.9034C67.6219 67.3354 68.1259 67.5514 68.7499 67.5514C69.2299 67.5514 69.6299 67.4394 69.9499 67.2154C70.2699 66.9914 70.4899 66.6714 70.6099 66.2554H71.7859C71.6099 66.9274 71.2579 67.4674 70.7299 67.8754C70.2019 68.2754 69.5419 68.4753 68.7499 68.4753C68.1259 68.4753 67.5699 68.3354 67.0819 68.0554C66.6019 67.7754 66.2259 67.3794 65.9539 66.8674C65.6819 66.3554 65.5459 65.7554 65.5459 65.0674ZM79.2429 64.8274C79.2429 65.0354 79.2309 65.2554 79.2069 65.4874H73.9509C73.9909 66.1354 74.2109 66.6434 74.6109 67.0114C75.0189 67.3714 75.5109 67.5514 76.0869 67.5514C76.5589 67.5514 76.9509 67.4434 77.2629 67.2274C77.5829 67.0034 77.8069 66.7074 77.9349 66.3394H79.1109C78.9349 66.9714 78.5829 67.4874 78.0549 67.8874C77.5269 68.2794 76.8709 68.4753 76.0869 68.4753C75.4629 68.4753 74.9029 68.3354 74.4069 68.0554C73.9189 67.7754 73.5349 67.3794 73.2549 66.8674C72.9749 66.3474 72.8349 65.7474 72.8349 65.0674C72.8349 64.3874 72.9709 63.7914 73.2429 63.2794C73.5149 62.7674 73.8949 62.3754 74.3829 62.1034C74.8789 61.8234 75.4469 61.6834 76.0869 61.6834C76.7109 61.6834 77.2629 61.8194 77.7429 62.0914C78.2229 62.3634 78.5909 62.7394 78.8469 63.2194C79.1109 63.6914 79.2429 64.2274 79.2429 64.8274ZM78.1149 64.5993C78.1149 64.1833 78.0229 63.8274 77.8389 63.5314C77.6549 63.2274 77.4029 62.9994 77.0829 62.8474C76.7709 62.6874 76.4229 62.6074 76.0389 62.6074C75.4869 62.6074 75.0149 62.7834 74.6229 63.1354C74.2389 63.4874 74.0189 63.9753 73.9629 64.5993H78.1149ZM81.7763 63.0034C81.9923 62.6274 82.3123 62.3154 82.7363 62.0674C83.1683 61.8114 83.6683 61.6834 84.2363 61.6834C84.8203 61.6834 85.3483 61.8234 85.8203 62.1034C86.3003 62.3834 86.6763 62.7794 86.9483 63.2914C87.2203 63.7954 87.3563 64.3834 87.3563 65.0554C87.3563 65.7194 87.2203 66.3114 86.9483 66.8314C86.6763 67.3514 86.3003 67.7554 85.8203 68.0434C85.3483 68.3314 84.8203 68.4753 84.2363 68.4753C83.6763 68.4753 83.1803 68.3514 82.7483 68.1034C82.3243 67.8474 82.0003 67.5313 81.7763 67.1553V71.4874H80.6843V61.7914H81.7763V63.0034ZM86.2403 65.0554C86.2403 64.5594 86.1403 64.1274 85.9403 63.7594C85.7403 63.3914 85.4683 63.1114 85.1243 62.9194C84.7883 62.7274 84.4163 62.6314 84.0083 62.6314C83.6083 62.6314 83.2363 62.7314 82.8923 62.9314C82.5563 63.1234 82.2843 63.4074 82.0763 63.7834C81.8763 64.1514 81.7763 64.5794 81.7763 65.0674C81.7763 65.5634 81.8763 65.9994 82.0763 66.3754C82.2843 66.7434 82.5563 67.0274 82.8923 67.2274C83.2363 67.4194 83.6083 67.5154 84.0083 67.5154C84.4163 67.5154 84.7883 67.4194 85.1243 67.2274C85.4683 67.0274 85.7403 66.7434 85.9403 66.3754C86.1403 65.9994 86.2403 65.5594 86.2403 65.0554ZM90.1257 62.6914V66.5674C90.1257 66.8874 90.1937 67.1154 90.3297 67.2514C90.4657 67.3794 90.7017 67.4434 91.0377 67.4434H91.8417V68.3674H90.8577C90.2497 68.3674 89.7937 68.2273 89.4897 67.9473C89.1857 67.6673 89.0337 67.2074 89.0337 66.5674V62.6914H88.1817V61.7914H89.0337V60.1354H90.1257V61.7914H91.8417V62.6914H90.1257ZM100.552 64.0593C100.856 64.1073 101.132 64.2314 101.38 64.4314C101.636 64.6314 101.836 64.8794 101.98 65.1754C102.132 65.4714 102.208 65.7874 102.208 66.1234C102.208 66.5474 102.1 66.9314 101.884 67.2754C101.668 67.6114 101.352 67.8794 100.936 68.0794C100.528 68.2714 100.044 68.3674 99.484 68.3674H96.364V60.0034H99.364C99.932 60.0034 100.416 60.0994 100.816 60.2914C101.216 60.4754 101.516 60.7274 101.716 61.0474C101.916 61.3674 102.016 61.7274 102.016 62.1274C102.016 62.6234 101.88 63.0354 101.608 63.3634C101.344 63.6834 100.992 63.9153 100.552 64.0593ZM97.456 63.6154H99.292C99.804 63.6154 100.2 63.4954 100.48 63.2554C100.76 63.0154 100.9 62.6834 100.9 62.2594C100.9 61.8354 100.76 61.5034 100.48 61.2634C100.2 61.0234 99.796 60.9034 99.268 60.9034H97.456V63.6154ZM99.388 67.4674C99.932 67.4674 100.356 67.3394 100.66 67.0834C100.964 66.8274 101.116 66.4714 101.116 66.0154C101.116 65.5514 100.956 65.1874 100.636 64.9234C100.316 64.6514 99.888 64.5154 99.352 64.5154H97.456V67.4674H99.388ZM109.556 61.7914V68.3674H108.464V67.3954C108.256 67.7314 107.964 67.9954 107.588 68.1874C107.22 68.3714 106.812 68.4634 106.364 68.4634C105.852 68.4634 105.392 68.3594 104.984 68.1514C104.576 67.9354 104.252 67.6154 104.012 67.1914C103.78 66.7674 103.664 66.2514 103.664 65.6434V61.7914H104.744V65.4994C104.744 66.1474 104.908 66.6474 105.236 66.9994C105.564 67.3434 106.012 67.5154 106.58 67.5154C107.164 67.5154 107.624 67.3353 107.96 66.9753C108.296 66.6153 108.464 66.0914 108.464 65.4034V61.7914H109.556ZM111.964 60.7234C111.756 60.7234 111.58 60.6514 111.436 60.5074C111.292 60.3634 111.22 60.1874 111.22 59.9794C111.22 59.7714 111.292 59.5954 111.436 59.4514C111.58 59.3074 111.756 59.2354 111.964 59.2354C112.164 59.2354 112.332 59.3074 112.468 59.4514C112.612 59.5954 112.684 59.7714 112.684 59.9794C112.684 60.1874 112.612 60.3634 112.468 60.5074C112.332 60.6514 112.164 60.7234 111.964 60.7234ZM112.492 61.7914V68.3674H111.4V61.7914H112.492ZM115.445 59.4874V68.3674H114.353V59.4874H115.445ZM116.898 65.0554C116.898 64.3834 117.034 63.7954 117.306 63.2914C117.578 62.7794 117.95 62.3834 118.422 62.1034C118.902 61.8234 119.438 61.6834 120.03 61.6834C120.542 61.6834 121.018 61.8034 121.458 62.0434C121.898 62.2754 122.234 62.5834 122.466 62.9674V59.4874H123.57V68.3674H122.466V67.1314C122.25 67.5234 121.93 67.8474 121.506 68.1034C121.082 68.3514 120.586 68.4753 120.018 68.4753C119.434 68.4753 118.902 68.3314 118.422 68.0434C117.95 67.7554 117.578 67.3514 117.306 66.8314C117.034 66.3114 116.898 65.7194 116.898 65.0554ZM122.466 65.0674C122.466 64.5714 122.366 64.1394 122.166 63.7714C121.966 63.4034 121.694 63.1234 121.35 62.9314C121.014 62.7314 120.642 62.6314 120.234 62.6314C119.826 62.6314 119.454 62.7274 119.118 62.9194C118.782 63.1114 118.514 63.3914 118.314 63.7594C118.114 64.1274 118.014 64.5594 118.014 65.0554C118.014 65.5594 118.114 65.9994 118.314 66.3754C118.514 66.7434 118.782 67.0274 119.118 67.2274C119.454 67.4194 119.826 67.5154 120.234 67.5154C120.642 67.5154 121.014 67.4194 121.35 67.2274C121.694 67.0274 121.966 66.7434 122.166 66.3754C122.366 65.9994 122.466 65.5634 122.466 65.0674ZM125.979 60.7234C125.771 60.7234 125.595 60.6514 125.451 60.5074C125.307 60.3634 125.235 60.1874 125.235 59.9794C125.235 59.7714 125.307 59.5954 125.451 59.4514C125.595 59.3074 125.771 59.2354 125.979 59.2354C126.179 59.2354 126.347 59.3074 126.483 59.4514C126.627 59.5954 126.699 59.7714 126.699 59.9794C126.699 60.1874 126.627 60.3634 126.483 60.5074C126.347 60.6514 126.179 60.7234 125.979 60.7234ZM126.507 61.7914V68.3674H125.415V61.7914H126.507ZM131.572 61.6714C132.372 61.6714 133.02 61.9154 133.516 62.4034C134.012 62.8834 134.26 63.5794 134.26 64.4914V68.3674H133.18V64.6474C133.18 63.9914 133.016 63.4914 132.688 63.1474C132.36 62.7954 131.912 62.6194 131.344 62.6194C130.768 62.6194 130.308 62.7994 129.964 63.1594C129.628 63.5194 129.46 64.0434 129.46 64.7314V68.3674H128.368V61.7914H129.46V62.7274C129.676 62.3914 129.968 62.1314 130.336 61.9474C130.712 61.7634 131.124 61.6714 131.572 61.6714ZM138.756 61.6834C139.324 61.6834 139.82 61.8074 140.244 62.0554C140.676 62.3034 140.996 62.6154 141.204 62.9914V61.7914H142.308V68.5114C142.308 69.1114 142.18 69.6434 141.924 70.1074C141.668 70.5794 141.3 70.9473 140.82 71.2113C140.348 71.4753 139.796 71.6074 139.164 71.6074C138.3 71.6074 137.58 71.4034 137.004 70.9954C136.428 70.5874 136.088 70.0314 135.984 69.3274H137.064C137.184 69.7274 137.432 70.0474 137.808 70.2874C138.184 70.5354 138.636 70.6594 139.164 70.6594C139.764 70.6594 140.252 70.4714 140.628 70.0954C141.012 69.7194 141.204 69.1914 141.204 68.5114V67.1314C140.988 67.5154 140.668 67.8354 140.244 68.0914C139.82 68.3474 139.324 68.4753 138.756 68.4753C138.172 68.4753 137.64 68.3314 137.16 68.0434C136.688 67.7554 136.316 67.3514 136.044 66.8314C135.772 66.3114 135.636 65.7194 135.636 65.0554C135.636 64.3834 135.772 63.7954 136.044 63.2914C136.316 62.7794 136.688 62.3834 137.16 62.1034C137.64 61.8234 138.172 61.6834 138.756 61.6834ZM141.204 65.0674C141.204 64.5714 141.104 64.1394 140.904 63.7714C140.704 63.4034 140.432 63.1234 140.088 62.9314C139.752 62.7314 139.38 62.6314 138.972 62.6314C138.564 62.6314 138.192 62.7274 137.856 62.9194C137.52 63.1114 137.252 63.3914 137.052 63.7594C136.852 64.1274 136.752 64.5594 136.752 65.0554C136.752 65.5594 136.852 65.9994 137.052 66.3754C137.252 66.7434 137.52 67.0274 137.856 67.2274C138.192 67.4194 138.564 67.5154 138.972 67.5154C139.38 67.5154 139.752 67.4194 140.088 67.2274C140.432 67.0274 140.704 66.7434 140.904 66.3754C141.104 65.9994 141.204 65.5634 141.204 65.0674ZM43.9848 88.4514C43.4328 88.4514 42.9368 88.3554 42.4968 88.1634C42.0648 87.9634 41.7248 87.6914 41.4768 87.3474C41.2288 86.9954 41.1008 86.5914 41.0928 86.1354H42.2568C42.2968 86.5274 42.4568 86.8594 42.7368 87.1314C43.0248 87.3954 43.4408 87.5274 43.9848 87.5274C44.5048 87.5274 44.9128 87.3994 45.2088 87.1434C45.5128 86.8794 45.6648 86.5434 45.6648 86.1354C45.6648 85.8154 45.5768 85.5554 45.4008 85.3554C45.2248 85.1554 45.0048 85.0034 44.7408 84.8994C44.4768 84.7954 44.1208 84.6834 43.6728 84.5634C43.1208 84.4194 42.6768 84.2754 42.3408 84.1314C42.0128 83.9874 41.7288 83.7634 41.4888 83.4594C41.2568 83.1474 41.1408 82.7313 41.1408 82.2113C41.1408 81.7553 41.2568 81.3514 41.4888 80.9994C41.7208 80.6474 42.0448 80.3753 42.4608 80.1833C42.8848 79.9913 43.3688 79.8954 43.9128 79.8954C44.6968 79.8954 45.3368 80.0914 45.8328 80.4834C46.3368 80.8754 46.6208 81.3954 46.6848 82.0434H45.4848C45.4448 81.7234 45.2768 81.4434 44.9808 81.2034C44.6848 80.9554 44.2928 80.8314 43.8048 80.8314C43.3488 80.8314 42.9768 80.9514 42.6888 81.1914C42.4008 81.4234 42.2568 81.7514 42.2568 82.1754C42.2568 82.4794 42.3408 82.7273 42.5088 82.9193C42.6848 83.1113 42.8968 83.2593 43.1448 83.3633C43.4008 83.4593 43.7568 83.5714 44.2128 83.6994C44.7648 83.8514 45.2088 84.0033 45.5448 84.1553C45.8808 84.2993 46.1688 84.5274 46.4088 84.8394C46.6488 85.1434 46.7688 85.5593 46.7688 86.0873C46.7688 86.4953 46.6608 86.8793 46.4448 87.2393C46.2288 87.5993 45.9088 87.8913 45.4848 88.1153C45.0608 88.3393 44.5608 88.4514 43.9848 88.4514ZM51.2437 88.4753C50.6277 88.4753 50.0677 88.3354 49.5637 88.0554C49.0677 87.7754 48.6757 87.3794 48.3877 86.8674C48.1077 86.3474 47.9677 85.7474 47.9677 85.0674C47.9677 84.3954 48.1117 83.8034 48.3997 83.2914C48.6957 82.7714 49.0957 82.3754 49.5997 82.1034C50.1037 81.8234 50.6677 81.6833 51.2917 81.6833C51.9157 81.6833 52.4797 81.8234 52.9837 82.1034C53.4877 82.3754 53.8837 82.7674 54.1717 83.2794C54.4677 83.7914 54.6157 84.3874 54.6157 85.0674C54.6157 85.7474 54.4637 86.3474 54.1597 86.8674C53.8637 87.3794 53.4597 87.7754 52.9477 88.0554C52.4357 88.3354 51.8677 88.4753 51.2437 88.4753ZM51.2437 87.5154C51.6357 87.5154 52.0037 87.4233 52.3477 87.2393C52.6917 87.0553 52.9677 86.7794 53.1757 86.4114C53.3917 86.0434 53.4997 85.5954 53.4997 85.0674C53.4997 84.5394 53.3957 84.0914 53.1877 83.7234C52.9797 83.3554 52.7077 83.0834 52.3717 82.9074C52.0357 82.7234 51.6717 82.6314 51.2797 82.6314C50.8797 82.6314 50.5117 82.7234 50.1757 82.9074C49.8477 83.0834 49.5837 83.3554 49.3837 83.7234C49.1837 84.0914 49.0837 84.5394 49.0837 85.0674C49.0837 85.6034 49.1797 86.0554 49.3717 86.4234C49.5717 86.7914 49.8357 87.0674 50.1637 87.2514C50.4917 87.4274 50.8517 87.5154 51.2437 87.5154ZM55.6435 85.0674C55.6435 84.3874 55.7795 83.7954 56.0515 83.2914C56.3235 82.7794 56.6995 82.3834 57.1795 82.1034C57.6675 81.8234 58.2235 81.6833 58.8475 81.6833C59.6555 81.6833 60.3195 81.8794 60.8395 82.2714C61.3675 82.6634 61.7155 83.2074 61.8835 83.9034H60.7075C60.5955 83.5034 60.3755 83.1874 60.0475 82.9554C59.7275 82.7234 59.3275 82.6074 58.8475 82.6074C58.2235 82.6074 57.7195 82.8234 57.3355 83.2554C56.9515 83.6794 56.7595 84.2834 56.7595 85.0674C56.7595 85.8594 56.9515 86.4714 57.3355 86.9034C57.7195 87.3354 58.2235 87.5514 58.8475 87.5514C59.3275 87.5514 59.7275 87.4394 60.0475 87.2154C60.3675 86.9914 60.5875 86.6714 60.7075 86.2554H61.8835C61.7075 86.9274 61.3555 87.4674 60.8275 87.8754C60.2995 88.2754 59.6395 88.4753 58.8475 88.4753C58.2235 88.4753 57.6675 88.3354 57.1795 88.0554C56.6995 87.7754 56.3235 87.3794 56.0515 86.8674C55.7795 86.3554 55.6435 85.7554 55.6435 85.0674ZM63.9046 80.7234C63.6966 80.7234 63.5206 80.6514 63.3766 80.5074C63.2326 80.3634 63.1606 80.1874 63.1606 79.9794C63.1606 79.7714 63.2326 79.5954 63.3766 79.4514C63.5206 79.3074 63.6966 79.2354 63.9046 79.2354C64.1046 79.2354 64.2726 79.3074 64.4086 79.4514C64.5526 79.5954 64.6246 79.7714 64.6246 79.9794C64.6246 80.1874 64.5526 80.3634 64.4086 80.5074C64.2726 80.6514 64.1046 80.7234 63.9046 80.7234ZM64.4326 81.7914V88.3674H63.3406V81.7914H64.4326ZM65.8857 85.0554C65.8857 84.3834 66.0217 83.7954 66.2937 83.2914C66.5657 82.7794 66.9377 82.3834 67.4097 82.1034C67.8897 81.8234 68.4217 81.6833 69.0057 81.6833C69.5817 81.6833 70.0817 81.8074 70.5057 82.0554C70.9297 82.3034 71.2457 82.6154 71.4537 82.9914V81.7914H72.5577V88.3674H71.4537V87.1434C71.2377 87.5274 70.9137 87.8474 70.4817 88.1034C70.0577 88.3514 69.5617 88.4753 68.9937 88.4753C68.4097 88.4753 67.8817 88.3314 67.4097 88.0434C66.9377 87.7554 66.5657 87.3514 66.2937 86.8314C66.0217 86.3114 65.8857 85.7194 65.8857 85.0554ZM71.4537 85.0674C71.4537 84.5714 71.3537 84.1394 71.1537 83.7714C70.9537 83.4034 70.6817 83.1234 70.3377 82.9314C70.0017 82.7314 69.6297 82.6314 69.2217 82.6314C68.8137 82.6314 68.4417 82.7273 68.1057 82.9193C67.7697 83.1113 67.5017 83.3914 67.3017 83.7594C67.1017 84.1274 67.0017 84.5594 67.0017 85.0554C67.0017 85.5594 67.1017 85.9994 67.3017 86.3754C67.5017 86.7434 67.7697 87.0274 68.1057 87.2274C68.4417 87.4194 68.8137 87.5154 69.2217 87.5154C69.6297 87.5154 70.0017 87.4194 70.3377 87.2274C70.6817 87.0274 70.9537 86.7434 71.1537 86.3754C71.3537 85.9994 71.4537 85.5634 71.4537 85.0674ZM75.4951 79.4874V88.3674H74.4031V79.4874H75.4951ZM79.6842 88.4753C79.1802 88.4753 78.7282 88.3914 78.3282 88.2234C77.9282 88.0474 77.6122 87.8073 77.3802 87.5033C77.1482 87.1913 77.0202 86.8354 76.9962 86.4354H78.1242C78.1562 86.7634 78.3082 87.0313 78.5802 87.2393C78.8602 87.4473 79.2242 87.5514 79.6722 87.5514C80.0882 87.5514 80.4162 87.4594 80.6562 87.2754C80.8962 87.0914 81.0162 86.8594 81.0162 86.5794C81.0162 86.2914 80.8882 86.0794 80.6322 85.9434C80.3762 85.7994 79.9802 85.6594 79.4442 85.5234C78.9562 85.3954 78.5562 85.2674 78.2442 85.1394C77.9402 85.0034 77.6762 84.8074 77.4522 84.5514C77.2362 84.2874 77.1282 83.9434 77.1282 83.5194C77.1282 83.1834 77.2282 82.8754 77.4282 82.5954C77.6282 82.3154 77.9122 82.0954 78.2802 81.9354C78.6482 81.7674 79.0682 81.6833 79.5402 81.6833C80.2682 81.6833 80.8562 81.8674 81.3042 82.2354C81.7522 82.6034 81.9922 83.1074 82.0242 83.7474H80.9322C80.9082 83.4034 80.7682 83.1273 80.5122 82.9193C80.2642 82.7113 79.9282 82.6074 79.5042 82.6074C79.1122 82.6074 78.8002 82.6914 78.5682 82.8594C78.3362 83.0274 78.2202 83.2474 78.2202 83.5194C78.2202 83.7354 78.2882 83.9153 78.4242 84.0593C78.5682 84.1953 78.7442 84.3074 78.9522 84.3954C79.1682 84.4754 79.4642 84.5674 79.8402 84.6714C80.3122 84.7994 80.6962 84.9274 80.9922 85.0554C81.2882 85.1754 81.5402 85.3594 81.7482 85.6074C81.9642 85.8554 82.0762 86.1794 82.0842 86.5794C82.0842 86.9394 81.9842 87.2634 81.7842 87.5514C81.5842 87.8394 81.3002 88.0674 80.9322 88.2354C80.5722 88.3954 80.1562 88.4753 79.6842 88.4753ZM93.245 88.3674L92.153 87.2634C91.745 87.6874 91.309 88.0033 90.845 88.2113C90.381 88.4113 89.857 88.5114 89.273 88.5114C88.697 88.5114 88.185 88.4074 87.737 88.1994C87.297 87.9914 86.953 87.6954 86.705 87.3114C86.465 86.9274 86.345 86.4794 86.345 85.9674C86.345 85.3834 86.509 84.8714 86.837 84.4314C87.173 83.9834 87.665 83.6314 88.313 83.3754C88.057 83.0714 87.873 82.7914 87.761 82.5354C87.649 82.2794 87.593 81.9994 87.593 81.6954C87.593 81.3434 87.681 81.0274 87.857 80.7474C88.041 80.4594 88.301 80.2354 88.637 80.0754C88.973 79.9154 89.361 79.8354 89.801 79.8354C90.233 79.8354 90.609 79.9193 90.929 80.0873C91.249 80.2553 91.489 80.4913 91.649 80.7953C91.809 81.0913 91.881 81.4234 91.865 81.7914H90.773C90.781 81.4634 90.689 81.2074 90.497 81.0234C90.305 80.8314 90.057 80.7354 89.753 80.7354C89.433 80.7354 89.173 80.8274 88.973 81.0114C88.781 81.1874 88.685 81.4154 88.685 81.6954C88.685 81.9354 88.749 82.1673 88.877 82.3913C89.013 82.6153 89.237 82.8914 89.549 83.2194L92.045 85.7274L92.261 85.3913L93.077 84.0234H94.253L93.269 85.7274C93.133 85.9674 92.973 86.2194 92.789 86.4834L94.673 88.3674H93.245ZM89.273 87.5754C89.705 87.5754 90.093 87.4913 90.437 87.3233C90.789 87.1553 91.121 86.8954 91.433 86.5434L88.973 84.0714C87.949 84.4634 87.437 85.0834 87.437 85.9314C87.437 86.4034 87.605 86.7954 87.941 87.1074C88.285 87.4194 88.729 87.5754 89.273 87.5754ZM109.408 80.0033L106.984 88.3674H105.76L103.816 81.6354L101.8 88.3674L100.588 88.3794L98.2473 80.0033H99.4113L101.236 87.0954L103.252 80.0033H104.476L106.396 87.0714L108.232 80.0033H109.408ZM116.603 84.8274C116.603 85.0354 116.591 85.2554 116.567 85.4874H111.311C111.351 86.1354 111.571 86.6434 111.971 87.0114C112.379 87.3714 112.871 87.5514 113.447 87.5514C113.919 87.5514 114.311 87.4434 114.623 87.2274C114.943 87.0034 115.167 86.7074 115.295 86.3394H116.471C116.295 86.9714 115.943 87.4874 115.415 87.8874C114.887 88.2794 114.231 88.4753 113.447 88.4753C112.823 88.4753 112.263 88.3354 111.767 88.0554C111.279 87.7754 110.895 87.3794 110.615 86.8674C110.335 86.3474 110.195 85.7474 110.195 85.0674C110.195 84.3874 110.331 83.7914 110.603 83.2794C110.875 82.7674 111.255 82.3754 111.743 82.1034C112.239 81.8234 112.807 81.6833 113.447 81.6833C114.071 81.6833 114.623 81.8194 115.103 82.0914C115.583 82.3634 115.951 82.7394 116.207 83.2194C116.471 83.6914 116.603 84.2274 116.603 84.8274ZM115.475 84.5993C115.475 84.1833 115.383 83.8273 115.199 83.5313C115.015 83.2273 114.763 82.9994 114.443 82.8474C114.131 82.6874 113.783 82.6074 113.399 82.6074C112.847 82.6074 112.375 82.7834 111.983 83.1354C111.599 83.4874 111.379 83.9753 111.323 84.5993H115.475ZM119.136 83.0154C119.36 82.6234 119.688 82.3034 120.12 82.0554C120.552 81.8074 121.044 81.6833 121.596 81.6833C122.188 81.6833 122.72 81.8234 123.192 82.1034C123.664 82.3834 124.036 82.7794 124.308 83.2914C124.58 83.7954 124.716 84.3834 124.716 85.0554C124.716 85.7194 124.58 86.3114 124.308 86.8314C124.036 87.3514 123.66 87.7554 123.18 88.0434C122.708 88.3314 122.18 88.4753 121.596 88.4753C121.028 88.4753 120.528 88.3514 120.096 88.1034C119.672 87.8554 119.352 87.5393 119.136 87.1553V88.3674H118.044V79.4874H119.136V83.0154ZM123.6 85.0554C123.6 84.5594 123.5 84.1274 123.3 83.7594C123.1 83.3914 122.828 83.1113 122.484 82.9193C122.148 82.7273 121.776 82.6314 121.368 82.6314C120.968 82.6314 120.596 82.7314 120.252 82.9314C119.916 83.1234 119.644 83.4074 119.436 83.7834C119.236 84.1514 119.136 84.5794 119.136 85.0674C119.136 85.5634 119.236 85.9994 119.436 86.3754C119.644 86.7434 119.916 87.0274 120.252 87.2274C120.596 87.4194 120.968 87.5154 121.368 87.5154C121.776 87.5154 122.148 87.4194 122.484 87.2274C122.828 87.0274 123.1 86.7434 123.3 86.3754C123.5 85.9994 123.6 85.5594 123.6 85.0554ZM128.481 88.4753C127.977 88.4753 127.525 88.3914 127.125 88.2234C126.725 88.0474 126.409 87.8073 126.177 87.5033C125.945 87.1913 125.817 86.8354 125.793 86.4354H126.921C126.953 86.7634 127.105 87.0313 127.377 87.2393C127.657 87.4473 128.021 87.5514 128.469 87.5514C128.885 87.5514 129.213 87.4594 129.453 87.2754C129.693 87.0914 129.813 86.8594 129.813 86.5794C129.813 86.2914 129.685 86.0794 129.429 85.9434C129.173 85.7994 128.777 85.6594 128.241 85.5234C127.753 85.3954 127.353 85.2674 127.041 85.1394C126.737 85.0034 126.473 84.8074 126.249 84.5514C126.033 84.2874 125.925 83.9434 125.925 83.5194C125.925 83.1834 126.025 82.8754 126.225 82.5954C126.425 82.3154 126.709 82.0954 127.077 81.9354C127.445 81.7674 127.865 81.6833 128.337 81.6833C129.065 81.6833 129.653 81.8674 130.101 82.2354C130.549 82.6034 130.789 83.1074 130.821 83.7474H129.729C129.705 83.4034 129.565 83.1273 129.309 82.9193C129.061 82.7113 128.725 82.6074 128.301 82.6074C127.909 82.6074 127.597 82.6914 127.365 82.8594C127.133 83.0274 127.017 83.2474 127.017 83.5194C127.017 83.7354 127.085 83.9153 127.221 84.0593C127.365 84.1953 127.541 84.3074 127.749 84.3954C127.965 84.4754 128.261 84.5674 128.637 84.6714C129.109 84.7994 129.493 84.9274 129.789 85.0554C130.085 85.1754 130.337 85.3594 130.545 85.6074C130.761 85.8554 130.873 86.1794 130.881 86.5794C130.881 86.9394 130.781 87.2634 130.581 87.5514C130.381 87.8394 130.097 88.0674 129.729 88.2354C129.369 88.3954 128.953 88.4753 128.481 88.4753ZM132.987 80.7234C132.779 80.7234 132.603 80.6514 132.459 80.5074C132.315 80.3634 132.243 80.1874 132.243 79.9794C132.243 79.7714 132.315 79.5954 132.459 79.4514C132.603 79.3074 132.779 79.2354 132.987 79.2354C133.187 79.2354 133.355 79.3074 133.491 79.4514C133.635 79.5954 133.707 79.7714 133.707 79.9794C133.707 80.1874 133.635 80.3634 133.491 80.5074C133.355 80.6514 133.187 80.7234 132.987 80.7234ZM133.515 81.7914V88.3674H132.423V81.7914H133.515ZM136.708 82.6914V86.5674C136.708 86.8874 136.776 87.1154 136.912 87.2514C137.048 87.3794 137.284 87.4434 137.62 87.4434H138.424V88.3674H137.44C136.832 88.3674 136.376 88.2273 136.072 87.9473C135.768 87.6673 135.616 87.2074 135.616 86.5674V82.6914H134.764V81.7914H135.616V80.1354H136.708V81.7914H138.424V82.6914H136.708ZM145.747 84.8274C145.747 85.0354 145.735 85.2554 145.711 85.4874H140.455C140.495 86.1354 140.715 86.6434 141.115 87.0114C141.523 87.3714 142.015 87.5514 142.591 87.5514C143.063 87.5514 143.455 87.4434 143.767 87.2274C144.087 87.0034 144.311 86.7074 144.439 86.3394H145.615C145.439 86.9714 145.087 87.4874 144.559 87.8874C144.031 88.2794 143.375 88.4753 142.591 88.4753C141.967 88.4753 141.407 88.3354 140.911 88.0554C140.423 87.7754 140.039 87.3794 139.759 86.8674C139.479 86.3474 139.339 85.7474 139.339 85.0674C139.339 84.3874 139.475 83.7914 139.747 83.2794C140.019 82.7674 140.399 82.3754 140.887 82.1034C141.383 81.8234 141.951 81.6833 142.591 81.6833C143.215 81.6833 143.767 81.8194 144.247 82.0914C144.727 82.3634 145.095 82.7394 145.351 83.2194C145.615 83.6914 145.747 84.2274 145.747 84.8274ZM144.619 84.5993C144.619 84.1833 144.527 83.8273 144.343 83.5313C144.159 83.2273 143.907 82.9994 143.587 82.8474C143.275 82.6874 142.927 82.6074 142.543 82.6074C141.991 82.6074 141.519 82.7834 141.127 83.1354C140.743 83.4874 140.523 83.9753 140.467 84.5993H144.619Z" fill="white"/>
<path d="M119.537 128.832C119.537 128.016 119.721 127.284 120.089 126.636C120.457 125.98 120.957 125.468 121.589 125.1C122.229 124.732 122.937 124.548 123.713 124.548C124.625 124.548 125.421 124.768 126.101 125.208C126.781 125.648 127.277 126.272 127.589 127.08H126.281C126.049 126.576 125.713 126.188 125.273 125.916C124.841 125.644 124.321 125.508 123.713 125.508C123.129 125.508 122.605 125.644 122.141 125.916C121.677 126.188 121.313 126.576 121.049 127.08C120.785 127.576 120.653 128.16 120.653 128.832C120.653 129.496 120.785 130.08 121.049 130.584C121.313 131.08 121.677 131.464 122.141 131.736C122.605 132.008 123.129 132.144 123.713 132.144C124.321 132.144 124.841 132.012 125.273 131.748C125.713 131.476 126.049 131.088 126.281 130.584H127.589C127.277 131.384 126.781 132.004 126.101 132.444C125.421 132.876 124.625 133.092 123.713 133.092C122.937 133.092 122.229 132.912 121.589 132.552C120.957 132.184 120.457 131.676 120.089 131.028C119.721 130.38 119.537 129.648 119.537 128.832ZM132.083 133.128C131.467 133.128 130.907 132.988 130.403 132.708C129.907 132.428 129.515 132.032 129.227 131.52C128.947 131 128.807 130.4 128.807 129.72C128.807 129.048 128.951 128.456 129.239 127.944C129.535 127.424 129.935 127.028 130.439 126.756C130.943 126.476 131.507 126.336 132.131 126.336C132.755 126.336 133.319 126.476 133.823 126.756C134.327 127.028 134.723 127.42 135.011 127.932C135.307 128.444 135.455 129.04 135.455 129.72C135.455 130.4 135.303 131 134.999 131.52C134.703 132.032 134.299 132.428 133.787 132.708C133.275 132.988 132.707 133.128 132.083 133.128ZM132.083 132.168C132.475 132.168 132.843 132.076 133.187 131.892C133.531 131.708 133.807 131.432 134.015 131.064C134.231 130.696 134.339 130.248 134.339 129.72C134.339 129.192 134.235 128.744 134.027 128.376C133.819 128.008 133.547 127.736 133.211 127.56C132.875 127.376 132.511 127.284 132.119 127.284C131.719 127.284 131.351 127.376 131.015 127.56C130.687 127.736 130.423 128.008 130.223 128.376C130.023 128.744 129.923 129.192 129.923 129.72C129.923 130.256 130.019 130.708 130.211 131.076C130.411 131.444 130.675 131.72 131.003 131.904C131.331 132.08 131.691 132.168 132.083 132.168ZM144.799 126.324C145.311 126.324 145.767 126.432 146.167 126.648C146.567 126.856 146.883 127.172 147.115 127.596C147.347 128.02 147.463 128.536 147.463 129.144V133.02H146.383V129.3C146.383 128.644 146.219 128.144 145.891 127.8C145.571 127.448 145.135 127.272 144.583 127.272C144.015 127.272 143.563 127.456 143.227 127.824C142.891 128.184 142.723 128.708 142.723 129.396V133.02H141.643V129.3C141.643 128.644 141.479 128.144 141.151 127.8C140.831 127.448 140.395 127.272 139.843 127.272C139.275 127.272 138.823 127.456 138.487 127.824C138.151 128.184 137.983 128.708 137.983 129.396V133.02H136.891V126.444H137.983V127.392C138.199 127.048 138.487 126.784 138.847 126.6C139.215 126.416 139.619 126.324 140.059 126.324C140.611 126.324 141.099 126.448 141.523 126.696C141.947 126.944 142.263 127.308 142.471 127.788C142.655 127.324 142.959 126.964 143.383 126.708C143.807 126.452 144.279 126.324 144.799 126.324ZM157.162 126.324C157.674 126.324 158.13 126.432 158.53 126.648C158.93 126.856 159.246 127.172 159.478 127.596C159.71 128.02 159.826 128.536 159.826 129.144V133.02H158.746V129.3C158.746 128.644 158.582 128.144 158.254 127.8C157.934 127.448 157.498 127.272 156.946 127.272C156.378 127.272 155.926 127.456 155.59 127.824C155.254 128.184 155.086 128.708 155.086 129.396V133.02H154.006V129.3C154.006 128.644 153.842 128.144 153.514 127.8C153.194 127.448 152.758 127.272 152.206 127.272C151.638 127.272 151.186 127.456 150.85 127.824C150.514 128.184 150.346 128.708 150.346 129.396V133.02H149.254V126.444H150.346V127.392C150.562 127.048 150.85 126.784 151.21 126.6C151.578 126.416 151.982 126.324 152.422 126.324C152.974 126.324 153.462 126.448 153.886 126.696C154.31 126.944 154.626 127.308 154.834 127.788C155.018 127.324 155.322 126.964 155.746 126.708C156.17 126.452 156.642 126.324 157.162 126.324ZM167.449 126.444V133.02H166.357V132.048C166.149 132.384 165.857 132.648 165.481 132.84C165.113 133.024 164.705 133.116 164.257 133.116C163.745 133.116 163.285 133.012 162.877 132.804C162.469 132.588 162.145 132.268 161.905 131.844C161.673 131.42 161.557 130.904 161.557 130.296V126.444H162.637V130.152C162.637 130.8 162.801 131.3 163.129 131.652C163.457 131.996 163.905 132.168 164.473 132.168C165.057 132.168 165.517 131.988 165.853 131.628C166.189 131.268 166.357 130.744 166.357 130.056V126.444H167.449ZM172.497 126.324C173.297 126.324 173.945 126.568 174.441 127.056C174.937 127.536 175.185 128.232 175.185 129.144V133.02H174.105V129.3C174.105 128.644 173.941 128.144 173.613 127.8C173.285 127.448 172.837 127.272 172.269 127.272C171.693 127.272 171.233 127.452 170.889 127.812C170.553 128.172 170.385 128.696 170.385 129.384V133.02H169.293V126.444H170.385V127.38C170.601 127.044 170.893 126.784 171.261 126.6C171.637 126.416 172.049 126.324 172.497 126.324ZM177.533 125.376C177.325 125.376 177.149 125.304 177.005 125.16C176.861 125.016 176.789 124.84 176.789 124.632C176.789 124.424 176.861 124.248 177.005 124.104C177.149 123.96 177.325 123.888 177.533 123.888C177.733 123.888 177.901 123.96 178.037 124.104C178.181 124.248 178.253 124.424 178.253 124.632C178.253 124.84 178.181 125.016 178.037 125.16C177.901 125.304 177.733 125.376 177.533 125.376ZM178.061 126.444V133.02H176.969V126.444H178.061ZM181.254 127.344V131.22C181.254 131.54 181.322 131.768 181.458 131.904C181.594 132.032 181.83 132.096 182.166 132.096H182.97V133.02H181.986C181.378 133.02 180.922 132.88 180.618 132.6C180.314 132.32 180.162 131.86 180.162 131.22V127.344H179.31V126.444H180.162V124.788H181.254V126.444H182.97V127.344H181.254ZM189.957 126.444L185.997 136.116H184.869L186.165 132.948L183.513 126.444H184.725L186.789 131.772L188.829 126.444H189.957ZM198.442 128.712C198.746 128.76 199.022 128.884 199.27 129.084C199.526 129.284 199.726 129.532 199.87 129.828C200.022 130.124 200.098 130.44 200.098 130.776C200.098 131.2 199.99 131.584 199.774 131.928C199.558 132.264 199.242 132.532 198.826 132.732C198.418 132.924 197.934 133.02 197.374 133.02H194.254V124.656H197.254C197.822 124.656 198.306 124.752 198.706 124.944C199.106 125.128 199.406 125.38 199.606 125.7C199.806 126.02 199.906 126.38 199.906 126.78C199.906 127.276 199.77 127.688 199.498 128.016C199.234 128.336 198.882 128.568 198.442 128.712ZM195.346 128.268H197.182C197.694 128.268 198.09 128.148 198.37 127.908C198.65 127.668 198.79 127.336 198.79 126.912C198.79 126.488 198.65 126.156 198.37 125.916C198.09 125.676 197.686 125.556 197.158 125.556H195.346V128.268ZM197.278 132.12C197.822 132.12 198.246 131.992 198.55 131.736C198.854 131.48 199.006 131.124 199.006 130.668C199.006 130.204 198.846 129.84 198.526 129.576C198.206 129.304 197.778 129.168 197.242 129.168H195.346V132.12H197.278ZM207.445 126.444V133.02H206.353V132.048C206.145 132.384 205.853 132.648 205.477 132.84C205.109 133.024 204.701 133.116 204.253 133.116C203.741 133.116 203.281 133.012 202.873 132.804C202.465 132.588 202.141 132.268 201.901 131.844C201.669 131.42 201.553 130.904 201.553 130.296V126.444H202.633V130.152C202.633 130.8 202.797 131.3 203.125 131.652C203.453 131.996 203.901 132.168 204.469 132.168C205.053 132.168 205.513 131.988 205.849 131.628C206.185 131.268 206.353 130.744 206.353 130.056V126.444H207.445ZM209.853 125.376C209.645 125.376 209.469 125.304 209.325 125.16C209.181 125.016 209.109 124.84 209.109 124.632C209.109 124.424 209.181 124.248 209.325 124.104C209.469 123.96 209.645 123.888 209.853 123.888C210.053 123.888 210.221 123.96 210.357 124.104C210.501 124.248 210.573 124.424 210.573 124.632C210.573 124.84 210.501 125.016 210.357 125.16C210.221 125.304 210.053 125.376 209.853 125.376ZM210.381 126.444V133.02H209.289V126.444H210.381ZM213.334 124.14V133.02H212.242V124.14H213.334ZM214.787 129.708C214.787 129.036 214.923 128.448 215.195 127.944C215.467 127.432 215.839 127.036 216.311 126.756C216.791 126.476 217.327 126.336 217.919 126.336C218.431 126.336 218.907 126.456 219.347 126.696C219.787 126.928 220.123 127.236 220.355 127.62V124.14H221.459V133.02H220.355V131.784C220.139 132.176 219.819 132.5 219.395 132.756C218.971 133.004 218.475 133.128 217.907 133.128C217.323 133.128 216.791 132.984 216.311 132.696C215.839 132.408 215.467 132.004 215.195 131.484C214.923 130.964 214.787 130.372 214.787 129.708ZM220.355 129.72C220.355 129.224 220.255 128.792 220.055 128.424C219.855 128.056 219.583 127.776 219.239 127.584C218.903 127.384 218.531 127.284 218.123 127.284C217.715 127.284 217.343 127.38 217.007 127.572C216.671 127.764 216.403 128.044 216.203 128.412C216.003 128.78 215.903 129.212 215.903 129.708C215.903 130.212 216.003 130.652 216.203 131.028C216.403 131.396 216.671 131.68 217.007 131.88C217.343 132.072 217.715 132.168 218.123 132.168C218.531 132.168 218.903 132.072 219.239 131.88C219.583 131.68 219.855 131.396 220.055 131.028C220.255 130.652 220.355 130.216 220.355 129.72ZM223.869 125.376C223.661 125.376 223.485 125.304 223.341 125.16C223.197 125.016 223.125 124.84 223.125 124.632C223.125 124.424 223.197 124.248 223.341 124.104C223.485 123.96 223.661 123.888 223.869 123.888C224.069 123.888 224.237 123.96 224.373 124.104C224.517 124.248 224.589 124.424 224.589 124.632C224.589 124.84 224.517 125.016 224.373 125.16C224.237 125.304 224.069 125.376 223.869 125.376ZM224.397 126.444V133.02H223.305V126.444H224.397ZM229.462 126.324C230.262 126.324 230.91 126.568 231.406 127.056C231.902 127.536 232.15 128.232 232.15 129.144V133.02H231.07V129.3C231.07 128.644 230.906 128.144 230.578 127.8C230.25 127.448 229.802 127.272 229.234 127.272C228.658 127.272 228.198 127.452 227.854 127.812C227.518 128.172 227.35 128.696 227.35 129.384V133.02H226.258V126.444H227.35V127.38C227.566 127.044 227.858 126.784 228.226 126.6C228.602 126.416 229.014 126.324 229.462 126.324ZM236.646 126.336C237.214 126.336 237.71 126.46 238.134 126.708C238.566 126.956 238.886 127.268 239.094 127.644V126.444H240.198V133.164C240.198 133.764 240.07 134.296 239.814 134.76C239.558 135.232 239.19 135.6 238.71 135.864C238.238 136.128 237.686 136.26 237.054 136.26C236.19 136.26 235.47 136.056 234.894 135.648C234.318 135.24 233.978 134.684 233.874 133.98H234.954C235.074 134.38 235.322 134.7 235.698 134.94C236.074 135.188 236.526 135.312 237.054 135.312C237.654 135.312 238.142 135.124 238.518 134.748C238.902 134.372 239.094 133.844 239.094 133.164V131.784C238.878 132.168 238.558 132.488 238.134 132.744C237.71 133 237.214 133.128 236.646 133.128C236.062 133.128 235.53 132.984 235.05 132.696C234.578 132.408 234.206 132.004 233.934 131.484C233.662 130.964 233.526 130.372 233.526 129.708C233.526 129.036 233.662 128.448 233.934 127.944C234.206 127.432 234.578 127.036 235.05 126.756C235.53 126.476 236.062 126.336 236.646 126.336ZM239.094 129.72C239.094 129.224 238.994 128.792 238.794 128.424C238.594 128.056 238.322 127.776 237.978 127.584C237.642 127.384 237.27 127.284 236.862 127.284C236.454 127.284 236.082 127.38 235.746 127.572C235.41 127.764 235.142 128.044 234.942 128.412C234.742 128.78 234.642 129.212 234.642 129.708C234.642 130.212 234.742 130.652 234.942 131.028C235.142 131.396 235.41 131.68 235.746 131.88C236.082 132.072 236.454 132.168 236.862 132.168C237.27 132.168 237.642 132.072 237.978 131.88C238.322 131.68 238.594 131.396 238.794 131.028C238.994 130.652 239.094 130.216 239.094 129.72ZM122.549 144.656C123.461 144.656 124.249 144.828 124.913 145.172C125.585 145.508 126.097 145.992 126.449 146.624C126.809 147.256 126.989 148 126.989 148.856C126.989 149.712 126.809 150.456 126.449 151.088C126.097 151.712 125.585 152.192 124.913 152.528C124.249 152.856 123.461 153.02 122.549 153.02H119.945V144.656H122.549ZM122.549 152.12C123.629 152.12 124.453 151.836 125.021 151.268C125.589 150.692 125.873 149.888 125.873 148.856C125.873 147.816 125.585 147.004 125.009 146.42C124.441 145.836 123.621 145.544 122.549 145.544H121.037V152.12H122.549ZM134.43 149.48C134.43 149.688 134.418 149.908 134.394 150.14H129.138C129.178 150.788 129.398 151.296 129.798 151.664C130.206 152.024 130.698 152.204 131.274 152.204C131.746 152.204 132.138 152.096 132.45 151.88C132.77 151.656 132.994 151.36 133.122 150.992H134.298C134.122 151.624 133.77 152.14 133.242 152.54C132.714 152.932 132.058 153.128 131.274 153.128C130.65 153.128 130.09 152.988 129.594 152.708C129.106 152.428 128.722 152.032 128.442 151.52C128.162 151 128.022 150.4 128.022 149.72C128.022 149.04 128.158 148.444 128.43 147.932C128.702 147.42 129.082 147.028 129.57 146.756C130.066 146.476 130.634 146.336 131.274 146.336C131.898 146.336 132.45 146.472 132.93 146.744C133.41 147.016 133.778 147.392 134.034 147.872C134.298 148.344 134.43 148.88 134.43 149.48ZM133.302 149.252C133.302 148.836 133.21 148.48 133.026 148.184C132.842 147.88 132.59 147.652 132.27 147.5C131.958 147.34 131.61 147.26 131.226 147.26C130.674 147.26 130.202 147.436 129.81 147.788C129.426 148.14 129.206 148.628 129.15 149.252H133.302ZM139.303 153.02L137.743 150.572L136.243 153.02H135.103L137.227 149.756L135.103 146.444H136.339L137.899 148.88L139.387 146.444H140.527L138.415 149.696L140.539 153.02H139.303ZM145.905 152.132H148.833V153.02H144.813V144.656H145.905V152.132ZM150.556 145.376C150.348 145.376 150.172 145.304 150.028 145.16C149.884 145.016 149.812 144.84 149.812 144.632C149.812 144.424 149.884 144.248 150.028 144.104C150.172 143.96 150.348 143.888 150.556 143.888C150.756 143.888 150.924 143.96 151.06 144.104C151.204 144.248 151.276 144.424 151.276 144.632C151.276 144.84 151.204 145.016 151.06 145.16C150.924 145.304 150.756 145.376 150.556 145.376ZM151.084 146.444V153.02H149.992V146.444H151.084ZM155.273 153.128C154.769 153.128 154.317 153.044 153.917 152.876C153.517 152.7 153.201 152.46 152.969 152.156C152.737 151.844 152.609 151.488 152.585 151.088H153.713C153.745 151.416 153.897 151.684 154.169 151.892C154.449 152.1 154.813 152.204 155.261 152.204C155.677 152.204 156.005 152.112 156.245 151.928C156.485 151.744 156.605 151.512 156.605 151.232C156.605 150.944 156.477 150.732 156.221 150.596C155.965 150.452 155.569 150.312 155.033 150.176C154.545 150.048 154.145 149.92 153.833 149.792C153.529 149.656 153.265 149.46 153.041 149.204C152.825 148.94 152.717 148.596 152.717 148.172C152.717 147.836 152.817 147.528 153.017 147.248C153.217 146.968 153.501 146.748 153.869 146.588C154.237 146.42 154.657 146.336 155.129 146.336C155.857 146.336 156.445 146.52 156.893 146.888C157.341 147.256 157.581 147.76 157.613 148.4H156.521C156.497 148.056 156.357 147.78 156.101 147.572C155.853 147.364 155.517 147.26 155.093 147.26C154.701 147.26 154.389 147.344 154.157 147.512C153.925 147.68 153.809 147.9 153.809 148.172C153.809 148.388 153.877 148.568 154.013 148.712C154.157 148.848 154.333 148.96 154.541 149.048C154.757 149.128 155.053 149.22 155.429 149.324C155.901 149.452 156.285 149.58 156.581 149.708C156.877 149.828 157.129 150.012 157.337 150.26C157.553 150.508 157.665 150.832 157.673 151.232C157.673 151.592 157.573 151.916 157.373 152.204C157.173 152.492 156.889 152.72 156.521 152.888C156.161 153.048 155.745 153.128 155.273 153.128ZM160.547 147.344V151.22C160.547 151.54 160.615 151.768 160.751 151.904C160.887 152.032 161.123 152.096 161.459 152.096H162.263V153.02H161.279C160.671 153.02 160.215 152.88 159.911 152.6C159.607 152.32 159.455 151.86 159.455 151.22V147.344H158.603V146.444H159.455V144.788H160.547V146.444H162.263V147.344H160.547ZM164.15 145.376C163.942 145.376 163.766 145.304 163.622 145.16C163.478 145.016 163.406 144.84 163.406 144.632C163.406 144.424 163.478 144.248 163.622 144.104C163.766 143.96 163.942 143.888 164.15 143.888C164.35 143.888 164.518 143.96 164.654 144.104C164.798 144.248 164.87 144.424 164.87 144.632C164.87 144.84 164.798 145.016 164.654 145.16C164.518 145.304 164.35 145.376 164.15 145.376ZM164.678 146.444V153.02H163.586V146.444H164.678ZM169.743 146.324C170.543 146.324 171.191 146.568 171.687 147.056C172.183 147.536 172.431 148.232 172.431 149.144V153.02H171.351V149.3C171.351 148.644 171.187 148.144 170.859 147.8C170.531 147.448 170.083 147.272 169.515 147.272C168.939 147.272 168.479 147.452 168.135 147.812C167.799 148.172 167.631 148.696 167.631 149.384V153.02H166.539V146.444H167.631V147.38C167.847 147.044 168.139 146.784 168.507 146.6C168.883 146.416 169.295 146.324 169.743 146.324ZM176.927 146.336C177.495 146.336 177.991 146.46 178.415 146.708C178.847 146.956 179.167 147.268 179.375 147.644V146.444H180.479V153.164C180.479 153.764 180.351 154.296 180.095 154.76C179.839 155.232 179.471 155.6 178.991 155.864C178.519 156.128 177.967 156.26 177.335 156.26C176.471 156.26 175.751 156.056 175.175 155.648C174.599 155.24 174.259 154.684 174.155 153.98H175.235C175.355 154.38 175.603 154.7 175.979 154.94C176.355 155.188 176.807 155.312 177.335 155.312C177.935 155.312 178.423 155.124 178.799 154.748C179.183 154.372 179.375 153.844 179.375 153.164V151.784C179.159 152.168 178.839 152.488 178.415 152.744C177.991 153 177.495 153.128 176.927 153.128C176.343 153.128 175.811 152.984 175.331 152.696C174.859 152.408 174.487 152.004 174.215 151.484C173.943 150.964 173.807 150.372 173.807 149.708C173.807 149.036 173.943 148.448 174.215 147.944C174.487 147.432 174.859 147.036 175.331 146.756C175.811 146.476 176.343 146.336 176.927 146.336ZM179.375 149.72C179.375 149.224 179.275 148.792 179.075 148.424C178.875 148.056 178.603 147.776 178.259 147.584C177.923 147.384 177.551 147.284 177.143 147.284C176.735 147.284 176.363 147.38 176.027 147.572C175.691 147.764 175.423 148.044 175.223 148.412C175.023 148.78 174.923 149.212 174.923 149.708C174.923 150.212 175.023 150.652 175.223 151.028C175.423 151.396 175.691 151.68 176.027 151.88C176.363 152.072 176.735 152.168 177.143 152.168C177.551 152.168 177.923 152.072 178.259 151.88C178.603 151.68 178.875 151.396 179.075 151.028C179.275 150.652 179.375 150.216 179.375 149.72Z" fill="white"/>
<path d="M208.556 68.4514C208.004 68.4514 207.508 68.3554 207.068 68.1634C206.636 67.9634 206.296 67.6914 206.048 67.3474C205.8 66.9954 205.672 66.5914 205.664 66.1354H206.828C206.868 66.5274 207.028 66.8594 207.308 67.1314C207.596 67.3954 208.012 67.5274 208.556 67.5274C209.076 67.5274 209.484 67.3994 209.78 67.1434C210.084 66.8794 210.236 66.5434 210.236 66.1354C210.236 65.8154 210.148 65.5554 209.972 65.3554C209.796 65.1554 209.576 65.0034 209.312 64.8994C209.048 64.7954 208.692 64.6834 208.244 64.5634C207.692 64.4194 207.248 64.2754 206.912 64.1314C206.584 63.9874 206.3 63.7634 206.06 63.4594C205.828 63.1474 205.712 62.7314 205.712 62.2114C205.712 61.7554 205.828 61.3514 206.06 60.9994C206.292 60.6474 206.616 60.3754 207.032 60.1834C207.456 59.9914 207.94 59.8954 208.484 59.8954C209.268 59.8954 209.908 60.0914 210.404 60.4834C210.908 60.8754 211.192 61.3954 211.256 62.0434H210.056C210.016 61.7234 209.848 61.4434 209.552 61.2034C209.256 60.9554 208.864 60.8314 208.376 60.8314C207.92 60.8314 207.548 60.9514 207.26 61.1914C206.972 61.4234 206.828 61.7514 206.828 62.1754C206.828 62.4794 206.912 62.7274 207.08 62.9194C207.256 63.1114 207.468 63.2594 207.716 63.3634C207.972 63.4594 208.328 63.5714 208.784 63.6994C209.336 63.8514 209.78 64.0033 210.116 64.1553C210.452 64.2993 210.74 64.5274 210.98 64.8394C211.22 65.1434 211.34 65.5593 211.34 66.0873C211.34 66.4953 211.232 66.8793 211.016 67.2393C210.8 67.5993 210.48 67.8913 210.056 68.1153C209.632 68.3393 209.132 68.4514 208.556 68.4514ZM216.211 61.6714C216.707 61.6714 217.155 61.7794 217.555 61.9954C217.955 62.2034 218.267 62.5194 218.491 62.9434C218.723 63.3674 218.839 63.8834 218.839 64.4914V68.3674H217.759V64.6474C217.759 63.9914 217.595 63.4914 217.267 63.1474C216.939 62.7954 216.491 62.6194 215.923 62.6194C215.347 62.6194 214.887 62.7994 214.543 63.1594C214.207 63.5194 214.039 64.0434 214.039 64.7314V68.3674H212.947V59.4874H214.039V62.7274C214.255 62.3914 214.551 62.1314 214.927 61.9474C215.311 61.7634 215.739 61.6714 216.211 61.6714ZM220.215 65.0554C220.215 64.3834 220.351 63.7954 220.623 63.2914C220.895 62.7794 221.267 62.3834 221.739 62.1034C222.219 61.8234 222.751 61.6834 223.335 61.6834C223.911 61.6834 224.411 61.8074 224.835 62.0554C225.259 62.3034 225.575 62.6154 225.783 62.9914V61.7914H226.887V68.3674H225.783V67.1434C225.567 67.5274 225.243 67.8474 224.811 68.1034C224.387 68.3514 223.891 68.4753 223.323 68.4753C222.739 68.4753 222.211 68.3314 221.739 68.0434C221.267 67.7554 220.895 67.3514 220.623 66.8314C220.351 66.3114 220.215 65.7194 220.215 65.0554ZM225.783 65.0674C225.783 64.5714 225.683 64.1394 225.483 63.7714C225.283 63.4034 225.011 63.1234 224.667 62.9314C224.331 62.7314 223.959 62.6314 223.551 62.6314C223.143 62.6314 222.771 62.7274 222.435 62.9194C222.099 63.1114 221.831 63.3914 221.631 63.7594C221.431 64.1274 221.331 64.5594 221.331 65.0554C221.331 65.5594 221.431 65.9994 221.631 66.3754C221.831 66.7434 222.099 67.0274 222.435 67.2274C222.771 67.4194 223.143 67.5154 223.551 67.5154C223.959 67.5154 224.331 67.4194 224.667 67.2274C225.011 67.0274 225.283 66.7434 225.483 66.3754C225.683 65.9994 225.783 65.5634 225.783 65.0674ZM229.825 60.0034V68.3674H228.733V60.0034H229.825ZM232.778 63.0154C233.002 62.6234 233.33 62.3034 233.762 62.0554C234.194 61.8074 234.686 61.6834 235.238 61.6834C235.83 61.6834 236.362 61.8234 236.834 62.1034C237.306 62.3834 237.678 62.7794 237.95 63.2914C238.222 63.7954 238.358 64.3834 238.358 65.0554C238.358 65.7194 238.222 66.3114 237.95 66.8314C237.678 67.3514 237.302 67.7554 236.822 68.0434C236.35 68.3314 235.822 68.4753 235.238 68.4753C234.67 68.4753 234.17 68.3514 233.738 68.1034C233.314 67.8554 232.994 67.5393 232.778 67.1553V68.3674H231.686V59.4874H232.778V63.0154ZM237.242 65.0554C237.242 64.5594 237.142 64.1274 236.942 63.7594C236.742 63.3914 236.47 63.1114 236.126 62.9194C235.79 62.7274 235.418 62.6314 235.01 62.6314C234.61 62.6314 234.238 62.7314 233.894 62.9314C233.558 63.1234 233.286 63.4074 233.078 63.7834C232.878 64.1514 232.778 64.5794 232.778 65.0674C232.778 65.5634 232.878 65.9994 233.078 66.3754C233.286 66.7434 233.558 67.0274 233.894 67.2274C234.238 67.4194 234.61 67.5154 235.01 67.5154C235.418 67.5154 235.79 67.4194 236.126 67.2274C236.47 67.0274 236.742 66.7434 236.942 66.3754C237.142 65.9994 237.242 65.5594 237.242 65.0554ZM239.387 65.0554C239.387 64.3834 239.523 63.7954 239.795 63.2914C240.067 62.7794 240.439 62.3834 240.911 62.1034C241.391 61.8234 241.923 61.6834 242.507 61.6834C243.083 61.6834 243.583 61.8074 244.007 62.0554C244.431 62.3034 244.747 62.6154 244.955 62.9914V61.7914H246.059V68.3674H244.955V67.1434C244.739 67.5274 244.415 67.8474 243.983 68.1034C243.559 68.3514 243.063 68.4753 242.495 68.4753C241.911 68.4753 241.383 68.3314 240.911 68.0434C240.439 67.7554 240.067 67.3514 239.795 66.8314C239.523 66.3114 239.387 65.7194 239.387 65.0554ZM244.955 65.0674C244.955 64.5714 244.855 64.1394 244.655 63.7714C244.455 63.4034 244.183 63.1234 243.839 62.9314C243.503 62.7314 243.131 62.6314 242.723 62.6314C242.315 62.6314 241.943 62.7274 241.607 62.9194C241.271 63.1114 241.003 63.3914 240.803 63.7594C240.603 64.1274 240.503 64.5594 240.503 65.0554C240.503 65.5594 240.603 65.9994 240.803 66.3754C241.003 66.7434 241.271 67.0274 241.607 67.2274C241.943 67.4194 242.315 67.5154 242.723 67.5154C243.131 67.5154 243.503 67.4194 243.839 67.2274C244.183 67.0274 244.455 66.7434 244.655 66.3754C244.855 65.9994 244.955 65.5634 244.955 65.0674ZM255.292 64.0593C255.596 64.1073 255.872 64.2314 256.12 64.4314C256.376 64.6314 256.576 64.8794 256.72 65.1754C256.872 65.4714 256.948 65.7874 256.948 66.1234C256.948 66.5474 256.84 66.9314 256.624 67.2754C256.408 67.6114 256.092 67.8794 255.676 68.0794C255.268 68.2714 254.784 68.3674 254.224 68.3674H251.104V60.0034H254.104C254.672 60.0034 255.156 60.0994 255.556 60.2914C255.956 60.4754 256.256 60.7274 256.456 61.0474C256.656 61.3674 256.756 61.7274 256.756 62.1274C256.756 62.6234 256.62 63.0354 256.348 63.3634C256.084 63.6834 255.732 63.9153 255.292 64.0593ZM252.196 63.6154H254.032C254.544 63.6154 254.94 63.4954 255.22 63.2554C255.5 63.0154 255.64 62.6834 255.64 62.2594C255.64 61.8354 255.5 61.5034 255.22 61.2634C254.94 61.0234 254.536 60.9034 254.008 60.9034H252.196V63.6154ZM254.128 67.4674C254.672 67.4674 255.096 67.3394 255.4 67.0834C255.704 66.8274 255.856 66.4714 255.856 66.0154C255.856 65.5514 255.696 65.1874 255.376 64.9234C255.056 64.6514 254.628 64.5154 254.092 64.5154H252.196V67.4674H254.128ZM264.463 64.8274C264.463 65.0354 264.451 65.2554 264.427 65.4874H259.171C259.211 66.1354 259.431 66.6434 259.831 67.0114C260.239 67.3714 260.731 67.5514 261.307 67.5514C261.779 67.5514 262.171 67.4434 262.483 67.2274C262.803 67.0034 263.027 66.7074 263.155 66.3394H264.331C264.155 66.9714 263.803 67.4874 263.275 67.8874C262.747 68.2794 262.091 68.4753 261.307 68.4753C260.683 68.4753 260.123 68.3354 259.627 68.0554C259.139 67.7754 258.755 67.3794 258.475 66.8674C258.195 66.3474 258.055 65.7474 258.055 65.0674C258.055 64.3874 258.191 63.7914 258.463 63.2794C258.735 62.7674 259.115 62.3754 259.603 62.1034C260.099 61.8234 260.667 61.6834 261.307 61.6834C261.931 61.6834 262.483 61.8194 262.963 62.0914C263.443 62.3634 263.811 62.7394 264.067 63.2194C264.331 63.6914 264.463 64.2274 264.463 64.8274ZM263.335 64.5993C263.335 64.1833 263.243 63.8274 263.059 63.5314C262.875 63.2274 262.623 62.9994 262.303 62.8474C261.991 62.6874 261.643 62.6074 261.259 62.6074C260.707 62.6074 260.235 62.7834 259.843 63.1354C259.459 63.4874 259.239 63.9753 259.183 64.5993H263.335ZM267.236 62.6914V66.5674C267.236 66.8874 267.304 67.1154 267.44 67.2514C267.576 67.3794 267.812 67.4434 268.148 67.4434H268.952V68.3674H267.968C267.36 68.3674 266.904 68.2273 266.6 67.9473C266.296 67.6673 266.144 67.2074 266.144 66.5674V62.6914H265.292V61.7914H266.144V60.1354H267.236V61.7914H268.952V62.6914H267.236ZM269.868 65.0554C269.868 64.3834 270.004 63.7954 270.276 63.2914C270.548 62.7794 270.92 62.3834 271.392 62.1034C271.872 61.8234 272.404 61.6834 272.988 61.6834C273.564 61.6834 274.064 61.8074 274.488 62.0554C274.912 62.3034 275.228 62.6154 275.436 62.9914V61.7914H276.54V68.3674H275.436V67.1434C275.22 67.5274 274.896 67.8474 274.464 68.1034C274.04 68.3514 273.544 68.4753 272.976 68.4753C272.392 68.4753 271.864 68.3314 271.392 68.0434C270.92 67.7554 270.548 67.3514 270.276 66.8314C270.004 66.3114 269.868 65.7194 269.868 65.0554ZM275.436 65.0674C275.436 64.5714 275.336 64.1394 275.136 63.7714C274.936 63.4034 274.664 63.1234 274.32 62.9314C273.984 62.7314 273.612 62.6314 273.204 62.6314C272.796 62.6314 272.424 62.7274 272.088 62.9194C271.752 63.1114 271.484 63.3914 271.284 63.7594C271.084 64.1274 270.984 64.5594 270.984 65.0554C270.984 65.5594 271.084 65.9994 271.284 66.3754C271.484 66.7434 271.752 67.0274 272.088 67.2274C272.424 67.4194 272.796 67.5154 273.204 67.5154C273.612 67.5154 273.984 67.4194 274.32 67.2274C274.664 67.0274 274.936 66.7434 275.136 66.3754C275.336 65.9994 275.436 65.5634 275.436 65.0674ZM285.772 64.0593C286.076 64.1073 286.352 64.2314 286.6 64.4314C286.856 64.6314 287.056 64.8794 287.2 65.1754C287.352 65.4714 287.428 65.7874 287.428 66.1234C287.428 66.5474 287.32 66.9314 287.104 67.2754C286.888 67.6114 286.572 67.8794 286.156 68.0794C285.748 68.2714 285.264 68.3674 284.704 68.3674H281.584V60.0034H284.584C285.152 60.0034 285.636 60.0994 286.036 60.2914C286.436 60.4754 286.736 60.7274 286.936 61.0474C287.136 61.3674 287.236 61.7274 287.236 62.1274C287.236 62.6234 287.1 63.0354 286.828 63.3634C286.564 63.6834 286.212 63.9153 285.772 64.0593ZM282.676 63.6154H284.512C285.024 63.6154 285.42 63.4954 285.7 63.2554C285.98 63.0154 286.12 62.6834 286.12 62.2594C286.12 61.8354 285.98 61.5034 285.7 61.2634C285.42 61.0234 285.016 60.9034 284.488 60.9034H282.676V63.6154ZM284.608 67.4674C285.152 67.4674 285.576 67.3394 285.88 67.0834C286.184 66.8274 286.336 66.4714 286.336 66.0154C286.336 65.5514 286.176 65.1874 285.856 64.9234C285.536 64.6514 285.108 64.5154 284.572 64.5154H282.676V67.4674H284.608ZM291.812 68.4753C291.196 68.4753 290.636 68.3354 290.132 68.0554C289.636 67.7754 289.244 67.3794 288.956 66.8674C288.676 66.3474 288.536 65.7474 288.536 65.0674C288.536 64.3954 288.68 63.8034 288.968 63.2914C289.264 62.7714 289.664 62.3754 290.168 62.1034C290.672 61.8234 291.236 61.6834 291.86 61.6834C292.484 61.6834 293.048 61.8234 293.552 62.1034C294.056 62.3754 294.452 62.7674 294.74 63.2794C295.036 63.7914 295.184 64.3874 295.184 65.0674C295.184 65.7474 295.032 66.3474 294.728 66.8674C294.432 67.3794 294.028 67.7754 293.516 68.0554C293.004 68.3354 292.436 68.4753 291.812 68.4753ZM291.812 67.5154C292.204 67.5154 292.572 67.4233 292.916 67.2393C293.26 67.0553 293.536 66.7794 293.744 66.4114C293.96 66.0434 294.068 65.5954 294.068 65.0674C294.068 64.5394 293.964 64.0914 293.756 63.7234C293.548 63.3554 293.276 63.0834 292.94 62.9074C292.604 62.7234 292.24 62.6314 291.848 62.6314C291.448 62.6314 291.08 62.7234 290.744 62.9074C290.416 63.0834 290.152 63.3554 289.952 63.7234C289.752 64.0914 289.652 64.5394 289.652 65.0674C289.652 65.6034 289.748 66.0554 289.94 66.4234C290.14 66.7914 290.404 67.0674 290.732 67.2514C291.06 67.4274 291.42 67.5154 291.812 67.5154ZM297.951 62.6914V66.5674C297.951 66.8874 298.019 67.1154 298.155 67.2514C298.291 67.3794 298.527 67.4434 298.863 67.4434H299.667V68.3674H298.683C298.075 68.3674 297.619 68.2273 297.315 67.9473C297.011 67.6673 296.859 67.2074 296.859 66.5674V62.6914H296.007V61.7914H296.859V60.1354H297.951V61.7914H299.667V62.6914H297.951ZM305.282 59.4874V68.3674H304.19V59.4874H305.282ZM307.707 60.7234C307.499 60.7234 307.323 60.6514 307.179 60.5074C307.035 60.3634 306.963 60.1874 306.963 59.9794C306.963 59.7714 307.035 59.5954 307.179 59.4514C307.323 59.3074 307.499 59.2354 307.707 59.2354C307.907 59.2354 308.075 59.3074 308.211 59.4514C308.355 59.5954 308.427 59.7714 308.427 59.9794C308.427 60.1874 308.355 60.3634 308.211 60.5074C308.075 60.6514 307.907 60.7234 307.707 60.7234ZM308.235 61.7914V68.3674H307.143V61.7914H308.235ZM312.544 67.3594L314.584 61.7914H315.748L313.168 68.3674H311.896L309.316 61.7914H310.492L312.544 67.3594ZM322.822 64.8274C322.822 65.0354 322.81 65.2554 322.786 65.4874H317.53C317.57 66.1354 317.79 66.6434 318.19 67.0114C318.598 67.3714 319.09 67.5514 319.666 67.5514C320.138 67.5514 320.53 67.4434 320.842 67.2274C321.162 67.0034 321.386 66.7074 321.514 66.3394H322.69C322.514 66.9714 322.162 67.4874 321.634 67.8874C321.106 68.2794 320.45 68.4753 319.666 68.4753C319.042 68.4753 318.482 68.3354 317.986 68.0554C317.498 67.7754 317.114 67.3794 316.834 66.8674C316.554 66.3474 316.414 65.7474 316.414 65.0674C316.414 64.3874 316.55 63.7914 316.822 63.2794C317.094 62.7674 317.474 62.3754 317.962 62.1034C318.458 61.8234 319.026 61.6834 319.666 61.6834C320.29 61.6834 320.842 61.8194 321.322 62.0914C321.802 62.3634 322.17 62.7394 322.426 63.2194C322.69 63.6914 322.822 64.2274 322.822 64.8274ZM321.694 64.5993C321.694 64.1833 321.602 63.8274 321.418 63.5314C321.234 63.2274 320.982 62.9994 320.662 62.8474C320.35 62.6874 320.002 62.6074 319.618 62.6074C319.066 62.6074 318.594 62.7834 318.202 63.1354C317.818 63.4874 317.598 63.9753 317.542 64.5993H321.694ZM210.44 88.3674L206.996 84.5514V88.3674H205.904V80.0033H206.996V83.8794L210.452 80.0033H211.832L208.04 84.1914L211.868 88.3674H210.44ZM216.88 88.4514C216.104 88.4514 215.396 88.2714 214.756 87.9114C214.116 87.5434 213.608 87.0354 213.232 86.3874C212.864 85.7314 212.68 84.9954 212.68 84.1794C212.68 83.3634 212.864 82.6314 213.232 81.9834C213.608 81.3274 214.116 80.8194 214.756 80.4594C215.396 80.0914 216.104 79.9074 216.88 79.9074C217.664 79.9074 218.376 80.0914 219.016 80.4594C219.656 80.8194 220.16 81.3234 220.528 81.9714C220.896 82.6194 221.08 83.3554 221.08 84.1794C221.08 85.0034 220.896 85.7394 220.528 86.3874C220.16 87.0354 219.656 87.5434 219.016 87.9114C218.376 88.2714 217.664 88.4514 216.88 88.4514ZM216.88 87.5033C217.464 87.5033 217.988 87.3674 218.452 87.0954C218.924 86.8234 219.292 86.4354 219.556 85.9314C219.828 85.4274 219.964 84.8434 219.964 84.1794C219.964 83.5074 219.828 82.9234 219.556 82.4274C219.292 81.9234 218.928 81.5354 218.464 81.2634C218 80.9914 217.472 80.8554 216.88 80.8554C216.288 80.8554 215.76 80.9914 215.296 81.2634C214.832 81.5354 214.464 81.9234 214.192 82.4274C213.928 82.9234 213.796 83.5074 213.796 84.1794C213.796 84.8434 213.928 85.4274 214.192 85.9314C214.464 86.4354 214.832 86.8234 215.296 87.0954C215.768 87.3674 216.296 87.5033 216.88 87.5033ZM223.614 87.4794H226.542V88.3674H222.522V80.0033H223.614V87.4794ZM235.305 88.3674L233.313 84.9473H231.993V88.3674H230.901V80.0033H233.601C234.233 80.0033 234.765 80.1114 235.197 80.3274C235.637 80.5434 235.965 80.8354 236.181 81.2034C236.397 81.5714 236.505 81.9914 236.505 82.4634C236.505 83.0394 236.337 83.5474 236.001 83.9874C235.673 84.4274 235.177 84.7193 234.513 84.8633L236.613 88.3674H235.305ZM231.993 84.0714H233.601C234.193 84.0714 234.637 83.9274 234.933 83.6394C235.229 83.3434 235.377 82.9514 235.377 82.4634C235.377 81.9674 235.229 81.5834 234.933 81.3114C234.645 81.0394 234.201 80.9034 233.601 80.9034H231.993V84.0714ZM237.793 85.0554C237.793 84.3834 237.929 83.7954 238.201 83.2914C238.473 82.7794 238.845 82.3834 239.317 82.1034C239.797 81.8234 240.329 81.6833 240.913 81.6833C241.489 81.6833 241.989 81.8074 242.413 82.0554C242.837 82.3034 243.153 82.6154 243.361 82.9914V81.7914H244.465V88.3674H243.361V87.1434C243.145 87.5274 242.821 87.8474 242.389 88.1034C241.965 88.3514 241.469 88.4753 240.901 88.4753C240.317 88.4753 239.789 88.3314 239.317 88.0434C238.845 87.7554 238.473 87.3514 238.201 86.8314C237.929 86.3114 237.793 85.7194 237.793 85.0554ZM243.361 85.0674C243.361 84.5714 243.261 84.1394 243.061 83.7714C242.861 83.4034 242.589 83.1234 242.245 82.9314C241.909 82.7314 241.537 82.6314 241.129 82.6314C240.721 82.6314 240.349 82.7273 240.013 82.9193C239.677 83.1113 239.409 83.3914 239.209 83.7594C239.009 84.1274 238.909 84.5594 238.909 85.0554C238.909 85.5594 239.009 85.9994 239.209 86.3754C239.409 86.7434 239.677 87.0274 240.013 87.2274C240.349 87.4194 240.721 87.5154 241.129 87.5154C241.537 87.5154 241.909 87.4194 242.245 87.2274C242.589 87.0274 242.861 86.7434 243.061 86.3754C243.261 85.9994 243.361 85.5634 243.361 85.0674ZM246.875 80.7234C246.667 80.7234 246.491 80.6514 246.347 80.5074C246.203 80.3634 246.131 80.1874 246.131 79.9794C246.131 79.7714 246.203 79.5954 246.347 79.4514C246.491 79.3074 246.667 79.2354 246.875 79.2354C247.075 79.2354 247.243 79.3074 247.379 79.4514C247.523 79.5954 247.595 79.7714 247.595 79.9794C247.595 80.1874 247.523 80.3634 247.379 80.5074C247.243 80.6514 247.075 80.7234 246.875 80.7234ZM247.403 81.7914V88.3674H246.311V81.7914H247.403ZM251.592 88.4753C251.088 88.4753 250.636 88.3914 250.236 88.2234C249.836 88.0474 249.52 87.8073 249.288 87.5033C249.056 87.1913 248.928 86.8354 248.904 86.4354H250.032C250.064 86.7634 250.216 87.0313 250.488 87.2393C250.768 87.4473 251.132 87.5514 251.58 87.5514C251.996 87.5514 252.324 87.4594 252.564 87.2754C252.804 87.0914 252.924 86.8594 252.924 86.5794C252.924 86.2914 252.796 86.0794 252.54 85.9434C252.284 85.7994 251.888 85.6594 251.352 85.5234C250.864 85.3954 250.464 85.2674 250.152 85.1394C249.848 85.0034 249.584 84.8074 249.36 84.5514C249.144 84.2874 249.036 83.9434 249.036 83.5194C249.036 83.1834 249.136 82.8754 249.336 82.5954C249.536 82.3154 249.82 82.0954 250.188 81.9354C250.556 81.7674 250.976 81.6833 251.448 81.6833C252.176 81.6833 252.764 81.8674 253.212 82.2354C253.66 82.6034 253.9 83.1074 253.932 83.7474H252.84C252.816 83.4034 252.676 83.1273 252.42 82.9193C252.172 82.7113 251.836 82.6074 251.412 82.6074C251.02 82.6074 250.708 82.6914 250.476 82.8594C250.244 83.0274 250.128 83.2474 250.128 83.5194C250.128 83.7354 250.196 83.9153 250.332 84.0593C250.476 84.1953 250.652 84.3074 250.86 84.3954C251.076 84.4754 251.372 84.5674 251.748 84.6714C252.22 84.7994 252.604 84.9274 252.9 85.0554C253.196 85.1754 253.448 85.3594 253.656 85.6074C253.872 85.8554 253.984 86.1794 253.992 86.5794C253.992 86.9394 253.892 87.2634 253.692 87.5514C253.492 87.8394 253.208 88.0674 252.84 88.2354C252.48 88.3954 252.064 88.4753 251.592 88.4753ZM261.533 84.8274C261.533 85.0354 261.521 85.2554 261.497 85.4874H256.241C256.281 86.1354 256.501 86.6434 256.901 87.0114C257.309 87.3714 257.801 87.5514 258.377 87.5514C258.849 87.5514 259.241 87.4434 259.553 87.2274C259.873 87.0034 260.097 86.7074 260.225 86.3394H261.401C261.225 86.9714 260.873 87.4874 260.345 87.8874C259.817 88.2794 259.161 88.4753 258.377 88.4753C257.753 88.4753 257.193 88.3354 256.697 88.0554C256.209 87.7754 255.825 87.3794 255.545 86.8674C255.265 86.3474 255.125 85.7474 255.125 85.0674C255.125 84.3874 255.261 83.7914 255.533 83.2794C255.805 82.7674 256.185 82.3754 256.673 82.1034C257.169 81.8234 257.737 81.6833 258.377 81.6833C259.001 81.6833 259.553 81.8194 260.033 82.0914C260.513 82.3634 260.881 82.7394 261.137 83.2194C261.401 83.6914 261.533 84.2274 261.533 84.8274ZM260.405 84.5993C260.405 84.1833 260.313 83.8273 260.129 83.5313C259.945 83.2273 259.693 82.9994 259.373 82.8474C259.061 82.6874 258.713 82.6074 258.329 82.6074C257.777 82.6074 257.305 82.7834 256.913 83.1354C256.529 83.4874 256.309 83.9753 256.253 84.5993H260.405ZM269.042 88.4753C268.426 88.4753 267.866 88.3354 267.362 88.0554C266.866 87.7754 266.474 87.3794 266.186 86.8674C265.906 86.3474 265.766 85.7474 265.766 85.0674C265.766 84.3954 265.91 83.8034 266.198 83.2914C266.494 82.7714 266.894 82.3754 267.398 82.1034C267.902 81.8234 268.466 81.6833 269.09 81.6833C269.714 81.6833 270.278 81.8234 270.782 82.1034C271.286 82.3754 271.682 82.7674 271.97 83.2794C272.266 83.7914 272.414 84.3874 272.414 85.0674C272.414 85.7474 272.262 86.3474 271.958 86.8674C271.662 87.3794 271.258 87.7754 270.746 88.0554C270.234 88.3354 269.666 88.4753 269.042 88.4753ZM269.042 87.5154C269.434 87.5154 269.802 87.4233 270.146 87.2393C270.49 87.0553 270.766 86.7794 270.974 86.4114C271.19 86.0434 271.298 85.5954 271.298 85.0674C271.298 84.5394 271.194 84.0914 270.986 83.7234C270.778 83.3554 270.506 83.0834 270.17 82.9074C269.834 82.7234 269.47 82.6314 269.078 82.6314C268.678 82.6314 268.31 82.7234 267.974 82.9074C267.646 83.0834 267.382 83.3554 267.182 83.7234C266.982 84.0914 266.882 84.5394 266.882 85.0674C266.882 85.6034 266.978 86.0554 267.17 86.4234C267.37 86.7914 267.634 87.0674 267.962 87.2514C268.29 87.4274 268.65 87.5154 269.042 87.5154ZM277.054 81.6714C277.854 81.6714 278.502 81.9154 278.998 82.4034C279.494 82.8834 279.742 83.5794 279.742 84.4914V88.3674H278.662V84.6474C278.662 83.9914 278.498 83.4914 278.17 83.1474C277.842 82.7954 277.394 82.6194 276.826 82.6194C276.25 82.6194 275.79 82.7994 275.446 83.1594C275.11 83.5194 274.942 84.0434 274.942 84.7314V88.3674H273.85V81.7914H274.942V82.7274C275.158 82.3914 275.45 82.1313 275.818 81.9473C276.194 81.7633 276.606 81.6714 277.054 81.6714ZM287.377 88.4514C286.825 88.4514 286.329 88.3554 285.889 88.1634C285.457 87.9634 285.117 87.6914 284.869 87.3474C284.621 86.9954 284.493 86.5914 284.485 86.1354H285.649C285.689 86.5274 285.849 86.8594 286.129 87.1314C286.417 87.3954 286.833 87.5274 287.377 87.5274C287.897 87.5274 288.305 87.3994 288.601 87.1434C288.905 86.8794 289.057 86.5434 289.057 86.1354C289.057 85.8154 288.969 85.5554 288.793 85.3554C288.617 85.1554 288.397 85.0034 288.133 84.8994C287.869 84.7954 287.513 84.6834 287.065 84.5634C286.513 84.4194 286.069 84.2754 285.733 84.1314C285.405 83.9874 285.121 83.7634 284.881 83.4594C284.649 83.1474 284.533 82.7313 284.533 82.2113C284.533 81.7553 284.649 81.3514 284.881 80.9994C285.113 80.6474 285.437 80.3753 285.853 80.1833C286.277 79.9913 286.761 79.8954 287.305 79.8954C288.089 79.8954 288.729 80.0914 289.225 80.4834C289.729 80.8754 290.013 81.3954 290.077 82.0434H288.877C288.837 81.7234 288.669 81.4434 288.373 81.2034C288.077 80.9554 287.685 80.8314 287.197 80.8314C286.741 80.8314 286.369 80.9514 286.081 81.1914C285.793 81.4234 285.649 81.7514 285.649 82.1754C285.649 82.4794 285.733 82.7273 285.901 82.9193C286.077 83.1113 286.289 83.2593 286.537 83.3633C286.793 83.4593 287.149 83.5714 287.605 83.6994C288.157 83.8514 288.601 84.0033 288.937 84.1553C289.273 84.2993 289.561 84.5274 289.801 84.8394C290.041 85.1434 290.161 85.5593 290.161 86.0873C290.161 86.4953 290.053 86.8793 289.837 87.2393C289.621 87.5993 289.301 87.8913 288.877 88.1153C288.453 88.3393 287.953 88.4514 287.377 88.4514ZM291.36 85.0554C291.36 84.3834 291.496 83.7954 291.768 83.2914C292.04 82.7794 292.412 82.3834 292.884 82.1034C293.364 81.8234 293.896 81.6833 294.48 81.6833C295.056 81.6833 295.556 81.8074 295.98 82.0554C296.404 82.3034 296.72 82.6154 296.928 82.9914V81.7914H298.032V88.3674H296.928V87.1434C296.712 87.5274 296.388 87.8474 295.956 88.1034C295.532 88.3514 295.036 88.4753 294.468 88.4753C293.884 88.4753 293.356 88.3314 292.884 88.0434C292.412 87.7554 292.04 87.3514 291.768 86.8314C291.496 86.3114 291.36 85.7194 291.36 85.0554ZM296.928 85.0674C296.928 84.5714 296.828 84.1394 296.628 83.7714C296.428 83.4034 296.156 83.1234 295.812 82.9314C295.476 82.7314 295.104 82.6314 294.696 82.6314C294.288 82.6314 293.916 82.7273 293.58 82.9193C293.244 83.1113 292.976 83.3914 292.776 83.7594C292.576 84.1274 292.476 84.5594 292.476 85.0554C292.476 85.5594 292.576 85.9994 292.776 86.3754C292.976 86.7434 293.244 87.0274 293.58 87.2274C293.916 87.4194 294.288 87.5154 294.696 87.5154C295.104 87.5154 295.476 87.4194 295.812 87.2274C296.156 87.0274 296.428 86.7434 296.628 86.3754C296.828 85.9994 296.928 85.5634 296.928 85.0674ZM302.553 82.6914H301.173V88.3674H300.081V82.6914H299.229V81.7914H300.081V81.3233C300.081 80.5873 300.269 80.0514 300.645 79.7154C301.029 79.3714 301.641 79.1994 302.481 79.1994V80.1114C302.001 80.1114 301.661 80.2074 301.461 80.3994C301.269 80.5834 301.173 80.8913 301.173 81.3233V81.7914H302.553V82.6914ZM309.658 81.7914V88.3674H308.566V87.3954C308.358 87.7314 308.066 87.9954 307.69 88.1874C307.322 88.3714 306.914 88.4634 306.466 88.4634C305.954 88.4634 305.494 88.3594 305.086 88.1514C304.678 87.9354 304.354 87.6154 304.114 87.1914C303.882 86.7674 303.766 86.2514 303.766 85.6434V81.7914H304.846V85.4994C304.846 86.1474 305.01 86.6474 305.338 86.9994C305.666 87.3434 306.114 87.5154 306.682 87.5154C307.266 87.5154 307.726 87.3353 308.062 86.9753C308.398 86.6153 308.566 86.0914 308.566 85.4034V81.7914H309.658Z" fill="white"/>
<path d="M33.7965 65.3875C34.6081 65.3875 35.2659 64.7296 35.2659 63.9181C35.2659 63.1066 34.6081 62.4487 33.7965 62.4487C32.985 62.4487 32.3271 63.1066 32.3271 63.9181C32.3271 64.7296 32.985 65.3875 33.7965 65.3875Z" fill="white"/>
<path d="M199.102 65.3875C199.914 65.3875 200.572 64.7296 200.572 63.9181C200.572 63.1066 199.914 62.4487 199.102 62.4487C198.291 62.4487 197.633 63.1066 197.633 63.9181C197.633 64.7296 198.291 65.3875 199.102 65.3875Z" fill="white"/>
<path d="M112.409 130.775C113.22 130.775 113.878 130.117 113.878 129.306C113.878 128.494 113.22 127.836 112.409 127.836C111.597 127.836 110.939 128.494 110.939 129.306C110.939 130.117 111.597 130.775 112.409 130.775Z" fill="white"/>
<path d="M33.7965 85.9593C34.6081 85.9593 35.2659 85.3014 35.2659 84.4899C35.2659 83.6784 34.6081 83.0205 33.7965 83.0205C32.985 83.0205 32.3271 83.6784 32.3271 84.4899C32.3271 85.3014 32.985 85.9593 33.7965 85.9593Z" fill="white"/>
<path d="M199.102 85.9593C199.914 85.9593 200.572 85.3014 200.572 84.4899C200.572 83.6784 199.914 83.0205 199.102 83.0205C198.291 83.0205 197.633 83.6784 197.633 84.4899C197.633 85.3014 198.291 85.9593 199.102 85.9593Z" fill="white"/>
<path d="M112.409 151.346C113.22 151.346 113.878 150.689 113.878 149.877C113.878 149.066 113.22 148.408 112.409 148.408C111.597 148.408 110.939 149.066 110.939 149.877C110.939 150.689 111.597 151.346 112.409 151.346Z" fill="white"/>
<path d="M304.336 229V166.664L300.112 171.912H274.128L303.568 136.84H323.92V229H304.336Z" fill="url(#paint0_linear_3199_4808)" fill-opacity="0.22"/>
<path d="M23.9268 221V210.215H32.6268C33.0068 210.215 33.3568 210.31 33.6768 210.5C33.9968 210.69 34.2518 210.945 34.4418 211.265C34.6318 211.575 34.7268 211.92 34.7268 212.3V215.21C34.7268 215.59 34.6318 215.94 34.4418 216.26C34.2518 216.58 33.9968 216.835 33.6768 217.025C33.3568 217.205 33.0068 217.295 32.6268 217.295L25.9068 217.31V221H23.9268ZM26.0868 215.3H32.5368C32.5868 215.3 32.6318 215.285 32.6718 215.255C32.7118 215.225 32.7318 215.185 32.7318 215.135V212.375C32.7318 212.325 32.7118 212.285 32.6718 212.255C32.6318 212.215 32.5868 212.195 32.5368 212.195H26.0868C26.0368 212.195 25.9918 212.215 25.9518 212.255C25.9218 212.285 25.9068 212.325 25.9068 212.375V215.135C25.9068 215.185 25.9218 215.225 25.9518 215.255C25.9918 215.285 26.0368 215.3 26.0868 215.3ZM35.7621 221V209.45H37.7271V212.3H42.5271C42.9071 212.3 43.2521 212.395 43.5621 212.585C43.8721 212.775 44.1221 213.025 44.3121 213.335C44.5021 213.645 44.5971 213.99 44.5971 214.37V221H42.6321V214.445C42.6321 214.395 42.6121 214.355 42.5721 214.325C42.5421 214.285 42.5021 214.265 42.4521 214.265H37.9071C37.8571 214.265 37.8121 214.285 37.7721 214.325C37.7421 214.355 37.7271 214.395 37.7271 214.445V221H35.7621ZM47.8362 221C47.4562 221 47.1062 220.905 46.7862 220.715C46.4762 220.525 46.2262 220.275 46.0362 219.965C45.8562 219.655 45.7662 219.31 45.7662 218.93V215.66H52.6362V214.445C52.6362 214.395 52.6162 214.355 52.5762 214.325C52.5462 214.285 52.5062 214.265 52.4562 214.265H45.7662V212.3H52.5312C52.9112 212.3 53.2562 212.395 53.5662 212.585C53.8862 212.775 54.1362 213.025 54.3162 213.335C54.5062 213.645 54.6012 213.99 54.6012 214.37V221H47.8362ZM47.9112 219.035H52.6362V217.43H47.7312V218.855C47.7312 218.905 47.7462 218.95 47.7762 218.99C47.8162 219.02 47.8612 219.035 47.9112 219.035ZM57.869 221C57.489 221 57.144 220.905 56.834 220.715C56.524 220.525 56.274 220.275 56.084 219.965C55.894 219.655 55.799 219.31 55.799 218.93V218.6H57.764V218.855C57.764 218.905 57.779 218.95 57.809 218.99C57.849 219.02 57.894 219.035 57.944 219.035H62.489C62.539 219.035 62.579 219.02 62.609 218.99C62.649 218.95 62.669 218.905 62.669 218.855V217.82C62.669 217.77 62.649 217.73 62.609 217.7C62.579 217.66 62.539 217.64 62.489 217.64H57.869C57.489 217.64 57.144 217.545 56.834 217.355C56.524 217.165 56.274 216.915 56.084 216.605C55.894 216.295 55.799 215.95 55.799 215.57V214.37C55.799 213.99 55.894 213.645 56.084 213.335C56.274 213.025 56.524 212.775 56.834 212.585C57.144 212.395 57.489 212.3 57.869 212.3H62.564C62.954 212.3 63.304 212.395 63.614 212.585C63.924 212.775 64.174 213.025 64.364 213.335C64.554 213.645 64.649 213.99 64.649 214.37V214.7H62.669V214.445C62.669 214.395 62.649 214.355 62.609 214.325C62.579 214.285 62.539 214.265 62.489 214.265H57.944C57.894 214.265 57.849 214.285 57.809 214.325C57.779 214.355 57.764 214.395 57.764 214.445V215.48C57.764 215.53 57.779 215.575 57.809 215.615C57.849 215.645 57.894 215.66 57.944 215.66H62.564C62.954 215.66 63.304 215.755 63.614 215.945C63.924 216.135 64.174 216.385 64.364 216.695C64.554 217.005 64.649 217.35 64.649 217.73V218.93C64.649 219.31 64.554 219.655 64.364 219.965C64.174 220.275 63.924 220.525 63.614 220.715C63.304 220.905 62.954 221 62.564 221H57.869ZM67.9189 221C67.5389 221 67.1939 220.905 66.8839 220.715C66.5739 220.525 66.3239 220.275 66.1339 219.965C65.9439 219.655 65.8489 219.31 65.8489 218.93V214.37C65.8489 213.99 65.9439 213.645 66.1339 213.335C66.3239 213.025 66.5739 212.775 66.8839 212.585C67.1939 212.395 67.5389 212.3 67.9189 212.3H72.6139C72.9939 212.3 73.3389 212.395 73.6489 212.585C73.9689 212.775 74.2189 213.025 74.3989 213.335C74.5889 213.645 74.6839 213.99 74.6839 214.37V217.64H67.8139V218.855C67.8139 218.905 67.8289 218.95 67.8589 218.99C67.8989 219.02 67.9439 219.035 67.9939 219.035H74.6839V221H67.9189ZM67.8139 215.87H72.7189V214.445C72.7189 214.395 72.6989 214.355 72.6589 214.325C72.6289 214.285 72.5889 214.265 72.5389 214.265H67.9939C67.9439 214.265 67.8989 214.285 67.8589 214.325C67.8289 214.355 67.8139 214.395 67.8139 214.445V215.87ZM83.5196 221V213.035L82.6646 214.085H80.0696L83.3246 210.2H85.4996V221H83.5196Z" fill="#100843"/>
<defs>
<linearGradient id="paint0_linear_3199_4808" x1="284.714" y1="-19.9371" x2="299.44" y2="259.977" gradientUnits="userSpaceOnUse">
<stop stop-color="white"/>
<stop offset="1" stop-color="white" stop-opacity="0"/>
</linearGradient>
</defs>
</svg>
