<svg width="293" height="251" viewBox="0 0 293 251" fill="none" xmlns="http://www.w3.org/2000/svg">
<path d="M229.517 204.549C218.452 223.792 229.134 240.557 237.919 248.548C238.683 249.243 238.093 250.614 237.074 250.448C197.765 244.061 175.046 217.445 168.475 204.549H38.2528C16.6035 201.839 5.82669 185.803 1.71518 174.227C0.247192 170.094 0 165.671 0 161.285V39.1169C2.58484 17.3763 17.9966 6.52698 29.9404 2.16355C35.3251 0.196332 41.1301 0 46.8629 0H245.431C252.176 0 259.062 0.109133 265.348 2.55266C284.62 10.0439 291.825 29.2308 293 39.1169V164.617C291.525 184.799 278.204 196.03 266.978 201.257C260.734 204.164 253.721 204.549 246.834 204.549H229.517Z" fill="white"/>
<path d="M46.122 57C45.446 57 44.822 56.8353 44.25 56.506C43.678 56.1593 43.2273 55.7087 42.898 55.154C42.5687 54.582 42.404 53.9493 42.404 53.256V51.67H46.148V53.074C46.148 53.126 46.1567 53.1693 46.174 53.204C46.2087 53.2213 46.2433 53.23 46.278 53.23H57.172C57.2067 53.23 57.2413 53.2213 57.276 53.204C57.3107 53.1693 57.328 53.126 57.328 53.074V49.668C57.328 49.6333 57.3107 49.6073 57.276 49.59C57.2413 49.5553 57.2067 49.538 57.172 49.538H46.122C45.446 49.538 44.822 49.3733 44.25 49.044C43.678 48.6973 43.2273 48.238 42.898 47.666C42.5687 47.094 42.404 46.47 42.404 45.794V42.024C42.404 41.3307 42.5687 40.7067 42.898 40.152C43.2273 39.58 43.678 39.1293 44.25 38.8C44.822 38.4533 45.446 38.28 46.122 38.28H57.38C58.056 38.28 58.6713 38.4533 59.226 38.8C59.798 39.1293 60.2573 39.58 60.604 40.152C60.9507 40.7067 61.124 41.3307 61.124 42.024V43.61H57.328V42.206C57.328 42.154 57.3107 42.1193 57.276 42.102C57.2413 42.0673 57.2067 42.05 57.172 42.05H46.278C46.2433 42.05 46.2087 42.0673 46.174 42.102C46.1567 42.1193 46.148 42.154 46.148 42.206V45.612C46.148 45.6467 46.1567 45.6813 46.174 45.716C46.2087 45.7333 46.2433 45.742 46.278 45.742H57.38C58.056 45.742 58.6713 45.9153 59.226 46.262C59.798 46.5913 60.2573 47.042 60.604 47.614C60.9507 48.186 61.124 48.81 61.124 49.486V53.256C61.124 53.9493 60.9507 54.582 60.604 55.154C60.2573 55.7087 59.798 56.1593 59.226 56.506C58.6713 56.8353 58.056 57 57.38 57H46.122ZM63.9099 57V41.92H75.5319C76.2079 41.92 76.8232 42.0933 77.3779 42.44C77.9325 42.7693 78.3745 43.2113 78.7039 43.766C79.0332 44.3207 79.1979 44.9273 79.1979 45.586V57H75.5059V45.768C75.5059 45.7333 75.4885 45.6987 75.4539 45.664C75.4365 45.6293 75.4019 45.612 75.3499 45.612H67.7579C67.7232 45.612 67.6885 45.6293 67.6539 45.664C67.6192 45.6987 67.6019 45.7333 67.6019 45.768V57H63.9099ZM81.9614 57V41.92H85.6534V57H81.9614ZM81.9614 40.698V36.98H85.6534V40.698H81.9614ZM88.2087 62.98V41.92H99.8307C100.507 41.92 101.122 42.0933 101.677 42.44C102.231 42.7693 102.673 43.2113 103.003 43.766C103.332 44.3207 103.497 44.9273 103.497 45.586V53.334C103.497 53.9927 103.332 54.5993 103.003 55.154C102.673 55.7087 102.231 56.1593 101.677 56.506C101.122 56.8353 100.507 57 99.8307 57H91.9007V62.98H88.2087ZM92.0567 53.308H99.6487C99.7007 53.308 99.7354 53.2907 99.7527 53.256C99.7874 53.2213 99.8047 53.1867 99.8047 53.152V45.768C99.8047 45.7333 99.7874 45.6987 99.7527 45.664C99.7354 45.6293 99.7007 45.612 99.6487 45.612H92.0567C92.022 45.612 91.9874 45.6293 91.9527 45.664C91.918 45.6987 91.9007 45.7333 91.9007 45.768V53.152C91.9007 53.1867 91.918 53.2213 91.9527 53.256C91.9874 53.2907 92.022 53.308 92.0567 53.308ZM109.062 57C108.404 57 107.797 56.8353 107.242 56.506C106.688 56.1593 106.237 55.7087 105.89 55.154C105.561 54.5993 105.396 53.9927 105.396 53.334V45.586C105.396 44.9273 105.561 44.3207 105.89 43.766C106.237 43.2113 106.688 42.7693 107.242 42.44C107.797 42.0933 108.404 41.92 109.062 41.92H117.018C117.694 41.92 118.31 42.0933 118.864 42.44C119.419 42.7693 119.861 43.2113 120.19 43.766C120.52 44.3207 120.684 44.9273 120.684 45.586V51.332H109.088V53.152C109.088 53.1867 109.106 53.2213 109.14 53.256C109.175 53.2907 109.21 53.308 109.244 53.308H120.684V57H109.062ZM109.088 48.03H116.992V45.768C116.992 45.7333 116.975 45.6987 116.94 45.664C116.906 45.6293 116.871 45.612 116.836 45.612H109.244C109.21 45.612 109.175 45.6293 109.14 45.664C109.106 45.6987 109.088 45.7333 109.088 45.768V48.03ZM123.247 57V45.586C123.247 44.9273 123.411 44.3207 123.741 43.766C124.087 43.2113 124.538 42.7693 125.093 42.44C125.665 42.0933 126.28 41.92 126.939 41.92H135.285V45.612H127.095C127.06 45.612 127.025 45.6293 126.991 45.664C126.956 45.6987 126.939 45.7333 126.939 45.768V57H123.247ZM145.264 57V38.28H159.512C160.188 38.28 160.804 38.4533 161.358 38.8C161.93 39.1293 162.39 39.58 162.736 40.152C163.083 40.7067 163.256 41.3307 163.256 42.024V45.612C163.256 45.8373 163.239 46.054 163.204 46.262C163.17 46.4527 163.118 46.6433 163.048 46.834C163.326 47.198 163.551 47.5967 163.724 48.03C163.898 48.446 163.984 48.8707 163.984 49.304V53.256C163.984 53.9493 163.811 54.582 163.464 55.154C163.118 55.7087 162.658 56.1593 162.086 56.506C161.532 56.8353 160.908 57 160.214 57H145.264ZM149.164 53.23H160.032C160.084 53.23 160.119 53.2213 160.136 53.204C160.171 53.1693 160.188 53.126 160.188 53.074V49.512C160.188 49.4773 160.171 49.4427 160.136 49.408C160.119 49.3733 160.084 49.356 160.032 49.356H149.164C149.112 49.356 149.069 49.3733 149.034 49.408C149.017 49.4427 149.008 49.4773 149.008 49.512V53.074C149.008 53.126 149.017 53.1693 149.034 53.204C149.069 53.2213 149.112 53.23 149.164 53.23ZM149.164 45.586H159.304C159.339 45.586 159.374 45.5773 159.408 45.56C159.443 45.5253 159.46 45.4907 159.46 45.456V42.206C159.46 42.154 159.443 42.1193 159.408 42.102C159.374 42.0673 159.339 42.05 159.304 42.05H149.164C149.112 42.05 149.069 42.0673 149.034 42.102C149.017 42.1193 149.008 42.154 149.008 42.206V45.456C149.008 45.4907 149.017 45.5253 149.034 45.56C149.069 45.5773 149.112 45.586 149.164 45.586ZM170.355 57C169.697 57 169.09 56.8353 168.535 56.506C167.981 56.1593 167.53 55.7087 167.183 55.154C166.854 54.5993 166.689 53.9927 166.689 53.334V45.586C166.689 44.9273 166.854 44.3207 167.183 43.766C167.53 43.2113 167.981 42.7693 168.535 42.44C169.09 42.0933 169.697 41.92 170.355 41.92H178.311C178.987 41.92 179.603 42.0933 180.157 42.44C180.712 42.7693 181.154 43.2113 181.483 43.766C181.813 44.3207 181.977 44.9273 181.977 45.586V53.334C181.977 53.9927 181.813 54.5993 181.483 55.154C181.154 55.7087 180.712 56.1593 180.157 56.506C179.603 56.8353 178.987 57 178.311 57H170.355ZM170.537 53.308H178.129C178.164 53.308 178.199 53.2907 178.233 53.256C178.268 53.2213 178.285 53.1867 178.285 53.152V45.768C178.285 45.7333 178.268 45.6987 178.233 45.664C178.199 45.6293 178.164 45.612 178.129 45.612H170.537C170.503 45.612 170.468 45.6293 170.433 45.664C170.399 45.6987 170.381 45.7333 170.381 45.768V53.152C170.381 53.1867 170.399 53.2213 170.433 53.256C170.468 53.2907 170.503 53.308 170.537 53.308ZM187.953 57C187.277 57 186.661 56.8353 186.107 56.506C185.552 56.1593 185.101 55.7087 184.755 55.154C184.425 54.5993 184.261 53.9927 184.261 53.334V37.37H187.953V41.92H193.699V45.612H187.953V53.152C187.953 53.1867 187.97 53.2213 188.005 53.256C188.039 53.2907 188.074 53.308 188.109 53.308H193.699V57H187.953Z" fill="#090136"/>
<rect x="132" y="103" width="80" height="21" rx="3" fill="#FF765A"/>
<rect x="71" y="153" width="55" height="18" rx="3" fill="#00B4C2"/>
<path d="M58.846 91.5042H54.59L53.806 93.6742H52.462L55.99 83.9722H57.46L60.974 93.6742H59.63L58.846 91.5042ZM58.482 90.4682L56.718 85.5402L54.954 90.4682H58.482ZM69.3156 86.0022V93.6742H68.0416V92.5402C67.7989 92.9322 67.4583 93.2402 67.0196 93.4642C66.5903 93.6789 66.1143 93.7862 65.5916 93.7862C64.9943 93.7862 64.4576 93.6649 63.9816 93.4222C63.5056 93.1702 63.1276 92.7969 62.8476 92.3022C62.5769 91.8075 62.4416 91.2055 62.4416 90.4962V86.0022H63.7016V90.3282C63.7016 91.0842 63.8929 91.6675 64.2756 92.0782C64.6583 92.4795 65.1809 92.6802 65.8436 92.6802C66.5249 92.6802 67.0616 92.4702 67.4536 92.0502C67.8456 91.6302 68.0416 91.0189 68.0416 90.2162V86.0022H69.3156ZM73.0207 87.0522V91.5742C73.0207 91.9475 73.1 92.2135 73.2587 92.3722C73.4173 92.5215 73.6927 92.5962 74.0847 92.5962H75.0227V93.6742H73.8747C73.1653 93.6742 72.6333 93.5109 72.2787 93.1842C71.924 92.8575 71.7467 92.3209 71.7467 91.5742V87.0522H70.7527V86.0022H71.7467V84.0702H73.0207V86.0022H75.0227V87.0522H73.0207ZM79.9123 93.8002C79.1936 93.8002 78.5403 93.6369 77.9523 93.3102C77.3736 92.9835 76.9163 92.5215 76.5803 91.9242C76.2536 91.3175 76.0903 90.6175 76.0903 89.8242C76.0903 89.0402 76.2583 88.3495 76.5943 87.7522C76.9396 87.1455 77.4063 86.6835 77.9943 86.3662C78.5823 86.0395 79.2403 85.8762 79.9683 85.8762C80.6963 85.8762 81.3543 86.0395 81.9423 86.3662C82.5303 86.6835 82.9923 87.1409 83.3283 87.7382C83.6736 88.3355 83.8463 89.0309 83.8463 89.8242C83.8463 90.6175 83.6689 91.3175 83.3143 91.9242C82.9689 92.5215 82.4976 92.9835 81.9003 93.3102C81.3029 93.6369 80.6403 93.8002 79.9123 93.8002ZM79.9123 92.6802C80.3696 92.6802 80.7989 92.5729 81.2003 92.3582C81.6016 92.1435 81.9236 91.8215 82.1663 91.3922C82.4183 90.9629 82.5443 90.4402 82.5443 89.8242C82.5443 89.2082 82.4229 88.6855 82.1803 88.2562C81.9376 87.8269 81.6203 87.5095 81.2283 87.3042C80.8363 87.0895 80.4116 86.9822 79.9543 86.9822C79.4876 86.9822 79.0583 87.0895 78.6663 87.3042C78.2836 87.5095 77.9756 87.8269 77.7423 88.2562C77.5089 88.6855 77.3923 89.2082 77.3923 89.8242C77.3923 90.4495 77.5043 90.9769 77.7283 91.4062C77.9616 91.8355 78.2696 92.1575 78.6523 92.3722C79.0349 92.5775 79.4549 92.6802 79.9123 92.6802ZM94.7474 85.8622C95.3447 85.8622 95.8767 85.9882 96.3434 86.2402C96.81 86.4829 97.1787 86.8515 97.4494 87.3462C97.72 87.8409 97.8554 88.4429 97.8554 89.1522V93.6742H96.5954V89.3342C96.5954 88.5689 96.404 87.9855 96.0214 87.5842C95.648 87.1735 95.1394 86.9682 94.4954 86.9682C93.8327 86.9682 93.3054 87.1829 92.9134 87.6122C92.5214 88.0322 92.3254 88.6435 92.3254 89.4462V93.6742H91.0654V89.3342C91.0654 88.5689 90.874 87.9855 90.4914 87.5842C90.118 87.1735 89.6094 86.9682 88.9654 86.9682C88.3027 86.9682 87.7754 87.1829 87.3834 87.6122C86.9914 88.0322 86.7954 88.6435 86.7954 89.4462V93.6742H85.5214V86.0022H86.7954V87.1082C87.0474 86.7069 87.3834 86.3989 87.8034 86.1842C88.2327 85.9695 88.704 85.8622 89.2174 85.8622C89.8614 85.8622 90.4307 86.0069 90.9254 86.2962C91.42 86.5855 91.7887 87.0102 92.0314 87.5702C92.246 87.0289 92.6007 86.6089 93.0954 86.3102C93.59 86.0115 94.1407 85.8622 94.7474 85.8622ZM99.4692 89.8102C99.4692 89.0262 99.6279 88.3402 99.9452 87.7522C100.263 87.1549 100.697 86.6929 101.247 86.3662C101.807 86.0395 102.428 85.8762 103.109 85.8762C103.781 85.8762 104.365 86.0209 104.859 86.3102C105.354 86.5995 105.723 86.9635 105.965 87.4022V86.0022H107.253V93.6742H105.965V92.2462C105.713 92.6942 105.335 93.0675 104.831 93.3662C104.337 93.6555 103.758 93.8002 103.095 93.8002C102.414 93.8002 101.798 93.6322 101.247 93.2962C100.697 92.9602 100.263 92.4889 99.9452 91.8822C99.6279 91.2755 99.4692 90.5849 99.4692 89.8102ZM105.965 89.8242C105.965 89.2455 105.849 88.7415 105.615 88.3122C105.382 87.8829 105.065 87.5562 104.663 87.3322C104.271 87.0989 103.837 86.9822 103.361 86.9822C102.885 86.9822 102.451 87.0942 102.059 87.3182C101.667 87.5422 101.355 87.8689 101.121 88.2982C100.888 88.7275 100.771 89.2315 100.771 89.8102C100.771 90.3982 100.888 90.9115 101.121 91.3502C101.355 91.7795 101.667 92.1109 102.059 92.3442C102.451 92.5682 102.885 92.6802 103.361 92.6802C103.837 92.6802 104.271 92.5682 104.663 92.3442C105.065 92.1109 105.382 91.7795 105.615 91.3502C105.849 90.9115 105.965 90.4029 105.965 89.8242ZM110.96 87.0522V91.5742C110.96 91.9475 111.039 92.2135 111.198 92.3722C111.357 92.5215 111.632 92.5962 112.024 92.5962H112.962V93.6742H111.814C111.105 93.6742 110.573 93.5109 110.218 93.1842C109.863 92.8575 109.686 92.3209 109.686 91.5742V87.0522H108.692V86.0022H109.686V84.0702H110.96V86.0022H112.962V87.0522H110.96ZM121.506 89.5442C121.506 89.7869 121.492 90.0435 121.464 90.3142H115.332C115.378 91.0702 115.635 91.6629 116.102 92.0922C116.578 92.5122 117.152 92.7222 117.824 92.7222C118.374 92.7222 118.832 92.5962 119.196 92.3442C119.569 92.0829 119.83 91.7375 119.98 91.3082H121.352C121.146 92.0455 120.736 92.6475 120.12 93.1142C119.504 93.5715 118.738 93.8002 117.824 93.8002C117.096 93.8002 116.442 93.6369 115.864 93.3102C115.294 92.9835 114.846 92.5215 114.52 91.9242C114.193 91.3175 114.03 90.6175 114.03 89.8242C114.03 89.0309 114.188 88.3355 114.506 87.7382C114.823 87.1409 115.266 86.6835 115.836 86.3662C116.414 86.0395 117.077 85.8762 117.824 85.8762C118.552 85.8762 119.196 86.0349 119.756 86.3522C120.316 86.6695 120.745 87.1082 121.044 87.6682C121.352 88.2189 121.506 88.8442 121.506 89.5442ZM120.19 89.2782C120.19 88.7929 120.082 88.3775 119.868 88.0322C119.653 87.6775 119.359 87.4115 118.986 87.2342C118.622 87.0475 118.216 86.9542 117.768 86.9542C117.124 86.9542 116.573 87.1595 116.116 87.5702C115.668 87.9809 115.411 88.5502 115.346 89.2782H120.19ZM122.711 89.8102C122.711 89.0262 122.87 88.3402 123.187 87.7522C123.505 87.1549 123.939 86.6929 124.489 86.3662C125.049 86.0395 125.675 85.8762 126.365 85.8762C126.963 85.8762 127.518 86.0162 128.031 86.2962C128.545 86.5669 128.937 86.9262 129.207 87.3742V83.3142H130.495V93.6742H129.207V92.2322C128.955 92.6895 128.582 93.0675 128.087 93.3662C127.593 93.6555 127.014 93.8002 126.351 93.8002C125.67 93.8002 125.049 93.6322 124.489 93.2962C123.939 92.9602 123.505 92.4889 123.187 91.8822C122.87 91.2755 122.711 90.5849 122.711 89.8102ZM129.207 89.8242C129.207 89.2455 129.091 88.7415 128.857 88.3122C128.624 87.8829 128.307 87.5562 127.905 87.3322C127.513 87.0989 127.079 86.9822 126.603 86.9822C126.127 86.9822 125.693 87.0942 125.301 87.3182C124.909 87.5422 124.597 87.8689 124.363 88.2982C124.13 88.7275 124.013 89.2315 124.013 89.8102C124.013 90.3982 124.13 90.9115 124.363 91.3502C124.597 91.7795 124.909 92.1109 125.301 92.3442C125.693 92.5682 126.127 92.6802 126.603 92.6802C127.079 92.6802 127.513 92.5682 127.905 92.3442C128.307 92.1109 128.624 91.7795 128.857 91.3502C129.091 90.9115 129.207 90.4029 129.207 89.8242ZM139.503 87.0522H137.893V93.6742H136.619V87.0522H135.625V86.0022H136.619V85.4562C136.619 84.5975 136.838 83.9722 137.277 83.5802C137.725 83.1789 138.439 82.9782 139.419 82.9782V84.0422C138.859 84.0422 138.462 84.1542 138.229 84.3782C138.005 84.5929 137.893 84.9522 137.893 85.4562V86.0022H139.503V87.0522ZM142.262 87.2482C142.486 86.8095 142.803 86.4689 143.214 86.2262C143.634 85.9835 144.143 85.8622 144.74 85.8622V87.1782H144.404C142.976 87.1782 142.262 87.9529 142.262 89.5022V93.6742H140.988V86.0022H142.262V87.2482ZM149.557 93.8002C148.838 93.8002 148.185 93.6369 147.597 93.3102C147.018 92.9835 146.561 92.5215 146.225 91.9242C145.898 91.3175 145.735 90.6175 145.735 89.8242C145.735 89.0402 145.903 88.3495 146.239 87.7522C146.584 87.1455 147.051 86.6835 147.639 86.3662C148.227 86.0395 148.885 85.8762 149.613 85.8762C150.341 85.8762 150.999 86.0395 151.587 86.3662C152.175 86.6835 152.637 87.1409 152.973 87.7382C153.318 88.3355 153.491 89.0309 153.491 89.8242C153.491 90.6175 153.313 91.3175 152.959 91.9242C152.613 92.5215 152.142 92.9835 151.545 93.3102C150.947 93.6369 150.285 93.8002 149.557 93.8002ZM149.557 92.6802C150.014 92.6802 150.443 92.5729 150.845 92.3582C151.246 92.1435 151.568 91.8215 151.811 91.3922C152.063 90.9629 152.189 90.4402 152.189 89.8242C152.189 89.2082 152.067 88.6855 151.825 88.2562C151.582 87.8269 151.265 87.5095 150.873 87.3042C150.481 87.0895 150.056 86.9822 149.599 86.9822C149.132 86.9822 148.703 87.0895 148.311 87.3042C147.928 87.5095 147.62 87.8269 147.387 88.2562C147.153 88.6855 147.037 89.2082 147.037 89.8242C147.037 90.4495 147.149 90.9769 147.373 91.4062C147.606 91.8355 147.914 92.1575 148.297 92.3722C148.679 92.5775 149.099 92.6802 149.557 92.6802ZM158.904 85.8622C159.837 85.8622 160.593 86.1469 161.172 86.7162C161.751 87.2762 162.04 88.0882 162.04 89.1522V93.6742H160.78V89.3342C160.78 88.5689 160.589 87.9855 160.206 87.5842C159.823 87.1735 159.301 86.9682 158.638 86.9682C157.966 86.9682 157.429 87.1782 157.028 87.5982C156.636 88.0182 156.44 88.6295 156.44 89.4322V93.6742H155.166V86.0022H156.44V87.0942C156.692 86.7022 157.033 86.3989 157.462 86.1842C157.901 85.9695 158.381 85.8622 158.904 85.8622ZM165.675 87.0522V91.5742C165.675 91.9475 165.754 92.2135 165.913 92.3722C166.072 92.5215 166.347 92.5962 166.739 92.5962H167.677V93.6742H166.529C165.82 93.6742 165.288 93.5109 164.933 93.1842C164.578 92.8575 164.401 92.3209 164.401 91.5742V87.0522H163.407V86.0022H164.401V84.0702H165.675V86.0022H167.677V87.0522H165.675ZM170.495 87.2482C170.719 86.8095 171.036 86.4689 171.447 86.2262C171.867 85.9835 172.375 85.8622 172.973 85.8622V87.1782H172.637C171.209 87.1782 170.495 87.9529 170.495 89.5022V93.6742H169.221V86.0022H170.495V87.2482ZM181.247 86.0022V93.6742H179.973V92.5402C179.731 92.9322 179.39 93.2402 178.951 93.4642C178.522 93.6789 178.046 93.7862 177.523 93.7862C176.926 93.7862 176.389 93.6649 175.913 93.4222C175.437 93.1702 175.059 92.7969 174.779 92.3022C174.509 91.8075 174.373 91.2055 174.373 90.4962V86.0022H175.633V90.3282C175.633 91.0842 175.825 91.6675 176.207 92.0782C176.59 92.4795 177.113 92.6802 177.775 92.6802C178.457 92.6802 178.993 92.4702 179.385 92.0502C179.777 91.6302 179.973 91.0189 179.973 90.2162V86.0022H181.247ZM187.136 85.8622C188.07 85.8622 188.826 86.1469 189.404 86.7162C189.983 87.2762 190.272 88.0882 190.272 89.1522V93.6742H189.012V89.3342C189.012 88.5689 188.821 87.9855 188.438 87.5842C188.056 87.1735 187.533 86.9682 186.87 86.9682C186.198 86.9682 185.662 87.1782 185.26 87.5982C184.868 88.0182 184.672 88.6295 184.672 89.4322V93.6742H183.398V86.0022H184.672V87.0942C184.924 86.7022 185.265 86.3989 185.694 86.1842C186.133 85.9695 186.614 85.8622 187.136 85.8622ZM197.36 87.4302C197.621 86.9729 198.004 86.5995 198.508 86.3102C199.012 86.0209 199.586 85.8762 200.23 85.8762C200.92 85.8762 201.541 86.0395 202.092 86.3662C202.642 86.6929 203.076 87.1549 203.394 87.7522C203.711 88.3402 203.87 89.0262 203.87 89.8102C203.87 90.5849 203.711 91.2755 203.394 91.8822C203.076 92.4889 202.638 92.9602 202.078 93.2962C201.527 93.6322 200.911 93.8002 200.23 93.8002C199.567 93.8002 198.984 93.6555 198.48 93.3662C197.985 93.0769 197.612 92.7082 197.36 92.2602V93.6742H196.086V83.3142H197.36V87.4302ZM202.568 89.8102C202.568 89.2315 202.451 88.7275 202.218 88.2982C201.984 87.8689 201.667 87.5422 201.266 87.3182C200.874 87.0942 200.44 86.9822 199.964 86.9822C199.497 86.9822 199.063 87.0989 198.662 87.3322C198.27 87.5562 197.952 87.8875 197.71 88.3262C197.476 88.7555 197.36 89.2549 197.36 89.8242C197.36 90.4029 197.476 90.9115 197.71 91.3502C197.952 91.7795 198.27 92.1109 198.662 92.3442C199.063 92.5682 199.497 92.6802 199.964 92.6802C200.44 92.6802 200.874 92.5682 201.266 92.3442C201.667 92.1109 201.984 91.7795 202.218 91.3502C202.451 90.9115 202.568 90.3982 202.568 89.8102ZM208.893 93.8002C208.174 93.8002 207.521 93.6369 206.933 93.3102C206.354 92.9835 205.897 92.5215 205.561 91.9242C205.234 91.3175 205.071 90.6175 205.071 89.8242C205.071 89.0402 205.239 88.3495 205.575 87.7522C205.92 87.1455 206.387 86.6835 206.975 86.3662C207.563 86.0395 208.221 85.8762 208.949 85.8762C209.677 85.8762 210.335 86.0395 210.923 86.3662C211.511 86.6835 211.973 87.1409 212.309 87.7382C212.654 88.3355 212.827 89.0309 212.827 89.8242C212.827 90.6175 212.649 91.3175 212.295 91.9242C211.949 92.5215 211.478 92.9835 210.881 93.3102C210.283 93.6369 209.621 93.8002 208.893 93.8002ZM208.893 92.6802C209.35 92.6802 209.779 92.5729 210.181 92.3582C210.582 92.1435 210.904 91.8215 211.147 91.3922C211.399 90.9629 211.525 90.4402 211.525 89.8242C211.525 89.2082 211.403 88.6855 211.161 88.2562C210.918 87.8269 210.601 87.5095 210.209 87.3042C209.817 87.0895 209.392 86.9822 208.935 86.9822C208.468 86.9822 208.039 87.0895 207.647 87.3042C207.264 87.5095 206.956 87.8269 206.723 88.2562C206.489 88.6855 206.373 89.2082 206.373 89.8242C206.373 90.4495 206.485 90.9769 206.709 91.4062C206.942 91.8355 207.25 92.1575 207.633 92.3722C208.015 92.5775 208.435 92.6802 208.893 92.6802ZM216.056 87.0522V91.5742C216.056 91.9475 216.135 92.2135 216.294 92.3722C216.452 92.5215 216.728 92.5962 217.12 92.5962H218.058V93.6742H216.91C216.2 93.6742 215.668 93.5109 215.314 93.1842C214.959 92.8575 214.782 92.3209 214.782 91.5742V87.0522H213.788V86.0022H214.782V84.0702H216.056V86.0022H218.058V87.0522H216.056ZM56.172 117.772C55.528 117.772 54.9493 117.66 54.436 117.436C53.932 117.203 53.5353 116.886 53.246 116.484C52.9567 116.074 52.8073 115.602 52.798 115.07H54.156C54.2027 115.528 54.3893 115.915 54.716 116.232C55.052 116.54 55.5373 116.694 56.172 116.694C56.7787 116.694 57.2547 116.545 57.6 116.246C57.9547 115.938 58.132 115.546 58.132 115.07C58.132 114.697 58.0293 114.394 57.824 114.16C57.6187 113.927 57.362 113.75 57.054 113.628C56.746 113.507 56.3307 113.376 55.808 113.236C55.164 113.068 54.646 112.9 54.254 112.732C53.8713 112.564 53.54 112.303 53.26 111.948C52.9893 111.584 52.854 111.099 52.854 110.492C52.854 109.96 52.9893 109.489 53.26 109.078C53.5307 108.668 53.9087 108.35 54.394 108.126C54.8887 107.902 55.4533 107.79 56.088 107.79C57.0027 107.79 57.7493 108.019 58.328 108.476C58.916 108.934 59.2473 109.54 59.322 110.296H57.922C57.8753 109.923 57.6793 109.596 57.334 109.316C56.9887 109.027 56.5313 108.882 55.962 108.882C55.43 108.882 54.996 109.022 54.66 109.302C54.324 109.573 54.156 109.956 54.156 110.45C54.156 110.805 54.254 111.094 54.45 111.318C54.6553 111.542 54.9027 111.715 55.192 111.836C55.4907 111.948 55.906 112.079 56.438 112.228C57.082 112.406 57.6 112.583 57.992 112.76C58.384 112.928 58.72 113.194 59 113.558C59.28 113.913 59.42 114.398 59.42 115.014C59.42 115.49 59.294 115.938 59.042 116.358C58.79 116.778 58.4167 117.119 57.922 117.38C57.4273 117.642 56.844 117.772 56.172 117.772ZM68.2948 113.544C68.2948 113.787 68.2808 114.044 68.2528 114.314H62.1208C62.1675 115.07 62.4241 115.663 62.8908 116.092C63.3668 116.512 63.9408 116.722 64.6128 116.722C65.1635 116.722 65.6208 116.596 65.9848 116.344C66.3581 116.083 66.6195 115.738 66.7688 115.308H68.1408C67.9355 116.046 67.5248 116.648 66.9088 117.114C66.2928 117.572 65.5275 117.8 64.6128 117.8C63.8848 117.8 63.2315 117.637 62.6528 117.31C62.0835 116.984 61.6355 116.522 61.3088 115.924C60.9821 115.318 60.8188 114.618 60.8188 113.824C60.8188 113.031 60.9775 112.336 61.2948 111.738C61.6121 111.141 62.0555 110.684 62.6248 110.366C63.2035 110.04 63.8661 109.876 64.6128 109.876C65.3408 109.876 65.9848 110.035 66.5448 110.352C67.1048 110.67 67.5341 111.108 67.8328 111.668C68.1408 112.219 68.2948 112.844 68.2948 113.544ZM66.9788 113.278C66.9788 112.793 66.8715 112.378 66.6568 112.032C66.4421 111.678 66.1481 111.412 65.7748 111.234C65.4108 111.048 65.0048 110.954 64.5568 110.954C63.9128 110.954 63.3621 111.16 62.9048 111.57C62.4568 111.981 62.2001 112.55 62.1348 113.278H66.9788ZM71.5304 111.052V115.574C71.5304 115.948 71.6098 116.214 71.7684 116.372C71.9271 116.522 72.2024 116.596 72.5944 116.596H73.5324V117.674H72.3844C71.6751 117.674 71.1431 117.511 70.7884 117.184C70.4338 116.858 70.2564 116.321 70.2564 115.574V111.052H69.2624V110.002H70.2564V108.07H71.5304V110.002H73.5324V111.052H71.5304ZM78.3325 113.824C78.3325 113.031 78.4911 112.34 78.8085 111.752C79.1258 111.155 79.5645 110.693 80.1245 110.366C80.6938 110.04 81.3425 109.876 82.0705 109.876C83.0131 109.876 83.7878 110.105 84.3945 110.562C85.0105 111.02 85.4165 111.654 85.6125 112.466H84.2405C84.1098 112 83.8531 111.631 83.4705 111.36C83.0971 111.09 82.6305 110.954 82.0705 110.954C81.3425 110.954 80.7545 111.206 80.3065 111.71C79.8585 112.205 79.6345 112.91 79.6345 113.824C79.6345 114.748 79.8585 115.462 80.3065 115.966C80.7545 116.47 81.3425 116.722 82.0705 116.722C82.6305 116.722 83.0971 116.592 83.4705 116.33C83.8438 116.069 84.1005 115.696 84.2405 115.21H85.6125C85.4071 115.994 84.9965 116.624 84.3805 117.1C83.7645 117.567 82.9945 117.8 82.0705 117.8C81.3425 117.8 80.6938 117.637 80.1245 117.31C79.5645 116.984 79.1258 116.522 78.8085 115.924C78.4911 115.327 78.3325 114.627 78.3325 113.824ZM94.1164 110.002V117.674H92.8424V116.54C92.5997 116.932 92.259 117.24 91.8204 117.464C91.391 117.679 90.915 117.786 90.3924 117.786C89.795 117.786 89.2584 117.665 88.7824 117.422C88.3064 117.17 87.9284 116.797 87.6484 116.302C87.3777 115.808 87.2424 115.206 87.2424 114.496V110.002H88.5024V114.328C88.5024 115.084 88.6937 115.668 89.0764 116.078C89.459 116.48 89.9817 116.68 90.6444 116.68C91.3257 116.68 91.8624 116.47 92.2544 116.05C92.6464 115.63 92.8424 115.019 92.8424 114.216V110.002H94.1164ZM98.9835 117.8C98.3955 117.8 97.8681 117.702 97.4015 117.506C96.9348 117.301 96.5661 117.021 96.2955 116.666C96.0248 116.302 95.8755 115.887 95.8475 115.42H97.1635C97.2008 115.803 97.3781 116.116 97.6955 116.358C98.0221 116.601 98.4468 116.722 98.9695 116.722C99.4548 116.722 99.8375 116.615 100.117 116.4C100.397 116.186 100.537 115.915 100.537 115.588C100.537 115.252 100.388 115.005 100.089 114.846C99.7908 114.678 99.3288 114.515 98.7035 114.356C98.1341 114.207 97.6675 114.058 97.3035 113.908C96.9488 113.75 96.6408 113.521 96.3795 113.222C96.1275 112.914 96.0015 112.513 96.0015 112.018C96.0015 111.626 96.1181 111.267 96.3515 110.94C96.5848 110.614 96.9161 110.357 97.3455 110.17C97.7748 109.974 98.2648 109.876 98.8155 109.876C99.6648 109.876 100.351 110.091 100.873 110.52C101.396 110.95 101.676 111.538 101.713 112.284H100.439C100.411 111.883 100.248 111.561 99.9495 111.318C99.6601 111.076 99.2681 110.954 98.7735 110.954C98.3161 110.954 97.9521 111.052 97.6815 111.248C97.4108 111.444 97.2755 111.701 97.2755 112.018C97.2755 112.27 97.3548 112.48 97.5135 112.648C97.6815 112.807 97.8868 112.938 98.1295 113.04C98.3815 113.134 98.7268 113.241 99.1655 113.362C99.7161 113.512 100.164 113.661 100.509 113.81C100.855 113.95 101.149 114.165 101.391 114.454C101.643 114.744 101.774 115.122 101.783 115.588C101.783 116.008 101.667 116.386 101.433 116.722C101.2 117.058 100.869 117.324 100.439 117.52C100.019 117.707 99.5341 117.8 98.9835 117.8ZM105.136 111.052V115.574C105.136 115.948 105.215 116.214 105.374 116.372C105.533 116.522 105.808 116.596 106.2 116.596H107.138V117.674H105.99C105.281 117.674 104.749 117.511 104.394 117.184C104.039 116.858 103.862 116.321 103.862 115.574V111.052H102.868V110.002H103.862V108.07H105.136V110.002H107.138V111.052H105.136ZM112.028 117.8C111.309 117.8 110.656 117.637 110.068 117.31C109.489 116.984 109.032 116.522 108.696 115.924C108.369 115.318 108.206 114.618 108.206 113.824C108.206 113.04 108.374 112.35 108.71 111.752C109.055 111.146 109.522 110.684 110.11 110.366C110.698 110.04 111.356 109.876 112.084 109.876C112.812 109.876 113.47 110.04 114.058 110.366C114.646 110.684 115.108 111.141 115.444 111.738C115.789 112.336 115.962 113.031 115.962 113.824C115.962 114.618 115.784 115.318 115.43 115.924C115.084 116.522 114.613 116.984 114.016 117.31C113.418 117.637 112.756 117.8 112.028 117.8ZM112.028 116.68C112.485 116.68 112.914 116.573 113.316 116.358C113.717 116.144 114.039 115.822 114.282 115.392C114.534 114.963 114.66 114.44 114.66 113.824C114.66 113.208 114.538 112.686 114.296 112.256C114.053 111.827 113.736 111.51 113.344 111.304C112.952 111.09 112.527 110.982 112.07 110.982C111.603 110.982 111.174 111.09 110.782 111.304C110.399 111.51 110.091 111.827 109.858 112.256C109.624 112.686 109.508 113.208 109.508 113.824C109.508 114.45 109.62 114.977 109.844 115.406C110.077 115.836 110.385 116.158 110.768 116.372C111.15 116.578 111.57 116.68 112.028 116.68ZM126.863 109.862C127.46 109.862 127.992 109.988 128.459 110.24C128.925 110.483 129.294 110.852 129.565 111.346C129.835 111.841 129.971 112.443 129.971 113.152V117.674H128.711V113.334C128.711 112.569 128.519 111.986 128.137 111.584C127.763 111.174 127.255 110.968 126.611 110.968C125.948 110.968 125.421 111.183 125.029 111.612C124.637 112.032 124.441 112.644 124.441 113.446V117.674H123.181V113.334C123.181 112.569 122.989 111.986 122.607 111.584C122.233 111.174 121.725 110.968 121.081 110.968C120.418 110.968 119.891 111.183 119.499 111.612C119.107 112.032 118.911 112.644 118.911 113.446V117.674H117.637V110.002H118.911V111.108C119.163 110.707 119.499 110.399 119.919 110.184C120.348 109.97 120.819 109.862 121.333 109.862C121.977 109.862 122.546 110.007 123.041 110.296C123.535 110.586 123.904 111.01 124.147 111.57C124.361 111.029 124.716 110.609 125.211 110.31C125.705 110.012 126.256 109.862 126.863 109.862ZM57.964 136.648C58.3187 136.704 58.6407 136.849 58.93 137.082C59.2287 137.316 59.462 137.605 59.63 137.95C59.8073 138.296 59.896 138.664 59.896 139.056C59.896 139.551 59.77 139.999 59.518 140.4C59.266 140.792 58.8973 141.105 58.412 141.338C57.936 141.562 57.3713 141.674 56.718 141.674H53.078V131.916H56.578C57.2407 131.916 57.8053 132.028 58.272 132.252C58.7387 132.467 59.0887 132.761 59.322 133.134C59.5553 133.508 59.672 133.928 59.672 134.394C59.672 134.973 59.5133 135.454 59.196 135.836C58.888 136.21 58.4773 136.48 57.964 136.648ZM54.352 136.13H56.494C57.0913 136.13 57.5533 135.99 57.88 135.71C58.2067 135.43 58.37 135.043 58.37 134.548C58.37 134.054 58.2067 133.666 57.88 133.386C57.5533 133.106 57.082 132.966 56.466 132.966H54.352V136.13ZM56.606 140.624C57.2407 140.624 57.7353 140.475 58.09 140.176C58.4447 139.878 58.622 139.462 58.622 138.93C58.622 138.389 58.4353 137.964 58.062 137.656C57.6887 137.339 57.1893 137.18 56.564 137.18H54.352V140.624H56.606ZM68.4679 134.002V141.674H67.1939V140.54C66.9513 140.932 66.6106 141.24 66.1719 141.464C65.7426 141.679 65.2666 141.786 64.7439 141.786C64.1466 141.786 63.6099 141.665 63.1339 141.422C62.6579 141.17 62.2799 140.797 61.9999 140.302C61.7293 139.808 61.5939 139.206 61.5939 138.496V134.002H62.8539V138.328C62.8539 139.084 63.0453 139.668 63.4279 140.078C63.8106 140.48 64.3333 140.68 64.9959 140.68C65.6773 140.68 66.2139 140.47 66.6059 140.05C66.9979 139.63 67.1939 139.019 67.1939 138.216V134.002H68.4679ZM77.227 134.002L72.607 145.286H71.291L72.803 141.59L69.709 134.002H71.123L73.531 140.218L75.911 134.002H77.227ZM89.7301 141.674L88.4561 140.386C87.9801 140.881 87.4714 141.25 86.9301 141.492C86.3888 141.726 85.7774 141.842 85.0961 141.842C84.4241 141.842 83.8268 141.721 83.3041 141.478C82.7908 141.236 82.3894 140.89 82.1001 140.442C81.8201 139.994 81.6801 139.472 81.6801 138.874C81.6801 138.193 81.8714 137.596 82.2541 137.082C82.6461 136.56 83.2201 136.149 83.9761 135.85C83.6774 135.496 83.4628 135.169 83.3321 134.87C83.2014 134.572 83.1361 134.245 83.1361 133.89C83.1361 133.48 83.2388 133.111 83.4441 132.784C83.6588 132.448 83.9621 132.187 84.3541 132C84.7461 131.814 85.1988 131.72 85.7121 131.72C86.2161 131.72 86.6548 131.818 87.0281 132.014C87.4014 132.21 87.6814 132.486 87.8681 132.84C88.0548 133.186 88.1388 133.573 88.1201 134.002H86.8461C86.8554 133.62 86.7481 133.321 86.5241 133.106C86.3001 132.882 86.0108 132.77 85.6561 132.77C85.2828 132.77 84.9794 132.878 84.7461 133.092C84.5221 133.298 84.4101 133.564 84.4101 133.89C84.4101 134.17 84.4848 134.441 84.6341 134.702C84.7928 134.964 85.0541 135.286 85.4181 135.668L88.3301 138.594L88.5821 138.202L89.5341 136.606H90.9061L89.7581 138.594C89.5994 138.874 89.4128 139.168 89.1981 139.476L91.3961 141.674H89.7301ZM85.0961 140.75C85.6001 140.75 86.0528 140.652 86.4541 140.456C86.8648 140.26 87.2521 139.957 87.6161 139.546L84.7461 136.662C83.5514 137.12 82.9541 137.843 82.9541 138.832C82.9541 139.383 83.1501 139.84 83.5421 140.204C83.9434 140.568 84.4614 140.75 85.0961 140.75ZM99.0381 141.8C98.4501 141.8 97.9228 141.702 97.4561 141.506C96.9895 141.301 96.6208 141.021 96.3501 140.666C96.0795 140.302 95.9301 139.887 95.9021 139.42H97.2181C97.2555 139.803 97.4328 140.116 97.7501 140.358C98.0768 140.601 98.5015 140.722 99.0241 140.722C99.5095 140.722 99.8921 140.615 100.172 140.4C100.452 140.186 100.592 139.915 100.592 139.588C100.592 139.252 100.443 139.005 100.144 138.846C99.8455 138.678 99.3835 138.515 98.7581 138.356C98.1888 138.207 97.7221 138.058 97.3581 137.908C97.0035 137.75 96.6955 137.521 96.4341 137.222C96.1821 136.914 96.0561 136.513 96.0561 136.018C96.0561 135.626 96.1728 135.267 96.4061 134.94C96.6395 134.614 96.9708 134.357 97.4001 134.17C97.8295 133.974 98.3195 133.876 98.8701 133.876C99.7195 133.876 100.405 134.091 100.928 134.52C101.451 134.95 101.731 135.538 101.768 136.284H100.494C100.466 135.883 100.303 135.561 100.004 135.318C99.7148 135.076 99.3228 134.954 98.8281 134.954C98.3708 134.954 98.0068 135.052 97.7361 135.248C97.4655 135.444 97.3301 135.701 97.3301 136.018C97.3301 136.27 97.4095 136.48 97.5681 136.648C97.7361 136.807 97.9415 136.938 98.1841 137.04C98.4361 137.134 98.7815 137.241 99.2201 137.362C99.7708 137.512 100.219 137.661 100.564 137.81C100.909 137.95 101.203 138.165 101.446 138.454C101.698 138.744 101.829 139.122 101.838 139.588C101.838 140.008 101.721 140.386 101.488 140.722C101.255 141.058 100.923 141.324 100.494 141.52C100.074 141.707 99.5888 141.8 99.0381 141.8ZM110.637 137.544C110.637 137.787 110.623 138.044 110.595 138.314H104.463C104.509 139.07 104.766 139.663 105.233 140.092C105.709 140.512 106.283 140.722 106.955 140.722C107.505 140.722 107.963 140.596 108.327 140.344C108.7 140.083 108.961 139.738 109.111 139.308H110.483C110.277 140.046 109.867 140.648 109.251 141.114C108.635 141.572 107.869 141.8 106.955 141.8C106.227 141.8 105.573 141.637 104.995 141.31C104.425 140.984 103.977 140.522 103.651 139.924C103.324 139.318 103.161 138.618 103.161 137.824C103.161 137.031 103.319 136.336 103.637 135.738C103.954 135.141 104.397 134.684 104.967 134.366C105.545 134.04 106.208 133.876 106.955 133.876C107.683 133.876 108.327 134.035 108.887 134.352C109.447 134.67 109.876 135.108 110.175 135.668C110.483 136.219 110.637 136.844 110.637 137.544ZM109.321 137.278C109.321 136.793 109.213 136.378 108.999 136.032C108.784 135.678 108.49 135.412 108.117 135.234C107.753 135.048 107.347 134.954 106.899 134.954C106.255 134.954 105.704 135.16 105.247 135.57C104.799 135.981 104.542 136.55 104.477 137.278H109.321ZM113.592 131.314V141.674H112.318V131.314H113.592ZM117.038 131.314V141.674H115.764V131.314H117.038ZM122.465 137.81C122.465 137.026 122.624 136.34 122.941 135.752C123.259 135.155 123.693 134.693 124.243 134.366C124.803 134.04 125.424 133.876 126.105 133.876C126.777 133.876 127.361 134.021 127.855 134.31C128.35 134.6 128.719 134.964 128.961 135.402V134.002H130.249V141.674H128.961V140.246C128.709 140.694 128.331 141.068 127.827 141.366C127.333 141.656 126.754 141.8 126.091 141.8C125.41 141.8 124.794 141.632 124.243 141.296C123.693 140.96 123.259 140.489 122.941 139.882C122.624 139.276 122.465 138.585 122.465 137.81ZM128.961 137.824C128.961 137.246 128.845 136.742 128.611 136.312C128.378 135.883 128.061 135.556 127.659 135.332C127.267 135.099 126.833 134.982 126.357 134.982C125.881 134.982 125.447 135.094 125.055 135.318C124.663 135.542 124.351 135.869 124.117 136.298C123.884 136.728 123.767 137.232 123.767 137.81C123.767 138.398 123.884 138.912 124.117 139.35C124.351 139.78 124.663 140.111 125.055 140.344C125.447 140.568 125.881 140.68 126.357 140.68C126.833 140.68 127.267 140.568 127.659 140.344C128.061 140.111 128.378 139.78 128.611 139.35C128.845 138.912 128.961 138.403 128.961 137.824ZM139.206 134.002V141.674H137.932V140.54C137.69 140.932 137.349 141.24 136.91 141.464C136.481 141.679 136.005 141.786 135.482 141.786C134.885 141.786 134.348 141.665 133.872 141.422C133.396 141.17 133.018 140.797 132.738 140.302C132.468 139.808 132.332 139.206 132.332 138.496V134.002H133.592V138.328C133.592 139.084 133.784 139.668 134.166 140.078C134.549 140.48 135.072 140.68 135.734 140.68C136.416 140.68 136.952 140.47 137.344 140.05C137.736 139.63 137.932 139.019 137.932 138.216V134.002H139.206ZM142.911 135.052V139.574C142.911 139.948 142.991 140.214 143.149 140.372C143.308 140.522 143.583 140.596 143.975 140.596H144.913V141.674H143.765C143.056 141.674 142.524 141.511 142.169 141.184C141.815 140.858 141.637 140.321 141.637 139.574V135.052H140.643V134.002H141.637V132.07H142.911V134.002H144.913V135.052H142.911ZM149.803 141.8C149.084 141.8 148.431 141.637 147.843 141.31C147.264 140.984 146.807 140.522 146.471 139.924C146.144 139.318 145.981 138.618 145.981 137.824C145.981 137.04 146.149 136.35 146.485 135.752C146.83 135.146 147.297 134.684 147.885 134.366C148.473 134.04 149.131 133.876 149.859 133.876C150.587 133.876 151.245 134.04 151.833 134.366C152.421 134.684 152.883 135.141 153.219 135.738C153.564 136.336 153.737 137.031 153.737 137.824C153.737 138.618 153.56 139.318 153.205 139.924C152.86 140.522 152.388 140.984 151.791 141.31C151.194 141.637 150.531 141.8 149.803 141.8ZM149.803 140.68C150.26 140.68 150.69 140.573 151.091 140.358C151.492 140.144 151.814 139.822 152.057 139.392C152.309 138.963 152.435 138.44 152.435 137.824C152.435 137.208 152.314 136.686 152.071 136.256C151.828 135.827 151.511 135.51 151.119 135.304C150.727 135.09 150.302 134.982 149.845 134.982C149.378 134.982 148.949 135.09 148.557 135.304C148.174 135.51 147.866 135.827 147.633 136.256C147.4 136.686 147.283 137.208 147.283 137.824C147.283 138.45 147.395 138.977 147.619 139.406C147.852 139.836 148.16 140.158 148.543 140.372C148.926 140.578 149.346 140.68 149.803 140.68ZM164.638 133.862C165.235 133.862 165.767 133.988 166.234 134.24C166.701 134.483 167.069 134.852 167.34 135.346C167.611 135.841 167.746 136.443 167.746 137.152V141.674H166.486V137.334C166.486 136.569 166.295 135.986 165.912 135.584C165.539 135.174 165.03 134.968 164.386 134.968C163.723 134.968 163.196 135.183 162.804 135.612C162.412 136.032 162.216 136.644 162.216 137.446V141.674H160.956V137.334C160.956 136.569 160.765 135.986 160.382 135.584C160.009 135.174 159.5 134.968 158.856 134.968C158.193 134.968 157.666 135.183 157.274 135.612C156.882 136.032 156.686 136.644 156.686 137.446V141.674H155.412V134.002H156.686V135.108C156.938 134.707 157.274 134.399 157.694 134.184C158.123 133.97 158.595 133.862 159.108 133.862C159.752 133.862 160.321 134.007 160.816 134.296C161.311 134.586 161.679 135.01 161.922 135.57C162.137 135.029 162.491 134.609 162.986 134.31C163.481 134.012 164.031 133.862 164.638 133.862ZM169.36 137.81C169.36 137.026 169.518 136.34 169.836 135.752C170.153 135.155 170.587 134.693 171.138 134.366C171.698 134.04 172.318 133.876 173 133.876C173.672 133.876 174.255 134.021 174.75 134.31C175.244 134.6 175.613 134.964 175.856 135.402V134.002H177.144V141.674H175.856V140.246C175.604 140.694 175.226 141.068 174.722 141.366C174.227 141.656 173.648 141.8 172.986 141.8C172.304 141.8 171.688 141.632 171.138 141.296C170.587 140.96 170.153 140.489 169.836 139.882C169.518 139.276 169.36 138.585 169.36 137.81ZM175.856 137.824C175.856 137.246 175.739 136.742 175.506 136.312C175.272 135.883 174.955 135.556 174.554 135.332C174.162 135.099 173.728 134.982 173.252 134.982C172.776 134.982 172.342 135.094 171.95 135.318C171.558 135.542 171.245 135.869 171.012 136.298C170.778 136.728 170.662 137.232 170.662 137.81C170.662 138.398 170.778 138.912 171.012 139.35C171.245 139.78 171.558 140.111 171.95 140.344C172.342 140.568 172.776 140.68 173.252 140.68C173.728 140.68 174.162 140.568 174.554 140.344C174.955 140.111 175.272 139.78 175.506 139.35C175.739 138.912 175.856 138.403 175.856 137.824ZM180.851 135.052V139.574C180.851 139.948 180.93 140.214 181.089 140.372C181.247 140.522 181.523 140.596 181.915 140.596H182.853V141.674H181.705C180.995 141.674 180.463 141.511 180.109 141.184C179.754 140.858 179.577 140.321 179.577 139.574V135.052H178.583V134.002H179.577V132.07H180.851V134.002H182.853V135.052H180.851ZM185.054 132.756C184.812 132.756 184.606 132.672 184.438 132.504C184.27 132.336 184.186 132.131 184.186 131.888C184.186 131.646 184.27 131.44 184.438 131.272C184.606 131.104 184.812 131.02 185.054 131.02C185.288 131.02 185.484 131.104 185.642 131.272C185.81 131.44 185.894 131.646 185.894 131.888C185.894 132.131 185.81 132.336 185.642 132.504C185.484 132.672 185.288 132.756 185.054 132.756ZM185.67 134.002V141.674H184.396V134.002H185.67ZM187.366 137.824C187.366 137.031 187.524 136.34 187.842 135.752C188.159 135.155 188.598 134.693 189.158 134.366C189.727 134.04 190.376 133.876 191.104 133.876C192.046 133.876 192.821 134.105 193.428 134.562C194.044 135.02 194.45 135.654 194.646 136.466H193.274C193.143 136 192.886 135.631 192.504 135.36C192.13 135.09 191.664 134.954 191.104 134.954C190.376 134.954 189.788 135.206 189.34 135.71C188.892 136.205 188.668 136.91 188.668 137.824C188.668 138.748 188.892 139.462 189.34 139.966C189.788 140.47 190.376 140.722 191.104 140.722C191.664 140.722 192.13 140.592 192.504 140.33C192.877 140.069 193.134 139.696 193.274 139.21H194.646C194.44 139.994 194.03 140.624 193.414 141.1C192.798 141.567 192.028 141.8 191.104 141.8C190.376 141.8 189.727 141.637 189.158 141.31C188.598 140.984 188.159 140.522 187.842 139.924C187.524 139.327 187.366 138.627 187.366 137.824ZM195.87 137.81C195.87 137.026 196.028 136.34 196.346 135.752C196.663 135.155 197.097 134.693 197.648 134.366C198.208 134.04 198.828 133.876 199.51 133.876C200.182 133.876 200.765 134.021 201.26 134.31C201.754 134.6 202.123 134.964 202.366 135.402V134.002H203.654V141.674H202.366V140.246C202.114 140.694 201.736 141.068 201.232 141.366C200.737 141.656 200.158 141.8 199.496 141.8C198.814 141.8 198.198 141.632 197.648 141.296C197.097 140.96 196.663 140.489 196.346 139.882C196.028 139.276 195.87 138.585 195.87 137.81ZM202.366 137.824C202.366 137.246 202.249 136.742 202.016 136.312C201.782 135.883 201.465 135.556 201.064 135.332C200.672 135.099 200.238 134.982 199.762 134.982C199.286 134.982 198.852 135.094 198.46 135.318C198.068 135.542 197.755 135.869 197.522 136.298C197.288 136.728 197.172 137.232 197.172 137.81C197.172 138.398 197.288 138.912 197.522 139.35C197.755 139.78 198.068 140.111 198.46 140.344C198.852 140.568 199.286 140.68 199.762 140.68C200.238 140.68 200.672 140.568 201.064 140.344C201.465 140.111 201.782 139.78 202.016 139.35C202.249 138.912 202.366 138.403 202.366 137.824ZM207.081 131.314V141.674H205.807V131.314H207.081ZM210.526 131.314V141.674H209.252V131.314H210.526ZM219.305 134.002L214.685 145.286H213.369L214.881 141.59L211.787 134.002H213.201L215.609 140.218L217.989 134.002H219.305ZM225.592 135.43C225.854 134.973 226.236 134.6 226.74 134.31C227.244 134.021 227.818 133.876 228.462 133.876C229.153 133.876 229.774 134.04 230.324 134.366C230.875 134.693 231.309 135.155 231.626 135.752C231.944 136.34 232.102 137.026 232.102 137.81C232.102 138.585 231.944 139.276 231.626 139.882C231.309 140.489 230.87 140.96 230.31 141.296C229.76 141.632 229.144 141.8 228.462 141.8C227.8 141.8 227.216 141.656 226.712 141.366C226.218 141.077 225.844 140.708 225.592 140.26V141.674H224.318V131.314H225.592V135.43ZM230.8 137.81C230.8 137.232 230.684 136.728 230.45 136.298C230.217 135.869 229.9 135.542 229.498 135.318C229.106 135.094 228.672 134.982 228.196 134.982C227.73 134.982 227.296 135.099 226.894 135.332C226.502 135.556 226.185 135.888 225.942 136.326C225.709 136.756 225.592 137.255 225.592 137.824C225.592 138.403 225.709 138.912 225.942 139.35C226.185 139.78 226.502 140.111 226.894 140.344C227.296 140.568 227.73 140.68 228.196 140.68C228.672 140.68 229.106 140.568 229.498 140.344C229.9 140.111 230.217 139.78 230.45 139.35C230.684 138.912 230.8 138.398 230.8 137.81ZM233.303 137.81C233.303 137.026 233.462 136.34 233.779 135.752C234.097 135.155 234.531 134.693 235.081 134.366C235.641 134.04 236.262 133.876 236.943 133.876C237.615 133.876 238.199 134.021 238.693 134.31C239.188 134.6 239.557 134.964 239.799 135.402V134.002H241.087V141.674H239.799V140.246C239.547 140.694 239.169 141.068 238.665 141.366C238.171 141.656 237.592 141.8 236.929 141.8C236.248 141.8 235.632 141.632 235.081 141.296C234.531 140.96 234.097 140.489 233.779 139.882C233.462 139.276 233.303 138.585 233.303 137.81ZM239.799 137.824C239.799 137.246 239.683 136.742 239.449 136.312C239.216 135.883 238.899 135.556 238.497 135.332C238.105 135.099 237.671 134.982 237.195 134.982C236.719 134.982 236.285 135.094 235.893 135.318C235.501 135.542 235.189 135.869 234.955 136.298C234.722 136.728 234.605 137.232 234.605 137.81C234.605 138.398 234.722 138.912 234.955 139.35C235.189 139.78 235.501 140.111 235.893 140.344C236.285 140.568 236.719 140.68 237.195 140.68C237.671 140.68 238.105 140.568 238.497 140.344C238.899 140.111 239.216 139.78 239.449 139.35C239.683 138.912 239.799 138.403 239.799 137.824ZM245.956 141.8C245.368 141.8 244.841 141.702 244.374 141.506C243.907 141.301 243.539 141.021 243.268 140.666C242.997 140.302 242.848 139.887 242.82 139.42H244.136C244.173 139.803 244.351 140.116 244.668 140.358C244.995 140.601 245.419 140.722 245.942 140.722C246.427 140.722 246.81 140.615 247.09 140.4C247.37 140.186 247.51 139.915 247.51 139.588C247.51 139.252 247.361 139.005 247.062 138.846C246.763 138.678 246.301 138.515 245.676 138.356C245.107 138.207 244.64 138.058 244.276 137.908C243.921 137.75 243.613 137.521 243.352 137.222C243.1 136.914 242.974 136.513 242.974 136.018C242.974 135.626 243.091 135.267 243.324 134.94C243.557 134.614 243.889 134.357 244.318 134.17C244.747 133.974 245.237 133.876 245.788 133.876C246.637 133.876 247.323 134.091 247.846 134.52C248.369 134.95 248.649 135.538 248.686 136.284H247.412C247.384 135.883 247.221 135.561 246.922 135.318C246.633 135.076 246.241 134.954 245.746 134.954C245.289 134.954 244.925 135.052 244.654 135.248C244.383 135.444 244.248 135.701 244.248 136.018C244.248 136.27 244.327 136.48 244.486 136.648C244.654 136.807 244.859 136.938 245.102 137.04C245.354 137.134 245.699 137.241 246.138 137.362C246.689 137.512 247.137 137.661 247.482 137.81C247.827 137.95 248.121 138.165 248.364 138.454C248.616 138.744 248.747 139.122 248.756 139.588C248.756 140.008 248.639 140.386 248.406 140.722C248.173 141.058 247.841 141.324 247.412 141.52C246.992 141.707 246.507 141.8 245.956 141.8ZM257.555 137.544C257.555 137.787 257.541 138.044 257.513 138.314H251.381C251.427 139.07 251.684 139.663 252.151 140.092C252.627 140.512 253.201 140.722 253.873 140.722C254.423 140.722 254.881 140.596 255.245 140.344C255.618 140.083 255.879 139.738 256.029 139.308H257.401C257.195 140.046 256.785 140.648 256.169 141.114C255.553 141.572 254.787 141.8 253.873 141.8C253.145 141.8 252.491 141.637 251.913 141.31C251.343 140.984 250.895 140.522 250.569 139.924C250.242 139.318 250.079 138.618 250.079 137.824C250.079 137.031 250.237 136.336 250.555 135.738C250.872 135.141 251.315 134.684 251.885 134.366C252.463 134.04 253.126 133.876 253.873 133.876C254.601 133.876 255.245 134.035 255.805 134.352C256.365 134.67 256.794 135.108 257.093 135.668C257.401 136.219 257.555 136.844 257.555 137.544ZM256.239 137.278C256.239 136.793 256.131 136.378 255.917 136.032C255.702 135.678 255.408 135.412 255.035 135.234C254.671 135.048 254.265 134.954 253.817 134.954C253.173 134.954 252.622 135.16 252.165 135.57C251.717 135.981 251.46 136.55 251.395 137.278H256.239ZM258.76 137.81C258.76 137.026 258.919 136.34 259.236 135.752C259.554 135.155 259.988 134.693 260.538 134.366C261.098 134.04 261.724 133.876 262.414 133.876C263.012 133.876 263.567 134.016 264.08 134.296C264.594 134.567 264.986 134.926 265.256 135.374V131.314H266.544V141.674H265.256V140.232C265.004 140.69 264.631 141.068 264.136 141.366C263.642 141.656 263.063 141.8 262.4 141.8C261.719 141.8 261.098 141.632 260.538 141.296C259.988 140.96 259.554 140.489 259.236 139.882C258.919 139.276 258.76 138.585 258.76 137.81ZM265.256 137.824C265.256 137.246 265.14 136.742 264.906 136.312C264.673 135.883 264.356 135.556 263.954 135.332C263.562 135.099 263.128 134.982 262.652 134.982C262.176 134.982 261.742 135.094 261.35 135.318C260.958 135.542 260.646 135.869 260.412 136.298C260.179 136.728 260.062 137.232 260.062 137.81C260.062 138.398 260.179 138.912 260.412 139.35C260.646 139.78 260.958 140.111 261.35 140.344C261.742 140.568 262.176 140.68 262.652 140.68C263.128 140.68 263.562 140.568 263.954 140.344C264.356 140.111 264.673 139.78 264.906 139.35C265.14 138.912 265.256 138.403 265.256 137.824ZM56.424 165.8C55.7053 165.8 55.052 165.637 54.464 165.31C53.8853 164.984 53.428 164.522 53.092 163.924C52.7653 163.318 52.602 162.618 52.602 161.824C52.602 161.04 52.77 160.35 53.106 159.752C53.4513 159.146 53.918 158.684 54.506 158.366C55.094 158.04 55.752 157.876 56.48 157.876C57.208 157.876 57.866 158.04 58.454 158.366C59.042 158.684 59.504 159.141 59.84 159.738C60.1853 160.336 60.358 161.031 60.358 161.824C60.358 162.618 60.1807 163.318 59.826 163.924C59.4807 164.522 59.0093 164.984 58.412 165.31C57.8147 165.637 57.152 165.8 56.424 165.8ZM56.424 164.68C56.8813 164.68 57.3107 164.573 57.712 164.358C58.1133 164.144 58.4353 163.822 58.678 163.392C58.93 162.963 59.056 162.44 59.056 161.824C59.056 161.208 58.9347 160.686 58.692 160.256C58.4493 159.827 58.132 159.51 57.74 159.304C57.348 159.09 56.9233 158.982 56.466 158.982C55.9993 158.982 55.57 159.09 55.178 159.304C54.7953 159.51 54.4873 159.827 54.254 160.256C54.0207 160.686 53.904 161.208 53.904 161.824C53.904 162.45 54.016 162.977 54.24 163.406C54.4733 163.836 54.7813 164.158 55.164 164.372C55.5467 164.578 55.9667 164.68 56.424 164.68ZM65.7711 157.862C66.7044 157.862 67.4604 158.147 68.0391 158.716C68.6177 159.276 68.9071 160.088 68.9071 161.152V165.674H67.6471V161.334C67.6471 160.569 67.4557 159.986 67.0731 159.584C66.6904 159.174 66.1677 158.968 65.5051 158.968C64.8331 158.968 64.2964 159.178 63.8951 159.598C63.5031 160.018 63.3071 160.63 63.3071 161.432V165.674H62.0331V158.002H63.3071V159.094C63.5591 158.702 63.8997 158.399 64.3291 158.184C64.7677 157.97 65.2484 157.862 65.7711 157.862ZM131.263 165.8C130.675 165.8 130.147 165.702 129.681 165.506C129.214 165.301 128.845 165.021 128.575 164.666C128.304 164.302 128.155 163.887 128.127 163.42H129.443C129.48 163.803 129.657 164.116 129.975 164.358C130.301 164.601 130.726 164.722 131.249 164.722C131.734 164.722 132.117 164.615 132.397 164.4C132.677 164.186 132.817 163.915 132.817 163.588C132.817 163.252 132.667 163.005 132.369 162.846C132.07 162.678 131.608 162.515 130.983 162.356C130.413 162.207 129.947 162.058 129.583 161.908C129.228 161.75 128.92 161.521 128.659 161.222C128.407 160.914 128.281 160.513 128.281 160.018C128.281 159.626 128.397 159.267 128.631 158.94C128.864 158.614 129.195 158.357 129.625 158.17C130.054 157.974 130.544 157.876 131.095 157.876C131.944 157.876 132.63 158.091 133.153 158.52C133.675 158.95 133.955 159.538 133.993 160.284H132.719C132.691 159.883 132.527 159.561 132.229 159.318C131.939 159.076 131.547 158.954 131.053 158.954C130.595 158.954 130.231 159.052 129.961 159.248C129.69 159.444 129.555 159.701 129.555 160.018C129.555 160.27 129.634 160.48 129.793 160.648C129.961 160.807 130.166 160.938 130.409 161.04C130.661 161.134 131.006 161.241 131.445 161.362C131.995 161.512 132.443 161.661 132.789 161.81C133.134 161.95 133.428 162.165 133.671 162.454C133.923 162.744 134.053 163.122 134.063 163.588C134.063 164.008 133.946 164.386 133.713 164.722C133.479 165.058 133.148 165.324 132.719 165.52C132.299 165.707 131.813 165.8 131.263 165.8ZM142.861 161.544C142.861 161.787 142.847 162.044 142.819 162.314H136.687C136.734 163.07 136.991 163.663 137.457 164.092C137.933 164.512 138.507 164.722 139.179 164.722C139.73 164.722 140.187 164.596 140.551 164.344C140.925 164.083 141.186 163.738 141.335 163.308H142.707C142.502 164.046 142.091 164.648 141.475 165.114C140.859 165.572 140.094 165.8 139.179 165.8C138.451 165.8 137.798 165.637 137.219 165.31C136.65 164.984 136.202 164.522 135.875 163.924C135.549 163.318 135.385 162.618 135.385 161.824C135.385 161.031 135.544 160.336 135.861 159.738C136.179 159.141 136.622 158.684 137.191 158.366C137.77 158.04 138.433 157.876 139.179 157.876C139.907 157.876 140.551 158.035 141.111 158.352C141.671 158.67 142.101 159.108 142.399 159.668C142.707 160.219 142.861 160.844 142.861 161.544ZM141.545 161.278C141.545 160.793 141.438 160.378 141.223 160.032C141.009 159.678 140.715 159.412 140.341 159.234C139.977 159.048 139.571 158.954 139.123 158.954C138.479 158.954 137.929 159.16 137.471 159.57C137.023 159.981 136.767 160.55 136.701 161.278H141.545ZM148.281 157.862C149.214 157.862 149.97 158.147 150.549 158.716C151.128 159.276 151.417 160.088 151.417 161.152V165.674H150.157V161.334C150.157 160.569 149.966 159.986 149.583 159.584C149.2 159.174 148.678 158.968 148.015 158.968C147.343 158.968 146.806 159.178 146.405 159.598C146.013 160.018 145.817 160.63 145.817 161.432V165.674H144.543V158.002H145.817V159.094C146.069 158.702 146.41 158.399 146.839 158.184C147.278 157.97 147.758 157.862 148.281 157.862ZM155.052 159.052V163.574C155.052 163.948 155.131 164.214 155.29 164.372C155.449 164.522 155.724 164.596 156.116 164.596H157.054V165.674H155.906C155.197 165.674 154.665 165.511 154.31 165.184C153.955 164.858 153.778 164.321 153.778 163.574V159.052H152.784V158.002H153.778V156.07H155.052V158.002H157.054V159.052H155.052ZM159.256 156.756C159.013 156.756 158.808 156.672 158.64 156.504C158.472 156.336 158.388 156.131 158.388 155.888C158.388 155.646 158.472 155.44 158.64 155.272C158.808 155.104 159.013 155.02 159.256 155.02C159.489 155.02 159.685 155.104 159.844 155.272C160.012 155.44 160.096 155.646 160.096 155.888C160.096 156.131 160.012 156.336 159.844 156.504C159.685 156.672 159.489 156.756 159.256 156.756ZM159.872 158.002V165.674H158.598V158.002H159.872ZM171.269 157.862C171.866 157.862 172.398 157.988 172.865 158.24C173.332 158.483 173.7 158.852 173.971 159.346C174.242 159.841 174.377 160.443 174.377 161.152V165.674H173.117V161.334C173.117 160.569 172.926 159.986 172.543 159.584C172.17 159.174 171.661 158.968 171.017 158.968C170.354 158.968 169.827 159.183 169.435 159.612C169.043 160.032 168.847 160.644 168.847 161.446V165.674H167.587V161.334C167.587 160.569 167.396 159.986 167.013 159.584C166.64 159.174 166.131 158.968 165.487 158.968C164.824 158.968 164.297 159.183 163.905 159.612C163.513 160.032 163.317 160.644 163.317 161.446V165.674H162.043V158.002H163.317V159.108C163.569 158.707 163.905 158.399 164.325 158.184C164.754 157.97 165.226 157.862 165.739 157.862C166.383 157.862 166.952 158.007 167.447 158.296C167.942 158.586 168.31 159.01 168.553 159.57C168.768 159.029 169.122 158.609 169.617 158.31C170.112 158.012 170.662 157.862 171.269 157.862ZM183.467 161.544C183.467 161.787 183.453 162.044 183.425 162.314H177.293C177.339 163.07 177.596 163.663 178.063 164.092C178.539 164.512 179.113 164.722 179.785 164.722C180.335 164.722 180.793 164.596 181.157 164.344C181.53 164.083 181.791 163.738 181.941 163.308H183.313C183.107 164.046 182.697 164.648 182.081 165.114C181.465 165.572 180.699 165.8 179.785 165.8C179.057 165.8 178.403 165.637 177.825 165.31C177.255 164.984 176.807 164.522 176.481 163.924C176.154 163.318 175.991 162.618 175.991 161.824C175.991 161.031 176.149 160.336 176.467 159.738C176.784 159.141 177.227 158.684 177.797 158.366C178.375 158.04 179.038 157.876 179.785 157.876C180.513 157.876 181.157 158.035 181.717 158.352C182.277 158.67 182.706 159.108 183.005 159.668C183.313 160.219 183.467 160.844 183.467 161.544ZM182.151 161.278C182.151 160.793 182.043 160.378 181.829 160.032C181.614 159.678 181.32 159.412 180.947 159.234C180.583 159.048 180.177 158.954 179.729 158.954C179.085 158.954 178.534 159.16 178.077 159.57C177.629 159.981 177.372 160.55 177.307 161.278H182.151ZM188.886 157.862C189.82 157.862 190.576 158.147 191.154 158.716C191.733 159.276 192.022 160.088 192.022 161.152V165.674H190.762V161.334C190.762 160.569 190.571 159.986 190.188 159.584C189.806 159.174 189.283 158.968 188.62 158.968C187.948 158.968 187.412 159.178 187.01 159.598C186.618 160.018 186.422 160.63 186.422 161.432V165.674H185.148V158.002H186.422V159.094C186.674 158.702 187.015 158.399 187.444 158.184C187.883 157.97 188.364 157.862 188.886 157.862ZM195.657 159.052V163.574C195.657 163.948 195.737 164.214 195.895 164.372C196.054 164.522 196.329 164.596 196.721 164.596H197.659V165.674H196.511C195.802 165.674 195.27 165.511 194.915 165.184C194.561 164.858 194.383 164.321 194.383 163.574V159.052H193.389V158.002H194.383V156.07H195.657V158.002H197.659V159.052H195.657Z" fill="#090136"/>
<path d="M135.317 113.824C135.317 113.031 135.476 112.34 135.793 111.752C136.11 111.155 136.549 110.693 137.109 110.366C137.678 110.04 138.327 109.876 139.055 109.876C139.998 109.876 140.772 110.105 141.379 110.562C141.995 111.02 142.401 111.654 142.597 112.466H141.225C141.094 112 140.838 111.631 140.455 111.36C140.082 111.09 139.615 110.954 139.055 110.954C138.327 110.954 137.739 111.206 137.291 111.71C136.843 112.205 136.619 112.91 136.619 113.824C136.619 114.748 136.843 115.462 137.291 115.966C137.739 116.47 138.327 116.722 139.055 116.722C139.615 116.722 140.082 116.592 140.455 116.33C140.828 116.069 141.085 115.696 141.225 115.21H142.597C142.392 115.994 141.981 116.624 141.365 117.1C140.749 117.567 139.979 117.8 139.055 117.8C138.327 117.8 137.678 117.637 137.109 117.31C136.549 116.984 136.11 116.522 135.793 115.924C135.476 115.327 135.317 114.627 135.317 113.824ZM147.643 117.8C146.924 117.8 146.271 117.637 145.683 117.31C145.104 116.984 144.647 116.522 144.311 115.924C143.984 115.318 143.821 114.618 143.821 113.824C143.821 113.04 143.989 112.35 144.325 111.752C144.67 111.146 145.137 110.684 145.725 110.366C146.313 110.04 146.971 109.876 147.699 109.876C148.427 109.876 149.085 110.04 149.673 110.366C150.261 110.684 150.723 111.141 151.059 111.738C151.404 112.336 151.577 113.031 151.577 113.824C151.577 114.618 151.399 115.318 151.045 115.924C150.699 116.522 150.228 116.984 149.631 117.31C149.033 117.637 148.371 117.8 147.643 117.8ZM147.643 116.68C148.1 116.68 148.529 116.573 148.931 116.358C149.332 116.144 149.654 115.822 149.897 115.392C150.149 114.963 150.275 114.44 150.275 113.824C150.275 113.208 150.153 112.686 149.911 112.256C149.668 111.827 149.351 111.51 148.959 111.304C148.567 111.09 148.142 110.982 147.685 110.982C147.218 110.982 146.789 111.09 146.397 111.304C146.014 111.51 145.706 111.827 145.473 112.256C145.239 112.686 145.123 113.208 145.123 113.824C145.123 114.45 145.235 114.977 145.459 115.406C145.692 115.836 146 116.158 146.383 116.372C146.765 116.578 147.185 116.68 147.643 116.68ZM156.99 109.862C157.923 109.862 158.679 110.147 159.258 110.716C159.836 111.276 160.126 112.088 160.126 113.152V117.674H158.866V113.334C158.866 112.569 158.674 111.986 158.292 111.584C157.909 111.174 157.386 110.968 156.724 110.968C156.052 110.968 155.515 111.178 155.114 111.598C154.722 112.018 154.526 112.63 154.526 113.432V117.674H153.252V110.002H154.526V111.094C154.778 110.702 155.118 110.399 155.548 110.184C155.986 109.97 156.467 109.862 156.99 109.862ZM161.731 113.81C161.731 113.026 161.89 112.34 162.207 111.752C162.524 111.155 162.958 110.693 163.509 110.366C164.069 110.04 164.694 109.876 165.385 109.876C165.982 109.876 166.538 110.016 167.051 110.296C167.564 110.567 167.956 110.926 168.227 111.374V107.314H169.515V117.674H168.227V116.232C167.975 116.69 167.602 117.068 167.107 117.366C166.612 117.656 166.034 117.8 165.371 117.8C164.69 117.8 164.069 117.632 163.509 117.296C162.958 116.96 162.524 116.489 162.207 115.882C161.89 115.276 161.731 114.585 161.731 113.81ZM168.227 113.824C168.227 113.246 168.11 112.742 167.877 112.312C167.644 111.883 167.326 111.556 166.925 111.332C166.533 111.099 166.099 110.982 165.623 110.982C165.147 110.982 164.713 111.094 164.321 111.318C163.929 111.542 163.616 111.869 163.383 112.298C163.15 112.728 163.033 113.232 163.033 113.81C163.033 114.398 163.15 114.912 163.383 115.35C163.616 115.78 163.929 116.111 164.321 116.344C164.713 116.568 165.147 116.68 165.623 116.68C166.099 116.68 166.533 116.568 166.925 116.344C167.326 116.111 167.644 115.78 167.877 115.35C168.11 114.912 168.227 114.403 168.227 113.824ZM172.326 108.756C172.083 108.756 171.878 108.672 171.71 108.504C171.542 108.336 171.458 108.131 171.458 107.888C171.458 107.646 171.542 107.44 171.71 107.272C171.878 107.104 172.083 107.02 172.326 107.02C172.559 107.02 172.755 107.104 172.914 107.272C173.082 107.44 173.166 107.646 173.166 107.888C173.166 108.131 173.082 108.336 172.914 108.504C172.755 108.672 172.559 108.756 172.326 108.756ZM172.942 110.002V117.674H171.668V110.002H172.942ZM176.667 111.052V115.574C176.667 115.948 176.746 116.214 176.905 116.372C177.064 116.522 177.339 116.596 177.731 116.596H178.669V117.674H177.521C176.812 117.674 176.28 117.511 175.925 117.184C175.57 116.858 175.393 116.321 175.393 115.574V111.052H174.399V110.002H175.393V108.07H176.667V110.002H178.669V111.052H176.667ZM180.871 108.756C180.628 108.756 180.423 108.672 180.255 108.504C180.087 108.336 180.003 108.131 180.003 107.888C180.003 107.646 180.087 107.44 180.255 107.272C180.423 107.104 180.628 107.02 180.871 107.02C181.104 107.02 181.3 107.104 181.459 107.272C181.627 107.44 181.711 107.646 181.711 107.888C181.711 108.131 181.627 108.336 181.459 108.504C181.3 108.672 181.104 108.756 180.871 108.756ZM181.487 110.002V117.674H180.213V110.002H181.487ZM187.004 117.8C186.285 117.8 185.632 117.637 185.044 117.31C184.465 116.984 184.008 116.522 183.672 115.924C183.345 115.318 183.182 114.618 183.182 113.824C183.182 113.04 183.35 112.35 183.686 111.752C184.031 111.146 184.498 110.684 185.086 110.366C185.674 110.04 186.332 109.876 187.06 109.876C187.788 109.876 188.446 110.04 189.034 110.366C189.622 110.684 190.084 111.141 190.42 111.738C190.765 112.336 190.938 113.031 190.938 113.824C190.938 114.618 190.761 115.318 190.406 115.924C190.061 116.522 189.589 116.984 188.992 117.31C188.395 117.637 187.732 117.8 187.004 117.8ZM187.004 116.68C187.461 116.68 187.891 116.573 188.292 116.358C188.693 116.144 189.015 115.822 189.258 115.392C189.51 114.963 189.636 114.44 189.636 113.824C189.636 113.208 189.515 112.686 189.272 112.256C189.029 111.827 188.712 111.51 188.32 111.304C187.928 111.09 187.503 110.982 187.046 110.982C186.579 110.982 186.15 111.09 185.758 111.304C185.375 111.51 185.067 111.827 184.834 112.256C184.601 112.686 184.484 113.208 184.484 113.824C184.484 114.45 184.596 114.977 184.82 115.406C185.053 115.836 185.361 116.158 185.744 116.372C186.127 116.578 186.547 116.68 187.004 116.68ZM196.351 109.862C197.284 109.862 198.04 110.147 198.619 110.716C199.198 111.276 199.487 112.088 199.487 113.152V117.674H198.227V113.334C198.227 112.569 198.036 111.986 197.653 111.584C197.27 111.174 196.748 110.968 196.085 110.968C195.413 110.968 194.876 111.178 194.475 111.598C194.083 112.018 193.887 112.63 193.887 113.432V117.674H192.613V110.002H193.887V111.094C194.139 110.702 194.48 110.399 194.909 110.184C195.348 109.97 195.828 109.862 196.351 109.862ZM204.284 117.8C203.696 117.8 203.169 117.702 202.702 117.506C202.236 117.301 201.867 117.021 201.596 116.666C201.326 116.302 201.176 115.887 201.148 115.42H202.464C202.502 115.803 202.679 116.116 202.996 116.358C203.323 116.601 203.748 116.722 204.27 116.722C204.756 116.722 205.138 116.615 205.418 116.4C205.698 116.186 205.838 115.915 205.838 115.588C205.838 115.252 205.689 115.005 205.39 114.846C205.092 114.678 204.63 114.515 204.004 114.356C203.435 114.207 202.968 114.058 202.604 113.908C202.25 113.75 201.942 113.521 201.68 113.222C201.428 112.914 201.302 112.513 201.302 112.018C201.302 111.626 201.419 111.267 201.652 110.94C201.886 110.614 202.217 110.357 202.646 110.17C203.076 109.974 203.566 109.876 204.116 109.876C204.966 109.876 205.652 110.091 206.174 110.52C206.697 110.95 206.977 111.538 207.014 112.284H205.74C205.712 111.883 205.549 111.561 205.25 111.318C204.961 111.076 204.569 110.954 204.074 110.954C203.617 110.954 203.253 111.052 202.982 111.248C202.712 111.444 202.576 111.701 202.576 112.018C202.576 112.27 202.656 112.48 202.814 112.648C202.982 112.807 203.188 112.938 203.43 113.04C203.682 113.134 204.028 113.241 204.466 113.362C205.017 113.512 205.465 113.661 205.81 113.81C206.156 113.95 206.45 114.165 206.692 114.454C206.944 114.744 207.075 115.122 207.084 115.588C207.084 116.008 206.968 116.386 206.734 116.722C206.501 117.058 206.17 117.324 205.74 117.52C205.32 117.707 204.835 117.8 204.284 117.8ZM83.9466 157.862C84.5439 157.862 85.0759 157.988 85.5426 158.24C86.0092 158.483 86.3779 158.852 86.6486 159.346C86.9192 159.841 87.0546 160.443 87.0546 161.152V165.674H85.7946V161.334C85.7946 160.569 85.6032 159.986 85.2206 159.584C84.8472 159.174 84.3386 158.968 83.6946 158.968C83.0319 158.968 82.5046 159.183 82.1126 159.612C81.7206 160.032 81.5246 160.644 81.5246 161.446V165.674H80.2646V161.334C80.2646 160.569 80.0732 159.986 79.6906 159.584C79.3172 159.174 78.8086 158.968 78.1646 158.968C77.5019 158.968 76.9746 159.183 76.5826 159.612C76.1906 160.032 75.9946 160.644 75.9946 161.446V165.674H74.7206V158.002H75.9946V159.108C76.2466 158.707 76.5826 158.399 77.0026 158.184C77.4319 157.97 77.9032 157.862 78.4166 157.862C79.0606 157.862 79.6299 158.007 80.1246 158.296C80.6192 158.586 80.9879 159.01 81.2306 159.57C81.4452 159.029 81.7999 158.609 82.2946 158.31C82.7892 158.012 83.3399 157.862 83.9466 157.862ZM88.6684 161.81C88.6684 161.026 88.8271 160.34 89.1444 159.752C89.4617 159.155 89.8957 158.693 90.4464 158.366C91.0064 158.04 91.6271 157.876 92.3084 157.876C92.9804 157.876 93.5637 158.021 94.0584 158.31C94.5531 158.6 94.9217 158.964 95.1644 159.402V158.002H96.4524V165.674H95.1644V164.246C94.9124 164.694 94.5344 165.068 94.0304 165.366C93.5357 165.656 92.9571 165.8 92.2944 165.8C91.6131 165.8 90.9971 165.632 90.4464 165.296C89.8957 164.96 89.4617 164.489 89.1444 163.882C88.8271 163.276 88.6684 162.585 88.6684 161.81ZM95.1644 161.824C95.1644 161.246 95.0477 160.742 94.8144 160.312C94.5811 159.883 94.2637 159.556 93.8624 159.332C93.4704 159.099 93.0364 158.982 92.5604 158.982C92.0844 158.982 91.6504 159.094 91.2584 159.318C90.8664 159.542 90.5537 159.869 90.3204 160.298C90.0871 160.728 89.9704 161.232 89.9704 161.81C89.9704 162.398 90.0871 162.912 90.3204 163.35C90.5537 163.78 90.8664 164.111 91.2584 164.344C91.6504 164.568 92.0844 164.68 92.5604 164.68C93.0364 164.68 93.4704 164.568 93.8624 164.344C94.2637 164.111 94.5811 163.78 94.8144 163.35C95.0477 162.912 95.1644 162.403 95.1644 161.824ZM99.8793 159.248C100.103 158.81 100.421 158.469 100.831 158.226C101.251 157.984 101.76 157.862 102.357 157.862V159.178H102.021C100.593 159.178 99.8793 159.953 99.8793 161.502V165.674H98.6053V158.002H99.8793V159.248ZM108.112 165.674L105.102 162.286V165.674H103.828V155.314H105.102V161.404L108.056 158.002H109.834L106.222 161.824L109.848 165.674H108.112ZM118.033 161.544C118.033 161.787 118.019 162.044 117.991 162.314H111.859C111.906 163.07 112.162 163.663 112.629 164.092C113.105 164.512 113.679 164.722 114.351 164.722C114.902 164.722 115.359 164.596 115.723 164.344C116.096 164.083 116.358 163.738 116.507 163.308H117.879C117.674 164.046 117.263 164.648 116.647 165.114C116.031 165.572 115.266 165.8 114.351 165.8C113.623 165.8 112.97 165.637 112.391 165.31C111.822 164.984 111.374 164.522 111.047 163.924C110.72 163.318 110.557 162.618 110.557 161.824C110.557 161.031 110.716 160.336 111.033 159.738C111.35 159.141 111.794 158.684 112.363 158.366C112.942 158.04 113.604 157.876 114.351 157.876C115.079 157.876 115.723 158.035 116.283 158.352C116.843 158.67 117.272 159.108 117.571 159.668C117.879 160.219 118.033 160.844 118.033 161.544ZM116.717 161.278C116.717 160.793 116.61 160.378 116.395 160.032C116.18 159.678 115.886 159.412 115.513 159.234C115.149 159.048 114.743 158.954 114.295 158.954C113.651 158.954 113.1 159.16 112.643 159.57C112.195 159.981 111.938 160.55 111.873 161.278H116.717ZM121.269 159.052V163.574C121.269 163.948 121.348 164.214 121.507 164.372C121.665 164.522 121.941 164.596 122.333 164.596H123.271V165.674H122.123C121.413 165.674 120.881 165.511 120.527 165.184C120.172 164.858 119.995 164.321 119.995 163.574V159.052H119.001V158.002H119.995V156.07H121.269V158.002H123.271V159.052H121.269Z" fill="white"/>
<circle cx="43.5" cy="88.1742" r="2.5" fill="#090136"/>
<circle cx="43.5" cy="113.174" r="2.5" fill="#090136"/>
<circle cx="43.5" cy="137.174" r="2.5" fill="#090136"/>
</svg>
